<?xml version="1.0" encoding="utf-8"?>
<!-- Generator: Adobe Illustrator 23.0.4, SVG Export Plug-In . SVG Version: 6.00 Build 0)  -->
<svg version="1.0" id="Layer_1" xmlns="http://www.w3.org/2000/svg" xmlns:xlink="http://www.w3.org/1999/xlink" x="0px" y="0px"
	 viewBox="0 0 200 200" style="enable-background:new 0 0 200 200;" xml:space="preserve">
<style type="text/css">
	.st0{clip-path:url(#SVGID_2_);}
	.st1{fill:#DCA58E;}
	.st2{fill:#151616;}
	.st3{fill:#323C3D;}
	.st4{fill:none;stroke:#1E1E1E;stroke-width:0.2551;stroke-linecap:round;stroke-linejoin:round;}
	.st5{fill:#3E4849;}
	.st6{fill:#AEAEAE;}
	.st7{fill:#E1AC97;}
	.st8{fill:#E1A98E;}
	.st9{fill:#DCAB8B;}
	.st10{fill:#EABCA5;}
	.st11{fill:#BB8181;}
	.st12{fill:#A97171;}
	.st13{fill:#CD9696;}
	.st14{fill:#A98174;}
	.st15{fill:#7A4A46;}
	.st16{fill:#FFFFFF;}
	.st17{fill:#CDA18D;}
	.st18{fill:#352A20;}
	.st19{fill:#332B22;}
	.st20{fill:#1C1C1C;}
	.st21{fill:#BB8A79;}
	.st22{fill:#DCAE9A;}
	.st23{fill:#2A2432;}
	.st24{fill:#D5A38D;}
	.st25{fill:#EEEEEE;}
	.st26{fill:#FAFCFA;}
	.st27{fill:#D0DCDF;}
	.st28{fill:#F8F8F8;}
	.st29{fill:#D8DEE1;}
	.st30{fill:#2A2C30;}
	.st31{fill:#1E2023;}
	.st32{fill:#E94444;}
	.st33{fill:#DA3131;}
	.st34{fill:#111416;}
	.st35{fill:#27252B;}
	.st36{fill:#211E21;}
	.st37{fill:#201F25;}
	.st38{fill:#020202;}
	.st39{fill:#2F2F33;}
	.st40{fill:#333238;}
	.st41{fill:#19181C;}
	.st42{fill:#110F10;}
	.st43{fill:#3A383D;}
	.st44{fill:#E9E6DE;}
	.st45{fill:#424140;}
	.st46{fill:#2B2B2B;}
	.st47{opacity:0.3;fill:#FFFFFF;}
	.st48{fill:none;stroke:#564E43;stroke-width:0.1011;stroke-miterlimit:10;}
	.st49{fill:#DCA48D;}
</style>
<g>
	<defs>
		<rect id="SVGID_1_" width="200" height="200"/>
	</defs>
	<use xlink:href="#SVGID_1_"  style="overflow:visible;fill:#ECFFF8;"/>
	<clipPath id="SVGID_2_">
		<use xlink:href="#SVGID_1_"  style="overflow:visible;"/>
	</clipPath>
	<g class="st0">
		<g>
			<path class="st1" d="M95.4,448.8l9.6-72.2c0,0-11.7,0.4-48.7-1.3c-37-1.7-47.8-8.7-47.8-8.7s-3.4,22.5-5.7,53.1
				C-6.1,536.1,19,600.4,14.8,626.5c-1.3,8.2-10.4,49.9-11.7,62C2,699.2,13.4,769.2,13.4,778s-16.2,27.7-16.2,27.7l3.9,9.6h51.2
				l2.4-9.6c0,0-10.1-22.9-10.1-27c0-6.6,22.9-76.6,22.9-99.7c0-23.1-7-38.6,2.3-59.1C77.4,602.7,95.4,448.8,95.4,448.8z"/>
			<path class="st1" d="M96.7,448.8l-9.6-72.2c0,0,11.7,0.4,48.7-1.3c37-1.7,47.8-8.7,47.8-8.7s3.4,22.5,5.7,53.1
				c8.9,116.5-16.3,180.8-12.1,206.8c1.3,8.2,10.4,49.9,11.7,62c1.1,10.7-10.2,80.7-10.2,89.5s16.3,27.7,16.3,27.7l-3.9,9.6h-51.2
				l-2.4-9.6c0,0,10.1-22.9,10.1-27c0-6.6-22.9-76.6-22.9-99.7c0-23.1,7-38.6-2.3-59.1C114.6,602.7,96.7,448.8,96.7,448.8z"/>
		</g>
		<g>
			<g>
				<path class="st2" d="M-4.9,805c0,0,0.1,6.4,0.4,7.5c0.3,1.2,7.8,10.7,17.8,13.7c12.6,3.8,18.4,2.5,26.5-0.3
					c9.7-3.4,16.2-12,16.5-13.2c0.4-1.2,0.1-7.8,0.1-7.8H-4.9z"/>
				<g>
					<path class="st3" d="M52.7,796.8c-5.2-7-4.3-12.9-4.3-12.9s-10-2.2-22.3-1.8c-12.3-0.4-16.4,1.8-16.4,1.8s-3.2,5.8-8.5,12.8
						c-5.2,6.7-6,8.2-6,8.2c2.8,9.6,19.8,16.1,29.5,16.1c11.4,0.7,28.9-5.5,31.7-15.1C56.2,806,57.7,803.6,52.7,796.8z"/>
				</g>
				<polyline class="st4" points="10.1,786.1 45.4,789.5 9.3,793.2 47.1,797.4 8.7,797.7 46.4,793.4 10.2,788.7 44.8,785.3 				"/>
			</g>
			<g>
				<path class="st2" d="M197.1,805c0,0-0.1,6.4-0.4,7.5c-0.3,1.2-7.8,10.7-17.8,13.7c-12.6,3.8-18.4,2.5-26.5-0.3
					c-9.7-3.4-16.2-12-16.5-13.2c-0.4-1.2-0.1-7.8-0.1-7.8H197.1z"/>
				<g>
					<g>
						<g>
							<path class="st3" d="M139.5,796.8c5.2-7,4.4-12.9,4.4-12.9s10-2.2,22.3-1.8c12.3-0.4,16.4,1.8,16.4,1.8s3.2,5.8,8.5,12.8
								c5.2,6.7,6,8.2,6,8.2c-2.8,9.6-20,16.1-29.6,16.1c-11.4,0.7-28.7-5.5-31.5-15.1C136,806,134.5,803.6,139.5,796.8z"/>
						</g>
					</g>
				</g>
				<polyline class="st4" points="182.1,786.1 146.8,789.5 182.9,793.2 145.1,797.4 183.5,797.7 145.7,793.4 182,788.7 147.4,785.3 
									"/>
			</g>
			<path class="st5" d="M43,806.8c0,3-7.7,5.5-17.2,5.5c-9.5,0-17.2-2.4-17.2-5.5s7.7-5.5,17.2-5.5C35.3,801.3,43,803.7,43,806.8z"
				/>
			<path class="st5" d="M183.6,806.8c0,3-7.7,5.5-17.2,5.5c-9.5,0-17.2-2.4-17.2-5.5s7.7-5.5,17.2-5.5
				C175.9,801.3,183.6,803.7,183.6,806.8z"/>
		</g>
		<path class="st6" d="M56.4,124.8c0,0,11.1,5.9,16.5,6.2c5.5,0.3,39.8,0.6,43-0.1c3.1-0.7,21.6-6.1,21.6-6.1s-6.5,22.8-11,25.7
			c-4.5,2.9-64.5,0.6-64.5,0.6S55.4,138.5,56.4,124.8z"/>
		<path class="st7" d="M212,167.5c-27.8-13.4-77.7-33.1-79.1-35.3c-1.4-2.2,0-23.9,0-23.9H59.2c0,0,1.4,21.7,0,23.9
			c-1.4,2.2-48.8,21.9-79.1,35.2c-20.6,9,16,82.4,16,82.4S9,318,9.4,322c1.2,12-1.3,49.1-1.3,49.1s0.4,3.3,16.8,6.1
			c16.4,2.8,53.1,4.5,71.1,4.4c18-0.1,54.7-1.6,71.1-4.4c16.4-2.8,16.7-6.1,16.7-6.1s-2.4-37.1-1.2-49.1
			c0.4-4.1,13.3-72.2,13.3-72.2S232,177.1,212,167.5z"/>
		<g>
			<path class="st8" d="M-57.6,237.1l-5,63.9c-4.4,24.1,10.5,114.6,10.5,114.6l30.3-2.4l22-163.8v-90.7c0,0-34.1,12.3-44.7,23.3
				C-60.8,199-57.6,237.1-57.6,237.1z"/>
			<path class="st9" d="M-33.7,491.2c-3.3-3.4-26.6-26.4-27.4-31.3c-1.2-6.9,9.1-44.3,9.1-44.3l30.3-2.4c0,0,6.9,18.9,7.7,21.5
				c0.8,2.7,0,32.4-0.1,33.9c-0.1,1.5-10.2,1.1-10.6-1.1c-0.4-2.2-5.2-18.8-5.2-18.8l0,0l-1.7,17.4c0,0,10.4,14.4,11.7,16.5
				C-19.1,484.2-30.5,494.6-33.7,491.2z"/>
		</g>
		<g>
			<path class="st8" d="M249.9,237.1l5,63.9c4.4,24.1-10.5,114.6-10.5,114.6l-30.2-2.4l-22-163.8v-90.7c0,0,34.1,12.3,44.7,23.3
				C253.2,199,249.9,237.1,249.9,237.1z"/>
			<path class="st9" d="M226.1,491.2c3.3-3.4,26.6-26.4,27.4-31.3c1.2-6.9-9.1-44.3-9.1-44.3l-30.2-2.4c0,0-6.9,18.9-7.7,21.5
				c-0.8,2.7,0,32.4,0.1,33.9c0.1,1.5,10.2,1.1,10.6-1.1c0.4-2.2,5.2-18.8,5.2-18.8l0,0l1.7,17.4c0,0-10.4,14.4-11.7,16.5
				C211.5,484.2,222.8,494.6,226.1,491.2z"/>
		</g>
		<path class="st10" d="M87.8,23.5c6.8-0.4,9.9-0.4,16.7,0c16.3,1,40.4,18.7,38.5,38.3c-0.6,5.7-4.7,42-5.6,44.3
			c-4.1,11.7-20.8,24.6-24.3,27.4c-3.5,2.8-17,3.2-17,3.2s-13.5-0.4-17.1-3.2c-3.5-2.8-21.8-17.9-24.3-27.4
			c-0.6-2.3-5-38.6-5.5-44.3C47.4,42.3,71.5,24.6,87.8,23.5z"/>
		<g>
			<path class="st11" d="M114.7,113.2c0,0-8.3-2.1-10.6-2.5c-2.3-0.4-7.2,0.9-7.9,0.9c-0.7,0-0.1,3.5-0.1,3.5
				S107.6,116.2,114.7,113.2z"/>
			<path class="st12" d="M77.5,113.2c0,0,8.2-2.1,10.5-2.5c2.3-0.4,7.4,0.9,8.1,0.9c0.7,0,0.1,3.5,0.1,3.5S84.6,116.2,77.5,113.2z"
				/>
			<path class="st13" d="M77.5,113.2c0.4,0.3,14.8,1.4,18.6,1.7c3.7-0.3,18.1-1.5,18.7-1.7c0,0-5.3,6.4-13.2,7.4
				c-1.9,0.2-4.8,0.5-5.4,0.5c-0.6,0-3.5-0.3-5.4-0.5C82.1,119.3,77.5,113.2,77.5,113.2z"/>
		</g>
		<g>
			<path class="st14" d="M83.4,99c0.8-0.3,9.8,3.6,12.7,3.6c2.8,0,12-3.9,12.8-3.6c0.8,0.3-0.8,1.8-0.8,1.8c-2.1,1.1-7.4,2-10.6,2.6
				h-2.6c-3.2-0.5-8.5-1.5-10.7-2.6C84.2,100.7,82.6,99.3,83.4,99z"/>
			<path class="st15" d="M102.6,102.1c1.3-0.4,3.7-0.9,4.1-1.5c0.4-0.7-4.1,0.6-5.9,1.3C99,102.6,101.4,102.5,102.6,102.1z"/>
			<path class="st15" d="M89.9,102.1c-1.2-0.4-3.7-0.8-4.1-1.5c-0.5-0.7,4.1,0.6,6,1.3C93.6,102.6,91.1,102.5,89.9,102.1z"/>
		</g>
		<g>
			<g>
				<path class="st16" d="M64.7,79.5c0,0,5-3.7,7.2-4.1c2.2-0.4,6.9-0.6,9.8,0.8c3.2,1.4,5.7,4.7,5.7,4.7s-4.2,2.2-10.5,2.2
					C70.6,83.2,67.4,81.7,64.7,79.5z"/>
				<path class="st17" d="M87.5,81.2c0,0,4.7-4.5,2.6-8.2c-2.1-3.8-9.9-3.5-16.3-4.4c-7.2-1-14.1,1.9-14.1,2.2
					c0,0.4,0.9,4.1,1.8,5.9c1.2,2.3,2.1,2.2,2.1,2.2s4.8-1.8,6.1-2.3c1.3-0.5,5.2-1.2,7.6-1.3C83.9,75.2,87.5,81.2,87.5,81.2z"/>
				<path class="st18" d="M59.7,70.8c0,0,3.4-5.5,7.2-5.6c3.8-0.1,20.3,1.5,20.9,2.2c0.6,0.8,2.5,5.5,2,5.1c-1.4-1-14.9-4.1-18.2-4
					C68.3,68.5,64.8,68.6,59.7,70.8z"/>
				<g>
					<path class="st19" d="M81.4,79.1c0,2.3-2.4,4.1-5.3,4.1c-2.9,0-5.3-1.9-5.3-4.1c0-2.3,2.4-4.1,5.3-4.1
						C79,75,81.4,76.8,81.4,79.1z"/>
					<path class="st20" d="M79.3,79.1c0,1.4-1.5,2.5-3.2,2.5s-3.2-1.1-3.2-2.5c0-1.4,1.5-2.5,3.2-2.5S79.3,77.7,79.3,79.1z"/>
				</g>
				<path class="st21" d="M64.5,79.4c0,0,6.1,3.3,9.3,3.7c5.4,0.7,13.3-2,13.3-2s-4.4,4.6-11.8,4.7C69.7,85.9,67.2,83.6,64.5,79.4z"
					/>
				<path class="st22" d="M63.3,78.7c0,0,3.4-4.4,5.4-5.6c3.9-2.3,11.8-2,14.8,1.8c3.3,4.2,3.8,6,3.8,6s-5.7-5.9-10-6
					C73,74.7,65.3,77.4,63.3,78.7z"/>
				<path class="st23" d="M62.6,78.3c0,0,8.7-4.1,11.6-4.2c4.5-0.2,9.8,2.2,11.6,4.7c1.8,2.5,1.8,2.5,1.8,2.5s-4.1-5.2-9-5.7
					c-6.4-0.7-14.1,3.9-14.1,3.9L62.6,78.3z"/>
			</g>
			<g>
				<path class="st16" d="M127.6,79.5c0,0-5-3.7-7.2-4.1c-2.2-0.4-6.9-0.6-9.8,0.8c-3.2,1.4-5.7,4.7-5.7,4.7s4.2,2.2,10.5,2.2
					C121.8,83.2,124.9,81.7,127.6,79.5z"/>
				<path class="st17" d="M104.8,81.2c0,0-4.7-4.5-2.6-8.2c2.1-3.8,9.9-3.5,16.3-4.4c7.2-1,14.1,1.9,14.1,2.2c0,0.4-0.9,4.1-1.8,5.9
					c-1.2,2.3-2.1,2.2-2.1,2.2s-4.8-1.8-6.1-2.3c-1.3-0.5-5.2-1.2-7.6-1.3C108.4,75.2,104.8,81.2,104.8,81.2z"/>
				<path class="st18" d="M132.6,70.8c0,0-3.4-5.5-7.2-5.6c-3.8-0.1-20.3,1.5-20.9,2.2c-0.6,0.8-2.5,5.5-2,5.1
					c1.4-1,14.9-4.1,18.2-4C124,68.5,127.5,68.6,132.6,70.8z"/>
				<g>
					<path class="st19" d="M111,79.1c0,2.3,2.4,4.1,5.3,4.1c2.9,0,5.3-1.9,5.3-4.1c0-2.3-2.4-4.1-5.3-4.1
						C113.4,75,111,76.8,111,79.1z"/>
					<path class="st20" d="M113.1,79.1c0,1.4,1.5,2.5,3.2,2.5c1.8,0,3.2-1.1,3.2-2.5c0-1.4-1.5-2.5-3.2-2.5
						C114.5,76.6,113.1,77.7,113.1,79.1z"/>
				</g>
				<path class="st21" d="M127.8,79.4c0,0-6.1,3.3-9.3,3.7c-5.4,0.7-13.3-2-13.3-2s4.4,4.7,11.8,4.8C122.6,86,125.1,83.6,127.8,79.4
					z"/>
				<path class="st22" d="M129,78.7c0,0-3.4-4.4-5.4-5.6c-3.9-2.3-11.8-2-14.8,1.8c-3.3,4.2-3.8,6-3.8,6s5.7-5.9,10-6
					C119.3,74.7,127,77.4,129,78.7z"/>
				<path class="st23" d="M129.7,78.3c0,0-8.7-4.1-11.6-4.2c-4.5-0.2-9.8,2.2-11.6,4.7c-1.8,2.5-1.8,2.5-1.8,2.5s4.1-5.2,9-5.7
					c6.4-0.7,14.1,3.9,14.1,3.9L129.7,78.3z"/>
			</g>
		</g>
		<path class="st24" d="M102.6,80.1l1.4,12.3c0,0,1.1,2.4,2.5,3.2c1.1,0.6,1.4,0.9,1.4,0.9L102.6,80.1z"/>
		<g>
			<path class="st25" d="M114.1,161.2l-10,2.7H89.5l-30.7-8.1l-15.1-19.8c0,0-77.9,28.9-92.1,43.6c-10.7,11.1-13.4,42.4-16.1,97
				c-2.8,57.5,4.7,141,4.7,141h42.2L0.2,272.4l3.3,28.7l-0.7,78.1l91.4,24h19.9V161.2z"/>
			<path class="st25" d="M80,161.2l10,2.7h14.6l30.7-8.1l13.4-19.8c0,0,79.6,28.9,93.8,43.6c10.7,11.1,13.4,42.4,16.1,97
				c2.8,57.5-4.7,141-4.7,141h-42.2l-17.3-148.7l-3.9,32.2l-2.7,77.8l-88,24.4H80V161.2z"/>
		</g>
		<polygon class="st26" points="87.9,403.3 103.9,403.5 104.1,164 89.3,164 		"/>
		<g>
			<path class="st27" d="M100,195.5c0,1.8-1.9,3.3-4.2,3.3c-2.3,0-4.2-1.5-4.2-3.3c0-1.8,1.9-3.3,4.2-3.3
				C98.1,192.2,100,193.7,100,195.5z"/>
			<path class="st27" d="M100,172.7c0,1.8-1.9,3.3-4.2,3.3c-2.3,0-4.2-1.5-4.2-3.3c0-1.8,1.9-3.3,4.2-3.3
				C98.1,169.5,100,170.9,100,172.7z"/>
			<path class="st27" d="M100,225.4c0,1.8-1.9,3.3-4.2,3.3c-2.3,0-4.2-1.5-4.2-3.3c0-1.8,1.9-3.3,4.2-3.3
				C98.1,222.1,100,223.6,100,225.4z"/>
			<path class="st27" d="M100,251.1c0,1.8-1.9,3.3-4.2,3.3c-2.3,0-4.2-1.5-4.2-3.3c0-1.8,1.9-3.3,4.2-3.3
				C98.1,247.8,100,249.3,100,251.1z"/>
			<path class="st27" d="M100,279.1c0,1.8-1.9,3.3-4.2,3.3c-2.3,0-4.2-1.5-4.2-3.3c0-1.8,1.9-3.3,4.2-3.3
				C98.1,275.8,100,277.3,100,279.1z"/>
			<path class="st27" d="M100,306.3c0,1.8-1.9,3.3-4.2,3.3c-2.3,0-4.2-1.5-4.2-3.3c0-1.8,1.9-3.3,4.2-3.3
				C98.1,303.1,100,304.5,100,306.3z"/>
			<path class="st27" d="M100,332.6c0,1.8-1.9,3.3-4.2,3.3c-2.3,0-4.2-1.5-4.2-3.3c0-1.8,1.9-3.3,4.2-3.3
				C98.1,329.4,100,330.8,100,332.6z"/>
			<path class="st27" d="M100,359.9c0,1.8-1.9,3.3-4.2,3.3c-2.3,0-4.2-1.5-4.2-3.3c0-1.8,1.9-3.3,4.2-3.3
				C98.1,356.6,100,358.1,100,359.9z"/>
		</g>
		<g>
			<path class="st28" d="M100,194.5c0,1.8-1.9,3.3-4.2,3.3c-2.3,0-4.2-1.5-4.2-3.3c0-1.8,1.9-3.3,4.2-3.3
				C98.1,191.2,100,192.7,100,194.5z"/>
			<path class="st28" d="M100,171.7c0,1.8-1.9,3.3-4.2,3.3c-2.3,0-4.2-1.5-4.2-3.3c0-1.8,1.9-3.3,4.2-3.3
				C98.1,168.5,100,169.9,100,171.7z"/>
			<path class="st28" d="M100,224.4c0,1.8-1.9,3.3-4.2,3.3c-2.3,0-4.2-1.5-4.2-3.3c0-1.8,1.9-3.3,4.2-3.3
				C98.1,221.1,100,222.6,100,224.4z"/>
			<path class="st28" d="M100,250.1c0,1.8-1.9,3.3-4.2,3.3c-2.3,0-4.2-1.5-4.2-3.3c0-1.8,1.9-3.3,4.2-3.3
				C98.1,246.8,100,248.2,100,250.1z"/>
			<path class="st28" d="M100,278.1c0,1.8-1.9,3.3-4.2,3.3c-2.3,0-4.2-1.5-4.2-3.3c0-1.8,1.9-3.3,4.2-3.3
				C98.1,274.8,100,276.3,100,278.1z"/>
			<path class="st28" d="M100,305.3c0,1.8-1.9,3.3-4.2,3.3c-2.3,0-4.2-1.5-4.2-3.3c0-1.8,1.9-3.3,4.2-3.3
				C98.1,302,100,303.5,100,305.3z"/>
			<path class="st28" d="M100,331.6c0,1.8-1.9,3.3-4.2,3.3c-2.3,0-4.2-1.5-4.2-3.3c0-1.8,1.9-3.3,4.2-3.3
				C98.1,328.3,100,329.8,100,331.6z"/>
			<path class="st28" d="M100,358.9c0,1.8-1.9,3.3-4.2,3.3c-2.3,0-4.2-1.5-4.2-3.3c0-1.8,1.9-3.3,4.2-3.3
				C98.1,355.6,100,357,100,358.9z"/>
		</g>
		<g>
			<polygon class="st29" points="71,178.4 89.3,164 85.3,172.6 			"/>
			<polygon class="st29" points="121.2,178.9 104.1,164 107.5,172.8 			"/>
		</g>
		<g>
			<g>
				<polygon class="st30" points="192.8,393.8 189.4,367.2 2.9,367.2 -0.6,393.8 -3.9,796.8 65.1,796.8 95.5,467.9 127.2,796.8 
					195.4,796.8 				"/>
				<polygon class="st31" points="192.2,366.5 195.4,792.4 168.3,367.2 				"/>
			</g>
		</g>
		<g>
			<path class="st32" d="M116.3,218.9c-1-8-11.2-31.8-11.2-31.8h-7.9h-8.5c0,0-9.6,23.8-10.6,31.8c-1,8-1.2,106-1.2,106l20,21.8
				l20.6-21.8C117.5,324.9,117.2,226.9,116.3,218.9z"/>
			<path class="st33" d="M88.2,187c0.6,0.3,17.6,0,17.6,0s14.5-21.9,13.4-22.7c-1.1-0.8-44.7-0.3-44.7-0.3S87.2,186.5,88.2,187z"/>
		</g>
		<path class="st16" d="M89.3,164L71,178.4c0,0-18.8-11.6-26-25.4c-7.2-13.9-3.2-18.6-3.2-18.6l14.5-9.5c0,0-0.3,17,5.3,22.8
			C67.1,153.5,89.3,164,89.3,164z"/>
		<path class="st16" d="M104.1,164l17.2,14.9c0,0,16.6-11.9,23.8-25.8c7.3-13.9,6.9-18.2,6.9-18.2l-14.6-10.2c0,0-5.2,17-10.2,23.2
			C114.9,162.7,104.1,164,104.1,164z"/>
		<g>
			<g>
				<g>
					<path class="st34" d="M93,227.8l-1.4,143.3l30,17.3l66.8-17.8c0,0,0.6-78.1,7-133.5s12.2-77.7,12.2-77.7l-59.9-24.8
						C147.7,134.6,149.4,189.5,93,227.8z"/>
				</g>
				<g>
					<path class="st34" d="M96.1,227.4v145.1l-25.8,15.9L3.6,370.6c0,0-0.6-78.1-7-133.5s-12.2-77.7-12.2-77.7l59.3-24.7
						C43.6,134.6,39.6,189.2,96.1,227.4z"/>
				</g>
			</g>
			<polygon points="89.7,242 97.5,240 100.1,246.1 92.2,248.1 			"/>
			<polygon points="89.7,275.1 97.5,273.2 100.1,279.3 92.2,281.2 			"/>
			<polygon points="89.7,305 97.5,303.1 100.1,309.2 92.2,311.2 			"/>
			<polygon points="89.7,340.6 97.5,338.6 100.1,344.7 92.2,346.7 			"/>
		</g>
		<g>
			<g>
				<path class="st35" d="M104.7,286.6v66.9c0,0,3,66.3,45.1,87.4c18.9,9.5,55.8,10,55.8,10s-5-68.3-10-115
					c-4.1-37.9-4.2-42.7-2.8-61.1c6.8-89.7,50.8-98.8,50.8-98.8l-97.1-46.4c0,0-3.8,40.8-19.2,91.5
					C111.8,272.2,104.7,286.6,104.7,286.6z"/>
				<path class="st36" d="M192.5,271l15,153.9h47.3c0,0,10-97.5,3.6-174.8c-5.4-64.5-14.6-74-14.6-74S194.4,181,192.5,271z"/>
				<polygon class="st37" points="147.2,338.6 191.6,338.6 195.7,358.9 153.7,361.2 				"/>
				<rect x="144.2" y="208.5" class="st37" width="48.3" height="11.3"/>
				<path class="st38" d="M174.4,152.4l-13.9-16.1l-11.9-5.7c0,0,0.2,4.2-1.5,12.3c-2,9.7-2.9,21.6-2.9,21.6L174.4,152.4z"/>
				<path class="st38" d="M104.7,286.6c0,0,22-35.7,31.5-49.2c14.6-21,39.7-72.7,39.7-72.7L144,154c0,0-2.4,15.1-8,39.5
					c-4.9,21.3-13,44.3-17.4,55C109.4,270.9,104.7,286.6,104.7,286.6z"/>
				<path class="st39" d="M172.4,151.4l-13.9-16.1l-11.9-5.7c0,0,0.2,4.2-1.5,12.3c-2,9.7-2.9,21.6-2.9,21.6L172.4,151.4z"/>
				<path class="st40" d="M104.7,286.6c0,0,21.3-36.9,30.8-50.4c14.6-21,39.7-72.7,39.7-72.7l-32-10.7c0,0-2.4,15.1-8,39.5
					c-4.9,21.3-13,44.3-17.4,55C108.7,269.6,104.7,286.6,104.7,286.6z"/>
			</g>
		</g>
		<g>
			<g>
				<path class="st41" d="M89.1,286.6v66.9c0,0-3,66.3-45.1,87.4c-18.9,9.5-55.8,10-55.8,10s5-68.3,10-115
					C2.2,298,2.4,293.2,1,274.8C-5.9,185.1-49.9,176-49.9,176l97.1-46.4c0,0,3.8,40.8,19.2,91.5C82,272.2,89.1,286.6,89.1,286.6z"/>
				<path class="st36" d="M1.3,271l-15,153.9h-47.3c0,0-10-97.5-3.6-174.8c5.4-64.5,14.6-74,14.6-74S-0.6,181,1.3,271z"/>
				<polygon class="st37" points="46.6,338.6 2.2,338.6 -1.9,358.9 40.1,361.2 				"/>
				<path class="st38" d="M19.4,152.4l13.9-16.1l11.9-5.7c0,0-0.2,4.2,1.5,12.3c2,9.7,2.9,21.6,2.9,21.6L19.4,152.4z"/>
				<path class="st38" d="M89.1,286.6c0,0-22-35.7-31.5-49.2c-14.6-21-39.7-72.7-39.7-72.7l32-10.7c0,0,2.4,15.1,8,39.5
					c4.9,21.3,13,44.3,17.4,55C84.4,270.9,89.1,286.6,89.1,286.6z"/>
				<path class="st39" d="M21.4,151.4l13.9-16.1l11.9-5.7c0,0-0.2,4.2,1.5,12.3c2,9.7,2.9,21.6,2.9,21.6L21.4,151.4z"/>
				<path class="st40" d="M89.1,286.6c0,0-21.3-36.9-30.8-50.4c-14.6-21-39.7-72.7-39.7-72.7l32-10.7c0,0,2.4,15.1,8,39.5
					c4.9,21.3,13,44.3,17.4,55C85.1,269.6,89.1,286.6,89.1,286.6z"/>
			</g>
		</g>
		<g>
			<path class="st42" d="M120.8,298.4c0,2.7-2.6,4.8-5.8,4.8c-3.2,0-5.8-2.2-5.8-4.8c0-2.7,2.6-4.8,5.8-4.8
				C118.2,293.6,120.8,295.8,120.8,298.4z"/>
			<path class="st43" d="M120.3,297.6c0,2.5-2.5,4.5-5.5,4.5c-3,0-5.5-2-5.5-4.5c0-2.5,2.5-4.5,5.5-4.5
				C117.8,293,120.3,295.1,120.3,297.6z"/>
		</g>
		<g>
			<path class="st42" d="M121,337.4c0,2.7-2.6,4.8-5.8,4.8c-3.2,0-5.8-2.2-5.8-4.8c0-2.7,2.6-4.8,5.8-4.8
				C118.4,332.5,121,334.7,121,337.4z"/>
			<path class="st43" d="M120.5,336.5c0,2.5-2.5,4.5-5.5,4.5s-5.5-2-5.5-4.5c0-2.5,2.5-4.5,5.5-4.5S120.5,334,120.5,336.5z"/>
		</g>
		<rect x="156.2" y="203.8" class="st44" width="35" height="4.2"/>
		<g>
			<g>
				<path class="st45" d="M51.5,72.8c0,0-0.8,0.1-2.4,0c-1.4-0.1-1-0.2-1-0.2l0.4,5.2c0,0-0.2,0.4,0.8,0.4c1,0,2.6,0,2.6,0
					L51.5,72.8z"/>
				<path class="st46" d="M48.2,72.6c0,0,3.1-1.8,3.7-1.8c0.5,0,0.4,0.2,0.4,0.2l-0.6,1.9C51.5,72.8,48.9,73.3,48.2,72.6z"/>
				<g>
					<path class="st47" d="M55.1,85.8c0,0-1.7-0.2-2.8-5.5c-1.1-5.4-1.6-9.7,1.6-10.3c4.6-0.9,21.1-0.8,28.3,0.2
						c7.2,1,9.9,2.1,7.1,9c-2,4.9-3.1,6.1-4.8,7.3C82.8,87.6,68.7,89.7,55.1,85.8z"/>
					<path class="st48" d="M55.1,85.8c0,0-1.7-0.2-2.8-5.5c-1.1-5.4-1.6-9.7,1.6-10.3c4.6-0.9,21.1-0.8,28.3,0.2
						c7.2,1,9.9,2.1,7.1,9c-2,4.9-3.1,6.1-4.8,7.3C82.8,87.6,68.7,89.7,55.1,85.8z"/>
				</g>
			</g>
			<g>
				<path class="st45" d="M141.2,72.8c0,0,0.8,0.1,2.4,0c1.4-0.1,1-0.2,1-0.2l-0.4,5.2c0,0,0.2,0.4-0.8,0.4c-1,0-2.6,0-2.6,0
					L141.2,72.8z"/>
				<path class="st46" d="M144.6,72.6c0,0-3.1-1.8-3.7-1.8c-0.5,0-0.4,0.2-0.4,0.2l0.6,1.9C141.2,72.8,143.8,73.3,144.6,72.6z"/>
				<g>
					<path class="st47" d="M137.6,85.8c0,0,1.7-0.2,2.8-5.5c1-5.4,1.6-9.7-1.6-10.3c-4.6-0.9-21.1-0.8-28.3,0.2
						c-7.2,1-9.9,2.1-7.1,9c2,4.9,3,6.1,4.8,7.3C109.9,87.6,124,89.7,137.6,85.8z"/>
					<path class="st48" d="M137.6,85.8c0,0,1.7-0.2,2.8-5.5c1-5.4,1.6-9.7-1.6-10.3c-4.6-0.9-21.1-0.8-28.3,0.2
						c-7.2,1-9.9,2.1-7.1,9c2,4.9,3,6.1,4.8,7.3C109.9,87.6,124,89.7,137.6,85.8z"/>
				</g>
			</g>
			<rect x="90.3" y="73.6" class="st45" width="12.2" height="1.1"/>
		</g>
		<path class="st49" d="M51.2,77.9c0,0-2-2.3-5.6-1.8c-3.6,0.5-2.1,15-2.1,16.6c0,3.3,10.7,9.3,10.7,9.3L51.2,77.9z"/>
		<path class="st49" d="M141.2,77.6c0,0,1.9-2,5.5-1.5c3.6,0.5,2.1,15,2.1,16.6c0,3.3-10.7,9.6-10.7,9.6L141.2,77.6z"/>
	</g>
</g>
</svg>
