<?xml version="1.0" encoding="utf-8"?>
<!-- Generator: Adobe Illustrator 23.0.4, SVG Export Plug-In . SVG Version: 6.00 Build 0)  -->
<svg version="1.0" id="Layer_1" xmlns="http://www.w3.org/2000/svg" xmlns:xlink="http://www.w3.org/1999/xlink" x="0px" y="0px"
	 viewBox="0 0 200 200" style="enable-background:new 0 0 200 200;" xml:space="preserve">
<style type="text/css">
	.st0{clip-path:url(#SVGID_2_);}
	.st1{fill:#E1A98E;}
	.st2{fill:#58616D;}
	.st3{fill:#3F4851;}
	.st4{fill:#969EA9;}
	.st5{fill:#505A68;}
	.st6{fill:#677381;}
	.st7{fill:#B97A3F;}
	.st8{fill:#DCA58E;}
	.st9{fill:#E1AA95;}
	.st10{fill:#E7B09B;}
	.st11{fill:#DCA48D;}
	.st12{fill:#EAB8A3;}
	.st13{fill:#D29B8B;}
	.st14{fill:#E9BEAF;}
	.st15{fill:#D5D5D5;}
	.st16{fill:#FFFFFF;}
	.st17{fill:#2A2432;}
	.st18{fill:#C7E6EC;}
	.st19{fill:#393D3D;}
	.st20{fill:#D09A87;}
	.st21{fill:#E1AF9E;}
	.st22{fill:#BB8181;}
	.st23{fill:#A97171;}
	.st24{fill:#CD9696;}
	.st25{fill:#C09080;}
	.st26{fill:#7A4A46;}
	.st27{fill:#49280F;}
	.st28{fill:#626272;}
	.st29{fill:#F3F3F3;}
	.st30{fill:none;stroke:#383544;stroke-width:0.3751;stroke-linecap:round;stroke-linejoin:round;}
	.st31{fill:#817362;}
	.st32{fill:#6D5B48;}
	.st33{fill:#BD8273;}
	.st34{fill:#FFDE7C;}
	.st35{fill:#ECC351;}
	.st36{fill:#FFE7A8;}
	.st37{fill:#EECB6C;}
	.st38{fill:#FFDF89;}
	.st39{fill:#ECC35D;}
	.st40{fill:#DAB653;}
	.st41{fill:#D09B56;}
</style>
<g>
	<defs>
		<rect id="SVGID_1_" width="200" height="200"/>
	</defs>
	<use xlink:href="#SVGID_1_"  style="overflow:visible;fill:#A4B7B0;"/>
	<clipPath id="SVGID_2_">
		<use xlink:href="#SVGID_1_"  style="overflow:visible;"/>
	</clipPath>
	<g class="st0">
		<g>
			<path class="st1" d="M254.3,244.6l5,63.9c4.4,24.1-10.5,114.6-10.5,114.6l-30.2-2.4l-22-163.8v-90.7c0,0,34.1,12.3,44.7,23.3
				C257.6,206.6,254.3,244.6,254.3,244.6z"/>
			<path class="st1" d="M230.5,498.7c3.2-3.4,26.6-26.4,27.4-31.3c1.2-6.8-9.1-44.3-9.1-44.3l-30.2-2.4c0,0-6.9,18.9-7.7,21.5
				c-0.8,2.7,0,32.4,0.1,33.9s10.2,1.1,10.6-1.1c0.4-2.2,5.2-18.8,5.2-18.8l0,0l1.7,17.4c0,0-10.4,14.4-11.7,16.5
				C215.9,491.7,227.2,502.1,230.5,498.7z"/>
		</g>
		<g>
			<path class="st2" d="M-98.1,836.6L-98.1,836.6L-98.1,836.6v-17.4h-18v17.4l0,0.1l0,0v0.2h0.1c0.4,1.3,4.2,2.4,8.9,2.4
				c4.7,0,8.5-1,8.9-2.4h0.1V836.6z"/>
			<path class="st3" d="M-98.1,819.1c0,1.4-4,2.6-9,2.6c-5,0-9-1.1-9-2.6c0-1.4,4-2.6,9-2.6C-102.1,816.6-98.1,817.7-98.1,819.1z"/>
		</g>
		<path class="st4" d="M-99.1,818.8c0,2.8-15.7,2.8-15.7,0v-355c0-2.8,3.5-5.1,7.9-5.1l0,0c4.3,0,7.9,2.3,7.9,5.1V818.8z"/>
		<polygon class="st5" points="-82.4,457.7 -135.5,447.5 -139,462.4 -87,474.7 		"/>
		<path class="st6" d="M-78.8,467.1c-1.1,4.7-4.8,8-8.2,7.5c-3.4-0.5-5.2-4.7-4-9.4c1.2-4.7,4.8-8,8.2-7.5
			C-79.5,458.3-77.7,462.5-78.8,467.1z"/>
		<path class="st6" d="M-129.8,455.7c-1.1,4.5-4.6,7.7-7.9,7.2c-3.3-0.5-5-4.5-3.9-9c1.1-4.5,4.6-7.7,7.9-7.2
			C-130.4,447.2-128.7,451.2-129.8,455.7z"/>
		<path class="st7" d="M56.8,137.2c0,0,16.8,5.9,22.3,6.2c5.5,0.3,39.8,0.6,43-0.1c3.1-0.7,21.2-6.1,21.2-6.1s-6,22.8-10.5,25.7
			c-4.5,2.9-64.5,0.6-64.5,0.6S55.8,150.9,56.8,137.2z"/>
		<path class="st8" d="M-61,244.4c0,0-18.1,78.6-17.8,85.3c0.3,6.7,51.6,13.3,54.2,4.1c2.6-9.2,27.7-92.5,27.7-92.5l4.1-73.9
			c0,0-27.5,8.1-47.4,23.6C-59.3,205.9-61,244.4-61,244.4z"/>
		<path class="st9" d="M-119.7,425.2l42.2-96.2c0,0,34.1-11,51.4-3c7.6,3.5-8.3,32.2-8.3,32.2l-25.8,38.2
			c-19.6,24-23.4,31.8-23.4,31.8L-119.7,425.2z"/>
		<path class="st10" d="M-117.7,463.9c-3.9-1.2-25.4-7.5-24.8-8.7c0.6-1.2,22.8-30.3,22.8-30.3l36.1,2.8c0,0,12.1,26.8,12.2,28.9
			c0.2,2.9-5.3,14.7-5.8,15.5c-1.6,2.2-5.1-1.6-5.8-3.3c-0.9-2.4-1-7.3-1.2-8.5c-0.2-1.7-5.5-6.9-5.5-6.9s-6.3,11.2-8.7,12.6
			C-98.6,466.1-108.6,466.7-117.7,463.9z"/>
		<path class="st1" d="M-98.4,466l-44.2-10.9l9.7,21c0,0,13.2,11.1,21.6,12.5c5.5,0.9,12.4-2.1,14.1-4.4
			C-95.5,481.9-98.4,466-98.4,466z"/>
		<g>
			<path class="st8" d="M100.8,456.8l9.6-72.2c0,0-11.7,0.4-48.7-1.3c-37-1.7-47.8-8.7-47.8-8.7s-3.4,22.5-5.7,53.1
				c-8.9,116.5,16.3,180.8,12.1,206.8c-1.3,8.2-10.4,49.9-11.7,62c-1.1,10.7,10.2,80.7,10.2,89.5S2.5,813.7,2.5,813.7l3.9,9.6h51.2
				l2.4-9.6c0,0-10.1-22.9-10.1-27c0-6.6,22.9-76.6,22.9-99.7c0-23.1-7-38.6,2.3-59.1C82.8,610.7,100.8,456.8,100.8,456.8z"/>
			<path class="st8" d="M102.1,456.8l-9.6-72.2c0,0,11.7,0.4,48.7-1.3c37-1.7,47.8-8.7,47.8-8.7s3.4,22.5,5.7,53.1
				c8.9,116.5-16.3,180.8-12.1,206.8c1.3,8.2,10.4,49.9,11.7,62c1.1,10.7-10.2,80.7-10.2,89.5s16.2,27.7,16.2,27.7l-3.9,9.6h-51.2
				l-2.4-9.6c0,0,10.1-22.9,10.1-27c0-6.6-22.9-76.6-22.9-99.7c0-23.1,7-38.6-2.3-59.1C120,610.7,102.1,456.8,102.1,456.8z"/>
		</g>
		<g>
			<path class="st8" d="M217.3,175.4c-27.8-13.4-77.7-33.1-79.1-35.3c-1.4-2.2,0-23.9,0-23.9H64.6c0,0,1.4,21.7,0,23.9
				c-1.4,2.2-48.8,21.9-79.1,35.2c-20.6,9,16,82.4,16,82.4s12.9,68.2,13.3,72.2c1.2,12-1.3,49.1-1.3,49.1s0.4,3.3,16.8,6.1
				c16.4,2.8,53.1,4.5,71.1,4.4c18-0.1,54.7-1.6,71.1-4.4c16.4-2.8,16.7-6.1,16.7-6.1S186.8,342,188,330
				c0.4-4.1,13.3-72.2,13.3-72.2S237.4,185.1,217.3,175.4z"/>
			<path class="st11" d="M147.7,83.5c0,0,1.7-2.1,4.6-1.6s1.7,15,1.7,16.6c0,3.3-9.3,9.7-9.3,9.7L147.7,83.5z"/>
			<path class="st11" d="M54.9,83.5c0,0-1.7-2.1-4.6-1.6c-2.9,0.5-1.7,15-1.7,16.6c0,3.3,9.3,9.7,9.3,9.7L54.9,83.5z"/>
			<path class="st12" d="M110,29.3c-7.1-0.4-10.2-0.4-17.3,0c-16.8,1-41.8,18.7-39.9,38.3c0.6,5.6,4.3,42.1,5.7,44.3
				c1.4,2.1,21.5,20.2,25.1,22.9c3.6,2.8,17.6,3.2,17.6,3.2s14-0.4,17.6-3.2c3.6-2.8,23.7-20.8,25.1-22.9c1.4-2.1,5.2-38.6,5.7-44.3
				C151.8,48,126.8,30.3,110,29.3z"/>
		</g>
		<path class="st13" d="M107.7,80.2l1.4,12.3c0,0,1.1,2.4,2.5,3.2c1.1,0.6,1.4,0.9,1.4,0.9L107.7,80.2z"/>
		<path class="st14" d="M115.9,31.2c-8.1-2-20.4-2-28.5,0c-8.1,2-9.7,4.8-9.9,5.9c-0.3,2.6,7.3,6.1,22.6,6.1
			c16-0.1,27.1-3.6,26.6-5.5C126.5,36.6,124,33.2,115.9,31.2z"/>
		<path class="st15" d="M66.8,40.9c-26.1,15.3-14.5,33.6-14,36.4c0.1,0.6,1.7,0.8,1.9,2.1c0.6,5,0.9,6.2,0.9,6.2l3-2.9
			c0,0,0.4-19,3.9-26.1C56.6,54.1,67.2,40.6,66.8,40.9z"/>
		<path class="st15" d="M136.1,40.9c26.1,15.3,14.5,33.6,13.9,36.4c-0.1,0.6-1.7,0.8-1.9,2.1c-0.6,5-0.9,6.2-0.9,6.2l-3-2.9
			c0,0-0.4-19-3.9-26.1C146.4,54.1,135.7,40.6,136.1,40.9z"/>
		<g>
			<path class="st16" d="M70.2,81.3c0,0,4.5-2.8,6.8-3.2c2.2-0.3,7.5-0.5,10.4,0.8c3.1,1.4,5.5,3.7,5.5,3.7s-4.2,2-10.5,2.1
				C76,84.8,72.9,83.4,70.2,81.3z"/>
			<path class="st13" d="M93,82.9c0,0,4.7-4.5,2.6-8.1c-2.1-3.7-9.9-3.5-16.3-4.3c-7.2-1-14.1,1.9-14.1,2.2s0.9,4,1.8,5.9
				c1.2,2.3,2.1,2.2,2.1,2.2s4.8-1.8,6.1-2.3c1.3-0.5,5.6-0.9,7.9-0.8C88.6,77.8,93,82.9,93,82.9z"/>
			<path class="st17" d="M65.2,72.5c0,0,3.4-5.5,7.2-5.6c3.7-0.1,20.3,1.5,20.9,2.2c0.6,0.7,2.5,5.4,2,5.1c-1.4-1-14.9-4-18.2-4
				C73.8,70.3,70.3,70.4,65.2,72.5z"/>
			<g>
				<path class="st18" d="M87.3,81.3c0,2.1-2.4,3.8-5.3,3.8c-2.9,0-5.3-1.7-5.3-3.8c0-2.1,2.4-3.8,5.3-3.8
					C85,77.4,87.3,79.1,87.3,81.3z"/>
				<path class="st19" d="M85.5,81.3c0,1.5-1.5,2.7-3.4,2.7c-1.9,0-3.4-1.2-3.4-2.7c0-1.5,1.5-2.7,3.4-2.7
					C83.9,78.6,85.5,79.8,85.5,81.3z"/>
			</g>
			<path class="st20" d="M71.1,82c0,0,4.7,2.2,7.9,2.6c3.2,0.3,10.7-0.9,10.7-0.9s-4.4,2.3-7.7,2.3C78.7,86.1,73.8,85.9,71.1,82z"/>
			<path class="st21" d="M68.8,80.6c0,0,3.8-4.4,5.8-5.5c3.9-2.2,11.8-1.6,14.6,1.2c3.7,3.7,3.6,6.4,3.6,6.4s-5.5-4.9-9.8-5.1
				C78.7,77.4,70.8,79.4,68.8,80.6z"/>
			<path class="st17" d="M68.7,80.6c0,0,8-3.3,10.9-3.5c4.6-0.2,9.8,1.8,11.6,3.8c1.8,2,1.8,2,1.8,2s-4.1-4.2-9-4.7
				c-6.4-0.5-13.9,3.1-13.9,3.1L68.7,80.6z"/>
		</g>
		<g>
			<path class="st16" d="M132.5,81.3c0,0-4.6-2.8-6.8-3.2c-2.2-0.3-7.5-0.5-10.4,0.8c-3.2,1.4-5.5,3.7-5.5,3.7s4.2,2,10.5,2.1
				C126.7,84.8,129.8,83.4,132.5,81.3z"/>
			<path class="st13" d="M109.7,82.9c0,0-4.6-4.5-2.6-8.1c2.1-3.7,9.9-3.5,16.3-4.3c7.2-1,14.1,1.9,14.1,2.2s-0.9,4-1.8,5.9
				c-1.2,2.3-2.1,2.2-2.1,2.2s-4.8-1.8-6.1-2.3c-1.3-0.5-5.6-0.9-7.9-0.8C114.1,77.8,109.7,82.9,109.7,82.9z"/>
			<path class="st17" d="M137.5,72.5c0,0-3.4-5.5-7.2-5.6c-3.8-0.1-20.3,1.5-20.9,2.2c-0.6,0.7-2.5,5.4-2,5.1c1.4-1,14.9-4,18.2-4
				C128.9,70.3,132.4,70.4,137.5,72.5z"/>
			<g>
				<path class="st18" d="M115.3,81.3c0,2.1,2.4,3.8,5.3,3.8c3,0,5.3-1.7,5.3-3.8c0-2.1-2.4-3.8-5.3-3.8
					C117.7,77.4,115.3,79.1,115.3,81.3z"/>
				<path class="st19" d="M117.2,81.3c0,1.5,1.5,2.7,3.4,2.7c1.9,0,3.4-1.2,3.4-2.7c0-1.5-1.5-2.7-3.4-2.7
					C118.8,78.6,117.2,79.8,117.2,81.3z"/>
			</g>
			<path class="st20" d="M131.6,82c0,0-4.7,2.2-7.9,2.6c-3.2,0.3-10.7-0.9-10.7-0.9s4.4,2.3,7.7,2.3C123.9,86.1,128.8,85.9,131.6,82
				z"/>
			<path class="st21" d="M133.9,80.6c0,0-3.8-4.4-5.8-5.5c-3.9-2.2-11.8-1.6-14.6,1.2c-3.7,3.7-3.6,6.4-3.6,6.4s5.5-4.9,9.8-5.1
				C124,77.4,131.9,79.4,133.9,80.6z"/>
			<path class="st17" d="M133.9,80.6c0,0-8-3.3-10.9-3.5c-4.5-0.2-9.8,1.8-11.6,3.8c-1.8,2-1.8,2-1.8,2s4.1-4.2,9-4.7
				c6.4-0.5,13.9,3.1,13.9,3.1L133.9,80.6z"/>
		</g>
		<g>
			<path class="st22" d="M84,112.9c0,0,7.7-1.5,9.9-1.8c2.1-0.3,6.8,0.6,7.4,0.6c0.6,0,0.1,2.6,0.1,2.6S90.6,115.1,84,112.9z"/>
			<path class="st23" d="M118.6,112.9c0,0-7.6-1.5-9.8-1.8c-2.1-0.3-6.9,0.6-7.5,0.6c-0.6,0-0.1,2.6-0.1,2.6
				S111.9,115.1,118.6,112.9z"/>
			<path class="st24" d="M118.6,112.9c-0.4,0.2-13.7,1.1-17.3,1.4c-3.4-0.3-16.9-1.3-17.3-1.4c0,0,8,5.5,12.3,6.1
				c1.8,0.3,4.5,0.4,5,0.4c0.5,0,3.3-0.2,5-0.4C110.6,118.3,118.6,112.9,118.6,112.9z"/>
		</g>
		<g>
			<path class="st25" d="M114.4,99.8c-0.8-0.2-7.3,0.9-10.2,0.9c-1.1,0-1.8,0-2.4,0c-0.6,0-1.3,0-2.4,0c-2.9,0-9.4-1.2-10.2-0.9
				c-0.8,0.2,0.8,1.3,0.8,1.3c2.1,0.8,7.3,1.5,10.5,1.9h2.6c3.1-0.4,8.4-1.1,10.5-1.9C113.6,101.1,115.1,100,114.4,99.8z"/>
			<path class="st26" d="M96.7,101.8c-1.3-0.3-3.8-0.4-4.3-1.1c-0.5-0.6,4.1,0.1,6,0.7C100.3,102,98,102.1,96.7,101.8z"/>
			<path class="st26" d="M107.2,101.8c1.3-0.3,3.7-0.4,4.3-1.1c0.6-0.6-4.1,0.1-6,0.7C103.6,102,105.9,102.1,107.2,101.8z"/>
		</g>
		<g>
			<path class="st27" d="M78.8,66.9c-9.6,0-17.4,6.1-17.4,13.5s7.8,13.5,17.4,13.5c9.6,0,17.4-6,17.4-13.5S88.4,66.9,78.8,66.9z
				 M78.8,92.3c-8.5,0-15.3-5.3-15.3-11.9c0-6.6,6.9-11.9,15.3-11.9c8.4,0,15.3,5.3,15.3,11.9C94.2,87,87.3,92.3,78.8,92.3z"/>
			<path class="st27" d="M124.5,66.9c-9.6,0-17.4,6.1-17.4,13.5s7.8,13.5,17.4,13.5s17.4-6,17.4-13.5S134.1,66.9,124.5,66.9z
				 M124.5,92.3c-8.4,0-15.3-5.3-15.3-11.9c0-6.6,6.9-11.9,15.3-11.9c8.5,0,15.3,5.3,15.3,11.9C139.9,87,133,92.3,124.5,92.3z"/>
			<path class="st27" d="M95.4,78.5c0,0,2.4-2.9,4-2.9s3.8-0.1,4.3,0.1c0.5,0.1,4.1,2.8,4.1,2.8l0,3.4c0,0-3.5-3.2-3.9-3.4
				c-0.5-0.2-4.3-0.1-4.8-0.1c-0.5,0-3.6,3.5-3.6,3.5L95.4,78.5z"/>
			<polygon class="st27" points="61.6,78.2 51.4,76.4 51.3,79.1 61.7,82.6 			"/>
			<polygon class="st27" points="141.7,78.2 151.9,76.4 152,79.1 141.6,82.6 			"/>
		</g>
		<g>
			<g>
				<path class="st28" d="M145.7,802c5-7,4.2-12.9,4.2-12.9s9.6-2.2,21.5-1.8c11.8-0.4,15.8,1.8,15.8,1.8s3.1,5.8,8.2,12.8
					c4.9,6.7,8,13.7,8,13.7c-2.7,9.6-28.5,7.5-31.9,7.2c-3.4,0.3-29.2,2.4-31.9-7.2C139.5,815.6,140.9,808.7,145.7,802z"/>
				<path class="st29" d="M139.5,815.6c0,0,3.3,3.8,11.4,5c4.3,0.7,10,0.9,15,1c0,0,2.2,0,5.5,0c3.3,0,5.5,0,5.5,0
					c5-0.1,10.7-0.3,15-1c8.1-1.2,11.4-5,11.4-5s1.3,10.8-3.9,13c-8.3,3.6-21,3.9-28.1,3.8c-7.1,0.2-19.8-0.2-28.1-3.8
					C138.2,826.3,139.5,815.6,139.5,815.6z"/>
			</g>
			<polyline class="st30" points="186.7,795.6 152.7,799 187.5,802.7 151.1,806.9 188,807.2 151.7,802.9 186.6,798.2 153.3,794.8 
							"/>
		</g>
		<g>
			<g>
				<path class="st28" d="M57,802c-4.9-7-4.2-12.9-4.2-12.9s-9.6-2.2-21.5-1.8c-11.8-0.4-15.7,1.8-15.7,1.8s-3.1,5.8-8.2,12.8
					c-4.9,6.7-8,13.7-8,13.7c2.7,9.6,28.5,7.5,31.9,7.2c3.5,0.3,29.2,2.4,31.9-7.2C63.3,815.6,61.8,808.7,57,802z"/>
				<path class="st29" d="M63.3,815.6c0,0-3.3,3.8-11.4,5c-4.3,0.7-10,0.9-15,1c0,0-2.2,0-5.5,0c-3.3,0-5.5,0-5.5,0
					c-5-0.1-10.7-0.3-15-1c-8.1-1.2-11.4-5-11.4-5s-1.3,10.8,3.9,13c8.3,3.6,21,3.9,28.1,3.8c7.1,0.2,19.8-0.2,28.1-3.8
					C64.6,826.3,63.3,815.6,63.3,815.6z"/>
			</g>
			<polyline class="st30" points="16.1,795.6 50.1,799 15.3,802.7 51.7,806.9 14.8,807.2 51,802.9 16.2,798.2 49.4,794.8 			"/>
		</g>
		<g>
			<polygon class="st31" points="198,393.9 188.8,393.9 13.8,393.9 4.6,393.9 -10.2,801.3 70.2,801.3 100.7,472.4 101.3,471.8 
				101.9,472.4 132.4,801.3 206.3,801.3 			"/>
			<polygon class="st32" points="4.8,394.1 197.7,394.1 206.3,801.3 172.9,411.3 			"/>
		</g>
		<polygon class="st33" points="43,151.2 47.4,149.5 101.9,190.2 160.1,151.2 101.5,193.1 		"/>
		<path class="st34" d="M252.6,423.3c0,0,9.6-29.4,12.6-63.1c3.8-41.9,2-77.3,1-95.9c-2.8-47.8-14.5-66.7-21.4-74.6
			c-13.2-15.3-87.1-40.5-87.1-40.5l-55.5,43.2L84.3,176l-42.1-26.8c0,0-64.8,26.5-86,41.3C-64.1,204.6-78.3,304.7-83.1,331
			c-0.5,2.6-39.3,93.9-39.3,93.9l47.3,5.3c0,0,51.3-73.9,53.8-86.1c2.5-12.2,20-79.5,20-79.5l1.5,151.6l100-0.5h100L197.9,275
			l8.9,71.7l4.3,76.7H252.6z"/>
		<polygon class="st35" points="-18.4,332.4 -1,251.4 -0.9,266.8 		"/>
		<path class="st36" d="M113.5,174.4l21.7,16.8c0,0,10.3-10.7,17.5-24.6c7.2-13.9,4.9-17.4,4.9-17.4l-14.6-12c0,0-4.2,17.3-9.7,23.2
			C127.7,166.2,113.5,174.4,113.5,174.4z"/>
		<path class="st37" d="M81.3,174.4c0,0,8.9,33.5,10.3,38.6c1.8,6.3,2.3,20.6,2.3,20.6l15.2-5.5l-2.7-29.2L97.4,175L81.3,174.4z"/>
		<path class="st38" d="M94.1,415.6l16,0.2c0,0-0.7-207.7,0.4-214.8c1.1-7.1,12.3-19.7,12.3-19.7l-9.2-7c0,0-15.3,19.7-18.3,26.2
			C92.3,207.1,94.1,415.6,94.1,415.6z"/>
		<path class="st39" d="M106.2,207.8c0,1.8-1.9,3.3-4.2,3.3c-2.3,0-4.2-1.5-4.2-3.3c0-1.8,1.9-3.3,4.2-3.3
			C104.3,204.5,106.2,206,106.2,207.8z"/>
		<path class="st39" d="M106.2,237.7c0,1.8-1.9,3.3-4.2,3.3c-2.3,0-4.2-1.5-4.2-3.3c0-1.8,1.9-3.3,4.2-3.3
			C104.3,234.5,106.2,235.9,106.2,237.7z"/>
		<path class="st39" d="M106.2,263.4c0,1.8-1.9,3.3-4.2,3.3c-2.3,0-4.2-1.5-4.2-3.3c0-1.8,1.9-3.3,4.2-3.3
			C104.3,260.1,106.2,261.6,106.2,263.4z"/>
		<path class="st39" d="M106.2,291.4c0,1.8-1.9,3.3-4.2,3.3c-2.3,0-4.2-1.5-4.2-3.3c0-1.8,1.9-3.3,4.2-3.3
			C104.3,288.2,106.2,289.6,106.2,291.4z"/>
		<path class="st39" d="M106.2,318.7c0,1.8-1.9,3.3-4.2,3.3c-2.3,0-4.2-1.5-4.2-3.3c0-1.8,1.9-3.3,4.2-3.3
			C104.3,315.4,106.2,316.9,106.2,318.7z"/>
		<path class="st39" d="M106.2,345c0,1.8-1.9,3.3-4.2,3.3c-2.3,0-4.2-1.5-4.2-3.3c0-1.8,1.9-3.3,4.2-3.3
			C104.3,341.7,106.2,343.2,106.2,345z"/>
		<path class="st39" d="M106.2,372.2c0,1.8-1.9,3.3-4.2,3.3c-2.3,0-4.2-1.5-4.2-3.3c0-1.8,1.9-3.3,4.2-3.3
			C104.3,368.9,106.2,370.4,106.2,372.2z"/>
		<path class="st39" d="M96.8,185.8c0,1.8-1.9,3.3-4.2,3.3c-2.3,0-4.2-1.5-4.2-3.3c0-1.8,1.9-3.3,4.2-3.3
			C94.9,182.5,96.8,184,96.8,185.8z"/>
		<polygon class="st35" points="168.9,384.5 110.1,415.9 199.7,416.1 197.9,248.3 		"/>
		<path class="st36" d="M86.3,174.4l-21.7,16.8c0,0-10.3-10.7-17.5-24.6c-7.2-13.9-4.9-17.4-4.9-17.4l14.6-12c0,0,4.2,17.3,9.8,23.2
			C72.1,166.2,86.3,174.4,86.3,174.4z"/>
		<g>
			<g>
				<polygon class="st40" points="64.5,191.2 86.2,174.4 85.7,184.4 				"/>
				<polygon class="st40" points="135.2,191.2 113.5,174.4 120.6,185 				"/>
			</g>
		</g>
		<path class="st41" d="M-75.1,430.2c0,0-1,1.3-2.1,2.6c-1.1,1.2-2.9,2.6-2.9,2.6l-2.8-6.1L-75.1,430.2z"/>
		<polygon class="st41" points="-122.4,424.9 -121.4,427.1 -119.7,425.2 		"/>
		<path class="st15" d="M148.1,112.9c-1.6-8.1-0.5-25.6-0.5-25.6s-11.1,22.6-11.9,25.5c-0.9,2.8-3.1,4-5.4,3
			c-2.2-1-11.1-13.4-18.5-13.8c-7.4-0.4-9.9,3.3-9.9,3.3s-3.5-3.3-4.9-3.5c-8-1.1-11.9,1.7-15.4,5.6c-3.4,3.9-7.9,11.1-10.9,6.6
			c-2.9-4.6-15.2-26-15.2-26s-1.2,25.2-1.5,31.5c-0.2,6.1-0.7,14.6,1,17.7c1.7,3.1,11,17,11,17l0.5-5l4.5,9.3
			c8.4,8.3,6.7,6.8,8.8,8.6c0.2,0.1-0.2-1.7-0.2-1.7s8.1,4.8,10.9,6.4c4.3,2.4,9.2,4.8,9.3,5c0.1,0.2,1.7-1.7,1.7-1.7l6.1,5.1
			l12-8.3l1.4,1l18.9-20.1c0,0-1.1,4.5-0.2,2.9c1.9-3.4,4.8-8.7,5.2-9.3c0.5-1,4.2-9.8,4.5-12.7C149.9,130.7,149.7,121,148.1,112.9z
			 M113.5,122.3c-3.5,0-10.5-4.2-15.7-2c-7.5,3.3-11.3,1-11.2-2c0.1-2.5,1.5-2.9,5.1-4.3c4.4-1.7,9.5-4.5,13-2.9
			c3.4,1.6,13.4,4.6,14,6.4C119.4,119.8,117.1,122.3,113.5,122.3z"/>
	</g>
</g>
</svg>
