<?xml version="1.0" encoding="utf-8"?>
<!-- Generator: Adobe Illustrator 23.0.4, SVG Export Plug-In . SVG Version: 6.00 Build 0)  -->
<svg version="1.0" id="Layer_1" xmlns="http://www.w3.org/2000/svg" xmlns:xlink="http://www.w3.org/1999/xlink" x="0px" y="0px"
	 viewBox="0 0 200 200" style="enable-background:new 0 0 200 200;" xml:space="preserve">
<style type="text/css">
	.st0{clip-path:url(#SVGID_2_);}
	.st1{fill:#E3CEC2;}
	.st2{fill:#DCA58E;}
	.st3{fill:#E1A98E;}
	.st4{fill:#F9F5F2;}
	.st5{fill:#FBF8F7;}
	.st6{fill:#EAD9D0;}
	.st7{fill:#F2E8E2;}
	.st8{fill:#EEE1D9;}
	.st9{fill:#F1E6E0;}
	.st10{fill:#DDC3B4;}
	.st11{fill:#984818;}
	.st12{fill:#A7633B;}
	.st13{fill:none;stroke:#9C4F22;stroke-width:0.2551;stroke-linecap:round;stroke-linejoin:round;}
	.st14{fill:#AC6C47;}
	.st15{fill:#BC8769;}
	.st16{fill:#B57B59;}
	.st17{fill:#BF8C70;}
	.st18{fill:#C08E72;}
	.st19{fill:#C19075;}
	.st20{fill:#B88060;}
	.st21{fill:#C5977E;}
	.st22{fill:#C69980;}
	.st23{fill:#C29277;}
	.st24{fill:#B98162;}
	.st25{fill:#C79B82;}
	.st26{fill:#F7F1EE;}
	.st27{fill:#DCA48D;}
	.st28{fill:#EAB8A3;}
	.st29{fill:#FFFFFF;}
	.st30{fill:#C39081;}
	.st31{fill:#3D2819;}
	.st32{fill:#618B61;}
	.st33{fill:#1B1C1C;}
	.st34{fill:#D29B8B;}
	.st35{fill:#DFAE9D;}
	.st36{fill:#2A2432;}
	.st37{fill:#BB8181;}
	.st38{fill:#A97171;}
	.st39{fill:#CD9696;}
	.st40{fill:#C09080;}
	.st41{fill:#704E46;}
	.st42{fill:#4F3523;}
</style>
<g>
	<defs>
		<rect id="SVGID_1_" width="200" height="200"/>
	</defs>
	<use xlink:href="#SVGID_1_"  style="overflow:visible;fill:#EAE7CD;"/>
	<clipPath id="SVGID_2_">
		<use xlink:href="#SVGID_1_"  style="overflow:visible;"/>
	</clipPath>
	<g class="st0">
		<path class="st1" d="M56.9,131.8c0,0,16.8,5.9,22.2,6.2c5.5,0.3,39.8,0.6,43-0.1c3.1-0.7,21.2-6.1,21.2-6.1s-6,22.8-10.5,25.7
			c-4.5,2.9-64.5,0.6-64.5,0.6S55.9,145.5,56.9,131.8z"/>
		<path class="st2" d="M216.9,173c-27.8-13.4-77.7-33.1-79.1-35.3c-1.4-2.2,0-23.9,0-23.9H64.1c0,0,1.4,21.7,0,23.9
			c-1.4,2.2-48.8,21.9-79.1,35.2c-20.6,9,16,82.4,16,82.4s12.9,68.2,13.3,72.2c1.2,12-1.3,49.1-1.3,49.1s0.4,3.3,16.8,6.1
			c16.4,2.8,53.1,4.5,71.1,4.4c18-0.1,54.7-1.6,71.1-4.4c16.4-2.8,16.7-6.1,16.7-6.1s-2.4-37.1-1.2-49.1
			c0.4-4.1,13.3-72.2,13.3-72.2S236.9,182.7,216.9,173z"/>
		<g>
			<path class="st3" d="M-52.7,242.6l-5,63.9c-4.4,24.1,10.5,114.6,10.5,114.6l30.3-2.4l22-163.8v-90.7c0,0-34.1,12.3-44.7,23.3
				C-55.9,204.6-52.7,242.6-52.7,242.6z"/>
			<path class="st3" d="M-28.8,496.7c-3.3-3.4-26.6-26.4-27.4-31.3c-1.2-6.9,9.1-44.3,9.1-44.3l30.3-2.4c0,0,6.9,18.9,7.7,21.5
				c0.8,2.7,0,32.4-0.1,33.9c-0.1,1.5-10.2,1.1-10.6-1.1c-0.4-2.2-5.2-18.8-5.2-18.8l0,0l-1.7,17.4c0,0,10.4,14.4,11.7,16.5
				C-14.2,489.7-25.6,500.1-28.8,496.7z"/>
		</g>
		<g>
			<path class="st3" d="M254.8,242.6l5,63.9c4.4,24.1-10.5,114.6-10.5,114.6l-30.2-2.4l-22-163.8v-90.7c0,0,34.1,12.3,44.7,23.3
				C258.1,204.6,254.8,242.6,254.8,242.6z"/>
			<path class="st3" d="M231,496.7c3.3-3.4,26.6-26.4,27.4-31.3c1.2-6.9-9.1-44.3-9.1-44.3l-30.2-2.4c0,0-6.9,18.9-7.7,21.5
				c-0.8,2.7,0,32.4,0.1,33.9c0.1,1.5,10.2,1.1,10.6-1.1c0.4-2.2,5.2-18.8,5.2-18.8l0,0l1.7,17.4c0,0-10.4,14.4-11.7,16.5
				C216.4,489.7,227.7,500.1,231,496.7z"/>
		</g>
		<path class="st4" d="M260.6,273.9c-4.7-47.7-13.1-83.4-18-88.7c-13.7-15-87.7-39.6-87.7-39.6l-54,41.1L47,145.6
			c0,0-74,24.6-87.7,39.6c-4.9,5.3-14.9,41.1-19.6,88.8c-6.4,65.6,2.2,150.2,2.2,150.2l45.2-5.7L5.1,270.6v137.7l95.9,0.1l94.5-0.2
			l0.7-140.5l18.6,150.9l45.2,5.7C260,424.2,267,339.5,260.6,273.9z"/>
		<path class="st5" d="M113.6,169l21.7,16.8c0,0,10.3-10.7,17.5-24.6c7.2-13.9,4.9-17.4,4.9-17.4L143,131.8c0,0-4.2,17.3-9.7,23.2
			C127.7,160.8,113.6,169,113.6,169z"/>
		<path class="st6" d="M81.4,169c0,0,8.9,33.5,10.3,38.6c1.8,6.3,2.3,20.6,2.3,20.6l15.2-5.5l-2.7-29.2l-9.1-23.9L81.4,169z"/>
		<path class="st4" d="M94.1,408l16,0.2c0,0-0.7-205.4,0.4-212.6c1.1-7.1,12.3-19.7,12.3-19.7l-9.2-7c0,0-15.3,19.7-18.3,26.2
			C92.3,201.7,94.1,408,94.1,408z"/>
		<path class="st7" d="M106.2,202.5c0,1.8-1.9,3.3-4.2,3.3c-2.3,0-4.2-1.5-4.2-3.3c0-1.8,1.9-3.3,4.2-3.3
			C104.3,199.2,106.2,200.7,106.2,202.5z"/>
		<path class="st7" d="M106.2,232.4c0,1.8-1.9,3.3-4.2,3.3c-2.3,0-4.2-1.5-4.2-3.3c0-1.8,1.9-3.3,4.2-3.3
			C104.3,229.1,106.2,230.6,106.2,232.4z"/>
		<path class="st7" d="M106.2,258.1c0,1.8-1.9,3.3-4.2,3.3c-2.3,0-4.2-1.5-4.2-3.3c0-1.8,1.9-3.3,4.2-3.3
			C104.3,254.8,106.2,256.2,106.2,258.1z"/>
		<path class="st7" d="M106.2,286.1c0,1.8-1.9,3.3-4.2,3.3c-2.3,0-4.2-1.5-4.2-3.3c0-1.8,1.9-3.3,4.2-3.3
			C104.3,282.8,106.2,284.3,106.2,286.1z"/>
		<path class="st7" d="M106.2,313.3c0,1.8-1.9,3.3-4.2,3.3c-2.3,0-4.2-1.5-4.2-3.3c0-1.8,1.9-3.3,4.2-3.3
			C104.3,310.1,106.2,311.5,106.2,313.3z"/>
		<path class="st7" d="M106.2,339.6c0,1.8-1.9,3.3-4.2,3.3c-2.3,0-4.2-1.5-4.2-3.3c0-1.8,1.9-3.3,4.2-3.3
			C104.3,336.3,106.2,337.8,106.2,339.6z"/>
		<path class="st7" d="M106.2,366.9c0,1.8-1.9,3.3-4.2,3.3c-2.3,0-4.2-1.5-4.2-3.3c0-1.8,1.9-3.3,4.2-3.3
			C104.3,363.6,106.2,365,106.2,366.9z"/>
		<path class="st1" d="M96.9,180.5c0,1.8-1.9,3.3-4.2,3.3c-2.3,0-4.2-1.5-4.2-3.3c0-1.8,1.9-3.3,4.2-3.3
			C95,177.2,96.9,178.6,96.9,180.5z"/>
		<path class="st5" d="M86.3,169l-21.7,16.8c0,0-10.2-10.7-17.5-24.6c-7.3-13.9-4.9-17.4-4.9-17.4l14.6-12.1c0,0,4.2,17.3,9.7,23.2
			C72.1,160.8,86.3,169,86.3,169z"/>
		<g>
			<polygon class="st8" points="64.5,185.9 86.2,169 85.7,179 			"/>
			<polygon class="st8" points="135.2,185.9 113.5,169 120.7,179.7 			"/>
		</g>
		<polygon class="st9" points="182.6,392.3 110.2,408.3 198.3,407.6 194.7,255.6 		"/>
		<polygon class="st9" points="3.1,294 10.9,236.5 11.5,270.9 		"/>
		<g>
			<g>
				<path class="st10" d="M101.3,454.2l9.6-72.2c0,0-11.7,0.4-48.7-1.3c-37-1.7-47.8-8.7-47.8-8.7s-3.4,22.5-5.7,53.1
					C-0.2,541.6,25,605.9,20.8,631.9c-1.3,8.2-10.4,49.9-11.7,62c-1.1,10.7,10.2,80.7,10.2,89.5S3.1,811.1,3.1,811.1l3.9,9.6h51.2
					l2.4-9.6c0,0-10.1-22.9-10.1-27c0-6.6,22.9-76.6,22.9-99.7c0-23.1-7-38.6,2.3-59.1C83.4,608.2,101.3,454.2,101.3,454.2z"/>
				<path class="st10" d="M102.6,454.2L93,382c0,0,11.7,0.4,48.7-1.3c37-1.7,47.8-8.7,47.8-8.7s3.4,22.5,5.7,53.1
					c8.9,116.5-16.3,180.8-12.1,206.8c1.3,8.2,10.4,49.9,11.7,62c1.1,10.7-10.2,80.7-10.2,89.5s16.3,27.7,16.3,27.7l-3.9,9.6h-51.2
					l-2.4-9.6c0,0,10.1-22.9,10.1-27c0-6.6-22.9-76.6-22.9-99.7c0-23.1,7-38.6-2.3-59.1C120.6,608.2,102.6,454.2,102.6,454.2z"/>
			</g>
			<g>
				<g>
					<path class="st11" d="M1,810.4c0,0,0.1,6.4,0.4,7.5c0.3,1.2,7.8,10.7,17.8,13.7c12.6,3.8,18.4,2.5,26.5-0.3
						c9.7-3.4,16.2-12,16.5-13.2c0.4-1.2,0.1-7.8,0.1-7.8H1z"/>
					<g>
						<path class="st12" d="M58.6,802.2c-5.2-7-4.3-12.9-4.3-12.9s-10-2.2-22.3-1.8c-12.3-0.4-16.4,1.8-16.4,1.8s-3.2,5.8-8.5,12.8
							c-5.2,6.7-6,8.2-6,8.2c2.8,9.6,19.8,16.1,29.5,16.1c11.4,0.7,28.9-5.5,31.7-15.1C62.1,811.4,63.6,809,58.6,802.2z"/>
					</g>
					<polyline class="st13" points="16,791.6 51.3,795 15.2,798.6 53,802.8 14.6,803.1 52.4,798.8 16.1,794.1 50.7,790.7 					"/>
				</g>
				<g>
					<path class="st11" d="M203,810.4c0,0-0.1,6.4-0.4,7.5c-0.3,1.2-7.8,10.7-17.8,13.7c-12.6,3.8-18.4,2.5-26.5-0.3
						c-9.7-3.4-16.2-12-16.5-13.2c-0.4-1.2-0.1-7.8-0.1-7.8H203z"/>
					<g>
						<g>
							<path class="st12" d="M145.4,802.2c5.2-7,4.4-12.9,4.4-12.9s10-2.2,22.3-1.8c12.3-0.4,16.4,1.8,16.4,1.8s3.2,5.8,8.5,12.8
								c5.2,6.7,6,8.2,6,8.2c-2.8,9.6-20,16.1-29.6,16.1c-11.4,0.7-28.7-5.5-31.5-15.1C141.9,811.4,140.4,809,145.4,802.2z"/>
						</g>
					</g>
					<polyline class="st13" points="188,791.6 152.7,795 188.8,798.6 151,802.8 189.4,803.1 151.7,798.8 187.9,794.1 153.3,790.7 
											"/>
				</g>
				<path class="st14" d="M48.9,812.2c0,3-7.7,5.5-17.2,5.5c-9.5,0-17.2-2.4-17.2-5.5s7.7-5.5,17.2-5.5
					C41.2,806.7,48.9,809.1,48.9,812.2z"/>
				<path class="st14" d="M189.6,812.2c0,3-7.7,5.5-17.2,5.5c-9.5,0-17.2-2.4-17.2-5.5s7.7-5.5,17.2-5.5
					C181.8,806.7,189.6,809.1,189.6,812.2z"/>
			</g>
			<g>
				<g>
					<polygon class="st15" points="198.8,399.3 195.3,372.6 8.8,372.6 5.4,399.3 2,802.2 71,802.2 101.4,473.3 133.1,802.2 
						201.3,802.2 					"/>
					<polygon class="st16" points="6.1,451.9 97.2,372.6 199.4,452.1 201.3,797.8 175.2,451 101.7,443 					"/>
				</g>
			</g>
		</g>
		<g>
			<g>
				<path class="st17" d="M108.7,285.9v71.4c0,0-11.5,79.3-31,87.9c-19.5,8.7-88.6,9.5-88.6,9.5s6.6-68.3,11.6-115
					c4.1-37.9,4.2-42.7,2.8-61.1c-6.8-89.7-50.8-98.8-50.8-98.8l97.1-46.4c0,0,3.8,40.8,19.2,91.5
					C84.4,275.9,108.7,285.9,108.7,285.9z"/>
				<path class="st18" d="M3.8,274.7l-15,153.9h-53c0,0-4.3-97.5,2.1-174.8c5.4-64.5,14.6-74,14.6-74S1.9,184.7,3.8,274.7z"/>
				<polygon class="st19" points="49.1,342.3 4.6,342.3 0.6,362.6 42.5,364.9 				"/>
				<path class="st20" d="M23.9,156.7l13.9-16.1l11.9-5.7c0,0-0.2,4.2,1.5,12.3c2,9.7,2.9,21.6,2.9,21.6L23.9,156.7z"/>
				<path class="st20" d="M108.7,285.9c0,0-8.3,1.6-21.4-10.5c-9-8.3-17.9-19.7-27.4-33.3c-14.6-21-39.4-73.4-39.4-73.4l32.5-9.9
					c0,0,2.4,15.1,8,39.5c4.9,21.4,13,44.3,17.4,55C87.6,275.7,108.7,285.9,108.7,285.9z"/>
				<path class="st21" d="M23.9,155.1L37.8,139l11.9-5.7c0,0-0.2,4.2,1.5,12.3c2,9.7,2.9,21.6,2.9,21.6L23.9,155.1z"/>
				<path class="st22" d="M108.7,285.9c0,0-9.9-2.2-15.7-7.4c-9.2-8.2-22.7-25.1-32.2-38.6c-14.6-21-39.7-72.7-39.7-72.7l32-10.7
					c0,0,2.4,15.1,8,39.5c4.9,21.3,12.5,43.8,17.7,54.3C91,274.9,108.7,285.9,108.7,285.9z"/>
			</g>
			<g>
				<g>
					<path class="st23" d="M97.1,285.9v71.4c0,0,5.8,79.3,25.3,87.9c19.5,8.7,87,9.5,87,9.5s-5-68.3-10-115
						c-4.1-37.9-4.2-42.7-2.8-61.1c6.8-89.7,50.8-98.8,50.8-98.8l-97.1-46.4c0,0-3.8,40.8-19.2,91.5
						C115.6,275.9,97.1,285.9,97.1,285.9z"/>
					<path class="st18" d="M196.3,274.7l15,153.9h53c0,0,4.3-97.5-2.1-174.8c-5.4-64.5-14.6-74-14.6-74S198.2,184.7,196.3,274.7z"/>
					<polygon class="st19" points="151,342.3 195.4,342.3 199.5,362.6 157.5,364.9 					"/>
					<rect x="148" y="212.2" class="st19" width="48.3" height="11.3"/>
					<path class="st24" d="M178.2,156.2l-13.9-16.1l-11.9-5.7c0,0,0.2,4.2-1.5,12.3c-2,9.7-2.9,21.6-2.9,21.6L178.2,156.2z"/>
					<path class="st24" d="M97.1,285.9c0,0,6.3,0.2,12.7-5.1c9.6-7.9,20.8-26.1,30.2-39.6c14.6-21,39.7-72.7,39.7-72.7l-32-10.7
						c0,0-2.4,15.1-8,39.5c-4.9,21.3-13,44.3-17.4,55C113.2,274.6,97.1,285.9,97.1,285.9z"/>
					<path class="st21" d="M176.2,155.1L162.3,139l-11.9-5.7c0,0,0.2,4.2-1.5,12.3c-2,9.7-2.9,21.6-2.9,21.6L176.2,155.1z"/>
					<path class="st22" d="M97.1,285.9c0,0,5.6-1.1,12-6.4c9.6-7.9,20.8-26.1,30.2-39.6c14.6-21,39.7-72.7,39.7-72.7l-32-10.7
						c0,0-2.4,15.1-8,39.5c-4.9,21.3-13,44.3-17.4,55C112.4,273.4,97.1,285.9,97.1,285.9z"/>
				</g>
				<g>
					<path class="st15" d="M112.7,302.1c0,2.7-2.8,4.8-6.2,4.8s-6.2-2.2-6.2-4.8c0-2.7,2.8-4.8,6.2-4.8S112.7,299.5,112.7,302.1z"/>
					<path class="st25" d="M112.2,301.3c0,2.5-2.6,4.5-5.8,4.5c-3.2,0-5.8-2-5.8-4.5c0-2.5,2.6-4.5,5.8-4.5
						C109.5,296.7,112.2,298.8,112.2,301.3z"/>
				</g>
				<g>
					<path class="st15" d="M112.9,341.1c0,2.7-2.8,4.8-6.2,4.8c-3.4,0-6.2-2.2-6.2-4.8c0-2.7,2.8-4.8,6.2-4.8
						C110.2,336.3,112.9,338.4,112.9,341.1z"/>
					<path class="st25" d="M112.4,340.2c0,2.5-2.6,4.5-5.8,4.5c-3.2,0-5.8-2-5.8-4.5c0-2.5,2.6-4.5,5.8-4.5
						C109.8,335.7,112.4,337.7,112.4,340.2z"/>
				</g>
			</g>
		</g>
		<rect x="160" y="207.3" class="st26" width="35" height="4.2"/>
		<g>
			<path class="st27" d="M147.3,80.8c0,0,1.7-2.1,4.6-1.6c2.9,0.5,1.7,15,1.7,16.6c0,3.3-9.3,9.7-9.3,9.7L147.3,80.8z"/>
			<path class="st27" d="M54.4,80.8c0,0-1.7-2.1-4.6-1.6c-2.9,0.5-1.7,15-1.7,16.6c0,3.3,9.3,9.7,9.3,9.7L54.4,80.8z"/>
			<path class="st28" d="M109.5,26.5c-7.1-0.4-10.2-0.4-17.3,0c-16.8,1-41.8,18.7-39.8,38.3c0.6,5.7,4.6,42.1,5.7,44.3
				c8.4,16.8,15.5,21.6,19.6,24c5.4,3.2,13.3,5.6,23.7,5.2c11.3,0,17.4-2.7,22.7-5.4c4.5-2.3,11.2-6,19.5-23.8
				c1-2.2,5.2-38.6,5.7-44.3C151.3,45.3,126.3,27.6,109.5,26.5z"/>
			<g>
				<path class="st29" d="M69.1,81.7c0,0,4.5-2.8,6.8-3.2c2.2-0.3,7.5-0.5,10.4,0.8c3.1,1.3,5.5,3.7,5.5,3.7s-4.2,2-10.4,2.1
					C75,85.2,71.8,83.8,69.1,81.7z"/>
				<path class="st30" d="M91.9,83.3c0,0,3.8-4.1,2.2-7.9c-1.7-3.9-9.5-3.8-15.9-4.6c-7.2-1-13.9,2.7-13.9,3.1
					c0,0.4,0.7,3.2,1.7,5.1c1.2,2.3,2.1,2.2,2.1,2.2s4.8-1.8,6.1-2.3c1.3-0.5,5.6-0.9,7.9-0.8C87.5,78.2,91.9,83.3,91.9,83.3z"/>
				<path class="st31" d="M64.2,73.7c0,0,3.4-5.5,7.2-5.6c3.7-0.1,20.3,1.5,20.9,2.2c0.6,0.8,2.5,5.4,2,5.1c-1.4-1-14.9-4-18.2-4
					C72.8,71.5,69.3,71.5,64.2,73.7z"/>
				<g>
					<path class="st32" d="M86.3,81.6c0,2.1-2.4,3.8-5.3,3.8c-2.9,0-5.3-1.7-5.3-3.8c0-2.1,2.4-3.8,5.3-3.8
						C83.9,77.8,86.3,79.5,86.3,81.6z"/>
					<path class="st33" d="M84.7,81.6c0,1.6-1.7,2.9-3.7,2.9c-2,0-3.7-1.3-3.7-2.9c0-1.6,1.7-2.9,3.7-2.9
						C83,78.8,84.7,80.1,84.7,81.6z"/>
				</g>
				<path class="st34" d="M70.1,82.4c0,0,4.7,2.3,7.9,2.6c3.2,0.3,10.7-0.9,10.7-0.9s-4.4,2.3-7.7,2.3
					C77.7,86.5,72.8,86.3,70.1,82.4z"/>
				<path class="st35" d="M67.8,80.9c0,0,4-3.7,6.1-4.8c3.9-2.2,11.5-1.4,14.4,1.4c3.7,3.7,3.6,5.5,3.6,5.5S86.3,78.1,82,78
					C77.7,77.8,69.7,79.8,67.8,80.9z"/>
				<path class="st36" d="M67.7,80.9c0,0,8-3.3,10.9-3.4c4.5-0.2,9.8,1.8,11.6,3.8c1.8,2,1.8,2,1.8,2s-4.1-4.2-9-4.7
					c-6.4-0.5-13.9,3.1-13.9,3.1L67.7,80.9z"/>
			</g>
			<g>
				<path class="st29" d="M133.1,81.4c0,0-4.5-2.8-6.8-3.2c-2.2-0.3-7.5-0.5-10.4,0.8c-3.2,1.3-5.5,3.7-5.5,3.7s4.2,2,10.5,2.1
					C127.3,84.8,130.4,83.4,133.1,81.4z"/>
				<path class="st30" d="M110.3,82.9c0,0-3.8-4.1-2.2-7.9c1.7-3.9,9.5-3.8,15.9-4.6c7.2-1,13.9,2.7,13.9,3.1c0,0.4-0.7,3.2-1.7,5.1
					c-1.2,2.3-2.1,2.2-2.1,2.2s-4.8-1.8-6.1-2.3c-1.3-0.5-5.6-0.9-7.9-0.8C114.7,77.8,110.3,82.9,110.3,82.9z"/>
				<g>
					<path class="st32" d="M115.9,81.3c0,2.1,2.4,3.8,5.3,3.8c2.9,0,5.3-1.7,5.3-3.8c0-2.1-2.4-3.8-5.3-3.8
						C118.3,77.4,115.9,79.2,115.9,81.3z"/>
					<path class="st33" d="M117.6,81.3c0,1.6,1.7,2.9,3.7,2.9c2,0,3.7-1.3,3.7-2.9c0-1.6-1.7-2.9-3.7-2.9
						C119.2,78.4,117.6,79.7,117.6,81.3z"/>
				</g>
				<path class="st34" d="M132.2,82.1c0,0-4.7,2.3-7.9,2.6c-3.2,0.3-10.7-0.9-10.7-0.9s4.4,2.3,7.7,2.3
					C124.6,86.1,129.5,85.9,132.2,82.1z"/>
				<path class="st35" d="M134.5,80.6c0,0-4-3.7-6.1-4.8c-3.9-2.2-11.5-1.4-14.4,1.4c-3.7,3.7-3.6,5.6-3.6,5.6s5.5-4.9,9.8-5.1
					C124.6,77.5,132.5,79.4,134.5,80.6z"/>
				<path class="st36" d="M134.5,80.6c0,0-8-3.3-10.9-3.4c-4.5-0.2-9.8,1.8-11.6,3.8c-1.8,2-1.8,2-1.8,2s4.1-4.3,9-4.7
					c6.4-0.5,13.9,3.1,13.9,3.1L134.5,80.6z"/>
				<path class="st31" d="M138.1,73.4c0,0-3.4-5.5-7.2-5.6c-3.7-0.1-20.3,1.5-20.9,2.2c-0.6,0.7-2.5,5.4-2,5.1c1.4-1,14.9-4,18.2-4
					C129.5,71.1,133,71.2,138.1,73.4z"/>
			</g>
			<path class="st34" d="M106.8,78.4l1.4,13.9c0,0,1.1,2.7,2.5,3.6c1.1,0.7,1.4,1,1.4,1L106.8,78.4z"/>
			<g>
				<path class="st37" d="M80.1,113c0,0,9.4-1.9,11.9-2.2c2.6-0.3,8.1,0.8,8.9,0.8c0.7,0,0.1,3.1,0.1,3.1S88.1,115.7,80.1,113z"/>
				<path class="st38" d="M121.9,113c0,0-9.2-1.9-11.8-2.2c-2.6-0.3-8.3,0.8-9.1,0.8c-0.8,0-0.1,3.1-0.1,3.1S113.8,115.7,121.9,113z
					"/>
				<path class="st39" d="M121.9,113c-0.4,0.3-16.6,1.4-20.8,1.7c-4.1-0.3-20.4-1.5-20.9-1.7c0,0,9.7,6.7,14.8,7.5
					c2.1,0.3,5.4,0.6,6.1,0.5c0.6,0,4-0.2,6.1-0.5C112.2,119.7,121.9,113,121.9,113z"/>
			</g>
			<g>
				<path class="st40" d="M114.4,100c-0.9-0.2-8.1,0.9-11.3,0.9c-1.2,0-2,0-2.6,0c-0.6,0-1.5,0-2.6,0c-3.2,0-10.4-1.2-11.3-0.9
					c-0.9,0.2,0.9,1.3,0.9,1.3c2.3,0.8,8.1,1.5,11.6,1.9h2.9c3.5-0.4,9.3-1.1,11.6-1.9C113.5,101.4,115.2,100.3,114.4,100z"/>
				<path class="st41" d="M94.8,102.1c-1.4-0.3-4.2-0.4-4.8-1.1c-0.6-0.6,4.6,0.1,6.7,0.7C98.8,102.2,96.2,102.4,94.8,102.1z"/>
				<path class="st41" d="M106.4,102.1c1.4-0.3,4.2-0.4,4.8-1.1c0.6-0.6-4.6,0.1-6.7,0.7C102.4,102.2,105,102.4,106.4,102.1z"/>
			</g>
		</g>
		<path class="st42" d="M151.7,39.8c-4.1-8.5-9-13.2-13.9-14.9c-2.9-1-9.2-1.8-10-1.4c-0.2-0.5-21.6-10.3-38.9-8.3
			c-18.7,2.2-41.5,15.9-44.1,33.7c-4,27.5,10.4,44.8,10.4,44.8S53,75.7,54.2,72.3C55.4,69,63.8,59.1,90,57.5c15.9-1,39.9-6,39.9-6
			s-0.5,0.6,3.2,6.6c3.8,5.9,14,16.5,14.5,16.5c0.5,0-0.3,18.9-0.3,18.9S163.2,63.7,151.7,39.8z"/>
	</g>
</g>
</svg>
