<?xml version="1.0" encoding="utf-8"?>
<!-- Generator: Adobe Illustrator 23.0.4, SVG Export Plug-In . SVG Version: 6.00 Build 0)  -->
<svg version="1.0" id="Layer_1" xmlns="http://www.w3.org/2000/svg" xmlns:xlink="http://www.w3.org/1999/xlink" x="0px" y="0px"
	 viewBox="0 0 200 200" style="enable-background:new 0 0 200 200;" xml:space="preserve">
<style type="text/css">
	.st0{clip-path:url(#SVGID_2_);}
	.st1{fill:#D07E1C;}
	.st2{fill:#E1A98E;}
	.st3{fill:#E1AA90;}
	.st4{fill:#D8A08A;}
	.st5{fill:#D09A7D;}
	.st6{fill:#D09C83;}
	.st7{fill:#DFA998;}
	.st8{fill:#8F96A2;}
	.st9{fill:#E4AC97;}
	.st10{fill:#D5D28F;}
	.st11{fill:#72C161;}
	.st12{fill:#75926F;}
	.st13{fill:#C5BCAE;}
	.st14{fill:#FFFFFF;}
	.st15{fill:#EAB8A3;}
	.st16{fill:#DCA48D;}
	.st17{fill:#DDA490;}
	.st18{fill:#BE8271;}
	.st19{fill:#D28888;}
	.st20{fill:#DA8989;}
	.st21{fill:#E79D9D;}
	.st22{fill:#7C5643;}
	.st23{fill:#F3F0E9;}
	.st24{fill:#476626;stroke:#352C28;stroke-width:9.025100e-02;}
	.st25{fill:#1B1C1C;}
	.st26{fill:#E4B590;}
	.st27{fill:#BE8A71;}
	.st28{fill:#C08D74;}
	.st29{fill:#D29F83;}
	.st30{fill:#2A2432;}
	.st31{fill:#F99723;}
</style>
<g>
	<defs>
		<rect id="SVGID_1_" width="200" height="200"/>
	</defs>
	<use xlink:href="#SVGID_1_"  style="overflow:visible;fill:#CECEEF;"/>
	<clipPath id="SVGID_2_">
		<use xlink:href="#SVGID_1_"  style="overflow:visible;"/>
	</clipPath>
	<g class="st0">
		<path class="st1" d="M38.9,143.5c0,0,31.8,13,48.6-7.2c8.8-10.5,33.9,8.2,46.8,9.2c12.9,1,27.2,8.4,30.8-2.6
			c3.6-10.9-19.7-79.5-34.3-83.9c-14.6-4.4-47.9-9.6-58.6,1.7C61.4,72,40.7,116.1,38.9,143.5z"/>
		<path class="st2" d="M227.8,318.9c-2.5-4.4-19.2-55.1-26.4-73.3c-7.2-18.2-25.8-89.4-16.5-89.2c14,0.3,36.6,6.6,43.2,28.8
			c2.4,8.3,7.2,25.3,9.9,36.2c4.9,19.6,15.6,57.3,17.7,63c2.6,7.1,3.1,7.6,5.9,16.3C264.2,309.4,230.3,323.3,227.8,318.9z"/>
		<path class="st2" d="M-36.5,403.6h25.1c0,0,26.2-73.3,27.7-77.9c1.5-4.7,7.9-60.3,10.9-79.2c3-18.9,5.5-91.5-3.6-90.1
			c-13.7,2.2-34.6,11.4-36.1,34.1c-0.6,8.5-1.4,25.9-1.7,37c-0.5,19.9-0.9,59.8-2.1,64.3c-1.9,7.3-12.3,32.6-13.1,41.6
			C-30.1,342.5-36.5,403.6-36.5,403.6z"/>
		<path class="st3" d="M171.7,290c3.6-23.6,11.3-56.5,21.1-76c9.7-19.5,16.5-50.8,11.9-53.1c-8.1-3.9-15.2-4.8-28.3-7.5
			c-13.1-2.6-42.1-14.5-42.3-15.7c-0.6-3.7,0-23.3,0-23.3h-24.6h-2.1h-2.1H80.5c0,0,0.7,19.6,0,23.3c-0.2,1.2-29.2,13.1-42.3,15.7
			c-13.1,2.6-19.5,3.4-28.4,7.5c-4.7,2.2,2.2,33.5,11.9,53c9.7,19.5,17.4,52.4,21.1,76c2.9,18.9,4.4,23.4-7.6,43.5
			c-11.2,18.9-15.6,27.4-15.6,27.4s54.2,6.4,87.7,6.5c33.5-0.1,87.7-6.5,87.7-6.5s-4.4-8.5-15.6-27.4
			C167.3,313.4,168.7,308.9,171.7,290z"/>
		<path class="st4" d="M107.3,425.4v-58.6c-34.4,0-87.3-6.5-87.3-6.5c-5.3,5.2-16.8,50.1-11.8,74.2c2.9,14,30.4,156.3,30.4,156.3
			s-4.5,46.2-2.5,57.8c2,11.7,30,115.7,30,115.7c0.5,12.2-16.2,26.8-16.2,26.8l3.4,7h38.6l4.5-17.5L94,761.3c0,0-3.4-11-3.8-26.2
			c-0.5-20.6,2.1-49.1,3-68.2c1.5-33.2-6-62.9-3.7-70.5c2.2-7.6,3.1-10,4.4-15.4c1.3-5.5-0.4-16.9,0.9-24.8c1.3-7.9,3.6-25,8.1-65.2
			c4.5-40.2-5.3-67-5.3-67S104.5,425.3,107.3,425.4z"/>
		<path class="st4" d="M107.3,425.4v-58.6c34.4,0,87.3-6.5,87.3-6.5c5.2,5.2,16.8,50.1,11.8,74.2c-2.9,14-30.4,156.3-30.4,156.3
			s4.5,46.2,2.5,57.8c-2,11.7-29.9,115.7-29.9,115.7c-0.5,12.2,16.2,26.8,16.2,26.8l-3.4,7h-38.6l-4.5-17.5l2.2-19.2
			c0,0,3.4-11,3.8-26.2c0.5-20.6-2.1-49.1-3-68.2c-1.5-33.2,6-62.9,3.7-70.5c-2.2-7.6-3.1-10-4.4-15.4c-1.3-5.5,0.4-16.9-0.9-24.8
			c-1.3-7.9-3.6-25-8.1-65.2c-4.5-40.2,5.2-67,5.2-67S110.1,425.3,107.3,425.4z"/>
		<path class="st5" d="M2.1,468.7c0,0-3.5,4.5-5.6,7.3c-2.1,2.8-33-27.4-33-32.8c0-5.4,0-39.7,0-39.7h25.1l8.2,25.2l-3,28.3
			L2.1,468.7z"/>
		<path class="st6" d="M-19.6,436.3c0,0,6.9,23.4,7.9,24.5c0.9,1,5.2,0,5.2,0l3.4-31.9l-3.3-10.1L-19.6,436.3z"/>
		<path class="st7" d="M55.4,259.7c-14.2-1.4-27.6-6.7-27.9-21.5c-0.4-14.7,4.8-18.9,5.7-24.7c0.6-3.9,1.5-11.4,1.5-11.4
			s25.7-4.9,39.2,1.7c13.6,6.5,21.7,11.4,22.6,22.4C99.3,241.7,79.4,260.8,55.4,259.7z"/>
		<path class="st7" d="M160.4,259.7c14.1-1.4,27.5-6.7,27.9-21.5c0.4-14.7-4.8-18.9-5.7-24.7c-0.6-3.9-1.5-11.4-1.5-11.4
			s-25.7-4.9-39.2,1.7c-13.6,6.5-21.7,11.4-22.6,22.4C116.6,241.7,136.5,260.8,160.4,259.7z"/>
		<path class="st2" d="M167.4,395.2l33.2,17.3l-36.3,14.9c0,0-5-2.2-12.4-5.2c-4.9-2-4.3-3.9-3.7-6.5
			C148.7,413,167.4,395.2,167.4,395.2z"/>
		<path class="st8" d="M36.1,648.6c1.6,9,18.6,73.3,26.3,101.9h29.3c-0.7-4.2-1.3-9.4-1.4-15.3c-0.5-20.6,2.1-49.1,3-68.2
			c1.5-33.2,5.2-135.7,9.7-175.9c4.5-40.2-5.2-67-5.2-67s6.7,1.1,9.5,1.2c2.8-0.1,9.5-1.2,9.5-1.2s-9.7,26.8-5.2,67
			c4.5,40.2,8.2,142.7,9.7,175.9c0.9,19.1,3.5,47.5,3,68.2c-0.1,5.9-0.7,11.1-1.4,15.3h29.3c7.7-28.7,24.7-92.9,26.3-101.9
			c2-11.6,25.4-200.1,28-214.1c8.9-47.9-20.8-94-26-99.2c0,0-38.6,4.9-73.1,4.9c-34.4,0-72.7-5.4-72.7-5.4
			c-5.2,5.2-34.1,47.3-26.4,99.7C10.3,448.6,34.1,637,36.1,648.6z"/>
		<path class="st9" d="M221.1,382.1l-22.7-10.2c0,0,9.5-29.4,11.5-34.8c2.6-7.1,8.9-23.1,14.9-31.6c0,0,20.7-16.3,29.9-12.7
			c3.9,1.5,7.4,2.8,7,11.4c-0.3,7.4-5.6,23.1-10.9,31.2C245.4,343.4,221.1,382.1,221.1,382.1z"/>
		<path class="st5" d="M166.2,421.2c4.2-0.1,33.9-7.6,34.4-8.7c0.5-1.2,20.5-30.5,20.5-30.5l-21.9-13.2c0,0-22.1,3-27.8,6
			c-4.8,2.6-24.5,18.5-25.7,19.6c-2.3,2,5.6,4.6,7.7,4c2.1-0.6,18.9-11,18.9-11s-16.4,25.8-15.9,28.9
			C156.8,419.4,154.8,421.5,166.2,421.2z"/>
		<path class="st8" d="M166.1,392.8c0,0,33,19.3,36.6,20.4c3.6,1.1-41.7,21.9-52.7,14.2C139.1,419.7,166.1,392.8,166.1,392.8z"/>
		<g>
			<path class="st10" d="M114.4,211.4c0,1.5-1.6,2.8-3.5,2.8c-2,0-3.6-1.2-3.6-2.8c0-1.5,1.6-2.8,3.6-2.8
				C112.8,208.6,114.4,209.9,114.4,211.4z"/>
			<path class="st10" d="M114.4,246.7c0,1.5-1.6,2.8-3.5,2.8c-2,0-3.6-1.2-3.6-2.8c0-1.5,1.6-2.8,3.6-2.8
				C112.8,243.9,114.4,245.2,114.4,246.7z"/>
			<path class="st10" d="M114.4,277.3c0,1.5-1.6,2.8-3.5,2.8c-2,0-3.6-1.2-3.6-2.8c0-1.5,1.6-2.8,3.6-2.8
				C112.8,274.5,114.4,275.8,114.4,277.3z"/>
			<path class="st10" d="M114.4,312.6c0,1.5-1.6,2.8-3.5,2.8c-2,0-3.6-1.2-3.6-2.8c0-1.5,1.6-2.8,3.6-2.8
				C112.8,309.8,114.4,311.1,114.4,312.6z"/>
		</g>
		<g>
			<g>
				<path class="st11" d="M225.9,385.2c0,0,43.5-67.5,37.9-87.9c-10.3-37.1-36.7-121-42.9-127.5c-11.2-11.8-30.6-14.1-30.6-14.1
					s-48.5,15.9-79.8,16.3c-31.3,0.3-87.2-16.8-87.2-16.8s-12.7,1.9-28.5,13c-9.8,6.9-14.2,84.4-15.2,120.2
					c-0.4,14-5.3,19.2-10.7,47.6c-2,10.3-8.8,67.4-8.8,67.4l34.5,0.1c0,0,23.1-71.8,23.9-79.3c0.8-7.5,10-99.6,10-99.6l-5.7,126.9
					h171l-1.1-118.1l28.2,72l-24.1,61.9L225.9,385.2z"/>
				<polygon class="st12" points="179.5,337.2 28.4,351.5 193.8,351.5 191.9,217.5 				"/>
				<polygon class="st12" points="18.3,318.8 28.4,215.7 28.4,224.6 				"/>
			</g>
		</g>
		<g>
			<g>
				<path class="st13" d="M117.3,769.8c1.7-6.2,3.3-10.1,3.3-10.1s8.4,18,17.8,18.3c9.4-0.3,10.2-14.4,10.2-14.4s4.1,7.1,8.2,12.6
					c3.9,5.3,9.5,10.5,9.5,10.5c-2.1,7.6-22.5,5.9-25.3,5.7c-2.7,0.3-23.1,1.9-25.3-5.7C115.8,786.7,115.1,777.4,117.3,769.8z"/>
				<path class="st14" d="M115.8,786.7c0,0,2.6,3,9,4c3.4,0.5,7.9,0.7,11.9,0.8c0,0,1.8,0,4.4,0c2.6,0,4.4,0,4.4,0
					c4-0.1,8.5-0.2,11.9-0.8c6.5-1,9-4,9-4s1,10.7-3,12.5c-6.6,2.9-16.6,3.1-22.2,3c-5.6,0.1-15.6-0.1-22.2-3
					C114.7,797.4,115.8,786.7,115.8,786.7z"/>
			</g>
			<g>
				<path class="st13" d="M97.4,769.8c-1.8-6.2-3.3-10.1-3.3-10.1s-8.4,18-17.7,18.3c-9.4-0.3-10.2-14.4-10.2-14.4
					s-4.1,7.1-8.2,12.6c-3.9,5.3-9.5,10.5-9.5,10.5c2.1,7.6,22.5,5.9,25.3,5.7c2.7,0.3,23.1,1.9,25.3-5.7
					C98.9,786.7,99.5,777.4,97.4,769.8z"/>
				<path class="st14" d="M98.9,786.7c0,0-2.6,3-9,4c-3.4,0.5-7.9,0.7-11.9,0.8c0,0-1.8,0-4.4,0c-2.6,0-4.4,0-4.4,0
					c-4-0.1-8.5-0.2-11.8-0.8c-6.5-1-9-4-9-4s-1,10.7,3.1,12.5c6.5,2.9,16.6,3.1,22.2,3c5.6,0.1,15.7-0.1,22.2-3
					C100,797.4,98.9,786.7,98.9,786.7z"/>
			</g>
		</g>
		<path class="st15" d="M130.5,35.3c-6.3-3.7-15.7-5.4-24.6-5.4c-8.9,0-18.3,1.7-24.6,5.4C60.6,47.3,61.2,68.8,65,91.8
			c1.3,7.6,3.5,11,5,15.8c3,9.7,14.5,15.8,18.8,18c5.1,2.6,9.2,5.5,17.2,5.5c7.9-0.1,12.6-3.1,17.7-5.7c4.3-2.2,14.9-7.1,18.3-17.9
			c1.5-4.8,3.7-8.1,4.9-15.7C150.6,68.8,151.2,47.3,130.5,35.3z"/>
		<path class="st16" d="M64.3,97.5c0,0-5.4-6-5.7-7.2c-0.4-1.2-3.8-12.6-2.6-14.6c1.2-2,3.5-3.2,5.5-0.6c2,2.6,2,2.6,2,2.6
			s0.5,5.7,1.5,10.8C65.9,93.6,68.2,100,64.3,97.5z"/>
		<path class="st16" d="M147.5,97.5c0,0,5.4-6,5.7-7.2c0.4-1.2,3.8-12.6,2.6-14.6c-1.2-2-3.4-3.2-5.4-0.6c-2,2.6-2,2.6-2,2.6
			s-0.5,5.7-1.5,10.8C145.9,93.6,143.6,100,147.5,97.5z"/>
		<path class="st17" d="M114.2,95.9c-2.7-1-5.3,1.1-7.9,1.3c-2.6-0.1-5.2-2.2-7.9-1.3c-2.2,0.8-2.7,1.5-2.6,2.6
			c0.1,0.8,7.4,0.7,10.5,0.5c3.1,0.1,10.4,0.3,10.5-0.5C116.9,97.4,116.4,96.7,114.2,95.9z"/>
		<path class="st18" d="M97.7,98c-0.1-0.4,0.5-0.8,0.9-1c0.7-0.3,0.9-0.3,2.2,0c1.3,0.3,2.9,0.8,2.7,1C103.3,98.3,97.7,98.4,97.7,98
			z"/>
		<path class="st18" d="M114.9,98c0.1-0.4-0.5-0.8-0.9-1c-0.7-0.3-0.9-0.3-2.1,0c-1.2,0.3-2.9,0.8-2.7,1
			C109.4,98.3,114.9,98.4,114.9,98z"/>
		<path class="st17" d="M110.5,79.5l0.5,11.2c0,0,1.1,1.1,2.5,1.9c1.1,0.6,1.4,0.9,1.4,0.9L110.5,79.5z"/>
		<g>
			<path class="st19" d="M106.3,105.9c-0.2,0-0.5,0-0.6-0.1c-0.7-0.1-3.2-0.9-5.6-0.4c-2.4,0.5-9.2,4.4-9.2,4.4s13.2,0.5,15.4,0.5
				V105.9z"/>
			<path class="st20" d="M106.3,105.9c0.2,0,0.5,0,0.6-0.1c0.7-0.1,3.2-0.9,5.6-0.4c2.4,0.5,9.2,4.4,9.2,4.4s-13.2,0.5-15.4,0.5
				V105.9z"/>
			<path class="st21" d="M106.4,109.9c-4.1-0.3-14.6-1-15.5-0.1c0,0,4.5,4.3,7.4,5.3c1.9,0.6,3.7,0.8,5.5,0.9l0,0c0,0,0,0,1.3,0
				c0.4,0,0.8,0,1.2,0c0.4,0,0.8,0,1.2,0c1.3,0,1.3,0,1.3,0v0c1.8-0.1,3.6-0.2,5.5-0.9c2.8-1,7.4-5.3,7.4-5.3
				C120.8,108.9,110.5,109.6,106.4,109.9z"/>
		</g>
		<g>
			<path class="st22" d="M96.9,67.4c0.9,0.3,1.2,1,0.8,1.9c-0.1,0.2-0.4,0.8-1.3,0.8c-0.7,0-3.7-0.6-5.1-1.2
				c-5.1-1.8-7.9-2.8-11.6-2.3c-3.7,0.5-5.7,1.6-6.8,1.9c-1,0.3-1.8,0.6-0.9-0.2c0.8-0.8,3.7-2.6,8.4-3.4c2.6-0.5,4.8-0.5,7-0.1
				C91.5,65.4,96.1,67.2,96.9,67.4z"/>
			<g>
				<path class="st23" d="M96.3,78L96,78.7c0,0-1.3,1.8-7.1,1.9c-6.9,0.1-9.6-1.6-10.9-2.5c-1.3-1-1.3-1-1.3-1s3.4-3.1,7.3-3
					C87.9,74.2,93.2,74.4,96.3,78z"/>
				<g>
					<path class="st24" d="M92,77.3c0.1,2-2.1,3.6-4.9,3.7c-2.8,0-5-1.5-5.1-3.5c-0.1-2,2.1-3.6,4.9-3.7
						C89.7,73.8,91.9,75.3,92,77.3z"/>
					<path class="st25" d="M89.3,77.3c0,1-1,1.8-2.3,1.8c-1.3,0-2.3-0.8-2.4-1.8c0-1,1-1.8,2.3-1.8C88.2,75.6,89.3,76.4,89.3,77.3z"
						/>
				</g>
				<path class="st26" d="M81.5,79.6c2.4,0.8,4.5,1.1,7.6,1.1c3.1-0.1,5.2-0.7,5.2-0.7L92,80.8c-4.6,1.4-10.8,0-12.3-0.9
					c-1.4-0.9-3.2-2.6-3.2-2.6S79.1,78.8,81.5,79.6z"/>
				<path class="st27" d="M81.6,80.3c2.4,0.6,5.7,1.1,8.5,1c0.9,0-5.3,1.6-11-1.3c-1.4-0.7-2.7-2.8-2.7-2.8S79.2,79.6,81.6,80.3z"/>
				<path class="st28" d="M96.4,77.6c0,0-1.8-4.5-6.1-6.3c-4.9-2-8.9-1-11.3,0.3c-2.9,1.6-4.5,4.7-4.5,4.7s6.1-3.1,10.2-3.4
					C88.8,72.8,93.4,75.2,96.4,77.6z"/>
				<path class="st29" d="M96.6,78.1c0,0-2.7-4.7-6.4-6.2c-3.6-1.5-7.8-0.9-10.4,0.2c-2.7,1.1-5,4.1-5,4.1s5.3-2.1,9.4-2.3
					C88.4,73.7,93.6,75.7,96.6,78.1z"/>
				<path class="st30" d="M74.4,76.6c0,0,6.6-3.7,12.8-3.4c5.3,0.3,9.3,4.8,9.3,4.8s-5.9-3.9-10-3.8c-3.4,0.1-9.2,3.1-9.2,3.1
					L74.4,76.6z"/>
			</g>
			<path class="st22" d="M114.9,67.4c-0.9,0.3-1.2,1-0.8,1.9c0.1,0.2,0.4,0.8,1.2,0.8c0.7,0,3.7-0.6,5.1-1.2
				c5.1-1.8,7.9-2.8,11.6-2.3c3.7,0.5,5.7,1.6,6.8,1.9c1,0.3,1.8,0.6,0.9-0.2c-0.8-0.8-3.7-2.6-8.4-3.4c-2.6-0.5-4.8-0.5-7-0.1
				C120.3,65.4,115.7,67.2,114.9,67.4z"/>
			<g>
				<path class="st23" d="M115.5,78l0.2,0.7c0,0,1.3,1.8,7.1,1.9c6.9,0.1,9.6-1.6,10.9-2.5c1.3-1,1.3-1,1.3-1s-3.4-3.1-7.3-3
					C123.9,74.2,118.6,74.4,115.5,78z"/>
				<g>
					<path class="st24" d="M119.8,77.3c-0.1,2,2.1,3.6,4.9,3.7c2.8,0,5-1.5,5.1-3.5c0.1-2-2.1-3.6-4.9-3.7
						C122.1,73.8,119.9,75.3,119.8,77.3z"/>
					<path class="st25" d="M122.5,77.3c0,1,1,1.8,2.3,1.8c1.3,0,2.3-0.8,2.4-1.8c0-1-1-1.8-2.3-1.8
						C123.5,75.6,122.5,76.4,122.5,77.3z"/>
				</g>
				<path class="st26" d="M130.3,79.6c-2.4,0.8-4.5,1.1-7.6,1.1c-3.1-0.1-5.2-0.7-5.2-0.7l2.3,0.9c4.6,1.4,10.8,0,12.3-0.9
					c1.4-0.9,3.2-2.6,3.2-2.6S132.7,78.8,130.3,79.6z"/>
				<path class="st27" d="M130.2,80.3c-2.4,0.6-5.7,1.1-8.5,1c-0.9,0,5.3,1.6,11-1.3c1.4-0.7,2.7-2.8,2.7-2.8S132.6,79.6,130.2,80.3
					z"/>
				<path class="st28" d="M115.4,77.6c0,0,1.8-4.5,6.1-6.3c4.9-2,8.9-1,11.2,0.3c2.9,1.6,4.5,4.7,4.5,4.7s-6.1-3.1-10.2-3.4
					C123,72.8,118.4,75.2,115.4,77.6z"/>
				<path class="st29" d="M115.2,78.1c0,0,2.7-4.7,6.4-6.2c3.6-1.5,7.8-0.9,10.4,0.2c2.7,1.1,5,4.1,5,4.1s-5.3-2.1-9.4-2.3
					C123.4,73.7,118.1,75.7,115.2,78.1z"/>
				<path class="st30" d="M137.4,76.6c0,0-6.6-3.7-12.8-3.4c-5.3,0.3-9.3,4.8-9.3,4.8s5.9-3.9,10-3.8c3.4,0.1,9.2,3.1,9.2,3.1
					L137.4,76.6z"/>
			</g>
		</g>
		<path class="st31" d="M171.1,152.7c5.2-7.1,12-21.3,3-28.6c-6.2-5.1,6-21.4,0.1-26.1c-5.9-4.6-8.5-7.9-11.2-25.2
			c-2.7-17.2-12.8-43.6-28.7-47.9c-6-1.6-11.3-2.1-11.3-2.1s-14.5-6.3-24-6.3c-21,0-51.7,29-56.2,41.2c-4.5,12.2-0.4,29.8-5,36.7
			c-4.5,6.9-9.5,5.2-11.8,14.5c-2.3,9.2,8.3,16,8.8,21.8c0.5,5.9-5.2,16.9-3.5,23.2c1.8,6.3,41.9-9.3,36.9-29
			c-5-19.8,4.1-27.4,8.2-37.8c4.1-10.4,14.1-14.3,24.5-22.3c10.4-8,22.9-14.7,22.9-14.7s2.5,10.5,5.2,16c2.7,5.5,19,18.5,17.2,29.4
			c-1.8,10.9-3.2,13,0.5,28.1C150.3,138.8,167.8,157.3,171.1,152.7z"/>
	</g>
</g>
</svg>
