<?xml version="1.0" encoding="utf-8"?>
<!-- Generator: Adobe Illustrator 23.0.4, SVG Export Plug-In . SVG Version: 6.00 Build 0)  -->
<svg version="1.0" id="Layer_1" xmlns="http://www.w3.org/2000/svg" xmlns:xlink="http://www.w3.org/1999/xlink" x="0px" y="0px"
	 viewBox="0 0 200 200" style="enable-background:new 0 0 200 200;" xml:space="preserve">
<style type="text/css">
	.st0{clip-path:url(#SVGID_2_);}
	.st1{fill:#363442;}
	.st2{fill:#DCA58E;}
	.st3{fill:#E1A98E;}
	.st4{fill:#576A7C;}
	.st5{fill:#F3F3F3;}
	.st6{fill:none;stroke:#D0D0D0;stroke-width:0.3751;stroke-linecap:round;stroke-linejoin:round;}
	.st7{fill:#3982B4;}
	.st8{fill:#10709A;}
	.st9{fill:#2B7AA4;}
	.st10{fill:none;stroke:#9ACEE9;stroke-width:0.1322;stroke-miterlimit:10;stroke-dasharray:0.2694,0.2694;}
	.st11{fill:#3E91C0;}
	.st12{fill:none;stroke:#9ACEE9;stroke-width:0.1271;stroke-miterlimit:10;stroke-dasharray:0.259,0.259;}
	.st13{fill:#16394F;}
	.st14{fill:#988B58;}
	.st15{fill:none;stroke:#9ACEE9;stroke-width:0.1322;stroke-miterlimit:10;}
	.st16{fill:none;stroke:#9ACEE9;stroke-width:0.1322;stroke-miterlimit:10;stroke-dasharray:0.2671,0.2671;}
	.st17{fill:none;stroke:#9ACEE9;stroke-width:0.1322;stroke-miterlimit:10;stroke-dasharray:0.2535,0.2535;}
	.st18{fill:none;stroke:#9ACEE9;stroke-width:0.1322;stroke-miterlimit:10;stroke-dasharray:0.2411,0.2411;}
	.st19{fill:none;stroke:#9ACEE9;stroke-width:0.1322;stroke-miterlimit:10;stroke-dasharray:0.2631,0.2631;}
	.st20{fill:none;stroke:#9ACEE9;stroke-width:0.1322;stroke-miterlimit:10;stroke-dasharray:0.3045,0.3045;}
	.st21{fill:none;stroke:#9ACEE9;stroke-width:0.1322;stroke-miterlimit:10;stroke-dasharray:0.2516,0.2516;}
	.st22{fill:none;stroke:#9ACEE9;stroke-width:0.1322;stroke-miterlimit:10;stroke-dasharray:0.2818,0.2818;}
	.st23{fill:#DCA48D;}
	.st24{fill:#E0B09B;}
	.st25{fill:#D29B8B;}
	.st26{fill:#BB8181;}
	.st27{fill:#A97171;}
	.st28{fill:#CD9696;}
	.st29{fill:#FFFFFF;}
	.st30{fill:#957C5E;}
	.st31{fill:#58B0C5;stroke:#546B70;stroke-width:9.510800e-02;}
	.st32{fill:#1C1C1C;}
	.st33{fill:#C39381;}
	.st34{fill:#E1AF9E;}
	.st35{fill:#2A2432;}
	.st36{fill:#C09080;}
	.st37{fill:#7A4A46;}
	.st38{fill:#BB8A51;}
	.st39{fill:#A48B6B;}
	.st40{fill:#B99E78;}
	.st41{fill:#4D4C5B;}
	.st42{fill:#42424F;}
	.st43{fill:#5B5B68;}
	.st44{fill:#727283;}
</style>
<g>
	<defs>
		<rect id="SVGID_1_" width="200" height="200"/>
	</defs>
	<use xlink:href="#SVGID_1_"  style="overflow:visible;fill:#D1BFDB;"/>
	<clipPath id="SVGID_2_">
		<use xlink:href="#SVGID_1_"  style="overflow:visible;"/>
	</clipPath>
	<g class="st0">
		<path class="st1" d="M55,130.1c0,0,17.2,6.1,22.7,6.3c5.6,0.3,40.7,0.6,43.9-0.1c3.2-0.7,21.6-6.2,21.6-6.2s-6.2,23.3-10.8,26.2
			c-4.6,2.9-65.9,0.7-65.9,0.7S54,144.1,55,130.1z"/>
		<g>
			<g>
				<path class="st2" d="M93.8,452.3l-2.1-70c0,0,14.2,0.4,50-0.7c37.1-1.1,47.1-10.2,47.1-10.2s-0.1,27.3-0.9,58
					c-3.1,116.8-33.5,179-32,205.3c0.5,8.3,5.3,50.4,5.3,62.6c0,10.7-18.5,79.9-19.4,88.7c-0.9,8.8,8.5,24.6,8.5,24.6l-3.2,10.3
					l-47.9-0.1l-3.8-10.2c0,0,14.8-21.7,15.2-25.8c0.7-6.6-15-77.9-12.6-101c2.4-23,11-38.1,3.8-59.1
					C95.9,607,93.8,452.3,93.8,452.3z"/>
				<g>
					<path class="st2" d="M82.1,470.9l35.6-88.9c0,0-11.6,1.1-54.5-0.4c-37-1.3-49.4-10.2-49.4-10.2s-9,27.9-18.5,57.7
						c-36.2,113.4-26.6,180.2-36.9,205.3c-3.2,7.9-22,47.6-26.1,59.4c-3.6,10.4-8.9,80.9-11,89.5c-2.1,8.6-49.4,35.2-49.4,35.2v9.6
						h43.6l0.1-9.6c0,0,38.2-29.8,38.7-31.6c1.8-6.4,38.2-70.7,43.6-93.4c5.4-22.7,2.2-39,16.2-57.9
						C25.6,619.9,82.1,470.9,82.1,470.9z"/>
					<path class="st2" d="M-46.1,816c1.8-3.5,0.2-29.1,0.2-29.1l-38.7,31.6l-0.1,9.6c0,0,15.8-6.7,23.6-9.1
						C-57.8,818-46.8,817.4-46.1,816z"/>
				</g>
			</g>
			<path class="st3" d="M249.6,420.7c0,0,5.6,35.1,4.7,39.2c-0.9,4.1-14.4,21.8-15.6,23.7c-1.2,1.9-37.1,4.8-36.2,1.4
				c0.9-3.4,3.3-11.8,3.3-11.8l16.3-6.5l1.3-19l-7.5,7.3l0.8,13.7l-10.9,4.4c0,0-3.8-28.2-3.2-30.6c0.5-2.5,16.7-24.4,16.7-24.4
				L249.6,420.7z"/>
			<path class="st3" d="M-52.3,242.7l-5,63.9c-4.4,24.1,10.5,114.6,10.5,114.6l30.2-2.4l22-163.8v-90.7c0,0-34.1,12.3-44.7,23.3
				C-55.5,204.7-52.3,242.7-52.3,242.7z"/>
			<path class="st3" d="M255.3,242.7l5,63.9c4.3,24.1-10.6,114-10.6,114l-30.2-2.4l-21.9-163.2v-90.7c0,0,34.1,12.3,44.7,23.3
				C258.5,204.7,255.3,242.7,255.3,242.7z"/>
			<path class="st2" d="M217.3,173.1c-27.8-13.4-77.7-33.1-79.1-35.3c-1.4-2.2,0-23.9,0-23.9H64.5c0,0,1.4,21.7,0,23.9
				c-1.4,2.2-48.8,21.9-79.1,35.2c-20.5,9,16,82.4,16,82.4s12.9,68.2,13.3,72.2c1.2,12-1.3,49.1-1.3,49.1s0.4,3.3,16.8,6.1
				c16.4,2.8,53.1,4.5,71.1,4.4s54.7-1.6,71.1-4.4c16.4-2.8,16.7-6.1,16.7-6.1s-2.4-37.1-1.2-49.1c0.4-4.1,13.3-72.2,13.3-72.2
				S237.3,182.8,217.3,173.1z"/>
			<path class="st3" d="M-28.4,496.9c-3.2-3.4-26.5-26.4-27.4-31.3c-1.2-6.9,9.1-44.3,9.1-44.3l30.2-2.4c0,0,6.9,18.9,7.7,21.5
				c0.8,2.7,0,32.4-0.1,33.9c-0.1,1.5-10.2,1.1-10.6-1.1c-0.4-2.2-5.2-18.8-5.2-18.8l0,0l-1.7,17.4c0,0,10.4,14.4,11.7,16.5
				C-13.8,489.8-25.2,500.3-28.4,496.9z"/>
			<g>
				<g>
					<path class="st4" d="M97.8,795.4c5-7,4.2-12.9,4.2-12.9s9.6-2.2,21.5-1.8c11.8-0.4,15.8,1.8,15.8,1.8s3.1,5.8,8.2,12.8
						c4.9,6.7,7.9,13.7,7.9,13.7c-2.7,9.6-28.5,7.5-31.9,7.2c-3.5,0.3-29.2,2.4-31.9-7.2C91.5,809,93,802.2,97.8,795.4z"/>
					<path class="st5" d="M91.5,809c0,0,3.3,3.8,11.4,5c4.3,0.6,10,0.9,15,1c0,0,2.2,0,5.5,0c3.3,0,5.5,0,5.5,0c5-0.1,10.7-0.3,15-1
						c8.2-1.2,11.4-5,11.4-5s1.3,10.7-3.9,13c-8.3,3.6-21,3.9-28.1,3.8c-7.1,0.2-19.8-0.2-28.1-3.8C90.3,819.8,91.5,809,91.5,809z"
						/>
				</g>
				<polyline class="st6" points="138.7,789.1 104.8,792.5 139.5,796.2 103.2,800.3 140.1,800.6 103.8,796.4 138.6,791.7 
					105.4,788.3 				"/>
			</g>
			<g>
				<g>
					<path class="st4" d="M-34.4,805.6c0,0-1-10-2-13.5c-1-3.5-0.9-6.8-0.9-6.8s-21.5-2.3-31.9-1.6c-10.4,0.7-20.3,1-23.4,3.8
						c-3.1,2.8-3.1,6.9-18.8,15.9s-23.2,14.8-24,16.7c-0.8,1.9-0.8,2.4-0.8,2.4s18.9,4.2,39.4,2.4c15.6-1.4,21.7-2.2,35.9-9.6
						C-51,810-34.4,805.6-34.4,805.6z"/>
					<path class="st5" d="M-136.1,821.7c0,0-3.1,10.3,4.5,12.2c10.3,2.6,42.7,1.4,58.5-5.3c15.9-6.7,17.4-9.1,28.7-11.5
						c11.4-2.4,11.1-3.1,10.4-7.3c-0.6-4.2-0.6-4.2-0.6-4.2s-14.3,2.8-22.1,6.2c-3,1.3-16.3,8.4-28.6,10.2
						C-101.5,824.4-123.5,826.2-136.1,821.7z"/>
				</g>
				<g>
					<polyline class="st6" points="-95.7,794 -62.6,794 -101.1,797.6 -81.4,804.7 -113.6,805.3 -92.8,809.3 -107.4,801.5 
						-72.1,799.4 -97.9,793.2 					"/>
				</g>
			</g>
			<g>
				<polygon class="st7" points="8.1,387.4 -118.2,795.4 -32.9,795.4 93.6,465.9 83.8,794.1 160,792.8 192.9,387.4 				"/>
				<polygon class="st8" points="93.6,466.3 80.9,458.6 -52.5,795.5 -32.9,795.5 				"/>
				<polygon class="st8" points="192.6,391.3 159.6,792.6 163.3,397 				"/>
			</g>
			<g>
				<path class="st9" d="M8.5,383.1c0,0,48.3,5,87.4,5.1c38.2,0.1,98-5.7,98-5.7l-1.3,15.2c0,0-56.3,5.3-96.5,5.3
					c-35.7,0-90.9-5.3-90.9-5.3S7.9,387.1,8.5,383.1z"/>
				<path class="st10" d="M-4.2,415.1"/>
				<path class="st10" d="M-0.1,414.8"/>
				<g>
					<path class="st11" d="M90.5,388.2l-6.9,55.6c0,0,15.9,1.1,22.2-12.1c6.3-13.2,7-43.6,7-43.6L90.5,388.2z"/>
					<path class="st12" d="M108.1,402.4c-0.8,9.9-2.4,22-5.7,29c-4.4,9.2-13.9,10.2-18.5,10l-0.3,2.3c0,0,15.9,1.1,22.2-12.1
						c3.5-7.4,5.3-19.8,6-29.3L108.1,402.4z"/>
					<polygon class="st10" points="85.7,462 81.7,458.9 83.6,443.8 87.1,444 					"/>
					<path class="st13" d="M108.4,395.8c-0.1,0.5-2.9,0.7-6.4,0.4c-3.5-0.3-6.2-0.8-6.2-1.3c0.1-0.5,2.9-0.7,6.4-0.5
						C105.7,394.7,108.5,395.3,108.4,395.8z"/>
					<path class="st14" d="M103.5,395.5c-0.3,2.3-2.9,3.9-6,3.7c-3-0.2-5.2-2.2-4.9-4.5c0.3-2.3,3-3.9,6-3.7
						C101.5,391.2,103.8,393.2,103.5,395.5z"/>
				</g>
				<path class="st10" d="M4.9,396.4c0,0,70.5,5.8,99.6,5.1c43.3-1,88.1-5.4,88.1-5.4"/>
				<g>
					<path class="st10" d="M47.4,400.8c0,0-7.8,11.3-17.6,13.9c-14.5,3.9-31,3.4-31,3.4l1-3.1c0,0,22.9-0.2,30.2-4
						c4.6-2.3,11.8-10.7,11.8-10.7L47.4,400.8z"/>
					<path class="st14" d="M44.6,403c0,0.9-0.9,1.6-2.1,1.6c-1.2,0-2.1-0.7-2.1-1.6c0-0.9,0.9-1.6,2.1-1.6
						C43.7,401.4,44.6,402.2,44.6,403z"/>
					<path class="st14" d="M28.4,405.3c0,0.9-0.9,1.6-2.1,1.6c-1.2,0-2.1-0.7-2.1-1.6c0-0.9,1-1.6,2.1-1.6
						C27.5,403.7,28.4,404.4,28.4,405.3z"/>
					<g>
						<g>
							<polyline class="st15" points="6.2,401.2 5.5,401.2 5.3,401.7 							"/>
							<line class="st16" x1="5" y1="402.9" x2="2" y2="413.9"/>
							<polyline class="st15" points="1.8,414.5 1.6,415.1 2.4,415 							"/>
							<line class="st17" x1="3.8" y1="414.8" x2="26" y2="412.3"/>
							<polyline class="st15" points="26.8,412.2 27.5,412.1 27.6,411.5 							"/>
							<line class="st18" x1="27.9" y1="410.5" x2="29.1" y2="404.7"/>
							<polyline class="st15" points="29.2,404.1 29.4,403.5 28.6,403.5 							"/>
							<line class="st19" x1="27.1" y1="403.3" x2="7" y2="401.3"/>
						</g>
					</g>
					<g>
						<g>
							<line class="st15" x1="3.9" y1="415" x2="4.1" y2="414.4"/>
							<line class="st20" x1="4.5" y1="413.1" x2="6.6" y2="405.9"/>
							<polyline class="st15" points="6.8,405.2 7,404.6 7.8,404.7 							"/>
							<line class="st21" x1="9.2" y1="404.8" x2="22.8" y2="405.7"/>
							<polyline class="st15" points="23.5,405.7 24.3,405.8 24.2,406.4 							"/>
							<line class="st22" x1="24" y1="407.6" x2="23.3" y2="412"/>
							<line class="st15" x1="23.2" y1="412.6" x2="23.1" y2="413.2"/>
						</g>
					</g>
					<polygon class="st11" points="58,412.1 50.8,410.7 56.4,390.2 63.7,391.3 					"/>
					<polygon class="st10" points="57.3,410.7 52,409.8 57.2,391.3 62.6,392.2 					"/>
				</g>
				<g>
					<path class="st10" d="M137.4,400.8c0,0,7.8,11.3,17.5,13.9c14.5,3.9,35.8,3.4,35.8,3.4v-3.1c0,0-28.6-0.2-36-4
						c-4.5-2.3-11.8-10.7-11.8-10.7L137.4,400.8z"/>
					<path class="st14" d="M140.2,403c0,0.9,0.9,1.6,2.1,1.6c1.2,0,2.1-0.7,2.1-1.6c0-0.9-0.9-1.6-2.1-1.6
						C141.1,401.4,140.2,402.2,140.2,403z"/>
					<polygon class="st11" points="126.8,412.1 134,410.7 128.4,390.2 121.1,391.3 					"/>
					<polygon class="st10" points="127.5,410.7 132.8,409.8 127.6,391.3 122.2,392.2 					"/>
				</g>
			</g>
			<g>
				<path class="st23" d="M54.7,81.5c0,0-1.7-2.1-4.6-1.6c-2.9,0.5-1.7,15-1.7,16.6c0,3.3,9.3,9.7,9.3,9.7L54.7,81.5z"/>
				<path class="st23" d="M147.5,81.5c0,0,1.7-2.1,4.6-1.6c2.9,0.5,1.7,15,1.7,16.6c0,3.3-9.3,9.7-9.3,9.7L147.5,81.5z"/>
				<path class="st24" d="M92.5,27.3c7.1-0.4,10.2-0.4,17.3,0c16.8,1,41.8,18.7,39.8,38.3c-0.6,5.7-4.3,42.2-5.7,44.3
					c-1.4,2.1-21.5,20.2-25.1,22.9c-3.6,2.8-17.6,3.2-17.6,3.2s-14-0.4-17.6-3.2c-3.6-2.8-23.7-20.8-25.1-22.9
					c-1.4-2.1-5.2-38.6-5.7-44.3C50.7,46,75.6,28.3,92.5,27.3z"/>
				<path class="st25" d="M105.8,79.6l1.4,12.3c0,0,1.1,2.4,2.5,3.2c1.1,0.6,1.4,0.9,1.4,0.9L105.8,79.6z"/>
				<g>
					<g>
						<path class="st26" d="M84,112.2c0,0,7.7-1.6,9.9-1.8c2.2-0.3,6.7,0.7,7.4,0.7c0.6,0,0.1,2.6,0.1,2.6S90.6,114.4,84,112.2z"/>
						<path class="st27" d="M118.6,112.2c0,0-7.6-1.6-9.8-1.8c-2.1-0.3-6.9,0.7-7.5,0.7c-0.6,0-0.1,2.6-0.1,2.6
							S111.9,114.4,118.6,112.2z"/>
						<path class="st28" d="M118.6,112.2c-0.4,0.2-13.7,1.2-17.3,1.4c-3.4-0.3-16.9-1.3-17.3-1.4c0,0,8,5.6,12.3,6.2
							c1.8,0.3,4.5,0.5,5,0.5c0.5,0,3.3-0.2,5-0.5C110.5,117.7,118.6,112.2,118.6,112.2z"/>
					</g>
					<g>
						<path class="st29" d="M69.3,82.1c0,0,4.9-3.5,7.2-3.8c2.2-0.3,6.9-0.5,9.8,0.7c3.2,1.3,5.7,4.4,5.7,4.4s-4.2,2-10.4,2.1
							C75.1,85.5,71.9,84.1,69.3,82.1z"/>
						<path class="st25" d="M92.1,83.6c0,0,4.7-4,2.6-7.3c-2.1-3.4-9.9-3.1-16.3-3.9c-7.2-0.9-14.1,1.7-14.1,2
							c0,0.3,0.9,3.6,1.8,5.3c1.2,2.1,2.1,2,2.1,2s4.8-1.6,6.1-2.1c1.3-0.5,5.2-1.1,7.6-1.2C88.5,78.2,92.1,83.6,92.1,83.6z"/>
						<path class="st30" d="M64.3,74.3c0,0,3.4-4.9,7.2-5.1c3.8-0.1,20.3,1.3,20.9,2c0.6,0.7,2.5,4.9,2,4.6
							c-1.4-0.9-14.9-3.7-18.2-3.6C72.9,72.3,69.4,72.3,64.3,74.3z"/>
						<g>
							<path class="st31" d="M85.9,81.7c0,2.1-2.4,3.8-5.3,3.8c-2.9,0-5.3-1.7-5.3-3.8c0-2.1,2.4-3.8,5.3-3.8
								C83.5,77.8,85.9,79.6,85.9,81.7z"/>
							<path class="st32" d="M83.4,81.7c0,1.2-1.3,2.2-2.8,2.2c-1.6,0-2.8-1-2.8-2.2s1.3-2.2,2.8-2.2C82.2,79.5,83.4,80.5,83.4,81.7
								z"/>
						</g>
						<path class="st33" d="M69.1,82c0,0,6.1,3,9.3,3.4c5.4,0.7,13.3-1.8,13.3-1.8s-8.5,3.3-11.8,3.3C76.6,86.9,71.8,85.9,69.1,82z"
							/>
						<path class="st34" d="M67.9,81.3c0,0,3-3.6,5.1-4.7c3.9-2.2,12.3-1.6,15.2,1.2c3.7,3.7,3.8,5.6,3.8,5.6s-5.7-6.1-10-6.2
							C77.6,77,69.8,80.1,67.9,81.3z"/>
						<path class="st35" d="M67.1,80.9c0,0,8.7-3.8,11.6-4c4.6-0.2,9.8,2,11.6,4.4c1.8,2.3,1.8,2.3,1.8,2.3s-4.1-4.9-9-5.3
							C76.7,77.7,69.1,82,69.1,82L67.1,80.9z"/>
					</g>
					<g>
						<path class="st36" d="M111.2,99.5c-0.7-0.2-6.2,0.9-8.6,0.9c-0.9,0-1.5,0-2,0c-0.5,0-1.1,0-2,0c-2.4,0-7.9-1.1-8.6-0.9
							c-0.7,0.2,0.7,1.3,0.7,1.3c1.8,0.8,6.2,1.6,8.8,2h2.2c2.7-0.4,7-1.1,8.8-2C110.6,100.8,111.9,99.7,111.2,99.5z"/>
						<path class="st37" d="M96.3,101.6c-1.1-0.3-3.2-0.4-3.6-1.1c-0.5-0.6,3.5,0.1,5.1,0.7C99.4,101.7,97.4,101.8,96.3,101.6z"/>
						<path class="st37" d="M105.2,101.6c1.1-0.3,3.2-0.4,3.6-1.1c0.5-0.6-3.5,0.1-5.1,0.7C102.1,101.7,104.1,101.8,105.2,101.6z"/>
					</g>
					<g>
						<g>
							<path class="st29" d="M132.3,82.1c0,0-4.9-3.5-7.2-3.8c-2.2-0.3-6.9-0.5-9.8,0.7c-3.1,1.3-5.7,4.4-5.7,4.4s4.2,2,10.5,2.1
								C126.5,85.5,129.7,84.1,132.3,82.1z"/>
							<path class="st25" d="M109.5,83.6c0,0-4.7-4-2.6-7.3c2.1-3.4,9.9-3.1,16.3-3.9c7.2-0.9,14.1,1.7,14.1,2
								c0,0.3-0.9,3.6-1.8,5.3c-1.2,2.1-2.1,2-2.1,2s-4.8-1.6-6.1-2.1c-1.3-0.5-5.2-1.1-7.6-1.2C113.1,78.2,109.5,83.6,109.5,83.6z"
								/>
							<path class="st30" d="M137.3,74.3c0,0-3.4-4.9-7.2-5.1c-3.7-0.1-20.3,1.3-20.9,2c-0.6,0.7-2.5,4.9-2,4.6
								c1.4-0.9,14.9-3.7,18.2-3.6C128.7,72.3,132.2,72.3,137.3,74.3z"/>
							<g>
								<path class="st31" d="M115.7,81.7c0,2.1,2.4,3.8,5.3,3.8c2.9,0,5.3-1.7,5.3-3.8c0-2.1-2.4-3.8-5.3-3.8
									C118.1,77.8,115.7,79.6,115.7,81.7z"/>
								<ellipse class="st32" cx="121" cy="81.7" rx="2.8" ry="2.2"/>
							</g>
							<path class="st33" d="M132.5,82c0,0-6.1,3-9.3,3.4c-5.4,0.7-13.3-1.8-13.3-1.8s8.5,3.3,11.8,3.3
								C125,86.9,129.8,85.9,132.5,82z"/>
							<path class="st34" d="M133.7,81.3c0,0-3-3.6-5.1-4.7c-3.9-2.2-12.3-1.6-15.2,1.2c-3.7,3.7-3.8,5.6-3.8,5.6s5.3-6,9.6-6.1
								C123.6,77.1,131.8,80.1,133.7,81.3z"/>
							<path class="st35" d="M134.5,80.9c0,0-8.7-3.8-11.6-4c-4.6-0.2-9.8,2-11.6,4.4c-1.8,2.3-1.8,2.3-1.8,2.3s4.1-4.9,9-5.3
								c6.4-0.6,14.1,3.7,14.1,3.7L134.5,80.9z"/>
						</g>
					</g>
				</g>
				<g>
					<g>
						<g>
							<path class="st38" d="M101.3,144.7L101.3,144.7C101.3,144.8,103.9,144.8,101.3,144.7z"/>
							<path class="st38" d="M100.9,144.8L100.9,144.8C98.2,144.8,100.9,144.8,100.9,144.8z"/>
						</g>
					</g>
				</g>
				<path class="st39" d="M111,35.9c0,0,17.9-1,28.5,19.1c2.6,4.8,9,29.4,6.6,36.8c0,0,3.9-2.1,4.9-11.5c0,0,8-9.5,5-27.6
					c-2-12.1-19.3-32.4-36.5-26.1L111,35.9z"/>
				<path class="st40" d="M45.8,49.9c-3.3,20,0.4,25.7,0.4,25.7c3.3,9.1,10.1,13.7,10.1,13.7s-0.4-3.1-0.4-7
					c-0.4-24.8,16.9-22.9,16.9-22.9C65,65.1,61.4,73,61.4,73c10.5-8.5,15.7-7,25.2-9.6c27.4-7.7,46.6-20.3,46.6-20.3l-2.5-11
					C119.2,2.5,50.5,21.5,45.8,49.9z"/>
			</g>
		</g>
		<path class="st41" d="M264.7,251.5c0,0-9-53.2-20.9-66.2c-14-15.3-87.2-41.4-87.2-41.4l-55.3,42.6L83,169.8l-42.6-25.2
			c0,0-70.4,25-84.4,40.3c-11.9,13-19.5,71.9-19.5,71.9l50.6,9.1l15.1,3.7L1.6,405.3l195.9,0.4l4.1-137.6l9.8-2.1L264.7,251.5z"/>
		<polygon class="st1" points="185.5,390 4.7,405.3 197.5,405.6 201.5,232.9 		"/>
		<polygon class="st1" points="-8.9,266.8 1,233.9 1.7,269.1 		"/>
		<path class="st42" d="M80,168.1c0,0,9.6,34.2,9.8,39.5c0.3,5.3,1,15.3,1,15.3l16.9-0.1l-2.1-29.6l-7.7-24.6L80,168.1z"/>
		<path class="st43" d="M90.6,223.1l17.6-0.1c0,0,0.5-20.3,1.7-27.6c1.1-7.3,12.5-20.1,12.5-20.1l-9.4-7.1c0,0-15.6,20.1-18.7,26.8
			C91.2,201.6,90.6,223.1,90.6,223.1z"/>
		<path class="st44" d="M113.1,168.1l22.2,17.2c0,0,10.5-11,17.9-25.1c7.4-14.2,5-17.8,5-17.8l-14.9-12.3c0,0-4.3,17.7-9.9,23.7
			C127.6,159.7,113.1,168.1,113.1,168.1z"/>
		<path class="st44" d="M85.3,168.1L63,185.4c0,0-10.5-11-17.9-25.1c-7.4-14.2-5-17.8-5-17.8l14.9-12.3c0,0,4.3,17.7,10,23.7
			C70.7,159.7,85.3,168.1,85.3,168.1z"/>
		<path class="st1" d="M104.3,209.4c0,1.8-1.9,3.4-4.3,3.4c-2.4,0-4.3-1.5-4.3-3.4c0-1.8,1.9-3.3,4.3-3.3
			C102.4,206,104.3,207.5,104.3,209.4z"/>
		<path class="st1" d="M96.6,180.1c0,1.8-1.9,3.4-4.3,3.4c-2.4,0-4.3-1.5-4.3-3.4c0-1.8,1.9-3.4,4.3-3.4
			C94.6,176.7,96.6,178.2,96.6,180.1z"/>
		<polygon class="st1" points="63.1,185.4 85.3,168.1 82,179 		"/>
		<polygon class="st1" points="135.3,185.4 113.2,168.1 119.4,179.3 		"/>
	</g>
</g>
</svg>
