<?xml version="1.0" encoding="utf-8"?>
<!-- Generator: Adobe Illustrator 23.0.4, SVG Export Plug-In . SVG Version: 6.00 Build 0)  -->
<svg version="1.0" id="Layer_1" xmlns="http://www.w3.org/2000/svg" xmlns:xlink="http://www.w3.org/1999/xlink" x="0px" y="0px"
	 viewBox="0 0 200 200" style="enable-background:new 0 0 200 200;" xml:space="preserve">
<style type="text/css">
	.st0{clip-path:url(#SVGID_2_);}
	.st1{fill:#D8DEE1;}
	.st2{fill:#5E4945;}
	.st3{fill:#916E64;}
	.st4{fill:#957169;}
	.st5{fill:#9F7C73;}
	.st6{fill:#9A7272;}
	.st7{fill:#906363;}
	.st8{fill:#CD9696;}
	.st9{fill:#916E66;}
	.st10{fill:#352A20;}
	.st11{fill:#FFFFFF;}
	.st12{fill:#332B22;}
	.st13{fill:#1C1C1C;}
	.st14{fill:#A97E75;}
	.st15{fill:#2A2432;}
	.st16{fill:#8D675F;}
	.st17{fill:#7C5751;}
	.st18{fill:#4F2A29;}
	.st19{fill:#473B34;}
	.st20{fill:#352F2C;}
	.st21{fill:#8D5132;}
	.st22{fill:none;stroke:#5B2D18;stroke-width:0.2551;stroke-linecap:round;stroke-linejoin:round;}
	.st23{fill:#A26448;}
	.st24{fill:#F1F2F3;}
	.st25{fill:#FAFCFA;}
	.st26{fill:#D0DCDF;}
	.st27{fill:#F8F8F8;}
	.st28{fill:#8F96A2;}
	.st29{fill:#878E98;}
	.st30{fill:#D2BEB7;}
	.st31{fill:#C0A9A2;}
	.st32{fill:#A0A7B6;}
	.st33{fill:#A6ACB6;}
	.st34{fill:#A4AAB4;}
	.st35{fill:#848C98;}
	.st36{fill:#BFC3CD;}
	.st37{fill:#AFB5C5;}
	.st38{fill:#B4B9C5;}
	.st39{fill:#78808D;}
	.st40{fill:#959CA7;}
</style>
<g>
	<defs>
		<rect id="SVGID_1_" width="200" height="200"/>
	</defs>
	<use xlink:href="#SVGID_1_"  style="overflow:visible;fill:#D5D3EA;"/>
	<clipPath id="SVGID_2_">
		<use xlink:href="#SVGID_1_"  style="overflow:visible;"/>
	</clipPath>
	<g class="st0">
		<g>
			<path class="st1" d="M56.4,134.7c0,0,11.1,5.9,16.5,6.2c5.5,0.3,39.8,0.6,43-0.1c3.1-0.7,21.6-6.1,21.6-6.1s-6.5,22.8-11,25.7
				C122,163.3,62,161,62,161S55.4,148.4,56.4,134.7z"/>
			<g>
				<g>
					<path class="st2" d="M95.7,454.9l9.6-72.2c0,0-11.7,0.4-48.7-1.3c-37-1.7-47.8-8.7-47.8-8.7s-3.4,22.5-5.7,53.1
						c-8.9,116.5,16.3,180.8,12.1,206.8c-1.3,8.2-10.4,49.9-11.7,62c-1.1,10.7,10.2,80.7,10.2,89.5s-16.2,27.7-16.2,27.7l3.9,9.6
						h51.2l2.4-9.6c0,0-10.1-22.9-10.1-27c0-6.6,22.9-76.6,22.9-99.7c0-23.1-7-38.6,2.3-59.1C77.8,608.9,95.7,454.9,95.7,454.9z"/>
					<path class="st2" d="M97,454.9l-9.6-72.2c0,0,11.7,0.4,48.7-1.3c37-1.7,47.8-8.7,47.8-8.7s3.4,22.5,5.7,53.1
						c8.9,116.5-16.3,180.8-12.1,206.8c1.3,8.2,10.4,49.9,11.7,62c1.1,10.7-10.2,80.7-10.2,89.5s16.2,27.7,16.2,27.7l-3.9,9.6h-51.2
						l-2.4-9.6c0,0,10.1-22.9,10.1-27c0-6.6-22.9-76.6-22.9-99.7c0-23.1,7-38.6-2.3-59.1C115,608.9,97,454.9,97,454.9z"/>
				</g>
				<path class="st3" d="M212.3,173.6c-27.8-13.4-77.7-33.1-79.1-35.3c-1.4-2.2,0-23.9,0-23.9H59.6c0,0,1.4,21.7,0,23.9
					c-1.4,2.2-48.8,21.9-79.1,35.2c-20.6,9,16,82.4,16,82.4s12.9,68.2,13.3,72.2c1.2,12-1.3,49.1-1.3,49.1s0.4,3.3,16.8,6.1
					c16.4,2.8,53.1,4.5,71.1,4.4c18-0.1,54.7-1.6,71.1-4.4c16.4-2.8,16.7-6.1,16.7-6.1s-2.4-37.1-1.2-49.1
					c0.4-4.1,13.3-72.2,13.3-72.2S232.4,183.2,212.3,173.6z"/>
				<g>
					<path class="st2" d="M-57.3,243.2l-5,63.9c-4.4,24.1,10.5,114.6,10.5,114.6l30.3-2.4l22-163.8v-90.7c0,0-34.1,12.3-44.7,23.3
						C-60.5,205.2-57.3,243.2-57.3,243.2z"/>
					<path class="st2" d="M-33.4,497.3c-3.3-3.4-26.6-26.4-27.4-31.3c-1.2-6.9,9.1-44.3,9.1-44.3l30.3-2.4c0,0,6.9,18.9,7.7,21.5
						c0.8,2.7,0,32.4-0.1,33.9c-0.1,1.5-10.2,1.1-10.6-1.1c-0.4-2.2-5.2-18.8-5.2-18.8l0,0l-1.7,17.4c0,0,10.4,14.4,11.7,16.5
						C-18.8,490.3-30.2,500.7-33.4,497.3z"/>
				</g>
				<g>
					<path class="st2" d="M250.3,243.2l5,63.9c4.4,24.1-10.5,114.6-10.5,114.6l-30.2-2.4l-22-163.8v-90.7c0,0,34.1,12.3,44.7,23.3
						C253.5,205.2,250.3,243.2,250.3,243.2z"/>
					<path class="st2" d="M226.4,497.3c3.3-3.4,26.6-26.4,27.4-31.3c1.2-6.9-9.1-44.3-9.1-44.3l-30.2-2.4c0,0-6.9,18.9-7.7,21.5
						c-0.8,2.7,0,32.4,0.1,33.9c0.1,1.5,10.2,1.1,10.6-1.1c0.4-2.2,5.2-18.8,5.2-18.8l0,0l1.7,17.4c0,0-10.4,14.4-11.7,16.5
						C211.8,490.3,223.1,500.7,226.4,497.3z"/>
				</g>
				<path class="st4" d="M50.1,83.9c0,0-1.7-2.1-4.6-1.6c-2.9,0.5-1.7,15-1.7,16.6c0,3.3,9.9,9.7,9.9,9.7L50.1,83.9z"/>
				<path class="st4" d="M142.9,83.9c0,0,1.7-2.1,4.6-1.6s1.7,15,1.7,16.6c0,3.3-9.6,9.4-9.6,9.4L142.9,83.9z"/>
				<path class="st5" d="M87.8,29.7c7.1-0.4,10.2-0.4,17.3,0c16.8,1,41.8,18.4,39.9,37.7c-0.6,5.6-5.2,41.2-5.7,43.6
					c-1.1,4.5-21.5,19.8-25.1,22.6c-3.6,2.7-17.6,3.1-17.6,3.1s-14-0.4-17.6-3.1c-3.6-2.7-24.3-19.1-25.1-22.6
					c-0.6-2.3-5.2-38-5.7-43.6C46,48.1,71,30.7,87.8,29.7z"/>
				<g>
					<path class="st6" d="M116,113.7c0,0-8.6-4-11-4.5c-2.4-0.5-7.4-0.1-8.2-0.1c-0.7,0-0.1,6.1-0.1,6.1S108.6,117.9,116,113.7z"/>
					<path class="st7" d="M77.6,113.7c0,0,8.4-4,10.8-4.5c2.4-0.5,7.6-0.1,8.3-0.1c0.7,0,0.1,6.1,0.1,6.1S85,117.9,77.6,113.7z"/>
					<path class="st8" d="M77.6,113.7c0.4,0.3,15.2,1.2,19.1,1.5c3.8-0.3,18.7-1.4,19.2-1.5c0,0-8.9,6.8-13.6,7.6
						c-2,0.3-5,0.6-5.6,0.6c-0.6,0-3.6-0.2-5.6-0.6C86.6,120.5,77.6,113.7,77.6,113.7z"/>
				</g>
				<g>
					<path class="st9" d="M105.9,85c0,0-4.7-4.5-2.6-8.1c2.1-3.7,9.9-3.5,16.3-4.3c7.2-1,14.1,1.9,14.1,2.2c0,0.4-0.9,4-1.8,5.9
						c-1.2,2.3-2.1,2.2-2.1,2.2s-4.8-1.8-6.1-2.3c-1.3-0.5-5.2-1.2-7.6-1.3C109.6,79,105.9,85,105.9,85z"/>
					<path class="st10" d="M133.7,74.4c0,0-3.4-6-7.2-6.2c-3.8-0.1-20.3,1.6-20.9,2.5c-0.6,0.8-2.5,6-2,5.6
						c1.4-1.1,14.9-4.5,18.2-4.4C125.1,72,128.6,72.1,133.7,74.4z"/>
					<g>
						<path class="st11" d="M128.8,83.4c0,0-5-3.1-7.2-3.3c-2.2-0.3-6.9-0.5-9.8,0.6c-3.1,1.2-5.7,3.9-5.7,3.9s4.2,1.8,10.5,1.8
							C122.9,86.5,126.1,85.2,128.8,83.4z"/>
						<g>
							<path class="st12" d="M112.1,83.1c0,2.3,2.4,4.1,5.3,4.1c2.9,0,5.3-1.9,5.3-4.1c0-2.3-2.4-4.1-5.3-4.1
								C114.5,78.9,112.1,80.8,112.1,83.1z"/>
							<path class="st13" d="M114.2,83.1c0,1.4,1.5,2.5,3.2,2.5c1.8,0,3.2-1.1,3.2-2.5c0-1.4-1.4-2.5-3.2-2.5
								C115.7,80.6,114.2,81.7,114.2,83.1z"/>
						</g>
						<path class="st2" d="M128.8,83.4c0,0-5.9,2.3-9.1,2.6c-5.4,0.6-13.7-1.3-13.7-1.3s8.9,2.6,12.2,2.6S126.1,86.8,128.8,83.4z"/>
						<path class="st14" d="M130.1,82.7c0,0-2.3-3.7-4.3-4.8c-6.4-3.4-13-2.5-16.6,1.2c-3.4,3.5-3.2,5.4-3.2,5.4s5.7-4.9,10-5
							C120.4,79.4,128.2,81.7,130.1,82.7z"/>
						<path class="st15" d="M130.9,82.4c0,0-8.7-3.4-11.6-3.5c-4.6-0.2-9.8,1.8-11.6,3.9c-1.8,2.1-1.8,2.1-1.8,2.1s4.1-4.3,9-4.7
							c6.4-0.6,14.1,3.3,14.1,3.3L130.9,82.4z"/>
					</g>
				</g>
				<g>
					<path class="st9" d="M87.1,85c0,0,4.7-4.5,2.6-8.1c-2.1-3.7-9.9-3.5-16.3-4.3c-7.2-1-14.1,1.9-14.1,2.2c0,0.4,0.9,4,1.8,5.9
						c1.2,2.3,2.1,2.2,2.1,2.2s4.8-1.8,6.1-2.3c1.3-0.5,5.2-1.2,7.6-1.3C83.5,79,87.1,85,87.1,85z"/>
					<path class="st10" d="M59.4,74.4c0,0,3.4-6,7.2-6.2c3.8-0.1,20.3,1.6,20.9,2.5c0.6,0.8,2.5,6,2,5.6c-1.4-1.1-14.9-4.5-18.2-4.4
						C68,72,64.5,72.1,59.4,74.4z"/>
					<g>
						<path class="st11" d="M64.3,83.4c0,0,5-3.1,7.2-3.3c2.2-0.3,6.9-0.5,9.8,0.6c3.1,1.2,5.7,3.9,5.7,3.9s-4.2,1.8-10.5,1.8
							C70.2,86.5,67,85.2,64.3,83.4z"/>
						<g>
							<path class="st12" d="M81,83.1c0,2.3-2.4,4.1-5.3,4.1c-2.9,0-5.3-1.9-5.3-4.1c0-2.3,2.4-4.1,5.3-4.1
								C78.6,78.9,81,80.8,81,83.1z"/>
							<path class="st13" d="M78.9,83.1c0,1.4-1.5,2.5-3.2,2.5c-1.8,0-3.2-1.1-3.2-2.5c0-1.4,1.4-2.5,3.2-2.5
								C77.4,80.6,78.9,81.7,78.9,83.1z"/>
						</g>
						<path class="st2" d="M64.3,83.4c0,0,5.9,2.3,9.1,2.6c5.4,0.6,13.7-1.3,13.7-1.3s-8.9,2.6-12.2,2.6
							C71.7,87.4,67,86.8,64.3,83.4z"/>
						<path class="st14" d="M62.9,82.7c0,0,2.3-3.7,4.3-4.8c6.4-3.4,13-2.5,16.6,1.2c3.4,3.5,3.2,5.4,3.2,5.4s-5.7-4.9-10-5
							C72.7,79.4,64.9,81.7,62.9,82.7z"/>
						<path class="st15" d="M62.2,82.4c0,0,8.7-3.4,11.6-3.5c4.6-0.2,9.8,1.8,11.6,3.9c1.8,2.1,1.8,2.1,1.8,2.1s-4.1-4.3-9-4.7
							c-6.4-0.6-14.1,3.3-14.1,3.3L62.2,82.4z"/>
					</g>
				</g>
				<path class="st16" d="M101.2,80.2l2.3,10.9c0,0,1.2,1.8,3.4,2.5c1.9,0.6,3,1.1,3,1.1L101.2,80.2z"/>
				<g>
					<path class="st17" d="M111.6,99.9c-1.1-0.4-5.6-2.8-7.8-2c-2.1,0.7-4.1,2.1-6,2.1c-1.5,0.1-4-1.3-6-2.1c-2.2-0.7-6.7,1.6-7.8,2
						c-1.1,0.4,0.4,2,1.7,2.3c1.3,0.3,3.3-0.4,6.8-0.6c1.5-0.1,4.6,0.5,5.3,0.4c0.8,0.1,3.8-0.5,5.4-0.4c3.5,0.2,5.5,1,6.8,0.6
						C111.2,101.9,112.7,100.3,111.6,99.9z"/>
					<path class="st18" d="M92.6,99.4c0.2,0.5-1.2,1.2-3.2,1.7c-1.9,0.5-3.7,0.5-3.9,0c-0.2-0.5,1.2-1.2,3.2-1.7
						C90.7,98.9,92.4,98.9,92.6,99.4z"/>
					<path class="st18" d="M103.4,99.4c-0.2,0.5,1.2,1.2,3.2,1.7c1.9,0.5,3.7,0.5,3.9,0c0.2-0.5-1.2-1.2-3.2-1.7
						C105.3,98.9,103.6,98.9,103.4,99.4z"/>
				</g>
			</g>
			<path class="st19" d="M146,51.9c-7.8-21.8-32.5-27.5-48.9-27.4C81,24.6,58,29.9,48.6,49.7c-6.2,13.1-1.2,29.2-0.6,32
				c0.1,0.6,1.7,0.8,1.9,2.1c0.6,5,0.9,6.2,0.9,6.2l3-2.9c0,0-0.4-15.9,1.7-26.9c1.1-6.1,4.3-9.3,5.6-10.6
				c3.8-3.6,14.6-0.5,24.6,1.2c4.2,0.7,18.3,0.7,22.6,0c10-1.7,20.8-4.8,24.6-1.2c1.4,1.3,4.4,4.7,5.5,10.9
				c2,10.9,1.8,26.5,1.8,26.5l3,2.9c0,0,0.1-1.2,0.9-6.2c0.1-0.5,0.8-1.6,1-2C146.6,79,148.6,59,146,51.9z"/>
			<g>
				<g>
					<path class="st20" d="M197.1,814.8c0,0,0,4.2-0.2,5.3c-0.5,3.1-12,13.4-30.6,13.4c-15.2,0-29-6.9-30.6-12.4
						c-0.3-1.2,0-6.3,0-6.3H197.1z"/>
					<g>
						<g>
							<g>
								<path class="st21" d="M139.5,806.7c5.2-7,4.4-12.9,4.4-12.9s10-2.2,22.3-1.8c12.3-0.4,16.4,1.8,16.4,1.8s3.2,5.8,8.5,12.8
									c5.2,6.7,6,8.2,6,8.2c-2.8,9.6-20,16.1-29.6,16.1c-11.4,0.7-28.7-5.5-31.5-15.1C136,815.8,134.5,813.4,139.5,806.7z"/>
							</g>
						</g>
					</g>
					<polyline class="st22" points="182.1,796 146.8,799.4 182.9,803.1 145.1,807.3 183.5,807.5 145.7,803.3 182,798.6 147.4,795.2 
											"/>
				</g>
				<path class="st23" d="M183.6,816.6c0,3-7.7,5.5-17.2,5.5c-9.5,0-17.2-2.4-17.2-5.5c0-3,7.7-5.5,17.2-5.5
					C175.9,811.2,183.6,813.6,183.6,816.6z"/>
			</g>
			<g>
				<g>
					<path class="st20" d="M-5.5,814.8c0,0,0,4.2,0.2,5.3c0.5,3.1,12,13.4,30.6,13.4c15.2,0,29-6.9,30.6-12.4c0.3-1.2,0-6.3,0-6.3
						H-5.5z"/>
					<g>
						<g>
							<g>
								<path class="st21" d="M52.1,806.7c-5.2-7-4.4-12.9-4.4-12.9s-10-2.2-22.3-1.8C13.1,791.6,9,793.8,9,793.8s-3.2,5.8-8.5,12.8
									c-5.2,6.7-6,8.2-6,8.2c2.8,9.6,20,16.1,29.6,16.1c11.4,0.7,28.7-5.5,31.5-15.1C55.6,815.8,57.1,813.4,52.1,806.7z"/>
							</g>
						</g>
					</g>
					<polyline class="st22" points="9.6,796 44.9,799.4 8.7,803.1 46.5,807.3 8.2,807.5 45.9,803.3 9.7,798.6 44.2,795.2 					"/>
				</g>
				<path class="st23" d="M8,816.6c0,3,7.7,5.5,17.2,5.5c9.5,0,17.2-2.4,17.2-5.5c0-3-7.7-5.5-17.2-5.5C15.7,811.2,8,813.6,8,816.6z
					"/>
			</g>
			<g>
				<path class="st24" d="M114.1,171.1l-10,2.7H89.5l-30.7-8.1L43.6,146c0,0-77.9,28.9-92.1,43.6c-10.7,11.1-13.4,42.4-16.1,97
					c-2.8,57.5,4.7,141,4.7,141h42.2L0.2,273.4L3.5,311l-9.3,102.7l100-0.5h19.9V171.1z"/>
				<path class="st24" d="M80,171.1l10,2.7h14.6l30.7-8.1l13.4-19.8c0,0,79.6,28.9,93.8,43.6c10.7,11.1,13.4,42.4,16.1,97
					c2.8,57.5-4.7,141-4.7,141h-42.2l-17.3-148.7l-3.9,32.2l4.3,99.6l-95,2.5H80V171.1z"/>
			</g>
			<polygon class="st25" points="87.9,413.1 103.9,413.4 104.1,173.9 89.3,173.9 			"/>
			<g>
				<path class="st26" d="M100,205.4c0,1.8-1.9,3.3-4.2,3.3c-2.3,0-4.2-1.5-4.2-3.3c0-1.8,1.9-3.3,4.2-3.3
					C98.1,202.1,100,203.6,100,205.4z"/>
				<path class="st26" d="M100,182.6c0,1.8-1.9,3.3-4.2,3.3c-2.3,0-4.2-1.5-4.2-3.3c0-1.8,1.9-3.3,4.2-3.3
					C98.1,179.3,100,180.8,100,182.6z"/>
				<path class="st26" d="M100,235.3c0,1.8-1.9,3.3-4.2,3.3c-2.3,0-4.2-1.5-4.2-3.3c0-1.8,1.9-3.3,4.2-3.3
					C98.1,232,100,233.5,100,235.3z"/>
				<path class="st26" d="M100,260.9c0,1.8-1.9,3.3-4.2,3.3c-2.3,0-4.2-1.5-4.2-3.3c0-1.8,1.9-3.3,4.2-3.3
					C98.1,257.7,100,259.1,100,260.9z"/>
				<path class="st26" d="M100,289c0,1.8-1.9,3.3-4.2,3.3c-2.3,0-4.2-1.5-4.2-3.3c0-1.8,1.9-3.3,4.2-3.3
					C98.1,285.7,100,287.2,100,289z"/>
				<path class="st26" d="M100,316.2c0,1.8-1.9,3.3-4.2,3.3c-2.3,0-4.2-1.5-4.2-3.3c0-1.8,1.9-3.3,4.2-3.3
					C98.1,312.9,100,314.4,100,316.2z"/>
				<path class="st26" d="M100,342.5c0,1.8-1.9,3.3-4.2,3.3c-2.3,0-4.2-1.5-4.2-3.3c0-1.8,1.9-3.3,4.2-3.3
					C98.1,339.2,100,340.7,100,342.5z"/>
				<path class="st26" d="M100,369.8c0,1.8-1.9,3.3-4.2,3.3c-2.3,0-4.2-1.5-4.2-3.3c0-1.8,1.9-3.3,4.2-3.3
					C98.1,366.5,100,367.9,100,369.8z"/>
			</g>
			<g>
				<path class="st27" d="M100,204.3c0,1.8-1.9,3.3-4.2,3.3c-2.3,0-4.2-1.5-4.2-3.3c0-1.8,1.9-3.3,4.2-3.3
					C98.1,201.1,100,202.5,100,204.3z"/>
				<path class="st27" d="M100,181.6c0,1.8-1.9,3.3-4.2,3.3c-2.3,0-4.2-1.5-4.2-3.3c0-1.8,1.9-3.3,4.2-3.3
					C98.1,178.3,100,179.8,100,181.6z"/>
				<path class="st27" d="M100,234.3c0,1.8-1.9,3.3-4.2,3.3c-2.3,0-4.2-1.5-4.2-3.3c0-1.8,1.9-3.3,4.2-3.3
					C98.1,231,100,232.5,100,234.3z"/>
				<path class="st27" d="M100,259.9c0,1.8-1.9,3.3-4.2,3.3c-2.3,0-4.2-1.5-4.2-3.3c0-1.8,1.9-3.3,4.2-3.3
					C98.1,256.7,100,258.1,100,259.9z"/>
				<path class="st27" d="M100,288c0,1.8-1.9,3.3-4.2,3.3c-2.3,0-4.2-1.5-4.2-3.3c0-1.8,1.9-3.3,4.2-3.3
					C98.1,284.7,100,286.2,100,288z"/>
				<path class="st27" d="M100,315.2c0,1.8-1.9,3.3-4.2,3.3c-2.3,0-4.2-1.5-4.2-3.3c0-1.8,1.9-3.3,4.2-3.3
					C98.1,311.9,100,313.4,100,315.2z"/>
				<path class="st27" d="M100,341.5c0,1.8-1.9,3.3-4.2,3.3c-2.3,0-4.2-1.5-4.2-3.3c0-1.8,1.9-3.3,4.2-3.3
					C98.1,338.2,100,339.7,100,341.5z"/>
				<path class="st27" d="M100,368.7c0,1.8-1.9,3.3-4.2,3.3c-2.3,0-4.2-1.5-4.2-3.3c0-1.8,1.9-3.3,4.2-3.3
					C98.1,365.5,100,366.9,100,368.7z"/>
			</g>
			<g>
				<polygon class="st1" points="71,188.3 89.3,173.9 85.3,187 				"/>
				<polygon class="st1" points="121.2,188.8 104.1,173.9 107.5,187.1 				"/>
			</g>
			<g>
				<g>
					<g>
						<polygon class="st28" points="192.8,403.7 189.4,377.1 2.9,377.1 -0.6,403.7 -3.9,802.2 59.3,802.2 95.5,477.8 132.9,802.2 
							195.4,802.2 						"/>
					</g>
					<g>
						<polygon class="st29" points="0.2,456.4 91.3,377.1 193.4,456.6 195.4,802.2 169.3,455.5 95.7,443 						"/>
					</g>
				</g>
			</g>
			<g>
				<path class="st30" d="M116.3,228.8c-1-8-11.2-31.8-11.2-31.8h-7.9h-8.5c0,0-9.6,23.8-10.6,31.8c-1,8-1.2,106-1.2,106l20,21.8
					l20.6-21.8C117.5,334.8,117.2,236.8,116.3,228.8z"/>
				<path class="st31" d="M88.2,196.9c0.6,0.3,17.6,0,17.6,0s14.5-21.9,13.4-22.7c-1.1-0.8-44.7,0-44.7,0S87.2,196.4,88.2,196.9z"/>
			</g>
			<path class="st11" d="M89.3,173.9L71,188.3c0,0-18.8-11.6-26-25.4c-7.2-13.9-3.2-18.6-3.2-18.6l14.5-9.5c0,0-0.3,17,5.3,22.8
				C67.1,163.4,89.3,173.9,89.3,173.9z"/>
			<path class="st11" d="M104.1,173.9l17.2,14.9c0,0,16.6-11.9,23.8-25.8c7.3-13.9,6.9-18.2,6.9-18.2l-14.6-10.2
				c0,0-5.2,17-10.2,23.2C114.9,172.6,104.1,173.9,104.1,173.9z"/>
			<g>
				<path class="st32" d="M105.9,292.1v71.4c0,0-11.5,79.3-31,87.9c-19.5,8.7-88.6,9.5-88.6,9.5s6.6-68.3,11.6-115
					c4.1-37.9,4.2-42.7,2.8-61.1c-6.8-89.7-50.8-98.8-50.8-98.8l97.1-46.4c0,0,3.8,40.8,19.2,91.5
					C81.6,282.1,105.9,292.1,105.9,292.1z"/>
				<path class="st33" d="M1,280.8l-15,153.9h-47.3c0,0-10-97.5-3.6-174.8c5.4-64.5,14.6-74,14.6-74S-0.9,190.8,1,280.8z"/>
				<polygon class="st34" points="46.2,348.5 1.8,348.5 -2.2,368.8 39.7,371.1 				"/>
				<path class="st35" d="M21.1,162.9l13.9-16.1l11.9-5.7c0,0-0.2,4.2,1.5,12.3c2,9.7,2.9,21.6,2.9,21.6L21.1,162.9z"/>
				<path class="st35" d="M105.9,292.1c0,0-8.3,1.6-21.4-10.5c-9-8.3-17.9-19.7-27.4-33.3c-14.6-21-39.4-73.4-39.4-73.4l32.5-9.9
					c0,0,2.4,15.1,8,39.5c4.9,21.3,13,44.3,17.4,55C84.8,281.9,105.9,292.1,105.9,292.1z"/>
				<path class="st36" d="M21.1,161.3l13.9-16.1l11.9-5.7c0,0-0.2,4.2,1.5,12.3c2,9.7,2.9,21.6,2.9,21.6L21.1,161.3z"/>
				<path class="st36" d="M105.9,292.1c0,0-9.9-2.2-15.7-7.4c-9.2-8.2-22.7-25.1-32.2-38.6c-14.6-21-39.7-72.7-39.7-72.7l32-10.7
					c0,0,2.4,15.1,8,39.5c4.9,21.3,12.5,43.8,17.7,54.3C88.2,281,105.9,292.1,105.9,292.1z"/>
			</g>
			<g>
				<g>
					<path class="st37" d="M94.3,292.1v71.4c0,0,5.8,79.3,25.3,87.9c19.5,8.7,87,9.5,87,9.5s-5-68.3-10-115
						c-4.1-37.9-4.2-42.7-2.8-61.1c6.8-89.7,50.8-98.8,50.8-98.8l-97.1-46.4c0,0-3.8,40.8-19.2,91.5
						C112.8,282.1,94.3,292.1,94.3,292.1z"/>
					<path class="st38" d="M193.4,280.8L208,434.7h47.7c0,0,10-97.5,3.6-174.8c-5.4-64.5-14.6-74-14.6-74S195.4,190.8,193.4,280.8z"
						/>
					<polygon class="st34" points="148.2,348.5 192.6,348.5 196.7,368.8 154.7,371.1 					"/>
					<path class="st35" d="M175.4,162.3l-13.9-16.1l-11.9-5.7c0,0,0.2,4.2-1.5,12.3c-2,9.7-2.9,21.6-2.9,21.6L175.4,162.3z"/>
					<path class="st36" d="M173.4,161.3l-13.9-16.1l-11.9-5.7c0,0,0.2,4.2-1.5,12.3c-2,9.7-2.9,21.6-2.9,21.6L173.4,161.3z"/>
					<polygon class="st38" points="189.3,260.9 164,269.8 141,260.9 141,227.3 189.3,227.3 					"/>
					<path class="st35" d="M94.3,292.1c0,0,6.3,0.2,12.7-5.1c9.6-7.9,20.8-26.1,30.2-39.6c14.6-21,39.7-72.7,39.7-72.7l-32-10.7
						c0,0-2.4,15.1-8,39.5c-4.9,21.3-13,44.3-17.4,55C110.4,280.7,94.3,292.1,94.3,292.1z"/>
					<path class="st36" d="M94.3,292.1c0,0,5.6-1.1,12-6.4c9.6-7.9,20.8-26.1,30.2-39.6c14.6-21,39.7-72.7,39.7-72.7l-32-10.7
						c0,0-2.4,15.1-8,39.5c-4.9,21.3-13,44.3-17.4,55C109.6,279.5,94.3,292.1,94.3,292.1z"/>
				</g>
				<g>
					<path class="st39" d="M109.9,308.3c0,2.7-2.8,4.8-6.2,4.8c-3.4,0-6.2-2.2-6.2-4.8c0-2.7,2.8-4.8,6.2-4.8
						C107.1,303.5,109.9,305.6,109.9,308.3z"/>
					<path class="st40" d="M109.3,307.5c0,2.5-2.6,4.5-5.8,4.5c-3.2,0-5.8-2-5.8-4.5c0-2.5,2.6-4.5,5.8-4.5
						C106.7,302.9,109.3,304.9,109.3,307.5z"/>
				</g>
				<g>
					<path class="st39" d="M110.1,347.2c0,2.7-2.8,4.8-6.2,4.8c-3.4,0-6.2-2.2-6.2-4.8c0-2.7,2.8-4.8,6.2-4.8
						C107.3,342.4,110.1,344.6,110.1,347.2z"/>
					<path class="st40" d="M109.6,346.4c0,2.5-2.6,4.5-5.8,4.5c-3.2,0-5.8-2-5.8-4.5c0-2.5,2.6-4.5,5.8-4.5
						C106.9,341.9,109.6,343.9,109.6,346.4z"/>
				</g>
			</g>
			<polygon class="st11" points="184.3,227.9 182.4,216.6 151.4,221.3 147.3,228.5 			"/>
		</g>
	</g>
</g>
</svg>
