<?xml version="1.0" encoding="utf-8"?>
<!-- Generator: Adobe Illustrator 23.0.4, SVG Export Plug-In . SVG Version: 6.00 Build 0)  -->
<svg version="1.0" id="Layer_1" xmlns="http://www.w3.org/2000/svg" xmlns:xlink="http://www.w3.org/1999/xlink" x="0px" y="0px"
	 viewBox="0 0 200 200" style="enable-background:new 0 0 200 200;" xml:space="preserve">
<style type="text/css">
	.st0{clip-path:url(#SVGID_2_);}
	.st1{fill:#DCA58E;}
	.st2{fill:#8D8D8D;}
	.st3{fill:#F3F3F3;}
	.st4{fill:none;stroke:#727272;stroke-width:0.3751;stroke-linecap:round;stroke-linejoin:round;}
	.st5{fill:#174C77;}
	.st6{fill:#0B4260;}
	.st7{fill:#0F4468;}
	.st8{fill:#124466;}
	.st9{fill:none;stroke:#9ACEE9;stroke-width:0.1303;stroke-miterlimit:10;stroke-dasharray:0.2656,0.2656;}
	.st10{fill:#185983;}
	.st11{fill:none;stroke:#9ACEE9;stroke-width:0.1253;stroke-miterlimit:10;stroke-dasharray:0.2554,0.2554;}
	.st12{fill:#16394F;}
	.st13{fill:#988B58;}
	.st14{fill:none;stroke:#9ACEE9;stroke-width:0.1303;stroke-miterlimit:10;}
	.st15{fill:none;stroke:#9ACEE9;stroke-width:0.1303;stroke-miterlimit:10;stroke-dasharray:0.2626,0.2626;}
	.st16{fill:none;stroke:#9ACEE9;stroke-width:0.1303;stroke-miterlimit:10;stroke-dasharray:0.2687,0.2687;}
	.st17{fill:none;stroke:#9ACEE9;stroke-width:0.1303;stroke-miterlimit:10;stroke-dasharray:0.2411,0.2411;}
	.st18{fill:none;stroke:#9ACEE9;stroke-width:0.1303;stroke-miterlimit:10;stroke-dasharray:0.2998,0.2998;}
	.st19{fill:none;stroke:#9ACEE9;stroke-width:0.1303;stroke-miterlimit:10;stroke-dasharray:0.2815,0.2815;}
	.st20{fill:none;stroke:#9ACEE9;stroke-width:0.1303;stroke-miterlimit:10;stroke-dasharray:0.2829,0.2829;}
	.st21{fill:#BCE5FF;}
	.st22{fill:#0977AE;}
	.st23{fill:#D1EFFF;}
	.st24{fill:#DCA48D;}
	.st25{fill:#EAB8A3;}
	.st26{fill:#D29B8B;}
	.st27{fill:#B1948C;}
	.st28{fill:#AE9493;}
	.st29{fill:#FFFFFF;}
	.st30{fill:#2A2432;}
	.st31{fill:#5B3600;}
	.st32{fill:#1C1C1C;}
	.st33{fill:#D09A87;}
	.st34{fill:#E1AF9E;}
	.st35{fill:#BB8181;}
	.st36{fill:#A97171;}
	.st37{fill:#CD9696;}
	.st38{fill:#C09080;}
	.st39{fill:#815D52;}
</style>
<g>
	<defs>
		<rect id="SVGID_1_" width="200" height="200"/>
	</defs>
	<use xlink:href="#SVGID_1_"  style="overflow:visible;fill:#E0EADA;"/>
	<clipPath id="SVGID_2_">
		<use xlink:href="#SVGID_1_"  style="overflow:visible;"/>
	</clipPath>
	<g class="st0">
		<g>
			<path class="st1" d="M91.8,459.8l-2.1-70.3c0,0,11.9,0,48.7-0.6c37-0.6,49.2-9.9,49.2-9.9s0.5,26.9-0.3,57.6
				c-3.1,116.8-34.8,179.4-33.3,205.7c0.5,8.3,5.3,50.4,5.3,62.6c0,10.7-18.5,79.9-19.4,88.7c-0.9,8.8,8.5,24.6,8.5,24.6l-3.2,10.3
				l-47.8-0.1l-3.8-10.2c0,0,14.8-21.7,15.2-25.8c0.7-6.6-15-77.9-12.6-100.9c2.4-23,11-38.1,3.8-59.1
				C93.9,614.6,91.8,459.8,91.8,459.8z"/>
			<g>
				<path class="st1" d="M90.6,465.9l18.8-76.4c0,0-14.3,0-50.7-0.9c-37.1-0.9-46-10.3-46-10.3s-5.8,22.3-11.4,52.7
					C-19.9,546.5-1.7,612.3-8.6,638c-2.2,8.1-15.7,49.1-18.2,61.1c-2.3,10.6,1.7,81.2,0.7,89.9c-0.9,8.8-44.8,36.7-44.8,36.7
					l3.3,9.3l39.5,0l1.1-9.3c0,0,33.9-33.8,34.1-35.7c1-6.6,28.7-73.3,31.2-96.3c2.4-23-2.9-39,8.5-58.8
					C56.3,618.3,90.6,465.9,90.6,465.9z"/>
				<path class="st1" d="M10.6,819.1c1.3-3.6-3.6-28.9-3.6-28.9l-34.1,35.7l-1.1,9.3c0,0,17-8.9,24.4-11.9
					C-0.8,822,10.1,820.6,10.6,819.1z"/>
			</g>
		</g>
		<g>
			<g>
				<g>
					<path class="st2" d="M96.1,804.3c5-7,4.2-12.9,4.2-12.9s9.6-2.2,21.5-1.8c11.8-0.4,15.8,1.8,15.8,1.8s3.1,5.8,8.2,12.8
						c4.9,6.7,8,13.7,8,13.7c-2.7,9.6-28.5,7.5-31.9,7.2c-3.5,0.3-29.2,2.4-31.9-7.2C89.8,817.9,91.3,811.1,96.1,804.3z"/>
					<path class="st3" d="M89.8,817.9c0,0,3.3,3.8,11.4,5c4.3,0.7,10,0.9,15,1c0,0,2.2,0,5.5,0c3.3,0,5.5,0,5.5,0
						c5-0.1,10.7-0.3,15-1c8.1-1.2,11.4-5,11.4-5s1.3,10.8-3.9,13c-8.3,3.6-21,4-28.1,3.8c-7.1,0.2-19.8-0.2-28.1-3.8
						C88.5,828.7,89.8,817.9,89.8,817.9z"/>
				</g>
				<polyline class="st4" points="137,798 103.1,801.4 137.8,805.1 101.5,809.2 138.3,809.5 102.1,805.3 136.9,800.6 103.7,797.2 
									"/>
			</g>
			<g>
				<path class="st1" d="M11.2,819.5c1.3-3.6-3.6-28.9-3.6-28.9l-34.1,35.7l-1.1,9.3c0,0,17-8.9,24.4-11.9
					C-0.2,822.4,10.6,821,11.2,819.5z"/>
			</g>
			<g>
				<g>
					<path class="st2" d="M18.8,814.5c0,0-1-10-2-13.5c-1-3.5-0.9-6.8-0.9-6.8s-21.5-2.3-31.9-1.6c-10.4,0.7-20.3,1-23.4,3.8
						c-3.1,2.8-3.1,6.9-18.8,15.9c-15.7,9-23.2,14.8-24,16.7c-0.8,1.9-0.8,2.4-0.8,2.4s18.9,4.2,39.4,2.4
						c15.6-1.4,21.7-2.2,35.9-9.6C2.2,818.9,18.8,814.5,18.8,814.5z"/>
					<path class="st3" d="M-82.9,830.6c0,0-3.1,10.3,4.5,12.2c10.3,2.6,42.7,1.4,58.6-5.3C-4,830.8-2.4,828.4,8.9,826
						c11.4-2.5,11.1-3.1,10.4-7.3c-0.6-4.2-0.6-4.2-0.6-4.2s-14.3,2.8-22.1,6.2c-3,1.3-16.3,8.4-28.5,10.2
						C-48.3,833.3-70.3,835.1-82.9,830.6z"/>
				</g>
				<g>
					<polyline class="st4" points="-42.5,802.8 -9.5,802.9 -48,806.5 -28.2,813.6 -60.5,814.2 -39.7,818.2 -54.2,810.4 -18.9,808.3 
						-44.7,802.1 					"/>
				</g>
			</g>
			<g>
				<path class="st5" d="M2.5,397.6l-61.9,408h85.2l65-329.4L84,804.3l76.2-1.3l33-405.4c0,0-63.5,4.6-91.9,4.6
					C72.9,402.2,2.5,397.6,2.5,397.6z"/>
				<polygon class="st6" points="90.9,476.4 81.1,468.7 6.3,805.7 25.8,805.7 				"/>
				<polygon class="st7" points="192.6,402.3 159.8,802.8 166.4,408.7 				"/>
			</g>
			<path class="st8" d="M2.5,395.2c0,0,57.6,5.3,95.6,5.4c37.1,0.1,95.3-5.7,95.3-5.7l-1.3,15.2c0,0-54.7,5.3-93.8,5.3
				c-34.7,0-97.6-5.4-97.6-5.4S1.9,399.2,2.5,395.2z"/>
			<path class="st9" d="M-4.7,427.5"/>
			<path class="st9" d="M-0.7,427.2"/>
			<g>
				<path class="st10" d="M92.9,400.6l-6.7,55.6c0,0,15.5,1.1,21.6-12.1c6.1-13.2,6.9-43.6,6.9-43.6L92.9,400.6z"/>
				<path class="st11" d="M110.1,414.8c-0.8,9.9-2.3,22-5.6,29c-4.2,9.2-13.5,10.2-18,10l-0.3,2.3c0,0,15.5,1.1,21.6-12.1
					c3.4-7.4,5.1-19.8,5.8-29.3L110.1,414.8z"/>
				<polygon class="st9" points="88.2,474.3 84.4,471.3 86.2,456.1 89.6,456.4 				"/>
				<path class="st12" d="M110.3,408.2c-0.1,0.5-2.8,0.7-6.2,0.4c-3.4-0.2-6-0.8-6-1.3c0.1-0.5,2.8-0.7,6.2-0.4
					C107.7,407.1,110.4,407.7,110.3,408.2z"/>
				<path class="st13" d="M105.5,407.9c-0.3,2.3-2.9,3.9-5.8,3.7c-2.9-0.2-5.1-2.2-4.8-4.5c0.3-2.3,2.9-3.9,5.8-3.7
					C103.6,403.6,105.8,405.6,105.5,407.9z"/>
			</g>
			<path class="st9" d="M0.9,408.3c0,0,77.4,6.3,105.7,5.6c42.1-1,85.6-5.4,85.6-5.4"/>
			<g>
				<path class="st9" d="M51,413.2c0,0-7.6,11.3-17.1,13.9c-14.1,3.9-35.7,3.4-35.7,3.4l1-3.1c0,0,27.8-0.2,34.9-4
					c4.4-2.3,11.5-10.7,11.5-10.7L51,413.2z"/>
				<path class="st13" d="M48.3,415.4c0,0.9-0.9,1.6-2,1.6c-1.1,0-2.1-0.7-2.1-1.6c0-0.9,0.9-1.6,2.1-1.6
					C47.4,413.8,48.3,414.5,48.3,415.4z"/>
				<path class="st13" d="M32.6,417.6c0,0.9-0.9,1.6-2.1,1.6c-1.1,0-2-0.7-2-1.6c0-0.9,0.9-1.6,2-1.6
					C31.7,416.1,32.6,416.8,32.6,417.6z"/>
				<g>
					<g>
						<line class="st14" x1="1" y1="427.5" x2="1.1" y2="426.9"/>
						<line class="st15" x1="1.2" y1="425.7" x2="2.8" y2="414.7"/>
						<polyline class="st14" points="2.9,414.1 3,413.6 3.7,413.6 						"/>
						<line class="st16" x1="5.3" y1="413.7" x2="32" y2="415.8"/>
						<polyline class="st14" points="32.8,415.9 33.5,415.9 33.4,416.5 						"/>
						<line class="st17" x1="33.2" y1="417.6" x2="32" y2="423.4"/>
						<line class="st14" x1="31.8" y1="423.9" x2="31.7" y2="424.5"/>
					</g>
				</g>
				<g>
					<g>
						<line class="st14" x1="4.3" y1="427.4" x2="4.5" y2="426.8"/>
						<line class="st18" x1="4.7" y1="425.5" x2="6" y2="418.3"/>
						<polyline class="st14" points="6.1,417.6 6.2,417 7,417.1 						"/>
						<line class="st19" x1="8.6" y1="417.1" x2="27" y2="418.1"/>
						<polyline class="st14" points="27.8,418.1 28.6,418.2 28.5,418.8 						"/>
						<line class="st20" x1="28.3" y1="420" x2="27.6" y2="424.4"/>
						<line class="st14" x1="27.5" y1="425" x2="27.4" y2="425.6"/>
					</g>
				</g>
				<polygon class="st10" points="61.4,424.5 54.4,423.1 59.8,402.6 66.9,403.7 				"/>
				<polygon class="st9" points="60.6,423.1 55.5,422.2 60.5,403.6 65.8,404.6 				"/>
			</g>
			<g>
				<path class="st9" d="M138.5,413.2c0,0,7.6,11.3,17.1,13.9c14.1,3.9,34.8,3.4,34.8,3.4v-3.1c0,0-27.8-0.2-34.9-4
					c-4.4-2.3-11.5-10.7-11.5-10.7L138.5,413.2z"/>
				<path class="st13" d="M141.2,415.4c0,0.9,0.9,1.6,2,1.6c1.1,0,2.1-0.7,2.1-1.6c0-0.9-0.9-1.6-2.1-1.6
					C142.1,413.8,141.2,414.5,141.2,415.4z"/>
				<polygon class="st10" points="128.2,424.5 135.2,423.1 129.7,402.6 122.6,403.7 				"/>
				<polygon class="st9" points="128.9,423.1 134.1,422.2 129,403.6 123.7,404.6 				"/>
			</g>
		</g>
		<path class="st1" d="M216.6,179.6c-27.7-13.4-78.4-32-79.8-34.2c-1.4-2.2,0-23.9,0-23.9H63.1c0,0,1.4,21.7,0,23.9
			c-1.4,2.2-48.8,21.9-79.1,35.2c-20.5,9,16,82.4,16,82.4s12.9,68.2,13.3,72.2c1.2,12-1.3,49.1-1.3,49.1s0.4,3.3,16.8,6.1
			c16.4,2.8,53.1,4.5,71.1,4.4c18-0.1,54.7-1.6,71.1-4.4c16.4-2.8,16.7-6.1,16.7-6.1s-2.4-37.1-1.2-49.1
			c0.4-4.1,13.3-72.2,13.3-72.2S236.7,189.2,216.6,179.6z"/>
		<path class="st9" d="M-2.7,428.1"/>
		<path class="st9" d="M1.3,427.8"/>
		<g>
			<path class="st1" d="M254,249.9l5,63.9c4.4,24.1-10.5,114.6-10.5,114.6l-30.2-2.4l-22-163.8v-90.7c0,0,34.1,12.3,44.7,23.3
				C257.3,211.9,254,249.9,254,249.9z"/>
			<path class="st1" d="M-47.9,427.9c0,0-5.6,35.1-4.7,39.2c1,4.1,14.4,21.8,15.6,23.7c1.2,1.9,37.1,4.8,36.2,1.4
				c-0.9-3.4-3.3-11.8-3.3-11.8l-16.3-6.5l-1.3-19l7.5,7.4l-0.8,13.7l10.9,4.4c0,0,3.7-28.2,3.2-30.6c-0.5-2.4-16.8-24.4-16.8-24.4
				L-47.9,427.9z"/>
			<path class="st1" d="M-53.5,249.9l-5,63.9c-4.4,24.1,10.6,114,10.6,114l30.2-2.4L4.2,262.2v-90.7c0,0-34.1,12.3-44.7,23.3
				C-56.8,211.9-53.5,249.9-53.5,249.9z"/>
			<path class="st1" d="M230.2,504c3.3-3.4,26.5-26.4,27.4-31.3c1.2-6.9-9.1-44.3-9.1-44.3l-30.2-2.4c0,0-6.9,18.9-7.7,21.5
				c-0.8,2.7,0,32.4,0.1,33.9c0.1,1.5,10.2,1.1,10.6-1.1c0.4-2.2,5.2-18.8,5.2-18.8l0,0l1.7,17.4c0,0-10.4,14.4-11.7,16.5
				C215.6,497,226.9,507.4,230.2,504z"/>
		</g>
		<path class="st21" d="M265.1,299c-5.2-54.6-9.1-94-19.9-105.8c-13.8-15-85.4-38.8-85.4-38.8s-26.9,15.6-59.3,16.1
			c-31.4,0.4-59.3-16.1-59.3-16.1s-71.6,23.8-85.4,38.8c-10.8,11.7-14.8,51.2-19.9,105.8c-5.6,59,8.6,134.4,8.6,134.4l46.3-4.5
			L3,284.9L0,411.4h201.2l-3-126.4l12.1,143.9l46.3,4.5C256.6,433.4,270.7,358,265.1,299z"/>
		<polygon class="st22" points="186.5,396.6 0,411.4 201.2,411.4 198.7,275.6 		"/>
		<path class="st22" d="M-5.5,338.8c0.7-8.6,10.6-64.7,10.6-64.7L-6.6,391.3C-6.6,391.3-6,344.1-5.5,338.8z"/>
		<path class="st23" d="M100.2,174.8c20.6,0.1,48-4.5,64.5-18.5c-4.5-1.6-7.3-2.6-7.3-2.6s-23.3,11.8-54.5,12.1
			c-33.6,0.4-60-12.1-60-12.1s-2.3,0.8-6,2.1C49,169.6,77,174.6,100.2,174.8z"/>
		<g>
			<path class="st24" d="M147.6,88.7c0,0,1.7-2.1,4.6-1.6c2.9,0.5,1.7,15,1.7,16.6c0,3.3-9.3,9.7-9.3,9.7L147.6,88.7z"/>
			<path class="st24" d="M54.8,88.7c0,0-1.7-2.1-4.6-1.6c-2.9,0.5-1.7,15-1.7,16.6c0,3.3,9.3,9.7,9.3,9.7L54.8,88.7z"/>
			<path class="st25" d="M109.9,34.4c-7.1-0.4-10.2-0.4-17.3,0c-16.8,1-41.8,18.7-39.9,38.3c0.6,5.7,4.3,42.2,5.7,44.3
				c1.4,2.1,21.5,20.2,25.1,22.9c3.6,2.8,17.6,3.2,17.6,3.2s14-0.4,17.6-3.2c3.6-2.8,23.8-20.8,25.1-22.9c1.4-2.1,5.2-38.6,5.7-44.3
				C151.7,53.2,126.7,35.5,109.9,34.4z"/>
			<path class="st26" d="M105.1,86.6l1.4,12.3c0,0,1.1,2.4,2.5,3.2c1.1,0.6,1.4,0.9,1.4,0.9L105.1,86.6z"/>
			<path class="st27" d="M153.1,50.2c-7.8-22-43.4-26.4-52.4-26.9c-9.1-0.5-41.3,5.9-50.7,25.9c-6.2,13.3,1.6,34.5,2.1,37.3
				c0.1,0.6,1.7,0.8,1.9,2.2c0.6,5,0.9,6.2,0.9,6.2l3-2.9c0,0,1.2-34.3,5-37.9c3.8-3.6,16.8-0.5,26.9,1.2c4.2,0.7,18.3,0.7,22.6,0
				c10-1.7,22.8-4.9,26.6-1.2c3.8,3.6,5.3,37.9,5.3,37.9l3,2.9c0,0,0.2-1.2,0.9-6.2c0.1-0.5,1.7-1.9,1.9-2.3
				C151.6,83.7,155.6,57.4,153.1,50.2z"/>
			<g>
				<path class="st28" d="M101.6,153.1L101.6,153.1C101.6,153.1,104.3,153.1,101.6,153.1z"/>
				<path class="st27" d="M136,122.8c-1.4,2.8-27.4,12.7-27.4,12.7l-2.4-8.4l-4.6-0.7v-0.1l-0.2,0l-0.2,0v0.1l-4.6,0.7l-2.4,8.4
					c0,0-28.2-10.7-29.4-13.1c-1.1-2.4-8.5-22-8.5-22l2.2,21.7c0,0,22.4,30.7,35.6,30.9c3.7,0,5.9,0.1,7.2,0.1v0c0.1,0,0.1,0,0.2,0
					c0.1,0,0.1,0,0.2,0v0c1.3,0,3.5-0.1,7.2-0.1c13.2-0.2,35.6-30.9,35.6-30.9l2.2-21.7C146.6,100.4,137.2,120.5,136,122.8z"/>
				<path class="st28" d="M101.2,153.1L101.2,153.1C98.5,153.1,101.2,153.1,101.2,153.1z"/>
			</g>
			<g>
				<path class="st29" d="M69.6,91.2c0,0,4.5-2.8,6.8-3.2c2.2-0.3,7.5-0.5,10.4,0.8c3.2,1.3,5.5,3.7,5.5,3.7s-4.2,2-10.4,2.1
					C75.5,94.6,72.3,93.2,69.6,91.2z"/>
				<path class="st26" d="M92.5,92.7c0,0,4.7-4.5,2.6-8.1c-2.1-3.7-9.9-3.5-16.3-4.3c-7.2-1-14.1,1.9-14.1,2.2c0,0.4,0.9,4,1.8,5.9
					c1.2,2.3,2.1,2.2,2.1,2.2s4.8-1.8,6.1-2.3c1.3-0.5,5.6-0.9,7.9-0.8C88.1,87.6,92.5,92.7,92.5,92.7z"/>
				<path class="st30" d="M64.7,82.4c0,0,3.4-5.5,7.2-5.6c3.7-0.1,20.2,1.5,20.9,2.2c0.6,0.7,2.5,5.4,2,5.1c-1.4-1-14.9-4.1-18.2-4
					C73.3,80.1,69.8,80.2,64.7,82.4z"/>
				<g>
					<path class="st31" d="M86.8,91.1c0,2.1-2.4,3.8-5.3,3.8c-2.9,0-5.3-1.7-5.3-3.8c0-2.1,2.4-3.8,5.3-3.8
						C84.4,87.2,86.8,89,86.8,91.1z"/>
					<path class="st32" d="M85.5,91.1c0,1.6-1.8,2.9-4,2.9c-2.2,0-4-1.3-4-2.9c0-1.6,1.8-2.9,4-2.9C83.7,88.2,85.5,89.5,85.5,91.1z"
						/>
				</g>
				<path class="st33" d="M70.6,91.9c0,0,4.7,2.2,7.9,2.6c3.2,0.3,10.7-0.9,10.7-0.9s-4.4,2.3-7.7,2.3
					C78.2,95.9,73.3,95.7,70.6,91.9z"/>
				<path class="st34" d="M68.3,90.4c0,0,3.8-4.4,5.8-5.5c3.9-2.2,11.8-1.6,14.6,1.2c3.7,3.7,3.5,6.4,3.5,6.4s-5.5-5-9.8-5.1
					C78.2,87.3,70.2,89.2,68.3,90.4z"/>
				<path class="st30" d="M68.2,90.4c0,0,8-3.3,10.9-3.5c4.6-0.2,9.8,1.8,11.6,3.8c1.8,2,1.8,2,1.8,2s-4.1-4.2-9-4.7
					c-6.4-0.5-13.9,3.1-13.9,3.1L68.2,90.4z"/>
			</g>
			<g>
				<path class="st29" d="M132,91.2c0,0-4.5-2.8-6.8-3.2c-2.2-0.3-7.5-0.5-10.4,0.8c-3.2,1.3-5.5,3.7-5.5,3.7s4.2,2,10.4,2.1
					C126.1,94.6,129.3,93.2,132,91.2z"/>
				<path class="st26" d="M109.2,92.7c0,0-4.7-4.5-2.6-8.1c2.1-3.7,9.9-3.5,16.3-4.3c7.2-1,14.1,1.9,14.1,2.2c0,0.4-0.9,4-1.8,5.9
					c-1.2,2.3-2.1,2.2-2.1,2.2s-4.8-1.8-6.1-2.3c-1.3-0.5-5.6-0.9-7.9-0.8C113.6,87.6,109.2,92.7,109.2,92.7z"/>
				<path class="st30" d="M136.9,82.4c0,0-3.4-5.5-7.2-5.6c-3.7-0.1-20.3,1.5-20.9,2.2c-0.6,0.7-2.5,5.4-2,5.1
					c1.4-1,14.9-4.1,18.2-4C128.3,80.1,131.8,80.2,136.9,82.4z"/>
				<g>
					<path class="st31" d="M114.8,91.1c0,2.1,2.4,3.8,5.3,3.8c2.9,0,5.3-1.7,5.3-3.8c0-2.1-2.4-3.8-5.3-3.8
						C117.2,87.2,114.8,89,114.8,91.1z"/>
					<path class="st32" d="M116.1,91.1c0,1.6,1.8,2.9,4.1,2.9c2.2,0,4-1.3,4-2.9c0-1.6-1.8-2.9-4-2.9
						C117.9,88.2,116.1,89.5,116.1,91.1z"/>
				</g>
				<path class="st33" d="M131,91.9c0,0-4.7,2.2-7.9,2.6c-3.2,0.3-10.7-0.9-10.7-0.9s4.4,2.3,7.6,2.3
					C123.4,95.9,128.3,95.7,131,91.9z"/>
				<path class="st34" d="M133.3,90.4c0,0-3.8-4.4-5.8-5.5c-3.9-2.2-11.8-1.6-14.6,1.2c-3.7,3.7-3.5,6.4-3.5,6.4s5.5-5,9.8-5.1
					C123.4,87.3,131.4,89.2,133.3,90.4z"/>
				<path class="st30" d="M133.4,90.4c0,0-8-3.3-10.9-3.5c-4.5-0.2-9.8,1.8-11.6,3.8c-1.8,2-1.8,2-1.8,2s4.1-4.2,9-4.7
					c6.4-0.5,13.9,3.1,13.9,3.1L133.4,90.4z"/>
			</g>
			<g>
				<path class="st35" d="M83.8,121.2c0,0,7.7-1.5,9.9-1.8c2.1-0.3,6.7,0.6,7.4,0.6c0.6,0,0.1,2.6,0.1,2.6S90.5,123.4,83.8,121.2z"
					/>
				<path class="st36" d="M118.5,121.2c0,0-7.6-1.5-9.7-1.8c-2.1-0.3-6.9,0.6-7.5,0.6c-0.6,0-0.1,2.6-0.1,2.6
					S111.8,123.4,118.5,121.2z"/>
				<path class="st37" d="M118.4,121.2c-0.4,0.2-13.7,1.2-17.3,1.4c-3.4-0.3-16.9-1.3-17.3-1.4c0,0,8,5.5,12.3,6.1
					c1.8,0.3,4.5,0.4,5,0.4c0.5,0,3.3-0.2,5-0.4C110.4,126.6,118.4,121.2,118.4,121.2z"/>
			</g>
			<path class="st27" d="M127.5,129.3c0.4-0.1,2.2-9.6-1.4-11.8c-3.6-2.2-14.8-5.9-17.2-6.4c-2.2-0.5-5.6,0.9-6.9,1
				c-0.2,0-0.4,0-0.8,0c-0.4,0-0.6,0-0.8,0c-1.3-0.1-4.7-1.5-6.9-1c-2.3,0.5-13.6,4.3-17.2,6.4c-3.6,2.2-1.8,11.7-1.4,11.8l-2.7,3.8
				L90,141c0,0,0.2-5.9-0.7-6.9c-0.8-1-8.1-3.9-8.3-5.9c-0.2-1.9,0.3-5.7,2.8-6.7c2.6-1.1,12.4-1.3,14.3-1.6
				c1.9-0.3,1.3-2.2,1.6-2.7c0.1-0.3,0.8-0.4,1.5-0.5c0.6,0.1,1.3,0.3,1.5,0.5c0.3,0.5-0.3,2.4,1.6,2.7c1.9,0.3,11.7,0.6,14.3,1.6
				c2.6,1.1,3,4.8,2.8,6.7c-0.2,2-7.5,4.9-8.3,5.9c-0.8,1-0.7,6.9-0.7,6.9l17.8-7.8L127.5,129.3z"/>
			<g>
				<path class="st38" d="M112.1,108.1c-0.7-0.2-6.5,0.9-9.1,0.9c-0.9,0-1.6,0-2.1,0c-0.5,0-1.2,0-2.1,0c-2.6,0-8.4-1.2-9.1-0.9
					c-0.7,0.2,0.7,1.3,0.7,1.3c1.9,0.8,6.6,1.6,9.4,2h2.3c2.8-0.4,7.5-1.1,9.4-2C111.4,109.4,112.8,108.3,112.1,108.1z"/>
				<path class="st39" d="M95.2,110.2c-1.2-0.3-3.4-0.4-3.9-1.1c-0.5-0.6,3.7,0.1,5.4,0.7C98.5,110.3,96.4,110.4,95.2,110.2z"/>
				<path class="st39" d="M106.4,110.2c1.2-0.3,3.4-0.4,3.9-1.1c0.5-0.6-3.7,0.1-5.4,0.7C103.2,110.3,105.3,110.4,106.4,110.2z"/>
			</g>
		</g>
	</g>
</g>
</svg>
