<?xml version="1.0" encoding="utf-8"?>
<!-- Generator: Adobe Illustrator 23.0.4, SVG Export Plug-In . SVG Version: 6.00 Build 0)  -->
<svg version="1.0" id="Layer_1" xmlns="http://www.w3.org/2000/svg" xmlns:xlink="http://www.w3.org/1999/xlink" x="0px" y="0px"
	 viewBox="0 0 200 200" style="enable-background:new 0 0 200 200;" xml:space="preserve">
<style type="text/css">
	.st0{clip-path:url(#SVGID_2_);}
	.st1{fill:#A5CCDF;}
	.st2{fill:#DCA58E;}
	.st3{fill:#DCA48D;}
	.st4{fill:#EAB8A3;}
	.st5{fill:#E1A98E;}
	.st6{fill:#BB8181;}
	.st7{fill:#A97171;}
	.st8{fill:#CD9696;}
	.st9{fill:#FFFFFF;}
	.st10{fill:#D29B8B;}
	.st11{fill:#352A20;}
	.st12{fill:#5B3600;}
	.st13{fill:#1C1C1C;}
	.st14{fill:#AE796D;}
	.st15{fill:#E1AF9E;}
	.st16{fill:#2A2432;}
	.st17{fill:#C09080;}
	.st18{fill:#7A4A46;}
	.st19{fill:#626272;}
	.st20{fill:#C8C8C8;}
	.st21{fill:none;stroke:#383544;stroke-width:0.3751;stroke-linecap:round;stroke-linejoin:round;}
	.st22{fill:#285675;}
	.st23{fill:#16394F;}
	.st24{fill:#473B34;}
	.st25{fill:#E0F1FF;}
	.st26{fill:#EFF8FF;}
	.st27{fill:#B5D8EE;}
	.st28{fill:#EAF6FF;}
	.st29{fill:#D1E8F6;}
	.st30{fill:#C2DFEC;}
	.st31{fill:#C6E7F8;}
</style>
<g>
	<defs>
		<rect id="SVGID_1_" width="200" height="200"/>
	</defs>
	<use xlink:href="#SVGID_1_"  style="overflow:visible;fill:#BFE8CF;"/>
	<clipPath id="SVGID_2_">
		<use xlink:href="#SVGID_1_"  style="overflow:visible;"/>
	</clipPath>
	<g class="st0">
		<path class="st1" d="M51.7,131.3c0,0,16.8,5.9,22.2,6.2c5.5,0.3,39.8,0.6,43-0.1c3.1-0.7,21.2-6.1,21.2-6.1s-6,22.8-10.5,25.7
			c-4.5,2.9-64.5,0.6-64.5,0.6S50.7,145,51.7,131.3z"/>
		<g>
			<path class="st2" d="M95.1,453.9l9.6-72.2c0,0-11.7,0.4-48.7-1.3c-37-1.7-47.8-8.7-47.8-8.7s-3.4,22.5-5.7,53.1
				c-8.9,116.5,16.3,180.8,12.1,206.8c-1.3,8.2-10.4,49.9-11.7,62c-1.1,10.7,10.2,80.7,10.2,89.5s-16.2,27.7-16.2,27.7l3.9,9.6h51.2
				l2.4-9.6c0,0-10.1-22.9-10.1-27c0-6.6,22.9-76.6,22.9-99.7c0-23.1-7-38.6,2.3-59.1C77.1,607.8,95.1,453.9,95.1,453.9z"/>
			<path class="st2" d="M96.4,453.9l-9.6-72.2c0,0,11.7,0.4,48.7-1.3c37-1.7,47.8-8.7,47.8-8.7s3.4,22.5,5.7,53.1
				c8.9,116.5-16.3,180.8-12.1,206.8c1.3,8.2,10.4,49.9,11.7,62c1.1,10.7-10.2,80.7-10.2,89.5s16.2,27.7,16.2,27.7l-3.9,9.6h-51.2
				l-2.4-9.6c0,0,10.1-22.9,10.1-27c0-6.6-22.9-76.6-22.9-99.7c0-23.1,7-38.6-2.3-59.1C114.4,607.8,96.4,453.9,96.4,453.9z"/>
		</g>
		<g>
			<path class="st2" d="M211.7,172.5c-27.8-13.4-77.7-33.1-79.1-35.3c-1.4-2.2,0-23.9,0-23.9H58.9c0,0,1.4,21.7,0,23.9
				c-1.4,2.2-48.8,21.9-79.1,35.2c-20.6,9,16,82.4,16,82.4S8.7,323,9.1,327.1c1.2,12-1.3,49.1-1.3,49.1s0.4,3.3,16.8,6.1
				c16.4,2.8,53.1,4.5,71.1,4.4c18-0.1,54.7-1.6,71.1-4.4c16.4-2.8,16.7-6.1,16.7-6.1s-2.4-37.1-1.2-49.1
				c0.4-4.1,13.3-72.2,13.3-72.2S231.7,182.2,211.7,172.5z"/>
			<path class="st3" d="M142.1,80.6c0,0,1.7-2.1,4.6-1.6c2.9,0.5,1.7,15,1.7,16.6c0,3.3-9.3,9.7-9.3,9.7L142.1,80.6z"/>
			<path class="st3" d="M49.3,80.6c0,0-1.7-2.1-4.6-1.6C41.7,79.4,43,94,43,95.6c0,3.3,9.3,9.7,9.3,9.7L49.3,80.6z"/>
			<path class="st4" d="M104.3,26.4c-7.1-0.4-10.2-0.4-17.3,0c-16.8,1-41.8,18.7-39.8,38.4c0.6,5.6,4.3,42.2,5.7,44.3
				c1.4,2.1,21.5,20.2,25.1,22.9c3.6,2.8,17.7,3.2,17.7,3.2s14-0.4,17.6-3.2c3.6-2.8,23.7-20.8,25.1-22.9c1.4-2.1,5.2-38.6,5.7-44.3
				C146.1,45.1,121.1,27.4,104.3,26.4z"/>
		</g>
		<g>
			<path class="st5" d="M-57.9,242.1l-5,63.9c-4.4,24.1,10.5,114.6,10.5,114.6l30.3-2.4l22-163.8v-90.7c0,0-34.1,12.3-44.7,23.3
				C-61.1,204.1-57.9,242.1-57.9,242.1z"/>
			<path class="st5" d="M-34,496.3c-3.3-3.4-26.6-26.4-27.4-31.3c-1.2-6.9,9.1-44.3,9.1-44.3l30.3-2.4c0,0,6.9,18.9,7.7,21.5
				c0.8,2.7,0,32.4-0.1,33.9c-0.1,1.5-10.2,1.1-10.6-1.1c-0.4-2.2-5.2-18.8-5.2-18.8l0,0l-1.7,17.4c0,0,10.4,14.4,11.7,16.5
				C-19.4,489.2-30.8,499.7-34,496.3z"/>
		</g>
		<g>
			<path class="st5" d="M249.6,242.1l5,63.9c4.4,24.1-10.5,114.6-10.5,114.6l-30.2-2.4l-22-163.8v-90.7c0,0,34.1,12.3,44.7,23.3
				C252.9,204.1,249.6,242.1,249.6,242.1z"/>
			<path class="st5" d="M225.8,496.3c3.3-3.4,26.6-26.4,27.4-31.3c1.2-6.9-9.1-44.3-9.1-44.3l-30.2-2.4c0,0-6.9,18.9-7.7,21.5
				c-0.8,2.7,0,32.4,0.1,33.9c0.1,1.5,10.2,1.1,10.6-1.1c0.4-2.2,5.2-18.8,5.2-18.8l0,0l1.7,17.4c0,0-10.4,14.4-11.7,16.5
				C211.2,489.2,222.5,499.7,225.8,496.3z"/>
		</g>
		<g>
			<path class="st6" d="M78.4,112.2c0,0,7.8-1.6,9.9-1.8c2.1-0.3,6.7,0.7,7.4,0.7c0.6,0,0.1,2.6,0.1,2.6S85.1,114.4,78.4,112.2z"/>
			<path class="st7" d="M113,112.2c0,0-7.6-1.6-9.7-1.8c-2.1-0.3-6.9,0.7-7.5,0.7s-0.1,2.6-0.1,2.6S106.4,114.4,113,112.2z"/>
			<path class="st8" d="M113,112.2c-0.4,0.2-13.7,1.2-17.3,1.4c-3.4-0.3-16.9-1.3-17.3-1.4c0,0,8.1,5.6,12.3,6.2
				c1.8,0.3,4.5,0.5,5,0.4c0.5,0,3.3-0.2,5-0.4C105,117.8,113,112.2,113,112.2z"/>
		</g>
		<g>
			<path class="st9" d="M64.2,82.2c0,0,4.9-3.5,7.2-3.8c2.2-0.3,6.9-0.5,9.8,0.7c3.2,1.3,5.7,4.4,5.7,4.4s-4.2,2-10.5,2.1
				C70,85.7,66.9,84.3,64.2,82.2z"/>
			<path class="st10" d="M87,83.7c0,0,4.7-4.5,2.6-8.1c-2.1-3.7-9.9-3.5-16.3-4.3c-7.2-1-14.1,1.9-14.1,2.2c0,0.4,0.9,4,1.8,5.9
				c1.2,2.3,2.1,2.2,2.1,2.2s4.8-1.8,6.1-2.3c1.3-0.5,5.2-1.2,7.6-1.3C83.4,77.8,87,83.7,87,83.7z"/>
			<path class="st11" d="M59.2,73.4c0,0,3.4-5.5,7.2-5.6c3.8-0.1,20.3,1.5,20.9,2.2c0.6,0.7,2.5,5.4,2,5.1c-1.4-1-14.9-4-18.2-4
				C67.8,71.2,64.3,71.2,59.2,73.4z"/>
			<g>
				<path class="st12" d="M80.8,81.8c0,2.1-2.4,3.8-5.3,3.8c-2.9,0-5.3-1.7-5.3-3.8c0-2.1,2.4-3.8,5.3-3.8
					C78.4,78,80.8,79.7,80.8,81.8z"/>
				<path class="st13" d="M78.7,81.8c0,1.4-1.4,2.5-3.2,2.5c-1.8,0-3.2-1.1-3.2-2.5c0-1.4,1.4-2.5,3.2-2.5
					C77.3,79.3,78.7,80.4,78.7,81.8z"/>
			</g>
			<path class="st14" d="M64,82.2c0,0,6.1,3,9.3,3.4c5.4,0.6,13.3-1.8,13.3-1.8s-8.5,3.3-11.8,3.3S66.7,86,64,82.2z"/>
			<path class="st15" d="M62.8,81.4c0,0,3-3.6,5.1-4.7c3.9-2.2,12.4-1.6,15.2,1.2c3.7,3.7,3.8,5.6,3.8,5.6s-5.7-5.5-10-5.6
				C72.5,77.8,64.8,80.3,62.8,81.4z"/>
			<path class="st16" d="M62.1,81c0,0,8.7-3.8,11.6-3.9c4.6-0.2,9.8,2,11.6,4.4c1.8,2.4,1.8,2.4,1.8,2.4s-4.1-4.9-9-5.3
				C71.7,77.9,64,82.2,64,82.2L62.1,81z"/>
		</g>
		<g>
			<path class="st17" d="M106.9,99.6c-0.7-0.2-6.6,0.9-9.1,0.9c-0.9,0-1.6,0-2.1,0c-0.5,0-1.2,0-2.1,0c-2.6,0-8.4-1.2-9.2-0.9
				c-0.7,0.2,0.7,1.3,0.7,1.3c1.9,0.8,6.6,1.5,9.4,1.9h2.3c2.8-0.4,7.5-1.1,9.4-1.9C106.2,101,107.6,99.9,106.9,99.6z"/>
			<path class="st18" d="M91,101.7c-1.1-0.3-3.4-0.4-3.9-1.1c-0.5-0.6,3.7,0.1,5.4,0.7C94.3,101.8,92.2,101.9,91,101.7z"/>
			<path class="st18" d="M100.5,101.7c1.2-0.3,3.4-0.4,3.9-1.1c0.5-0.6-3.7,0.1-5.4,0.7C97.2,101.8,99.4,101.9,100.5,101.7z"/>
		</g>
		<g>
			<g>
				<path class="st9" d="M127.2,82.7c0,0-5-3.5-7.2-3.8c-2.2-0.3-6.9-0.5-9.8,0.7c-3.2,1.3-5.7,4.4-5.7,4.4s4.2,2,10.5,2.1
					C121.3,86.1,124.5,84.8,127.2,82.7z"/>
				<path class="st10" d="M104.3,84.2c0,0-4.6-4.5-2.6-8.1c2.1-3.7,9.9-3.5,16.3-4.3c7.2-1,14.1,1.9,14.1,2.2c0,0.4-0.9,4-1.8,5.9
					c-1.2,2.3-2.1,2.2-2.1,2.2s-4.8-1.8-6.1-2.3c-1.3-0.5-5.2-1.2-7.6-1.3C107.9,78.3,104.3,84.2,104.3,84.2z"/>
				<path class="st11" d="M132.1,73.9c0,0-3.4-5.5-7.2-5.6c-3.8-0.1-20.3,1.5-20.9,2.2c-0.6,0.8-2.5,5.4-2,5.1c1.4-1,14.9-4,18.2-4
					C123.5,71.7,127,71.7,132.1,73.9z"/>
				<g>
					<path class="st12" d="M110.5,82.3c0,2.1,2.4,3.8,5.3,3.8c2.9,0,5.3-1.7,5.3-3.8c0-2.1-2.4-3.8-5.3-3.8
						C112.9,78.5,110.5,80.2,110.5,82.3z"/>
					<path class="st13" d="M112.6,82.3c0,1.4,1.4,2.5,3.2,2.5c1.8,0,3.2-1.1,3.2-2.5c0-1.4-1.5-2.5-3.2-2.5
						C114,79.8,112.6,80.9,112.6,82.3z"/>
				</g>
				<path class="st14" d="M127.3,82.6c0,0-6.1,3-9.3,3.4c-5.4,0.6-13.3-1.8-13.3-1.8s8.5,3.3,11.8,3.3
					C119.8,87.5,124.6,86.5,127.3,82.6z"/>
				<path class="st15" d="M128.5,81.9c0,0-3-3.6-5.1-4.7c-3.9-2.2-12.4-1.6-15.2,1.2c-3.8,3.7-3.8,5.6-3.8,5.6s5.7-5.5,10-5.6
					C118.8,78.2,126.6,80.8,128.5,81.9z"/>
				<path class="st16" d="M129.3,81.5c0,0-8.7-3.8-11.6-3.9c-4.5-0.2-9.8,2-11.6,4.4c-1.8,2.4-1.8,2.4-1.8,2.4s4.1-4.9,9-5.3
					c6.4-0.6,14.1,3.7,14.1,3.7L129.3,81.5z"/>
			</g>
		</g>
		<path class="st10" d="M100,79.8l1.4,12.3c0,0,1.1,2.4,2.5,3.2c1.1,0.6,1.4,0.9,1.4,0.9L100,79.8z"/>
		<g>
			<g>
				<path class="st19" d="M140.3,798.1c5-7,4.2-12.9,4.2-12.9s9.6-2.2,21.5-1.8c11.8-0.4,15.8,1.8,15.8,1.8s3.1,5.8,8.2,12.8
					c4.9,6.7,8,13.7,8,13.7c-2.7,9.6-28.5,7.5-31.9,7.2c-3.5,0.3-29.2,2.4-31.9-7.2C134,811.7,135.5,804.9,140.3,798.1z"/>
				<path class="st20" d="M134,811.7c0,0,3.3,3.8,11.4,5c4.3,0.6,10,0.9,15,1c0,0,2.2,0,5.5,0c3.3,0,5.5,0,5.5,0
					c5-0.1,10.7-0.3,15-1c8.1-1.2,11.4-5,11.4-5s1.3,10.7-3.9,13c-8.3,3.6-21,3.9-28.1,3.8c-7.1,0.2-19.8-0.2-28.1-3.8
					C132.7,822.5,134,811.7,134,811.7z"/>
			</g>
			<polyline class="st21" points="181.2,791.8 147.3,795.2 182,798.9 145.7,803.1 182.5,803.3 146.3,799.1 181.1,794.4 147.9,791 
							"/>
		</g>
		<g>
			<g>
				<path class="st19" d="M51.6,798.1c-5-7-4.2-12.9-4.2-12.9s-9.6-2.2-21.5-1.8c-11.8-0.4-15.7,1.8-15.7,1.8s-3.1,5.8-8.2,12.8
					C-3,804.8-6,811.7-6,811.7c2.7,9.6,28.4,7.5,31.9,7.2c3.5,0.3,29.2,2.4,31.9-7.2C57.8,811.7,56.4,804.9,51.6,798.1z"/>
				<path class="st20" d="M57.8,811.7c0,0-3.3,3.8-11.4,5c-4.3,0.6-10,0.9-15,1c0,0-2.2,0-5.5,0c-3.3,0-5.5,0-5.5,0
					c-5-0.1-10.7-0.3-15-1c-8.1-1.2-11.4-5-11.4-5s-1.3,10.7,3.8,13c8.3,3.6,21,3.9,28.1,3.8c7.1,0.2,19.8-0.2,28.1-3.8
					C59.1,822.5,57.8,811.7,57.8,811.7z"/>
			</g>
			<polyline class="st21" points="10.6,791.8 44.6,795.2 9.8,798.9 46.2,803.1 9.3,803.3 45.6,799.1 10.7,794.4 44,791 			"/>
		</g>
		<g>
			<polygon class="st22" points="192.5,390 183.4,390 8.3,390 -0.9,390 -15.6,797.4 64.8,797.4 95.2,468.5 95.8,468 96.5,468.5 
				126.9,797.4 200.8,797.4 			"/>
			<polygon class="st23" points="-0.7,390.2 192.2,390.2 200.8,797.4 167.4,407.5 			"/>
		</g>
		<path class="st24" d="M147.6,48.6c-7.8-21.8-36.7-31.1-52.9-30.3c-16.1,0.8-39.9,7.3-49.3,27.1c-6.2,13.1,0.5,30.6,1,33.4
			c0.1,0.6,1.7,0.8,1.9,2.1c0.6,5,0.9,6.2,0.9,6.2l3-2.9c0,0,3.5-33.9,7.3-37.5c3.8-3.6,14.6-0.5,24.6,1.2c4.2,0.7,18.3,0.7,22.6,0
			c10-1.7,20.8-4.8,24.6-1.2c3.8,3.6,7.3,37.5,7.3,37.5l3,2.9c0,0,0.1-1.2,0.9-6.2c0.1-0.5,1.7-1.8,1.9-2.2
			C146,75.9,150.1,55.6,147.6,48.6z"/>
		<path class="st25" d="M259.7,272.9c-4.7-47.7-17.4-82.9-22.3-88.2c-13.7-15-87.7-39.6-87.7-39.6l-54,41.1l-53.9-41.1
			c0,0-74,24.6-87.7,39.6c-4.9,5.3-17.6,40.5-22.3,88.2c-6.4,65.6,4.9,150.8,4.9,150.8L-18,418l16-130.7l0.2,120.2l97.6,0.2
			l97.6-0.2l0.2-120.2l16,130.7l45.2,5.7C254.8,423.7,266.1,338.6,259.7,272.9z"/>
		<path class="st26" d="M108.4,168.6l21.7,16.8c0,0,10.3-10.7,17.5-24.6c7.2-13.9,4.9-17.4,4.9-17.4l-14.6-12.1
			c0,0-4.2,17.3-9.7,23.2C122.6,160.3,108.4,168.6,108.4,168.6z"/>
		<path class="st27" d="M76.2,168.6c0,0,8.9,33.5,10.3,38.6c1.8,6.3,2.3,20.6,2.3,20.6l15.2-5.5l-2.7-29.2l-9.1-23.9L76.2,168.6z"/>
		<path class="st28" d="M89,407.5l16,0.2c0,0-0.7-205.4,0.4-212.6c1.1-7.1,12.3-19.7,12.3-19.7l-9.2-7c0,0-15.3,19.7-18.3,26.2
			C87.1,201.3,89,407.5,89,407.5z"/>
		<path class="st29" d="M101,202c0,1.8-1.9,3.3-4.2,3.3c-2.3,0-4.2-1.5-4.2-3.3c0-1.8,1.9-3.3,4.2-3.3C99.2,198.7,101,200.2,101,202
			z"/>
		<path class="st29" d="M101,231.9c0,1.8-1.9,3.3-4.2,3.3c-2.3,0-4.2-1.5-4.2-3.3c0-1.8,1.9-3.3,4.2-3.3
			C99.2,228.6,101,230.1,101,231.9z"/>
		<path class="st29" d="M101,257.6c0,1.8-1.9,3.3-4.2,3.3c-2.3,0-4.2-1.5-4.2-3.3c0-1.8,1.9-3.3,4.2-3.3
			C99.2,254.3,101,255.8,101,257.6z"/>
		<path class="st29" d="M101,285.6c0,1.8-1.9,3.3-4.2,3.3c-2.3,0-4.2-1.5-4.2-3.3c0-1.8,1.9-3.3,4.2-3.3
			C99.2,282.3,101,283.8,101,285.6z"/>
		<path class="st29" d="M101,312.8c0,1.8-1.9,3.3-4.2,3.3c-2.3,0-4.2-1.5-4.2-3.3c0-1.8,1.9-3.3,4.2-3.3
			C99.2,309.6,101,311,101,312.8z"/>
		<path class="st29" d="M101,339.1c0,1.8-1.9,3.3-4.2,3.3c-2.3,0-4.2-1.5-4.2-3.3c0-1.8,1.9-3.3,4.2-3.3
			C99.2,335.9,101,337.3,101,339.1z"/>
		<path class="st29" d="M101,366.4c0,1.8-1.9,3.3-4.2,3.3c-2.3,0-4.2-1.5-4.2-3.3c0-1.8,1.9-3.3,4.2-3.3
			C99.2,363.1,101,364.6,101,366.4z"/>
		<path class="st1" d="M91.7,180c0,1.8-1.9,3.3-4.2,3.3c-2.3,0-4.2-1.5-4.2-3.3c0-1.8,1.9-3.3,4.2-3.3
			C89.8,176.7,91.7,178.2,91.7,180z"/>
		<path class="st26" d="M81.1,168.6l-21.7,16.8c0,0-10.2-10.7-17.5-24.6C34.6,147,37,143.4,37,143.4l14.6-12.1
			c0,0,4.2,17.3,9.7,23.2C66.9,160.3,81.1,168.6,81.1,168.6z"/>
		<g>
			<polygon class="st30" points="59.4,185.4 81,168.6 80.5,178.5 			"/>
			<polygon class="st30" points="130,185.4 108.3,168.6 115.5,179.2 			"/>
		</g>
		<polygon class="st31" points="177.4,391.8 105,407.8 193.1,407.1 193.1,240.6 		"/>
		<polygon class="st31" points="-2,293.5 5.7,236.1 6.4,270.5 		"/>
	</g>
</g>
</svg>
