<?xml version="1.0" encoding="utf-8"?>
<!-- Generator: Adobe Illustrator 23.0.4, SVG Export Plug-In . SVG Version: 6.00 Build 0)  -->
<svg version="1.0" id="Layer_1" xmlns="http://www.w3.org/2000/svg" xmlns:xlink="http://www.w3.org/1999/xlink" x="0px" y="0px"
	 viewBox="0 0 200 200" style="enable-background:new 0 0 200 200;" xml:space="preserve">
<style type="text/css">
	.st0{clip-path:url(#SVGID_2_);}
	.st1{fill:#281A14;}
	.st2{fill:#E1A98E;}
	.st3{fill:#DCA58E;}
	.st4{fill:#E4B49B;}
	.st5{fill:#E7BAA6;}
	.st6{fill:#DFA998;}
	.st7{fill:#ACACAC;}
	.st8{fill:#DFACC1;}
	.st9{fill:#FFE9E5;}
	.st10{fill:#E4C2B9;}
	.st11{fill:#DCA48D;}
	.st12{fill:#EEBB9F;}
	.st13{fill:#D09985;}
	.st14{fill:#AE7568;}
	.st15{fill:#D29B8B;}
	.st16{fill:#D28888;}
	.st17{fill:#DA8989;}
	.st18{fill:#E79D9D;}
	.st19{fill:#77625B;}
	.st20{fill:#F3F0E9;}
	.st21{fill:#634A38;stroke:#2D2825;stroke-width:9.077500e-02;}
	.st22{fill:#1B1C1C;}
	.st23{fill:#AE796D;}
	.st24{fill:#EEBFB5;}
	.st25{fill:#2A2432;}
	.st26{fill:#424140;}
	.st27{fill:#2B2B2B;}
	.st28{opacity:0.3;fill:#FFFFFF;}
	.st29{fill:none;stroke:#564E43;stroke-width:9.596800e-02;stroke-miterlimit:10;}
	.st30{fill:#4C3226;}
</style>
<g>
	<defs>
		<rect id="SVGID_1_" width="200" height="200"/>
	</defs>
	<use xlink:href="#SVGID_1_"  style="overflow:visible;fill:#EAB6B5;"/>
	<clipPath id="SVGID_2_">
		<use xlink:href="#SVGID_1_"  style="overflow:visible;"/>
	</clipPath>
	<g class="st0">
		<path class="st1" d="M71.4,158.6l55.7-3.9c0,0,17.2-45.8,17.9-57.5c0.7-11.7-100.4-3.3-100.4-3.3S42.1,144.4,71.4,158.6z"/>
		<path class="st2" d="M240.7,405.9h-25.1c0,0-26.2-73.3-27.7-77.9c-1.5-4.7-7.9-60.3-10.8-79.2c-3-18.9-5.5-91.5,3.6-90
			c13.7,2.2,34.6,11.4,36.1,34.1c0.6,8.5,1.4,25.9,1.7,37c0.5,19.9,0.9,59.8,2.1,64.3c1.9,7.3,12.4,32.6,13.1,41.6
			C234.3,344.8,240.7,405.9,240.7,405.9z"/>
		<path class="st2" d="M-44.9,405.9h25.1c0,0,26.2-73.3,27.7-77.9c1.5-4.7,7.9-60.3,10.9-79.2c3-18.9,5.5-91.5-3.6-90
			c-13.7,2.2-34.6,11.4-36.1,34.1c-0.6,8.5-1.4,25.9-1.7,37c-0.5,19.9-0.9,59.8-2.1,64.3c-1.9,7.3-12.3,32.6-13.1,41.6
			C-38.5,344.8-44.9,405.9-44.9,405.9z"/>
		<path class="st3" d="M162.3,292.3c3.6-23.6,11.3-56.5,21.1-76c9.7-19.5,16.5-50.8,11.9-53.1c-8.1-3.9-15.2-4.8-28.3-7.5
			c-13.1-2.6-42.1-14.5-42.3-15.7c-0.7-3.6,0-23.3,0-23.3H99.9h-2.1h-2.1H71.1c0,0,0.7,19.7,0,23.3c-0.2,1.2-29.2,13.1-42.3,15.7
			c-13.1,2.6-19.5,3.4-28.4,7.5c-4.7,2.2,2.2,33.5,11.9,53c9.7,19.5,17.4,52.4,21.1,76c2.9,18.9,4.4,23.4-7.6,43.5
			c-11.2,18.9-15.6,27.4-15.6,27.4s54.1,6.4,87.6,6.5c33.5-0.1,87.7-6.5,87.7-6.5s-4.4-8.5-15.6-27.4
			C157.9,315.7,159.4,311.2,162.3,292.3z"/>
		<path class="st4" d="M97.9,427.8v-57.9c51.2-1.6,85.6-9,85.6-9c6.2,4.6,25.9,47.7,25.4,72.1c-0.3,14.2-1.2,158-1.2,158
			s13,45.2,13.2,57c0.2,11.7-8.2,117.8-8.2,117.8c1.8,12.2,38.2,30.1,38.2,30.1l-3.6,7.9h-35.6c0,0-8.1-5.3-14.4-7.9
			c-6.3-2.6-18.2-4.3-17.4-8.1c1.8-8.3,4.5-21.7,4.5-21.7s1.3-11.3-1.1-26.3c-3.3-20.5-11.2-48.3-15.6-67.1
			c-7.6-32.7-5.7-62.9-9.3-70.1c-3.6-7.2-4.9-9.5-7.3-14.8c-2.3-5.3-2.8-16.8-5.5-24.4c-2.8-7.7-8.2-24.3-20.1-63.6
			c-11.9-39.3-10.3-73.7-10.3-73.7S108,428.8,97.9,427.8z"/>
		<path class="st4" d="M-6.5,471c0,0-3.6,4.5-5.6,7.3c-2.1,2.8-32.9-27.4-32.9-32.8c0-5.4,0-39.7,0-39.7H-20l8.2,25.2l-3,28.3
			L-6.5,471z"/>
		<path class="st5" d="M-28.2,438.6c0,0,6.9,23.4,7.9,24.5c0.9,1,5.2,0,5.2,0l3.4-31.9L-15,421L-28.2,438.6z"/>
		<path class="st6" d="M47.1,260.7c-13.9-1.4-27-6.6-27.3-21c-0.4-14.4,4.7-18.4,5.6-24.2c0.6-3.8,1.5-11.2,1.5-11.2
			s25.1-4.8,38.4,1.6c13.3,6.4,21.2,11.1,22.1,21.9C90,243.1,70.6,261.8,47.1,260.7z"/>
		<path class="st6" d="M149.9,260.7c13.9-1.4,27-6.6,27.3-21c0.3-14.4-4.7-18.4-5.6-24.2c-0.6-3.8-1.5-11.2-1.5-11.2
			s-25.1-4.8-38.4,1.6c-13.3,6.4-21.2,11.1-22.1,21.9C107,243.1,126.5,261.8,149.9,260.7z"/>
		<path class="st4" d="M97.9,427.8v-58.6c-34.4,0-87.3-6.5-87.3-6.5c-5.2,5.2-16.8,50.1-11.8,74.2c2.9,14,36.1,156.3,36.1,156.3
			s-4.5,46.2-2.5,57.8c2,11.6,29.9,115.7,29.9,115.7c0.5,12.2-16.2,26.8-16.2,26.8l3.4,7H88l4.5-17.5l-2.2-19.2c0,0-3.4-11-3.7-26.2
			c-0.5-20.6,2.1-49.1,3-68.2c1.5-33.2-6-62.9-3.7-70.5c2.2-7.6,3.1-9.9,4.4-15.4c1.3-5.5,1.7-49.8,6.2-90c4.5-40.2-8.1-67-8.1-67
			S95.1,427.7,97.9,427.8z"/>
		<g>
			<path class="st7" d="M241.4,405.8c-0.1-0.6-6.4-61.2-7.1-70.1c-0.5-5.9-5.1-18.6-8.7-28.8c-2-5.6-3.7-10.4-4.4-12.9
				c-0.9-3.5-1.4-28.2-1.7-48.1c-0.1-6-0.2-11.6-0.3-16.1c-0.3-11.5-1.1-28.9-1.7-37c-1.1-16.7-12.4-25.5-21.6-29.9l-0.2-0.2
				c-6.8-3.3-13-4.5-22.4-6.3c-1.9-0.4-3.9-0.8-6.1-1.2c-12.5-2.5-40-13.7-41.8-15.4c-0.6-3.6,0-11.9,0-12l0.1-0.7l-0.9,0.1
				c-0.2,0-17.1,2.5-25.3,2.5c-0.3,0-0.6,0-0.9,0c-7.8-0.2-26.9-2.4-27.1-2.5l-0.9-0.1l0,0.7c0,0.1,0.6,8.4,0,12
				c-1.8,1.7-29.3,12.9-41.8,15.4c-1.9,0.4-3.7,0.7-5.3,1c-8,1.6-13.4,2.6-19.3,4.9c-0.1,0-0.2,0.1-0.3,0.1l-0.2,0.1
				c-0.7,0.3-1.4,0.6-2.1,0.9l-1.4,0.6c-0.2,0.1-0.2,0.1-0.2,0.1c-9.2,4.5-20.4,13.3-21.5,29.9c-0.6,9.1-1.4,26.5-1.7,37
				c-0.1,4.4-0.2,9.7-0.3,15.5c-0.4,20.2-0.8,45.3-1.7,48.8c-0.7,2.6-2.4,7.4-4.4,13c-3.7,10.2-8.2,22.9-8.7,28.8
				c-0.7,8.9-7,69.5-7.1,70.1l-0.1,0.6h26.4l0.1-0.4c0.3-0.7,26.2-73.3,27.7-78c0.8-2.6,3.2-20.9,5.7-40.3c1.9-15.1,3.9-30.6,5.2-39
				c0.4-2.4,0.8-5.6,1.1-9.5c4.9,15.5,9.4,35.1,12.2,53l0.4,2.5c2.6,16.6,3.4,21.6-7.9,40.7C14.1,354.3,9.6,362.9,9.5,363l-0.3,0.7
				l0.9,0.1c0.5,0.1,54.6,6.4,87.8,6.5c33.2-0.1,87.2-6.5,87.8-6.5l0.9-0.1l-0.3-0.7c0-0.1-4.5-8.7-15.6-27.4
				c-11.3-19-10.5-24-7.9-40.6l0.4-2.6c2.8-18.1,7.3-37.7,12.2-53.2c0.4,4.1,0.7,7.3,1.1,9.6c1.3,8.4,3.3,24.2,5.3,39.4
				c2.4,19.1,4.7,37.2,5.6,39.8c1.5,4.6,27.4,77.2,27.7,78l0.1,0.4h26.4L241.4,405.8z"/>
			<polygon class="st7" points="22.4,241.1 18.1,213.7 11.8,302.7 			"/>
			<polygon class="st7" points="174.3,236.6 178.6,213.7 184,301.4 			"/>
			<path class="st7" d="M45.8,261.4c-14-1.4-27.3-6.7-27.6-21.3c-0.4-14.6,4.8-18.7,5.7-24.5c0.6-3.9,1.5-11.3,1.5-11.3
				s25.4-4.8,38.9,1.6c13.5,6.5,21.5,11.3,22.4,22.2C89.2,243.6,69.5,262.5,45.8,261.4z"/>
			<path class="st7" d="M149.9,261.4c14-1.4,27.3-6.7,27.7-21.3c0.3-14.6-4.8-18.7-5.7-24.5c-0.6-3.9-1.5-11.3-1.5-11.3
				s-25.4-4.8-38.9,1.6c-13.5,6.5-21.5,11.3-22.4,22.2C106.4,243.6,126.1,262.5,149.9,261.4z"/>
		</g>
		<path class="st8" d="M32,622h184.8l-0.2-0.7c-3.7-15-8.1-30.4-8.1-30.4c0-1.5,0.9-144.1,1.2-158.1c0.4-22.6-16.5-61.1-23.7-70.4
			c-1.2-2.3-5.9-10.9-15.3-26.9c-3.5-5.9-5.8-10.5-7.3-14.3l-0.2-0.4H32.8l-0.2,0.4c-1.5,3.9-3.7,8.3-7.3,14.3
			c-9.8,16.5-14.4,25.1-15.6,27.3c-5.6,7.2-16.4,50.5-11.5,74.1c2.8,13.7,35.2,152.4,36.1,156.2c-0.1,1.1-1.4,14.5-2.2,28.3L32,622z
			"/>
		<path class="st4" d="M202.3,471c0,0,3.6,4.5,5.6,7.3c2.1,2.8,32.9-27.4,32.9-32.8c0-5.4,0-39.7,0-39.7h-25.1l-8.2,25.2l3,28.3
			L202.3,471z"/>
		<path class="st5" d="M223.9,438.6c0,0-6.9,23.4-7.9,24.5c-0.9,1-5.2,0-5.2,0l-3.4-31.9l3.3-10.1L223.9,438.6z"/>
		<g>
			<path class="st9" d="M93.6,773.8c-1.8-6.2-3.3-10.1-3.3-10.1s-8.4,18-17.7,18.3c-9.4-0.3-10.2-14.4-10.2-14.4s-4.1,7.1-8.2,12.6
				c-3.9,5.3-9.5,10.5-9.5,10.5c2.1,7.6,22.5,5.9,25.3,5.7c2.8,0.3,23.1,1.9,25.3-5.7C95.2,790.7,95.7,781.4,93.6,773.8z"/>
			<path class="st10" d="M95.2,790.7c0,0-2.6,3-9,3.9c-3.4,0.5-7.9,0.7-11.9,0.8c0,0-1.8,0-4.4,0c-2.6,0-4.4,0-4.4,0
				c-4-0.1-8.5-0.3-11.8-0.8c-6.5-1-9-3.9-9-3.9s-1,8.5,3.1,10.3c6.6,2.9,16.6,3.1,22.2,3c5.6,0.1,15.7-0.1,22.2-3
				C96.2,799.2,95.2,790.7,95.2,790.7z"/>
		</g>
		<g>
			<path class="st9" d="M176.7,785.1c0,0,2.6-8.5,3.4-11.2c0.8-2.7,19.4,4,19.4,4s17.2,8.8,25.4,8.1c5.2-0.5-3.7-8.1-0.5-6.6
				c5.6,2.5,10.1,4.9,12.9,6.6c12,7.3,14.8,8.9,15.4,10.4c0.6,1.5,0.6,1.8,0.6,1.8s-14.8,3.3-30.8,1.9c-12.2-1.1-16.9-1.8-28-7.5
				C186.7,788.5,176.7,785.1,176.7,785.1z"/>
			<path class="st10" d="M253.2,797.7c0,0,2.4,8.1-3.5,9.5c-8,2-33.3,1.1-45.7-4.1c-12.4-5.3-13.6-7.1-22.5-9
				c-8.9-1.9-5.7-2.4-5.2-5.7c0.5-3.3,0.5-3.3,0.5-3.3s8.2,2.2,14.3,4.8c2.3,1,12.7,6.6,22.3,8C226.2,799.8,243.4,801.2,253.2,797.7
				z"/>
		</g>
		<path class="st11" d="M55.2,99.8c0,0-5.9-3.1-6.8-6.7c-0.3-1.2-3.2-12.8-2.1-14.9c1.1-2,3.2-3.3,5.3-0.7c2,2.6,2,2.6,2,2.6
			s0.7,5.7,1.9,10.8C56.6,95.8,59.1,102.1,55.2,99.8z"/>
		<path class="st11" d="M140.4,99.8c0,0,5.9-3.1,6.8-6.7c0.3-1.2,3.2-12.8,2.1-14.9c-1.1-2-3.2-3.3-5.3-0.7c-2,2.6-2,2.6-2,2.6
			s-0.7,5.7-1.9,10.8C139,95.8,136.5,102.1,140.4,99.8z"/>
		<path class="st12" d="M108.3,31.2c-2.4-0.1-4.4-0.2-6.2-0.2c0.9-0.1,0.8-0.3-4.4-0.1c-5.1-0.1-5.3,0-4.4,0.1
			c-1.7,0.1-3.8,0.1-6.2,0.2c-23.8,0.9-37.1,33.2-35.5,45.6c1.5,12.5,9.3,33,15.2,38.9c5.2,5.1,12.8,8.1,21.9,12.3
			c2.8,1.3,15.2,1.3,18,0c9.1-4.2,16.7-7.1,21.9-12.3c5.9-5.8,13.6-26.4,15.2-38.9C145.3,64.4,132.1,32.1,108.3,31.2z"/>
		<g>
			<path class="st13" d="M105,96.7c-2.5-1.1-5.1,0.3-7.5,0.5c-2.4-0.1-4.9-1.5-7.4-0.4c-2,0.9-2.6,1.7-2.5,2.9
				c0.1,0.9,7,0.7,9.9,0.6c3,0.1,9.9,0.3,9.9-0.6C107.6,98.4,107.1,97.6,105,96.7z"/>
			<path class="st14" d="M89.5,99.1c-0.1-0.4,0.6-0.9,1.2-1.1c0.9-0.3,1.2-0.3,2.8,0c1.6,0.3,2,0.8,1.7,1.1
				C94.9,99.3,89.5,99.5,89.5,99.1z"/>
			<path class="st14" d="M105.7,99.1c0.1-0.4-0.6-0.9-1.2-1.1c-0.9-0.3-1.2-0.3-2.8,0c-1.6,0.3-2,0.8-1.7,1.1
				C100.3,99.3,105.7,99.5,105.7,99.1z"/>
		</g>
		<path class="st15" d="M103.4,78.1l1.4,12.3c0,0,1.1,2.4,2.5,3.2c1.1,0.6,1.4,0.9,1.4,0.9L103.4,78.1z"/>
		<g>
			<path class="st16" d="M97.6,107.3c-0.2,0-0.4,0-0.6-0.1c-0.6-0.1-2.9-0.7-5.2-0.4c-2.3,0.4-8.5,3.6-8.5,3.6s12.3,0.5,14.3,0.4
				V107.3z"/>
			<path class="st17" d="M97.6,107.3c0.2,0,0.4,0,0.6-0.1c0.6-0.1,2.9-0.7,5.2-0.4c2.2,0.4,8.5,3.6,8.5,3.6S99.6,111,97.6,111V107.3
				z"/>
			<path class="st18" d="M97.7,110.7c-3.8-0.2-13.5-1-14.4-0.1c0,0,4.2,4.3,6.8,5.2c1.8,0.6,3.5,0.8,5.1,0.9l0,0c0,0,0,0,1.2,0
				c0.4,0,0.8,0,1.1,0c0.4,0,0.7,0,1.1,0c1.2,0,1.2,0,1.2,0v0c1.6-0.1,3.4-0.2,5.1-0.9c2.6-0.9,6.8-5.2,6.8-5.2
				C111.1,109.7,101.5,110.4,97.7,110.7z"/>
		</g>
		<path class="st19" d="M87.8,70.2c0.9,0.3,1.2,1.1,0.7,2.1c-0.1,0.3-0.5,0.8-1.4,0.9c-0.8,0-5.5-1.7-7-2.2
			c-9.4-3.2-16.6-0.5-17.7-0.2c-1.1,0.3-1.9,0.5-1-0.3c0.9-0.8,7.2-4.2,15.8-3.2C79.5,67.5,86.8,69.9,87.8,70.2z"/>
		<g>
			<path class="st20" d="M88.3,79.8c0,0-1.8,1.9-8.2,2c-7.7,0.1-9.8-1.1-11.2-1.9c-1.4-0.8-2-1.4-2-1.4s3.8-2.1,8.1-2.4
				C82.6,75.7,88.3,79.8,88.3,79.8z"/>
			<g>
				<path class="st21" d="M83.8,78.3c0.1,2-2.2,3.6-5,3.6c-2.8,0-5.1-1.5-5.2-3.5c0-2,2.2-3.6,5-3.6C81.4,74.7,83.7,76.3,83.8,78.3z
					"/>
				<path class="st22" d="M81.9,78.3c0,1.3-1.4,2.3-3.1,2.3c-1.8,0-3.2-1-3.2-2.2c-0.1-1.3,1.4-2.3,3.1-2.3
					C80.4,76,81.8,77,81.9,78.3z"/>
			</g>
			<path class="st23" d="M81.4,81.3c-3.5,0.1-3.4,0.3-8.7-0.4c-2.8-0.4-5-1.8-5-1.8s0.7,1.1,2.3,1.7c4.7,1.9,9.8,1.9,15.3,0.4
				l2.4-0.7C87.7,80.4,84.9,81.2,81.4,81.3z"/>
			<path class="st15" d="M88.3,79.8c0,0-1.3-4.2-6.2-5.5c-4.1-1-7.2-0.3-10.1,0.5c-3,0.8-5.1,2.6-5.1,2.6s3.9-1.6,8.5-1.8
				C80,75.4,86,77.4,88.3,79.8z"/>
			<path class="st24" d="M88.3,79.8c0,0-2.1-4-6.2-5.1c-4.1-1.1-7.2-0.3-10.1,0.4c-3,0.8-5.5,2.7-5.5,2.7s4.4-1.5,9-1.8
				C81.6,75.6,86,77.7,88.3,79.8z"/>
			<path class="st25" d="M64.8,77.8c0,0,5.6-2.2,12.5-2.2c7.1,0,11,4.1,11,4.1s-4.1-3.6-11.8-3.3c-3.8,0.2-8.2,2.8-8.2,2.8
				L64.8,77.8z"/>
		</g>
		<path class="st19" d="M108.4,70.2c-0.9,0.3-1.2,1.1-0.7,2.1c0.1,0.3,0.5,0.8,1.4,0.9c0.8,0,5.5-1.7,7-2.2
			c9.4-3.2,16.6-0.5,17.7-0.2c1.1,0.3,1.9,0.5,1-0.3c-0.9-0.8-7.2-4.2-15.8-3.2C116.7,67.5,109.3,69.9,108.4,70.2z"/>
		<g>
			<path class="st20" d="M108.4,79.8c0,0,2.1,2.1,8.5,2.1c7.7,0.1,10-1.9,11.5-2.6c1.4-0.8,1.4-0.8,1.4-0.8s-3.8-2.1-8.1-2.4
				C114.2,75.7,108.4,79.8,108.4,79.8z"/>
			<g>
				<path class="st21" d="M113,78.3c-0.1,2,2.2,3.6,5,3.6c2.8,0,5.1-1.5,5.2-3.5c0-2-2.2-3.6-5-3.6C115.3,74.7,113,76.3,113,78.3z"
					/>
				<path class="st22" d="M114.8,78.3c0,1.3,1.4,2.3,3.1,2.3c1.8,0,3.2-1,3.2-2.2c0-1.3-1.4-2.3-3.1-2.3
					C116.3,76,114.9,77,114.8,78.3z"/>
			</g>
			<path class="st23" d="M115.1,81.3c3.5,0.1,3.5,0.3,8.7-0.4c2.8-0.4,5-1.8,5-1.8s-0.7,1.1-2.3,1.7c-4.7,1.9-9.8,1.9-15.3,0.4
				l-2.4-0.7C108.8,80.4,111.7,81.2,115.1,81.3z"/>
			<path class="st15" d="M108.4,79.8c0,0,1.3-4.2,6.2-5.5c4.1-1,7.2-0.3,10.1,0.5c3,0.8,5.1,2.6,5.1,2.6s-3.9-1.6-8.5-1.8
				C116.7,75.4,110.8,77.4,108.4,79.8z"/>
			<path class="st24" d="M108.4,79.8c0,0,2.1-4,6.2-5.1c4.1-1.1,7.2-0.3,10.1,0.4c3,0.8,5.5,2.7,5.5,2.7s-4.4-1.5-9-1.8
				C115.2,75.6,110.7,77.7,108.4,79.8z"/>
			<path class="st25" d="M131.9,77.8c0,0-5.6-2.2-12.5-2.2c-7.1,0-11,4.1-11,4.1s4-3.6,11.8-3.3c3.8,0.2,8.2,2.8,8.2,2.8L131.9,77.8
				z"/>
		</g>
		<g>
			<g>
				<path class="st26" d="M53,75.7c0,0-0.8,0.1-2.4,0c-1.4-0.1-1-0.2-1-0.2l0.4,4.7c0,0-0.2,0.4,0.8,0.4c1,0,2.6,0,2.6,0L53,75.7z"
					/>
				<path class="st27" d="M49.6,75.5c0,0,3.1-1.6,3.7-1.6c0.5,0,0.4,0.2,0.4,0.2L53,75.7C53,75.7,50.4,76.1,49.6,75.5z"/>
				<g>
					<path class="st28" d="M56.6,87.5c0,0-1.7-0.1-2.8-5c-1.1-4.9-1.6-8.7,1.6-9.3c4.6-0.9,21.1-0.7,28.3,0.2
						c7.2,0.9,9.9,1.9,7.1,8.1c-2,4.5-3.1,5.5-4.8,6.5C84.2,89.1,70.1,91,56.6,87.5z"/>
					<path class="st29" d="M56.6,87.5c0,0-1.7-0.1-2.8-5c-1.1-4.9-1.6-8.7,1.6-9.3c4.6-0.9,21.1-0.7,28.3,0.2
						c7.2,0.9,9.9,1.9,7.1,8.1c-2,4.5-3.1,5.5-4.8,6.5C84.2,89.1,70.1,91,56.6,87.5z"/>
				</g>
			</g>
			<g>
				<path class="st26" d="M142.6,75.7c0,0,0.8,0.1,2.4,0c1.4-0.1,1-0.2,1-0.2l-0.4,4.7c0,0,0.2,0.4-0.8,0.4c-1,0-2.6,0-2.6,0
					L142.6,75.7z"/>
				<path class="st27" d="M146,75.5c0,0-3.1-1.6-3.7-1.6c-0.5,0-0.4,0.2-0.4,0.2l0.6,1.7C142.6,75.7,145.2,76.1,146,75.5z"/>
				<g>
					<path class="st28" d="M139,87.5c0,0,1.7-0.1,2.8-5c1-4.9,1.6-8.7-1.6-9.3c-4.6-0.9-21.1-0.7-28.3,0.2c-7.2,0.9-9.9,1.9-7.1,8.1
						c2,4.5,3,5.5,4.8,6.5C111.3,89.1,125.4,91,139,87.5z"/>
					<path class="st29" d="M139,87.5c0,0,1.7-0.1,2.8-5c1-4.9,1.6-8.7-1.6-9.3c-4.6-0.9-21.1-0.7-28.3,0.2c-7.2,0.9-9.9,1.9-7.1,8.1
						c2,4.5,3,5.5,4.8,6.5C111.3,89.1,125.4,91,139,87.5z"/>
				</g>
			</g>
			<rect x="91.7" y="76.5" class="st26" width="12.2" height="1"/>
		</g>
		<path class="st30" d="M60.8,65.9c0,0-4.4,12.8-1.2,30c1.9,10.2,16,63.8,16,63.8s-13.6-0.3-6,12.3c7.6,12.7,13.5,13.9,13.5,13.9
			s-17.6-0.1-27.9-9.7c-10.3-9.6-24.3-58.5-21.6-88.2c2.7-29.8,11.3-44.6,23.6-53.6c13-9.5,38.5-12.8,50.2-11.5
			c18.6,2,51,15.7,52.3,49.1c1.3,34.2-7.5,82.9-14.5,95.6c-8.1,14.9-24.9,18.1-24.9,18.1s3.8-2.6,9.7-17.9
			c6.2-16.2-10.1-10-9.3-10.8c8.6-8.7,18.1-53.4,18.4-68.4c0.4-15-5.9-22.4-5.9-22.4L108.9,66c0,0,4.2-6.6,6.4-10.3
			c2.9-4.7,2.6-6.8,2.6-6.8s-15.7,17-21.3,17.2C90.9,66.3,60.8,65.9,60.8,65.9z"/>
	</g>
</g>
</svg>
