<?xml version="1.0" encoding="utf-8"?>
<!-- Generator: Adobe Illustrator 23.0.4, SVG Export Plug-In . SVG Version: 6.00 Build 0)  -->
<svg version="1.0" id="Layer_1" xmlns="http://www.w3.org/2000/svg" xmlns:xlink="http://www.w3.org/1999/xlink" x="0px" y="0px"
	 viewBox="0 0 300 150" style="enable-background:new 0 0 300 150;" xml:space="preserve">
<style type="text/css">
	.st0{fill:#E26A6A;}
	.st1{fill:#FFFFFF;}
	.st2{fill:url(#SVGID_1_);}
	.st3{fill:#CC3C50;}
	.st4{fill:url(#SVGID_2_);}
	.st5{fill:url(#SVGID_3_);}
	.st6{fill:#DFCBC4;}
	.st7{fill:url(#SVGID_4_);}
	.st8{fill:#3C4E62;}
	.st9{fill:url(#SVGID_5_);}
	.st10{opacity:0.42;clip-path:url(#SVGID_7_);fill:url(#SVGID_8_);}
</style>
<rect class="st0" width="300" height="150"/>
<polygon class="st1" points="160.8,93 146.4,90.5 132.1,93 146.4,95.5 "/>
<linearGradient id="SVGID_1_" gradientUnits="userSpaceOnUse" x1="151.1956" y1="104.5091" x2="164.4427" y2="144.4453">
	<stop  offset="0.3222" style="stop-color:#CC3C50"/>
	<stop  offset="0.4825" style="stop-color:#D04856"/>
	<stop  offset="0.7647" style="stop-color:#E06768"/>
	<stop  offset="0.7834" style="stop-color:#E26A6A"/>
</linearGradient>
<polygon class="st2" points="211,121.9 160.8,113.1 103.4,123.1 153.6,131.9 "/>
<polygon class="st1" points="146.4,100.5 132.1,98 117.7,100.5 132.1,103 "/>
<polygon class="st1" points="132.1,108.1 117.7,105.6 103.4,108.1 117.7,110.5 "/>
<polygon class="st1" points="117.7,115.6 103.4,113.1 89,115.6 103.4,118.1 "/>
<g>
	<polygon class="st3" points="146.4,95.5 146.4,100.5 160.8,93 	"/>
	<polygon class="st3" points="139.2,104.3 146.4,100.5 132.1,103 132.1,108.1 132.1,108.1 117.7,110.5 117.7,115.6 103.4,118.1 
		103.4,123.1 146.4,115.7 160.8,113.1 160.8,108.1 160.8,93 	"/>
</g>
<g>
	<g>
		<polygon class="st1" points="156.6,58.5 124.2,62.2 119.3,50 151.6,46.3 		"/>
		<linearGradient id="SVGID_2_" gradientUnits="userSpaceOnUse" x1="143.0425" y1="51.9964" x2="144.8307" y2="104.4784">
			<stop  offset="0.1369" style="stop-color:#35495E"/>
			<stop  offset="0.3806" style="stop-color:#364A5F"/>
			<stop  offset="0.5146" style="stop-color:#3B4E61"/>
			<stop  offset="0.6219" style="stop-color:#425566"/>
			<stop  offset="0.715" style="stop-color:#4D606E"/>
			<stop  offset="0.7991" style="stop-color:#5B6F79"/>
			<stop  offset="0.8765" style="stop-color:#6D8488"/>
			<stop  offset="0.9474" style="stop-color:#849F9A"/>
			<stop  offset="1" style="stop-color:#9ABBAE"/>
		</linearGradient>
		<polygon class="st4" points="149.9,92.1 136.4,52.5 137.8,52.5 151.1,92 		"/>
		<linearGradient id="SVGID_3_" gradientUnits="userSpaceOnUse" x1="169.86" y1="58.5356" x2="144.9354" y2="66.8176">
			<stop  offset="0.1369" style="stop-color:#35495E"/>
			<stop  offset="0.3806" style="stop-color:#364A5F"/>
			<stop  offset="0.5146" style="stop-color:#3B4E61"/>
			<stop  offset="0.6219" style="stop-color:#425566"/>
			<stop  offset="0.715" style="stop-color:#4D606E"/>
			<stop  offset="0.7991" style="stop-color:#5B6F79"/>
			<stop  offset="0.8765" style="stop-color:#6D8488"/>
			<stop  offset="0.9474" style="stop-color:#849F9A"/>
			<stop  offset="1" style="stop-color:#9ABBAE"/>
		</linearGradient>
		<path class="st5" d="M166,59.9c-0.7-1.4-2.7-1.9-2.7-1.9L152.2,62l0.3,0.7l3.1-0.1l1,1.2h2.8l1-1.3l6.1-0.1
			C166.4,62.3,166.7,61.3,166,59.9z M158.8,63.4l-2,0.1l-0.7-0.9l3.4-0.1L158.8,63.4z"/>
		<path class="st6" d="M149.9,59.7c0,0-0.1,0.5,0,0.9c0.2,0.5,0.6,1,0.5,1.1c-0.2,0.2-0.7,0.2-0.7,0.2s0.4,1.1,0.2,1.3
			c-0.2,0.1-1.9-0.1-1.9-0.1l-0.6,0.4l-0.2,0.3h-2.9V63l2.3-2.7L149.9,59.7z"/>
		
			<linearGradient id="SVGID_4_" gradientUnits="userSpaceOnUse" x1="-747.5653" y1="56.5834" x2="-737.8708" y2="67.9041" gradientTransform="matrix(1 0 0 1 890.6211 0)">
			<stop  offset="0.1369" style="stop-color:#35495E"/>
			<stop  offset="0.3806" style="stop-color:#364A5F"/>
			<stop  offset="0.5146" style="stop-color:#3B4E61"/>
			<stop  offset="0.6219" style="stop-color:#425566"/>
			<stop  offset="0.715" style="stop-color:#4D606E"/>
			<stop  offset="0.7991" style="stop-color:#5B6F79"/>
			<stop  offset="0.8765" style="stop-color:#6D8488"/>
			<stop  offset="0.9474" style="stop-color:#849F9A"/>
			<stop  offset="1" style="stop-color:#9ABBAE"/>
		</linearGradient>
		<path class="st7" d="M143.4,59.7c-0.6,1,0.9,3.3,0.9,3.3l2.6,0.2v-1.1c0,0-0.7-0.5-0.4-0.7c0.3-0.2,0.3-0.3,0.7-0.2
			c0.4,0.1,0.7,0.6,0.7,0.6l0.5-0.1c0,0-0.2-0.9,0-1.1c0.2-0.2,1.4-0.8,1.4-0.8s-1.7-0.9-3.3-0.7C145,59.1,143.4,59.7,143.4,59.7z"
			/>
		<path class="st8" d="M144.4,92.6l0,0.3l1.4,0c0,0,4.2-0.7,4.1-0.8c-0.1-0.2-4.1,0.1-4.1,0.1L144.4,92.6z"/>
		<linearGradient id="SVGID_5_" gradientUnits="userSpaceOnUse" x1="146.3091" y1="77.4406" x2="146.3091" y2="105.6356">
			<stop  offset="0.1369" style="stop-color:#35495E"/>
			<stop  offset="0.3806" style="stop-color:#364A5F"/>
			<stop  offset="0.5146" style="stop-color:#3B4E61"/>
			<stop  offset="0.6219" style="stop-color:#425566"/>
			<stop  offset="0.715" style="stop-color:#4D606E"/>
			<stop  offset="0.7991" style="stop-color:#5B6F79"/>
			<stop  offset="0.8765" style="stop-color:#6D8488"/>
			<stop  offset="0.9474" style="stop-color:#849F9A"/>
			<stop  offset="1" style="stop-color:#9ABBAE"/>
		</linearGradient>
		<polygon class="st9" points="144.3,77.1 148.3,77 148.1,92.5 146.9,92.7 146.5,81.8 145.8,92.2 144.4,92.6 		"/>
		<polygon class="st6" points="144.3,65.1 143,65.7 138.8,70.4 143.7,75 143.5,73.4 140.8,70.6 142.1,69.3 		"/>
		<polygon class="st6" points="155.6,69.9 149.2,66.8 147.8,64.4 155,68.5 157.3,63.5 158.7,63.3 		"/>
		<path class="st1" d="M143.7,77.1h0.6l3.9-0.1L149,77c0,0,0.8-2.4,0.5-4.5c-0.3-2.1-0.7-7.9-1.7-8.4c-0.5-0.2-0.7-0.2-0.7-0.2h-2.9
			c0,0-0.8,0.9-1.1,1.3c-0.2,0.4-0.6,3.2-0.6,4.1C142.6,70,143.7,77.1,143.7,77.1z"/>
		<polygon class="st1" points="147.9,64.2 154.2,67.9 153.3,69.1 147.9,66.6 		"/>
		<polygon class="st1" points="143.6,64.5 144.7,67.2 141.9,70.1 139.5,69 		"/>
		<path class="st8" d="M146.9,92.7l1.2-0.2c0,0,3.4-0.4,4.3-0.3c0.9,0.2-4.3,0.9-4.3,0.9l-1.2,0L146.9,92.7z"/>
	</g>
	<g>
		<defs>
			<polygon id="SVGID_6_" points="146.4,95.5 160.8,93 146.2,90.5 132.1,93 			"/>
		</defs>
		<clipPath id="SVGID_7_">
			<use xlink:href="#SVGID_6_"  style="overflow:visible;"/>
		</clipPath>
		<linearGradient id="SVGID_8_" gradientUnits="userSpaceOnUse" x1="193.9487" y1="66.8722" x2="229.2731" y2="112.7699">
			<stop  offset="0" style="stop-color:#000000"/>
			<stop  offset="1" style="stop-color:#FFFFFF"/>
		</linearGradient>
		<path class="st10" d="M261.3,106.2l-5.7,0.1l-5-0.6l-0.7,0l-22.1-2.7l1.4,0.5l-0.7-0.1l2.6,1c-5.8-0.9-13-1.9-16.6-2.4
			c-6.5-1-14.9-2-14.9-2l-0.8,0l-20.7-2.9l-26.3-4.5l-0.6,0.1l15.5,2.8l-15.9-2.4l-0.4-0.2c1.3,0,1.9-0.7,2.1-0.7
			c0.3-0.1-8,0.7-8,0.7l1,0.1l49.6,7l-0.5,0c0,0,3.1,0.5,7.2,1.1l10,2.1l4.8,0.5l0.2,0.1l7.9,0.9l19.1,3l-18.4-0.4l34.7,5.6
			l39.9,0.8l-34.7-5.6l-9.3-0.2c-0.1-0.1-0.4-0.2-0.4-0.2s-1.7-0.2-3-0.4c-1.6-0.3-2.8-0.5-3.2-0.5c-0.7-0.1-1.2-0.1-1.2-0.1
			s-3.3-0.5-3.8-0.6c-0.5-0.1-1.2,0.1-1.2,0.1l-2-0.2l-1-0.1c0,0,0.2,0-0.1-0.1c-0.1,0-0.4-0.1-0.8-0.2l-6.2-1.8l-0.5-0.1l-0.9-0.3
			l17.1,2.1l-0.5,0l2.9,0.6l-2.9,0l1.9,0.3l22.2,1.5c0,0,0.3-0.3-3.6-0.9C264.7,106.7,261.3,106.2,261.3,106.2z M228.8,105.2
			l5.7,0.6l0,0c1.5,0.2,3.1,0.3,3.1,0.3l2.5,0.4c0,0,4.9,0.9,8.7,1.4l-3.5-0.1L228.8,105.2z M207.1,102c1.3,0.2,2.6,0.4,3.9,0.6
			l5.7,0.9l-1.5-0.2l0.3,0.1l-2.7-0.3L207.1,102z M180.7,97.8l0.2,0l-33-4.6c0,0,0.5,0,1.1,0L180.7,97.8z M254.8,106.3l-3.2,0.1
			l-2.3-0.4l1,0l1.2,0l-0.4-0.1l0.1,0L254.8,106.3z"/>
	</g>
</g>
</svg>
