<?xml version="1.0" encoding="utf-8"?>
<!-- Generator: Adobe Illustrator 23.0.4, SVG Export Plug-In . SVG Version: 6.00 Build 0)  -->
<svg version="1.0" id="Layer_1" xmlns="http://www.w3.org/2000/svg" xmlns:xlink="http://www.w3.org/1999/xlink" x="0px" y="0px"
	 viewBox="0 0 500 250" style="enable-background:new 0 0 500 250;" xml:space="preserve">
<style type="text/css">
	.st0{fill:#16B1B5;}
	.st1{fill:#E5AC85;}
	.st2{fill:#E2E2E2;}
	.st3{fill:#E1E5E5;}
	.st4{fill:#FFFFFF;}
	.st5{fill:#5DD1D1;}
	.st6{fill:#F9BB88;}
	.st7{fill:#FFCCA9;}
	.st8{fill:#295363;}
	.st9{fill:#244D56;}
	.st10{fill:#274B56;}
	.st11{fill:#F99973;}
	.st12{fill:#F9C6A0;}
	.st13{fill:#EAB48F;}
	.st14{fill:#F7F7F7;}
	.st15{fill:#B6C1C1;}
	.st16{fill:#D5DBDB;}
	.st17{fill:#DBDDDD;}
	.st18{fill:#2A2B2B;}
</style>
<g id="background">
	<rect y="0" class="st0" width="500" height="250"/>
</g>
<g id="objects">
	<g>
		<path class="st1" d="M332.6,99.8c-1.5,2-6.9,4.2-6.9,4.2l39.9,1.5c0.6-7.8-6.2-11.3-6.2-11.3l-22,3.3L332.6,99.8z"/>
		<g>
			<g>
				<polygon class="st2" points="276.5,107.7 380.5,97.7 392.4,128.5 288.3,138.5 				"/>
			</g>
			<g>
				<polygon class="st3" points="283.9,112.9 288.3,138.5 293.7,138 				"/>
			</g>
			<g>
				<polygon class="st4" points="283.6,111.6 387.6,101.6 399.4,132.4 295.4,142.4 				"/>
			</g>
			<g>
				<g>
					<path class="st3" d="M371.7,108.2l2.1,5.5l11-1.1l-2.1-5.5L371.7,108.2z M373.8,108.9l7.4-0.7l1.4,3.7l-7.4,0.7L373.8,108.9z"
						/>
				</g>
				<g>
					<g>
						<polygon class="st3" points="326.3,117.1 362.9,113.6 363.3,114.7 326.7,118.2 						"/>
					</g>
					<g>
						<g>
							<polygon class="st3" points="324.6,112.7 361.2,109.2 361.6,110.3 325,113.8 							"/>
						</g>
						<g>
							<polygon class="st3" points="292.1,115.9 319.3,113.2 319.8,114.3 292.6,117 							"/>
						</g>
					</g>
					<g>
						<g>
							<polygon class="st3" points="293,118.1 334.8,114 335.2,115.1 293.4,119.2 							"/>
						</g>
						<g>
							<polygon class="st3" points="340.8,113.4 362,111.4 362.4,112.5 341.2,114.5 							"/>
						</g>
					</g>
				</g>
			</g>
			<g>
				<g>
					<path class="st3" d="M378.1,124.8l2.1,5.5l11-1.1l-2.1-5.5L378.1,124.8z M380.3,125.5l7.4-0.7l1.4,3.7l-7.4,0.7L380.3,125.5z"
						/>
				</g>
				<g>
					<g>
						<polygon class="st3" points="350.2,132.1 369.3,130.2 369.7,131.3 350.7,133.2 						"/>
					</g>
					<g>
						<polygon class="st3" points="354.7,127.1 367.6,125.8 368,126.9 355.1,128.2 						"/>
					</g>
					<g>
						<polygon class="st3" points="298.6,132.5 319.5,130.5 319.9,131.6 299,133.6 						"/>
					</g>
					<g>
						<polygon class="st3" points="325.9,129.9 348.5,127.7 349,128.8 326.3,131 						"/>
					</g>
					<g>
						<g>
							<polygon class="st3" points="299.4,134.7 341.2,130.7 341.7,131.8 299.8,135.8 							"/>
						</g>
						<g>
							<polygon class="st3" points="347.2,130.1 368.4,128 368.9,129.1 347.6,131.2 							"/>
						</g>
					</g>
				</g>
			</g>
			<g>
				<g>
					<path class="st3" d="M374.9,116.5l2.1,5.5l11-1.1l-2.1-5.5L374.9,116.5z M377.1,117.2l7.4-0.7l1.4,3.7l-7.4,0.7L377.1,117.2z"
						/>
				</g>
				<g>
					<polygon class="st3" points="313.6,127 366.1,121.9 366.5,123 314.1,128.1 					"/>
				</g>
				<g>
					<polygon class="st3" points="295.4,124.2 364.4,117.5 364.8,118.6 295.8,125.3 					"/>
				</g>
				<g>
					<g>
						<polygon class="st3" points="296.2,126.4 338,122.3 338.5,123.4 296.6,127.5 						"/>
					</g>
					<g>
						<polygon class="st3" points="344,121.8 365.2,119.7 365.6,120.8 344.4,122.9 						"/>
					</g>
				</g>
			</g>
			<polygon class="st5" points="373.8,112.7 376.6,110.6 372.3,109.2 373.4,108.3 377.7,109.6 380.5,107.5 382.3,108.1 379.5,110.2 
				383.9,111.6 382.7,112.5 378.4,111.1 375.7,113.3 			"/>
		</g>
		<path class="st6" d="M500,81.1l-5-5L389.9,91.9c0,0-35.8-0.5-48.4-0.7c-6.9-0.1-12.9,6-18.1,11.9l8.5-0.8
			c7.7-2.3,10.3-4.4,15.7-2.4c3.9,1.5,6.3,5.7,1.1,8.4c-3.6,2-10.7,5.2-10.7,5.2c-13.6,2.9-14.2,8.4-8.1,9.5
			c2.3,0.4,10.2-2.9,10.2-2.9c7.6-1.7,21-6.9,23.9-7.6c21-2.9,27.1-7.6,35.2-8.4c16.2-1.5,75.8-8.1,100.7-10.9L500,81.1L500,81.1z"
			/>
		<path class="st1" d="M437.1,100.9c-13.7,0.7-27.5,1.6-35,1.7c-8.3,0.1-10.3,3.4-37.2,9.5c-1.3,0.3-1.9,0.9-0.7,0.6
			c21-2.9,27.1-7.6,35.2-8.4c6.5-0.6,21.1-1.9,37.9-2.9C437.1,101.2,437.1,101.1,437.1,100.9z"/>
		<path class="st7" d="M329.1,120.8c0,0,4.8-3,7.3-2.8c0,0,3.1,0.9,3.7,2.3c0,0-5.6,2.4-8.7,2.9L329.1,120.8z"/>
		<path class="st8" d="M500,74.2c-31.1,4.8-81.2,12.6-92.2,14.6c-6.5,1.2,0.2,17.7,8.3,17.2l83.8-9.6V74.2z"/>
		<path class="st9" d="M500,91.9l-83.7,10.7c1.6,1.5-2,3.4-0.3,3.4c0.1,0,0.1,0,0.2,0l83.8-9.6V91.9z"/>
		<polygon class="st10" points="418.4,106 403.4,107.9 395.3,90.4 407.8,88.8 		"/>
	</g>
	<g>
		<path class="st1" d="M211.5,46.2c-1.6,2-0.2,5.4-0.2,5.4l-32.2-11.9c9.7-6.1,19.4-6.6,19.4-6.6l12.4,9.7L211.5,46.2z"/>
		<g>
			<g>
				<polygon class="st2" points="128.8,48.5 177.9,29 243.8,70.5 194.8,90 				"/>
			</g>
			<g>
				<polygon class="st3" points="231.4,72 194.8,90 191.3,87.8 				"/>
			</g>
			<g>
				<polygon class="st4" points="118.3,49.2 167.4,29.7 233.3,71.1 184.3,90.7 				"/>
			</g>
			<g>
				<g>
					<path class="st3" d="M164,35.4l-8.8,3.5l7,4.4l8.8-3.5L164,35.4z M162.5,42l-4.7-3l5.9-2.4l4.7,3L162.5,42z"/>
				</g>
				<g>
					<g>
						<polygon class="st3" points="168.9,47.5 170.6,46.8 193.8,61.4 192,62.1 						"/>
					</g>
					<g>
						<g>
							<polygon class="st3" points="175.9,44.7 177.6,44 200.8,58.6 199.1,59.3 							"/>
						</g>
						<g>
							<polygon class="st3" points="202.4,61.4 204.1,60.7 221.3,71.6 219.6,72.3 							"/>
						</g>
					</g>
					<g>
						<g>
							<polygon class="st3" points="189.6,57 191.3,56.3 217.8,73 216.1,73.6 							"/>
						</g>
						<g>
							<polygon class="st3" points="172.4,46.1 174.1,45.4 187.6,53.9 185.8,54.6 							"/>
						</g>
					</g>
				</g>
			</g>
			<g>
				<g>
					<path class="st3" d="M137.4,46l-8.8,3.5l7,4.4l8.8-3.5L137.4,46z M135.9,52.6l-4.7-3l5.9-2.4l4.7,3L135.9,52.6z"/>
				</g>
				<g>
					<g>
						<polygon class="st3" points="142.3,58.1 144.1,57.4 156.1,65 154.4,65.7 						"/>
					</g>
					<g>
						<polygon class="st3" points="149.3,55.3 151.1,54.6 159.3,59.7 157.5,60.4 						"/>
					</g>
					<g>
						<polygon class="st3" points="179.8,74.4 181.6,73.8 194.8,82.1 193,82.8 						"/>
					</g>
					<g>
						<polygon class="st3" points="161.4,62.9 163.2,62.2 177.5,71.2 175.8,71.9 						"/>
					</g>
					<g>
						<g>
							<polygon class="st3" points="163,67.5 164.8,66.8 191.3,83.5 189.5,84.2 							"/>
						</g>
						<g>
							<polygon class="st3" points="145.8,56.7 147.6,56 161,64.4 159.2,65.1 							"/>
						</g>
					</g>
				</g>
			</g>
			<g>
				<g>
					<path class="st3" d="M150.7,40.7l-8.8,3.5l7,4.4l8.8-3.5L150.7,40.7z M149.2,47.3l-4.7-3l5.9-2.4l4.7,3L149.2,47.3z"/>
				</g>
				<g>
					<polygon class="st3" points="155.6,52.8 157.3,52.1 190.6,73 188.8,73.7 					"/>
				</g>
				<g>
					<polygon class="st3" points="162.6,50 164.4,49.3 208.1,76.8 206.3,77.5 					"/>
				</g>
				<g>
					<g>
						<polygon class="st3" points="176.3,62.2 178.1,61.5 204.6,78.2 202.8,78.9 						"/>
					</g>
					<g>
						<polygon class="st3" points="159.1,51.4 160.9,50.7 174.3,59.2 172.5,59.9 						"/>
					</g>
				</g>
			</g>
			<polygon class="st5" points="163.4,42.6 164.2,40.1 169.2,40.4 169.5,39.4 164.5,39 165.2,36.5 163.1,36.3 162.3,38.8 
				157.3,38.5 157,39.5 162,39.9 161.3,42.4 			"/>
		</g>
		<path class="st6" d="M155,27.9c5.1,3.2,3.7,8.7,15.8,17.8c1.4,1.5,4.7,9.8,8.3,13.5c0,0,1.6,5.1,4,5.5c6.2,1.1,12.9-3.2,6.3-9.8
			c0,0-1.2-4.8-1.4-7.4c-0.3-3.8,7-6.2,11.9-6c6.7,0.2,6,2.7,8.8,6.9l5.4,3.4c3.7-6.2,7.1-12.8,1.8-15c-9.7-4-37.6-15.3-37.6-15.3
			L150.7,0h-38.2C128.8,10.9,148,23.6,155,27.9z"/>
		<path class="st1" d="M130.8,13c9.5,5,18.7,10.2,24.3,12.7c6.2,2.8,3.3,5.9,15.9,19.3c0.6,0.6,0.3,1.3-0.3,0.7
			c-12.1-9.1-10.7-14.6-15.8-17.8c-4.2-2.6-13.6-8.3-25-14.5C130.3,13.3,130.6,13.2,130.8,13z"/>
		<path class="st7" d="M186.8,63.3c0,0,0.3-3.9-1.9-4.5c0,0-3.6-0.3-5.8,0.5c0,0,1.2,3.6,2.9,5L186.8,63.3z"/>
		<path class="st8" d="M140.1,23.7c5.4,3.1,32-7.3,28.7-10.3c-2.4-2.1-8.5-7.2-16.2-13.4h-47.5L140.1,23.7z"/>
		<path class="st9" d="M140.1,23.7c0,0,0.1,0,0.1,0.1c1.2,0.5,0.9-2,4.1-2.6L114.7,0h-9.6L140.1,23.7z"/>
		<polygon class="st10" points="138.3,23 147.3,29.3 176.1,18.7 168.8,13.4 		"/>
	</g>
	<g>
		<path class="st11" d="M169.3,114.1c-1,0.2-1.7,0.7-1.4,0.8c7.7,2.1,10.7,1.5,10.7,1.5c0.7-0.9-0.5-1.2-1.2-1.4
			C175.5,114.5,171.4,113.7,169.3,114.1z"/>
		<path class="st11" d="M190.9,111.6c0.4,0.3,5.5,1.3,3.9-0.7c-1.8-2.2-3.6-3.4-3.6-3.4c-1.1,0.1-3.1,0.9-3,1.7
			C188.2,109.2,189.2,110.4,190.9,111.6z"/>
		<path class="st1" d="M172.2,111.3c0,0-2.6-7.2-4-10c-2-4-3.7-6.4-9.5-7.8c-4-1-10.4-1.4-15.5-2.1c-9.7,5.7-16.9,6.7-6.9,9.4
			c0,0,5.7-4.9,21-0.1l5.2,9.9c0,0-0.6,8.8,9.5,7.2C174.9,117.2,174.7,116.6,172.2,111.3z"/>
		<g>
			<g>
				<polygon class="st2" points="106.6,130.2 125.1,100.2 226.3,115.8 207.8,145.8 				"/>
			</g>
			<g>
				<polygon class="st3" points="115.1,125.4 125.1,100.2 130.3,101 				"/>
			</g>
			<g>
				<g>
					<polygon class="st4" points="114.5,126.7 133,96.7 234.2,112.3 215.7,142.3 					"/>
				</g>
				<g>
					<g>
						<path class="st3" d="M212,136.6l3.3-5.4l-10.7-1.7l-3.3,5.4L212,136.6z M205.8,130.7l7.2,1.1l-2.2,3.6l-7.2-1.1L205.8,130.7z"
							/>
					</g>
					<g>
						<g>
							<polygon class="st3" points="158.1,123.5 158.8,122.4 194.4,128 193.7,129 							"/>
						</g>
						<g>
							<g>
								<polygon class="st3" points="155.5,127.8 156.1,126.7 191.7,132.3 191.1,133.3 								"/>
							</g>
							<g>
								<polygon class="st3" points="123.9,122.9 124.6,121.8 151.1,125.9 150.4,127 								"/>
							</g>
						</g>
						<g>
							<g>
								<polygon class="st3" points="125.3,120.8 125.9,119.7 166.6,126 165.9,127.1 								"/>
							</g>
							<g>
								<polygon class="st3" points="172.4,126.9 193.1,130.1 192.4,131.2 171.8,128 								"/>
							</g>
						</g>
					</g>
				</g>
				<g>
					<g>
						<path class="st3" d="M222.1,120.4l3.3-5.4l-10.7-1.7l-3.3,5.4L222.1,120.4z M215.9,114.5l7.2,1.1l-2.2,3.6l-7.2-1.1
							L215.9,114.5z"/>
					</g>
					<g>
						<g>
							<polygon class="st3" points="185.2,110 185.9,108.9 204.4,111.8 203.8,112.8 							"/>
						</g>
						<g>
							<polygon class="st3" points="188.6,115.2 189.3,114.1 201.8,116.1 201.1,117.1 							"/>
						</g>
						<g>
							<polygon class="st3" points="134,106.7 134.6,105.7 155,108.8 154.3,109.9 							"/>
						</g>
						<g>
							<polygon class="st3" points="160.5,110.8 161.2,109.8 183.3,113.2 182.6,114.3 							"/>
						</g>
						<g>
							<g>
								<polygon class="st3" points="135.3,104.6 136,103.5 176.6,109.8 176,110.9 								"/>
							</g>
							<g>
								<polygon class="st3" points="181.8,111.8 182.5,110.7 203.1,113.9 202.4,115 								"/>
							</g>
						</g>
					</g>
				</g>
				<g>
					<g>
						<path class="st3" d="M217.1,128.5l3.3-5.4l-10.7-1.7l-3.3,5.4L217.1,128.5z M210.9,122.6l7.2,1.1l-2.2,3.6l-7.2-1.1
							L210.9,122.6z"/>
					</g>
					<g>
						<polygon class="st3" points="147.7,113 148.4,112 199.4,119.9 198.8,120.9 						"/>
					</g>
					<g>
						<polygon class="st3" points="129,114.8 129.6,113.7 196.8,124.2 196.1,125.2 						"/>
					</g>
					<g>
						<g>
							<polygon class="st3" points="130.3,112.7 130.9,111.6 171.6,117.9 171,119 							"/>
						</g>
						<g>
							<polygon class="st3" points="176.8,119.9 177.4,118.8 198.1,122 197.4,123.1 							"/>
						</g>
					</g>
				</g>
				<polygon class="st5" points="204.6,130.5 206.9,132.8 202.3,133.9 203.3,134.9 207.8,133.8 210.1,136.1 212,135.6 209.8,133.3 
					214.4,132.2 213.4,131.2 208.8,132.3 206.6,130.1 				"/>
			</g>
		</g>
		<path class="st6" d="M43.9,77.9l60.7,10.4c0,0,49.4,4,55.1,4.4c5.5,0.4,6.9,2.4,8.3,5.9c0.9,2.3,5.1,9.9,5.9,11.9
			c0.2,0.4,0.4,0.9,0.4,0.9c0.2,3,1.3,3.9,0.4,4.7c-1.3,1.3-5.7,1-8.2-0.9c-2.6-2-2.9-4.1-2.9-4.1l-6.1-11.8
			c-11.4-2.9-23.1-1-21.3,4.1c1.4,4,16.3,6,20.9,9.1c6,4.1-1.4,5.5-1.4,5.5c-3.3,0.2-6.6-1.9-9.6-3.1c-9.2-3.7-21.6-8.3-21.6-8.3
			c-14-4-20.7-7.8-20.7-7.8c-1.5-0.9-36.2-4.5-69.6-7.9L43.9,77.9z"/>
		<g>
			<path class="st12" d="M156.5,113.2c-4.6-3.2-19.5-5.2-20.9-9.1c-0.5-1.3,0-2.4,1.1-3.2c-0.5,0.7-0.7,1.6-0.4,2.5
				c1.4,4,16.3,6,20.9,9.1c3.1,2.2,2.6,3.6,1.4,4.4C159.1,116,158.8,114.8,156.5,113.2z"/>
		</g>
		<path class="st13" d="M87,96.5l9.8-9.5l6.6,1.1l0,0l-4.8,9.8C95.8,97.5,91.8,97,87,96.5z"/>
		<path class="st4" d="M0,87.4c31.6,3.6,75.9,9,87.7,9.8l7.2-11.1L0,67.2V87.4z"/>
		<polygon class="st4" points="87.7,97.2 94.9,86.1 103,87.5 95.8,98.6 		"/>
		<polygon class="st2" points="87.7,97.2 94.9,86.1 96.4,86.4 89.2,97.5 		"/>
		<path class="st2" d="M91.4,96.3c-0.4,0.6,0.2,1.1,1.3,1.3c1.1,0.2,2.3-0.1,2.6-0.7c0.4-0.6-0.2-1.1-1.3-1.3
			C92.9,95.4,91.8,95.7,91.4,96.3z"/>
		<path class="st2" d="M0,87.4c31.6,3.6,75.9,9,87.7,9.8l1.9-2.9L0,82.5V87.4z"/>
	</g>
	<g>
		<path class="st11" d="M313.4,54.5c1-0.1,2.2,0.1,2.1,0.3c-3.9,4-7.1,4.3-7.1,4.3c-1.6-0.5-1-1.2-0.6-1.5
			C308.7,56.6,311.2,54.8,313.4,54.5z"/>
		<path class="st11" d="M292.8,58.6c0,0.4-3.1,2.6-4,0.5c-1-2.3-0.9-3.8-0.9-3.8c1.1-0.2,3.6-0.1,4.3,0.5
			C292.2,55.8,292.8,57.2,292.8,58.6z"/>
		<path class="st1" d="M307.8,53c0,0-6.1-6.7-8.1-9.4c-2.9-3.8-4.2-6.3-1.1-9.2c2.1-2,6.9-4.2,10.3-6.2c14.4,1.9,21.6,0.7,16.4,5.7
			c0,0-10.2-2.4-17.4,5.9l7,9.6c0,0,10.4,7.1,0.4,8.7C312.4,58.6,311.8,58.1,307.8,53z"/>
		<g>
			<g>
				<polygon class="st2" points="268.5,72.2 333.9,30.5 383.3,49.9 317.9,91.5 				"/>
			</g>
			<g>
				<polygon class="st3" points="370.8,48.3 333.9,30.5 330.5,32.7 				"/>
			</g>
			<g>
				<g>
					<polygon class="st4" points="258,71.5 323.4,29.9 372.8,49.2 307.4,90.9 					"/>
				</g>
				<g>
					<g>
						<path class="st3" d="M310.8,80.7l-8.8-3.5l-6.9,4.4l8.8,3.5L310.8,80.7z M308.2,80.9l-4.7,3l-6-2.3l4.7-3L308.2,80.9z"/>
					</g>
					<g>
						<g>
							<polygon class="st3" points="308.6,73.1 331.6,58.4 333.3,59.1 310.3,73.7 							"/>
						</g>
						<g>
							<g>
								<polygon class="st3" points="315.6,75.8 338.6,61.1 340.4,61.8 317.4,76.5 								"/>
							</g>
							<g>
								<polygon class="st3" points="341.9,59.1 359,48.1 360.7,48.8 343.7,59.7 								"/>
							</g>
						</g>
						<g>
							<g>
								<polygon class="st3" points="329.2,63.5 355.4,46.8 357.2,47.5 330.9,64.2 								"/>
							</g>
							<g>
								<polygon class="st3" points="325.4,65.9 312.1,74.4 313.9,75.1 327.2,66.6 								"/>
							</g>
						</g>
					</g>
				</g>
				<g>
					<g>
						<path class="st3" d="M284.1,70.3l-8.8-3.5l-6.9,4.4l8.8,3.5L284.1,70.3z M281.5,70.4l-4.7,3l-6-2.3l4.7-3L281.5,70.4z"/>
					</g>
					<g>
						<g>
							<polygon class="st3" points="281.9,62.6 293.8,55 295.6,55.7 283.6,63.3 							"/>
						</g>
						<g>
							<polygon class="st3" points="288.9,65.4 297,60.2 298.8,60.9 290.7,66.1 							"/>
						</g>
						<g>
							<polygon class="st3" points="319.2,46.1 332.3,37.7 334.1,38.4 320.9,46.8 							"/>
						</g>
						<g>
							<polygon class="st3" points="300.9,57.7 315.1,48.6 316.9,49.3 302.7,58.4 							"/>
						</g>
						<g>
							<g>
								<polygon class="st3" points="302.5,53.1 328.8,36.3 330.5,37 304.3,53.8 								"/>
							</g>
							<g>
								<polygon class="st3" points="285.4,64 298.7,55.5 300.5,56.2 287.2,64.7 								"/>
							</g>
						</g>
					</g>
				</g>
				<g>
					<g>
						<path class="st3" d="M297.4,75.5l-8.8-3.5l-6.9,4.4l8.8,3.5L297.4,75.5z M294.9,75.7l-4.7,3l-6-2.3l4.7-3L294.9,75.7z"/>
					</g>
					<g>
						<polygon class="st3" points="295.2,67.8 328.2,46.8 329.9,47.5 297,68.5 						"/>
					</g>
					<g>
						<polygon class="st3" points="302.3,70.6 345.6,42.9 347.4,43.6 304.1,71.3 						"/>
					</g>
					<g>
						<g>
							<polygon class="st3" points="315.8,58.3 342.1,41.5 343.9,42.2 317.6,59 							"/>
						</g>
						<g>
							<polygon class="st3" points="298.8,69.2 312.1,60.7 313.9,61.4 300.5,69.9 							"/>
						</g>
					</g>
				</g>
				<polygon class="st5" points="303.1,78.1 303.8,80.6 308.9,80.2 309.2,81.3 304.1,81.7 304.9,84.2 302.8,84.3 302,81.8 297,82.2 
					296.7,81.1 301.7,80.8 300.9,78.2 				"/>
			</g>
		</g>
		<path class="st6" d="M359.1,0l-21.9,14.8c0,0-36,17.4-40.3,19.3c-4.1,1.9-2.9,4-0.1,7.2c1.9,2.2,7,9.6,8.6,11.5
			c0.4,0.4,0.7,0.9,0.7,0.9c3.2,2.5,3.3,3.5,5.1,4c2.5,0.7,5.8-0.8,5.6-3.1c-0.2-2.4-2.3-4.2-2.3-4.2L306.1,39
			c6.1-5.6,17.9-7.4,22.2-2.7c3.4,3.7-6.6,9.5-6.7,13.5c-0.2,5.1,7.4,4.1,7.4,4.1c2.9-0.8,3.3-3.4,4.4-5.2c3.3-5.6,8.3-13,8.3-13
			c7-7.3,8.2-12.3,8.2-12.3c0.2-1.1,20.8-12,42.5-23.3L359.1,0L359.1,0z"/>
		<g>
			<path class="st12" d="M322.9,50.1c0.2-3.9,10.1-9.8,6.7-13.5c-1.1-1.2-2.7-2-4.6-2.4c1.3,0.4,2.4,1.1,3.2,2
				c3.4,3.7-6.6,9.5-6.7,13.5c-0.1,2.7,1.9,3.7,3.9,4C324,53.2,322.8,52.1,322.9,50.1z"/>
		</g>
		<path class="st13" d="M360.9,16.6l-18.9-5l-4.2,2.8l0,0l15.1,6.7C354.9,19.9,357.7,18.4,360.9,16.6z"/>
		<path class="st4" d="M356.4,0l-13.7,10.4l18.6,7.1c5.2-2.4,18.3-9.5,32.6-17.4L356.4,0L356.4,0z"/>
		<polygon class="st4" points="337.6,13.7 342.7,10.3 361.3,17.4 356.1,20.8 		"/>
		<polygon class="st2" points="341.8,11 342.7,10.3 361.3,17.4 360.3,18 		"/>
		<path class="st2" d="M357.2,17.7c0.9,0.4,1.1,1,0.4,1.5c-0.7,0.5-2,0.5-2.9,0.2c-0.9-0.4-1.1-1-0.4-1.5
			C354.9,17.4,356.2,17.3,357.2,17.7z"/>
		<path class="st2" d="M382.8,0l-26.6,15.6l5,1.9c5.2-2.4,18.3-9.5,32.6-17.4C393.8,0,382.8,0,382.8,0z"/>
	</g>
	<g>
		<g>
			<g>
				<path class="st2" d="M331.9,168.3H168.1l13.5-13.2c0.2-0.2,0.4-0.3,0.7-0.4c0.3-0.1,0.7-0.1,1-0.1h133.3c0.3,0,0.7,0,1,0.1
					c0.3,0.1,0.6,0.2,0.7,0.4L331.9,168.3z"/>
				<rect x="168.1" y="168.3" class="st14" width="163.8" height="56.3"/>
				<rect x="168.1" y="170" class="st15" width="163.8" height="6.8"/>
				<path class="st16" d="M331.9,174.2c0,0.2-0.2,0.5-0.6,0.7c-0.4,0.2-0.9,0.3-1.4,0.3H170.1c-0.5,0-1-0.1-1.4-0.3
					c-0.4-0.2-0.6-0.4-0.6-0.7v-5.8h163.8L331.9,174.2L331.9,174.2z"/>
				<path class="st15" d="M296.2,162c0,0.8-1.3,1.5-3,1.5h-86.4c-1.6,0-3-0.7-3-1.5l0,0c0-0.8,1.3-1.5,3-1.5h86.4
					C294.8,160.5,296.2,161.2,296.2,162L296.2,162z"/>
			</g>
			<g>
				<g>
					<path class="st17" d="M313.5,212.1H186.4v-25.2h127.1V212.1z M190,210.4h120v-21.7H190V210.4z"/>
				</g>
			</g>
		</g>
		<g>
			<path class="st18" d="M215.8,205.8l-7.4-11.5h4.6l3.1,5.2c0.9,1.4,1.6,2.8,2.2,4.2h0.1c0.6-1.4,1.4-2.8,2.3-4.1l3.3-5.2h4.5
				l-7.9,11.5L215.8,205.8L215.8,205.8z"/>
			<path class="st18" d="M253.2,199.9c0,3.8-4.7,6-11,6c-6.5,0-10.5-2.5-10.5-5.8c0-3.5,4.4-6,10.9-6
				C249.2,194.1,253.2,196.7,253.2,199.9z M236.1,200.1c0,2.3,2.3,4.2,6.4,4.2c4,0,6.3-1.9,6.3-4.3c0-2.2-2.1-4.2-6.3-4.2
				C238.3,195.8,236.1,197.7,236.1,200.1z"/>
			<path class="st18" d="M262.3,196.1h-6.5v-1.7h17.3v1.7h-6.6v9.7h-4.2L262.3,196.1L262.3,196.1z"/>
			<path class="st18" d="M290.6,200.7H282v3.4h9.7v1.7h-13.8v-11.5h13.3v1.7H282v3h8.6L290.6,200.7L290.6,200.7z"/>
		</g>
	</g>
</g>
</svg>
