<?xml version="1.0" encoding="utf-8"?>
<!-- Generator: Adobe Illustrator 23.0.4, SVG Export Plug-In . SVG Version: 6.00 Build 0)  -->
<svg version="1.0" id="Layer_1" xmlns="http://www.w3.org/2000/svg" xmlns:xlink="http://www.w3.org/1999/xlink" x="0px" y="0px"
	 viewBox="0 0 200 200" style="enable-background:new 0 0 200 200;" xml:space="preserve">
<style type="text/css">
	.st0{fill:#EAEAEA;}
	.st1{clip-path:url(#SVGID_3_);}
	.st2{fill:#DCA58E;}
	.st3{fill:#E1A98E;}
	.st4{fill:#1E1E1E;}
	.st5{fill:#626272;}
	.st6{fill:#F3F3F3;}
	.st7{fill:none;stroke:#383544;stroke-width:0.3751;stroke-linecap:round;stroke-linejoin:round;}
	.st8{fill:#174C77;}
	.st9{fill:#0B3B56;}
	.st10{fill:none;stroke:#9ACEE9;stroke-width:0.1303;stroke-miterlimit:10;stroke-dasharray:0.2656,0.2656;}
	.st11{fill:#154F83;}
	.st12{fill:#23629A;}
	.st13{fill:none;stroke:#9ACEE9;stroke-width:0.1289;stroke-miterlimit:10;stroke-dasharray:0.2627,0.2627;}
	.st14{fill:#988B58;}
	.st15{fill:none;stroke:#9ACEE9;stroke-width:0.1289;stroke-miterlimit:10;}
	.st16{fill:none;stroke:#9ACEE9;stroke-width:0.1289;stroke-miterlimit:10;stroke-dasharray:0.2597,0.2597;}
	.st17{fill:none;stroke:#9ACEE9;stroke-width:0.1289;stroke-miterlimit:10;stroke-dasharray:0.2742,0.2742;}
	.st18{fill:none;stroke:#9ACEE9;stroke-width:0.1289;stroke-miterlimit:10;stroke-dasharray:0.31,0.31;}
	.st19{fill:none;stroke:#9ACEE9;stroke-width:0.1289;stroke-miterlimit:10;stroke-dasharray:0.2867,0.2867;}
	.st20{fill:none;stroke:#9ACEE9;stroke-width:0.1289;stroke-miterlimit:10;stroke-dasharray:0.2784,0.2784;}
	.st21{fill:none;stroke:#9ACEE9;stroke-width:0.1289;stroke-miterlimit:10;stroke-dasharray:0.267,0.267;}
	.st22{fill:none;stroke:#9ACEE9;stroke-width:0.1239;stroke-miterlimit:10;stroke-dasharray:0.2526,0.2526;}
	.st23{fill:#16394F;}
	.st24{fill:#1B5794;}
	.st25{fill:#DCA48D;}
	.st26{fill:#EAB8A3;}
	.st27{fill:#D29B8B;}
	.st28{fill:#D5D5D5;}
	.st29{fill:#AE9493;}
	.st30{fill:#FFFFFF;}
	.st31{fill:#2A2432;}
	.st32{fill:#5B3600;}
	.st33{fill:#1C1C1C;}
	.st34{fill:#D09A87;}
	.st35{fill:#E1AF9E;}
	.st36{fill:#BB8181;}
	.st37{fill:#A97171;}
	.st38{fill:#CD9696;}
	.st39{fill:#C09080;}
	.st40{fill:#7A4A46;}
	.st41{opacity:0.3;fill:#FFFFFF;enable-background:new    ;}
	.st42{fill:none;stroke:#7F7E7D;stroke-width:0.1384;stroke-miterlimit:10;}
	.st43{fill:none;stroke:#7F7E7D;stroke-width:0.1435;stroke-miterlimit:10;}
	.st44{fill:#7F7E7D;}
</style>
<g>
	<g>
		<polyline id="SVGID_1_" class="st0" points="0,0 200,0 200,200 0,200 0,0 		"/>
	</g>
	<g>
		<defs>
			<polyline id="SVGID_2_" points="0,0 200,0 200,200 0,200 0,0 			"/>
		</defs>
		<clipPath id="SVGID_3_">
			<use xlink:href="#SVGID_2_"  style="overflow:visible;"/>
		</clipPath>
		<g class="st1">
			<g>
				<path class="st2" d="M107.2,451.6l2.1-70.3c0,0-11.9,0-48.6-0.6c-37-0.6-49.2-9.9-49.2-9.9s-0.5,26.9,0.3,57.6
					C14.9,545.1,46.6,607.7,45,634c-0.5,8.3-5.3,50.4-5.3,62.6c0,10.7,18.6,79.9,19.4,88.7c0.9,8.8-8.5,24.6-8.5,24.6l3.2,10.3
					l47.8-0.1l3.8-10.2c0,0-14.8-21.7-15.2-25.8c-0.7-6.6,15-77.9,12.6-100.9c-2.4-23-11-38.1-3.8-59.1
					C105,606.3,107.2,451.6,107.2,451.6z"/>
				<g>
					<path class="st2" d="M108.4,457.7l-18.8-76.4c0,0,14.3,0,50.7-0.9c37.1-1,46.1-10.4,46.1-10.4s5.8,22.3,11.4,52.7
						c21.2,115.6,3,181.4,9.9,207.1c2.2,8.1,15.7,49.1,18.2,61.1c2.2,10.6-1.7,81.2-0.7,89.9c1,8.8,44.9,36.7,44.9,36.7l-3.3,9.3
						h-39.5l-1.1-9.3c0,0-33.8-33.8-34.2-35.7c-1-6.6-28.7-73.3-31.2-96.4c-2.5-23,2.9-39-8.6-58.8
						C142.6,610.1,108.4,457.7,108.4,457.7z"/>
					<path class="st2" d="M188.4,810.8c-1.3-3.6,3.6-28.9,3.6-28.9l34.2,35.7l1.1,9.3c0,0-17-8.9-24.4-11.9
						C199.8,813.8,189,812.3,188.4,810.8z"/>
				</g>
			</g>
			<g>
				<path class="st2" d="M214.8,172.3c-27.8-13.4-77.7-33.1-79-35.3c-1.4-2.2,0-23.9,0-23.9H62c0,0,1.4,21.7,0,23.9
					s-48.9,21.9-79.1,35.2c-20.6,9,16,82.4,16,82.4s13,68.2,13.4,72.2c1.2,12-1.4,49.1-1.4,49.1s0.4,3.3,16.8,6.1
					c16.4,2.8,53.1,4.5,71.1,4.4s54.7-1.6,71.1-4.4s16.7-6.1,16.7-6.1s-2.4-37.1-1.2-49.1c0.4-4.1,13.4-72.2,13.4-72.2
					S234.8,182,214.8,172.3z"/>
			</g>
			<g>
				<path class="st3" d="M-54.8,241.9l-5,63.9c-4.3,24.1,10.5,114.6,10.5,114.6L-19,418L3,254.2v-90.7c0,0-34.1,12.3-44.7,23.3
					C-58.1,203.9-54.8,241.9-54.8,241.9z"/>
				<path class="st3" d="M-31,496.1c-3.3-3.4-26.6-26.4-27.4-31.3c-1.2-6.9,9.1-44.3,9.1-44.3l30.2-2.4c0,0,7,18.9,7.8,21.5
					c0.8,2.7,0,32.4-0.1,33.9c-0.1,1.5-10.2,1.1-10.6-1.1s-5.2-18.8-5.2-18.8l0,0l-1.7,17.4c0,0,10.4,14.4,11.7,16.5
					C-16.3,489-27.7,499.4-31,496.1z"/>
			</g>
			<g>
				<path class="st3" d="M252.7,241.9l5,63.9c4.3,24.1-10.5,114.6-10.5,114.6L217,418l-22-163.8v-90.7c0,0,34.1,12.3,44.7,23.3
					C256,203.9,252.7,241.9,252.7,241.9z"/>
				<path class="st3" d="M228.9,496.1c3.3-3.4,26.6-26.4,27.4-31.3c1.2-6.9-9.1-44.3-9.1-44.3l-30.2-2.4c0,0-6.9,18.9-7.8,21.5
					c-0.8,2.7,0,32.4,0.1,33.9c0.1,1.5,10.2,1.1,10.6-1.1c0.4-2.2,5.2-18.8,5.2-18.8l0,0l1.7,17.4c0,0-10.4,14.4-11.7,16.5
					C214.2,489,225.6,499.4,228.9,496.1z"/>
			</g>
			<path class="st4" d="M260.2,306.2l-5-63.8c0.2-1.6,3.1-38.7-13.4-55.8c-8.4-8.8-31.2-18.2-40.6-21.9
				c-10.8-4.8-22.8-9.9-33.4-14.5c-14.1-6-28.7-12.2-29.9-13.4c-0.8-1.4-0.6-13,0.2-23.3l0.1-1.2H61.6l0.1,1.2
				c0.7,10.4,1,22,0.2,23.3c-1.8,1.7-27,12.6-49.2,22.1l-10.1,4.3c-5.7,2.1-34.6,13.1-44.4,23.3c-16.4,17.1-13.4,54.2-13.4,55.7
				l-5,63.8c-4.3,23.9,5.8,115.9,5.8,115.9l37.7-2.5L2.6,276.2c5.8,31.1,6,49.1,6.2,51.1C10,339.1,8,393.5,8,394
				c0.1,0.5,48.8,2.8,94.6,2.6c47-0.2,92.8-7.6,92.9-8.2c0-0.4-5.9-50.1-4.7-61.9c0.2-2.6,3.1-31.8,6.7-51.1L213,419l39.3,3.5
				C252.2,422.6,264.5,330,260.2,306.2z"/>
			<g>
				<g>
					<path class="st5" d="M103.4,795.7c-5-7-4.2-12.9-4.2-12.9s-9.7-2.2-21.4-1.8c-11.8-0.4-15.8,1.8-15.8,1.8s-3,5.8-8.2,12.8
						c-5,6.7-7.9,13.7-7.9,13.7c2.7,9.6,28.5,7.5,31.9,7.2c3.4,0.3,29.2,2.4,31.9-7.2C109.8,809.3,108.3,802.5,103.4,795.7z"/>
					<path class="st6" d="M109.8,809.3c0,0-3.3,3.8-11.4,5c-4.3,0.6-10,0.9-15,1c0,0-2.2,0-5.5,0s-5.5,0-5.5,0c-5-0.1-10.7-0.3-15-1
						c-8.2-1.2-11.4-5-11.4-5s-1.3,10.8,3.8,13c8.2,3.6,21,3.9,28.1,3.8c7,0.2,19.8-0.2,28.1-3.8C111,820.1,109.8,809.3,109.8,809.3
						z"/>
				</g>
				<polyline class="st7" points="62.6,789.4 96.5,792.8 61.8,796.4 98.1,800.6 61.2,800.9 97.5,796.6 62.6,791.9 95.9,788.5 				
					"/>
			</g>
			<g>
				<g>
					<path class="st5" d="M180.8,805.9c0,0,1-10,2-13.5c1-3.5,1-6.8,1-6.8s21.4-2.3,31.9-1.6c10.4,0.7,20.3,1,23.4,3.7
						c3,2.8,3.1,6.9,18.8,15.9c15.7,9,23.2,14.8,24,16.7c0.8,1.9,0.7,2.4,0.7,2.4s-19,4.2-39.4,2.4c-15.6-1.4-21.7-2.2-35.9-9.6
						C197.4,810.3,180.8,805.9,180.8,805.9z"/>
					<path class="st6" d="M282.5,822c0,0,3.1,10.3-4.5,12.2c-10.2,2.6-42.6,1.4-58.6-5.3c-15.8-6.7-17.4-9.1-28.7-11.5
						c-11.4-2.4-11-3.1-10.5-7.3c0.6-4.2,0.6-4.2,0.6-4.2s14.3,2.8,22.2,6.2c3,1.3,16.2,8.4,28.6,10.2
						C247.9,824.7,269.8,826.5,282.5,822z"/>
				</g>
				<g>
					<polyline class="st7" points="242.1,794.2 209,794.3 247.5,797.9 227.8,805 260,805.6 239.2,809.6 253.8,801.7 218.5,799.6 
						244.3,793.5 					"/>
				</g>
			</g>
			<g>
				<g>
					<path class="st8" d="M194.5,378.6L257.4,797h-85.3l-65-329.4l7,328.2l-76.2-1.3L8,398.4l0.5-13.2c0,0,58.2,3.7,90.3,2.2
						C127,385.9,194.5,378.6,194.5,378.6z"/>
					<polygon class="st9" points="107,467.8 116.8,460.1 191.6,797 172.1,797 					"/>
					<polygon class="st9" points="8.1,398.6 38.1,794.1 31.8,399.5 					"/>
				</g>
				<path class="st10" d="M202.6,410"/>
				<path class="st10" d="M198.6,409.7"/>
				<g>
					<path class="st11" d="M8.3,384.9c0,0,52.4,4.2,94.3,2c36.6-2,91.8-8.6,91.8-8.6l2,13.5c0,0-54.5,7.4-93,8.8
						c-34.2,1.3-95.1-2.2-95.1-2.2S7.9,388.9,8.3,384.9z"/>
					<path class="st12" d="M101,387.5l3.5,64c0,0,15,5,19-23c2-13.8-1-42.2-1-42.2L101,387.5z"/>
					<path class="st13" d="M57.9,400.3c0,0-6.8,11.5-15.9,14.4c-13.6,4.4-32.4,4.9-32.4,4.9l-0.2-3.2c0,0,25.7-1.3,32.5-5.3
						c4.2-2.5,10.6-11,10.6-11L57.9,400.3z"/>
					<path class="st14" d="M55.4,402.5c0.1,0.9-0.8,1.6-1.9,1.6c-1.1,0-2.1-0.6-2.2-1.5s0.8-1.6,1.9-1.6
						C54.5,401,55.4,401.7,55.4,402.5z"/>
					<path class="st14" d="M40,405.3c0.1,0.9-0.8,1.6-1.9,1.6c-1.1,0-2.1-0.6-2.2-1.5c-0.1-0.9,0.8-1.6,1.9-1.6
						C39,403.8,40,404.4,40,405.3z"/>
					<path class="st13" d="M9.4,416.2"/>
					<g>
						<g>
							<g>
								<line class="st15" x1="10.7" y1="416.2" x2="10.6" y2="415.7"/>
								<line class="st16" x1="10.6" y1="414.5" x2="9.7" y2="403.6"/>
								<polyline class="st15" points="9.6,403 9.6,402.4 10.3,402.4 								"/>
								<line class="st17" x1="11.9" y1="402.5" x2="39.3" y2="403.5"/>
								<polyline class="st15" points="40.1,403.6 40.8,403.6 40.8,404.2 								"/>
								<line class="st18" x1="40.8" y1="405.6" x2="40.8" y2="410.4"/>
								<line class="st15" x1="40.8" y1="411.1" x2="40.8" y2="411.6"/>
							</g>
						</g>
					</g>
					<path class="st13" d="M13.4,415.8"/>
					<g>
						<g>
							<g>
								<line class="st15" x1="14.5" y1="415.8" x2="14.5" y2="415.2"/>
								<line class="st19" x1="14.4" y1="413.9" x2="14" y2="406.9"/>
								<polyline class="st15" points="13.9,406.3 13.9,405.7 14.6,405.7 								"/>
								<line class="st20" x1="16.2" y1="405.7" x2="34.6" y2="406"/>
								<polyline class="st15" points="35.4,406 36.1,406 36.1,406.6 								"/>
								<line class="st21" x1="36.1" y1="407.8" x2="36.1" y2="411.9"/>
								<line class="st15" x1="36.1" y1="412.5" x2="36.1" y2="413.1"/>
							</g>
						</g>
					</g>
					<path class="st22" d="M119.8,398.3c1,9.8,1.5,22.9,0.3,30.3c-3,18.3-11.4,20.3-15.8,20.7l0.2,2.3c0,0,16.9,2.8,19-23
						c0.6-7.8,1.2-21.1,0.1-30.5L119.8,398.3z"/>
					<polygon class="st13" points="109.3,465.4 105.9,467.8 104.5,451.5 107.8,451.4 					"/>
					<path class="st23" d="M119.4,393c0,0.5-2.6,1-6,1.1c-3.4,0.1-6.1-0.2-6.1-0.6c0-0.5,2.6-1,6-1.1
						C116.6,392.2,119.4,392.5,119.4,393z"/>
					<path class="st14" d="M114.6,393.3c0.2,2.3-2.1,4.2-5,4.3c-2.9,0.1-5.4-1.6-5.5-3.9c-0.2-2.2,2.1-4.2,5-4.3
						C112,389.3,114.5,391,114.6,393.3z"/>
					<path class="st13" d="M8.5,397.3c0,0,75,3.3,102.9,1.6c41.5-2.6,85.4-8.7,85.4-8.7"/>
					<polygon class="st24" points="68.9,411 61.8,409.9 66,389.4 73,390.3 					"/>
					<polygon class="st13" points="68.1,409.6 62.9,409 66.7,390.4 72,391.2 					"/>
					<path class="st13" d="M147.7,396.8c0,0,8.2,10.9,17.7,13.1c14.2,3.4,34.5,2.4,34.5,2.4l-0.9-3.1c0,0-26.6,0.6-34-2.9
						c-4.5-2.1-12-10.1-12-10.1L147.7,396.8z"/>
					<path class="st14" d="M150.4,398.9c0.1,0.9,1,1.5,2.2,1.5c1.1-0.1,2-0.8,1.9-1.6c-0.1-0.9-1-1.5-2.2-1.5
						C151.2,397.3,150.4,398,150.4,398.9z"/>
					<polygon class="st24" points="138.2,408.3 145,406.7 138.3,386.6 131.4,388 					"/>
					<polygon class="st13" points="138.8,406.9 143.8,405.8 137.7,387.7 132.5,388.8 					"/>
				</g>
			</g>
			<g>
				<path class="st25" d="M53.2,81.7c0,0-1.7-2.1-4.6-1.6c-3,0.5-1.7,15-1.7,16.6c0,3.3,9.3,9.7,9.3,9.7L53.2,81.7z"/>
				<path class="st25" d="M146,81.7c0,0,1.7-2.1,4.6-1.6c2.9,0.5,1.7,15,1.7,16.6c0,3.3-9.3,9.7-9.3,9.7L146,81.7z"/>
				<path class="st26" d="M90.9,27.5c7-0.4,10.2-0.4,17.3,0c16.8,1,41.8,18.7,39.8,38.3c-0.6,5.7-4.3,42.2-5.8,44.3
					c-1.4,2.1-21.5,20.2-25.1,22.9c-3.6,2.8-17.6,3.2-17.6,3.2s-14-0.4-17.6-3.2s-23.8-20.8-25.1-22.9c-1.4-2.1-5.2-38.6-5.8-44.3
					C49.1,46.2,74.1,28.5,90.9,27.5z"/>
				<path class="st27" d="M103.3,79.7l1.4,12.3c0,0,1.1,2.4,2.5,3.2c1.1,0.6,1.4,0.9,1.4,0.9L103.3,79.7z"/>
				<path class="st28" d="M105.7,49.3c2.1-0.1,3.8-0.2,4.9-0.4c10-1.7,20.9-4.8,24.6-1.2c3.8,3.6,7.3,37.5,7.3,37.5l3,2.8
					c0,0,0.2-1.2,1-6.2c0.1-0.5,1.7-1.8,1.9-2.2c1.4-2.8,2.8-18.6,0.2-25.7c-7.8-21.8-33.8-31.1-50-30.3c-16.1,0.8-37,7.3-46.4,27.1
					c-6.2,13.1-2.4,26.2-1.8,28.9c0.1,0.6,1.8,0.8,1.9,2.1c0.6,5,1,6.2,1,6.2l3-2.8c0,0,3.4-33.9,7.3-37.5
					c3.8-3.6,14.6-0.5,24.6,1.2C91.2,49.5,99.8,49.6,105.7,49.3"/>
				<g>
					<path class="st29" d="M99.8,146.2L99.8,146.2C99.8,146.2,102.5,146.2,99.8,146.2z"/>
					<path class="st28" d="M134.2,115.9c-1.4,2.8-27.4,12.7-27.4,12.7l-2.4-8.4l-4.6-0.7v-0.1h-0.2h-0.2v0.1l-4.6,0.7l-2.4,8.4
						c0,0-28.2-10.7-29.4-13.1c-1.2-2.4-8.6-22-8.6-22l2.2,21.7c0,0,22.4,30.7,35.6,30.9c3.7,0.1,5.9,0.1,7.2,0.1l0,0
						c0.1,0,0.2,0,0.2,0s0.2,0,0.2,0l0,0c1.3,0,3.5-0.1,7.2-0.1c13.2-0.2,35.6-30.9,35.6-30.9l2.2-21.7
						C144.8,93.5,135.4,113.5,134.2,115.9z"/>
					<path class="st29" d="M99.4,146.2L99.4,146.2C96.7,146.2,99.4,146.2,99.4,146.2z"/>
				</g>
				<g>
					<path class="st30" d="M67.8,84.2c0,0,4.6-2.8,6.7-3.2c2.2-0.3,7.5-0.5,10.4,0.8c3.1,1.3,5.4,3.7,5.4,3.7s-4.2,2-10.5,2.1
						C73.7,87.7,70.6,86.3,67.8,84.2z"/>
					<path class="st27" d="M90.7,85.8c0,0,4.6-4.5,2.6-8.1c-2.1-3.7-9.9-3.5-16.3-4.3c-7.2-1-14.1,1.9-14.1,2.2c0,0.4,0.9,4,1.8,5.9
						c1.2,2.3,2.2,2.2,2.2,2.2s4.8-1.8,6.1-2.3c1.4-0.5,5.6-0.9,7.9-0.8C86.2,80.7,90.7,85.8,90.7,85.8z"/>
					<path class="st31" d="M62.9,75.4c0,0,3.4-5.5,7.2-5.6c3.8-0.1,20.2,1.5,20.9,2.2c0.6,0.8,2.5,5.4,2,5.1c-1.4-1-15-4-18.2-4
						C71.5,73.2,68,73.3,62.9,75.4z"/>
					<g>
						<path class="st32" d="M85,84.1c0,2.1-2.4,3.8-5.3,3.8c-3,0.1-5.4-1.6-5.4-3.8c0-2.1,2.4-3.8,5.4-3.8C82.6,80.3,85,82,85,84.1z
							"/>
						<path class="st33" d="M83.8,84.1c0,1.6-1.8,2.9-4,2.9c-2.2,0-4.1-1.3-4.1-2.9s1.8-2.9,4.1-2.9C81.9,81.2,83.8,82.5,83.8,84.1z
							"/>
					</g>
					<path class="st34" d="M68.8,84.9c0,0,4.6,2.2,7.8,2.6c3.2,0.3,10.7-0.9,10.7-0.9s-4.4,2.3-7.7,2.3C76.4,89,71.5,88.8,68.8,84.9
						z"/>
					<path class="st35" d="M66.5,83.5c0,0,3.8-4.4,5.8-5.5c3.9-2.2,11.8-1.6,14.6,1.2c3.8,3.7,3.5,6.4,3.5,6.4s-5.4-5-9.8-5.1
						C76.4,80.3,68.5,82.3,66.5,83.5z"/>
					<path class="st31" d="M66.5,83.4c0,0,8-3.3,10.9-3.4c4.6-0.2,9.8,1.8,11.6,3.8c1.8,2,1.8,2,1.8,2s-4.1-4.2-9-4.7
						c-6.4-0.5-13.8,3.1-13.8,3.1L66.5,83.4z"/>
				</g>
				<g>
					<path class="st30" d="M130.2,84.2c0,0-4.6-2.8-6.7-3.2c-2.2-0.3-7.5-0.5-10.4,0.8c-3.1,1.3-5.4,3.7-5.4,3.7s4.2,2,10.5,2.1
						C124.3,87.7,127.5,86.3,130.2,84.2z"/>
					<path class="st27" d="M107.4,85.8c0,0-4.6-4.5-2.6-8.1c2.1-3.7,9.9-3.5,16.3-4.3c7.2-1,14.1,1.9,14.1,2.2c0,0.4-0.9,4-1.8,5.9
						c-1.2,2.3-2.2,2.2-2.2,2.2s-4.8-1.8-6.1-2.3s-5.6-0.9-7.9-0.8C111.8,80.7,107.4,85.8,107.4,85.8z"/>
					<path class="st31" d="M118.6,70.4c-5.4,0.5-11.2,1.2-11.5,1.7c-0.6,0.8-2.5,5.4-2,5.1c1.4-1,14.9-4,18.2-4
						c3.3,0.1,6.8,0.1,11.8,2.3c0,0-3.4-5.5-7.1-5.6C126.4,69.8,122.6,70,118.6,70.4"/>
					<g>
						<path class="st32" d="M113,84.1c0,2.1,2.4,3.8,5.4,3.8s5.4-1.7,5.4-3.8c0-2.1-2.4-3.8-5.4-3.8C115.4,80.3,113,82,113,84.1z"/>
						<path class="st33" d="M114.3,84.1c0,1.6,1.8,2.9,4.1,2.9c2.2,0,4-1.3,4-2.9s-1.8-2.9-4-2.9C116.1,81.2,114.3,82.5,114.3,84.1z
							"/>
					</g>
					<path class="st34" d="M129.3,84.9c0,0-4.6,2.2-7.8,2.6c-3.2,0.3-10.7-0.9-10.7-0.9s4.4,2.3,7.7,2.3
						C121.7,89,126.6,88.8,129.3,84.9z"/>
					<path class="st35" d="M131.6,83.5c0,0-3.8-4.4-5.8-5.5c-3.9-2.2-11.8-1.6-14.6,1.2c-3.8,3.7-3.5,6.4-3.5,6.4s5.4-5,9.8-5.1
						C121.7,80.3,129.6,82.3,131.6,83.5z"/>
					<path class="st31" d="M131.6,83.4c0,0-8-3.3-10.9-3.4c-4.6-0.2-9.8,1.8-11.6,3.8s-1.8,2-1.8,2s4.1-4.2,9-4.7
						c6.4-0.5,13.9,3.1,13.9,3.1L131.6,83.4z"/>
				</g>
				<g>
					<path class="st36" d="M82,114.3c0,0,7.8-1.5,9.9-1.8s6.7,0.7,7.4,0.7s0.2,2.6,0.2,2.6S88.7,116.5,82,114.3z"/>
					<path class="st37" d="M116.6,114.3c0,0-7.6-1.5-9.8-1.8s-6.9,0.7-7.5,0.7c-0.6,0-0.2,2.6-0.2,2.6S110,116.5,116.6,114.3z"/>
					<path class="st38" d="M116.6,114.3c-0.3,0.2-13.8,1.1-17.3,1.4c-3.4-0.2-16.9-1.2-17.4-1.4c0,0,8.1,5.5,12.3,6.1
						c1.8,0.3,4.5,0.5,5,0.4c0.6,0,3.3-0.2,5-0.4C108.6,119.7,116.6,114.3,116.6,114.3z"/>
				</g>
				<path class="st28" d="M125.7,122.4c0.4-0.1,2.2-9.6-1.4-11.8c-3.6-2.2-14.8-5.9-17.2-6.4c-2.2-0.5-5.6,0.9-7,1
					c-0.2,0-0.4,0-0.8,0s-0.6,0-0.8,0c-1.4-0.1-4.7-1.5-7-1c-2.4,0.5-13.6,4.3-17.2,6.4c-3.6,2.2-1.8,11.7-1.4,11.8l-2.6,3.8L88,134
					c0,0,0.2-5.9-0.6-6.9c-0.9-1-8.2-3.9-8.3-5.8s0.2-5.7,2.8-6.7c2.6-1.1,12.4-1.4,14.2-1.7c1.9-0.3,1.4-2.2,1.6-2.7
					c0.2-0.3,0.8-0.4,1.4-0.5c0.6,0.1,1.3,0.3,1.4,0.5c0.3,0.5-0.2,2.4,1.6,2.7c1.9,0.3,11.8,0.6,14.2,1.7c2.6,1.1,3,4.8,2.9,6.7
					s-7.4,4.9-8.3,5.8c-0.9,1-0.6,6.9-0.6,6.9l17.8-7.8L125.7,122.4z"/>
				<g>
					<path class="st39" d="M109,101.2c-0.6-0.2-5.8,0.9-8.1,0.9c-0.8,0-1.4,0-1.8,0c-0.5,0-1,0-1.8,0c-2.2,0-7.4-1.2-8.1-0.9
						c-0.6,0.2,0.6,1.3,0.6,1.3c1.7,0.8,5.8,1.6,8.3,1.9h2c2.5-0.4,6.6-1.1,8.2-1.9C108.4,102.5,109.6,101.4,109,101.2z"/>
					<path class="st40" d="M95,103.2c-1-0.3-3-0.4-3.4-1.1c-0.4-0.6,3.3,0.1,4.8,0.7C97.9,103.4,96.1,103.5,95,103.2z"/>
					<path class="st40" d="M103.4,103.2c1-0.3,3-0.4,3.4-1.1c0.4-0.6-3.3,0.1-4.8,0.7C100.5,103.4,102.3,103.5,103.4,103.2z"/>
				</g>
				<path class="st25" d="M145.8,81.7c0,0,1.7-2.1,4.6-1.6c2.9,0.5,1.7,15,1.7,16.6c0,3.3-9.3,9.7-9.3,9.7L145.8,81.7z"/>
				<path class="st25" d="M53,81.7c0,0-1.7-2.1-4.6-1.6c-3,0.5-1.7,15-1.7,16.6c0,3.3,9.3,9.7,9.3,9.7L53,81.7z"/>
				<g>
					<g>
						<path class="st41" d="M138.2,84.3c0,6.7-7,12.2-15.6,12.2S107,91.1,107,84.3c0-6.7,7-12.2,15.6-12.2
							C131.2,72.2,138.2,77.6,138.2,84.3z"/>
						<path class="st41" d="M91.6,84.3c0,6.7-7,12.2-15.6,12.2s-15.6-5.4-15.6-12.2c0-6.7,7-12.2,15.6-12.2
							C84.6,72.2,91.6,77.6,91.6,84.3z"/>
						<path class="st42" d="M145.4,82c0,0-3.2,2.1-4.7,2.5c-0.2,0-2.5-0.1-2.5-0.1"/>
						<path class="st42" d="M52.7,81.7c0,0,3.2,2.1,4.7,2.5c0.2,0,2.5-0.1,2.5-0.1"/>
						<path class="st43" d="M91.4,82.7c0,0,4.7-0.6,7.5-0.6c2.8,0,8.2,1.2,8.2,1.2"/>
					</g>
					<path class="st44" d="M90.2,83.3c0,0.4,0.1,0.8,0.2,0.8c0.2,0,0.2-0.4,0.2-0.8s-0.1-0.8-0.2-0.8C90.2,82.5,90.2,82.9,90.2,83.3
						z"/>
					<path class="st44" d="M107.8,83.3c0,0.4,0.1,0.8,0.2,0.8c0.2,0,0.2-0.4,0.2-0.8s-0.1-0.8-0.2-0.8S107.8,82.9,107.8,83.3z"/>
					<path class="st44" d="M137.1,84.2c0,0.4,0.1,0.8,0.2,0.8c0.2,0,0.2-0.4,0.2-0.8s-0.1-0.8-0.2-0.8
						C137.2,83.4,137.1,83.7,137.1,84.2z"/>
					<path class="st44" d="M60.5,84.2c0,0.4,0.1,0.8,0.2,0.8c0.2,0,0.2-0.4,0.2-0.8s-0.1-0.8-0.2-0.8C60.6,83.4,60.5,83.7,60.5,84.2
						z"/>
				</g>
			</g>
		</g>
	</g>
</g>
</svg>
