<?xml version="1.0" encoding="utf-8"?>
<!-- Generator: Adobe Illustrator 23.0.4, SVG Export Plug-In . SVG Version: 6.00 Build 0)  -->
<svg version="1.0" id="Layer_1" xmlns="http://www.w3.org/2000/svg" xmlns:xlink="http://www.w3.org/1999/xlink" x="0px" y="0px"
	 viewBox="0 0 200 200" style="enable-background:new 0 0 200 200;" xml:space="preserve">
<style type="text/css">
	.st0{clip-path:url(#SVGID_2_);}
	.st1{fill:#D8A08A;}
	.st2{fill:#33333F;}
	.st3{fill:#E1A98E;}
	.st4{fill:#E9B29C;}
	.st5{fill:#DF95BF;}
	.st6{fill:#DCA48D;}
	.st7{fill:#DFA998;}
	.st8{fill:#E5B3A1;}
	.st9{fill:#EAB8A3;}
	.st10{fill:#D09985;}
	.st11{fill:#AE7568;}
	.st12{fill:#D29B8B;}
	.st13{fill:#F3F0E9;}
	.st14{fill:#7193A4;stroke:#455760;stroke-width:9.516300e-02;}
	.st15{fill:#1B1C1C;}
	.st16{fill:#AE796D;}
	.st17{fill:#EEBFB5;}
	.st18{fill:#2A2432;}
	.st19{fill:#B9845A;}
	.st20{fill:#DCA58E;}
	.st21{fill:#FAB9DB;}
	.st22{fill:#FFCD00;}
	.st23{fill:#F6D97C;}
	.st24{fill:#72634C;}
	.st25{fill:#6DC831;}
	.st26{fill:#FFEDF8;}
	.st27{fill:#72554F;}
	.st28{fill:#F3E0DE;}
	.st29{fill:#DA8989;}
	.st30{fill:#E79D9D;}
	.st31{fill:#CD7878;}
	.st32{fill:#E6B5A1;}
	.st33{fill:#B968A7;}
</style>
<g>
	<defs>
		<rect id="SVGID_1_" width="200" height="200"/>
	</defs>
	<use xlink:href="#SVGID_1_"  style="overflow:visible;fill:#F4F4C3;"/>
	<clipPath id="SVGID_2_">
		<use xlink:href="#SVGID_1_"  style="overflow:visible;"/>
	</clipPath>
	<g class="st0">
		<path class="st1" d="M103.2,435.8v-49.7c-48.9,0-124-15.4-124-15.4c-7.5,5.2-32.3,49.7-28.2,74.2c23,137,48.5,138.3,49,156.3
			C0.4,619-0.8,647.3,2.1,659c2.8,11.6,42.5,115.7,42.5,115.7c0.7,12.2-23,26.8-23,26.8l4.8,7h54.8l6.4-17.5l-3.2-19.2
			c0,0-4.8-11-5.3-26.2c-0.7-20.6,8.8-49.1,10-68.2c2.1-33.2-14.2-62.9-11-70.5c3.2-7.6,4.4-10,6.3-15.4
			c1.9-5.5,16.8-38.9,17.2-90.2c0.3-40.5-6.1-66.7-6.1-66.7S99.2,435.7,103.2,435.8z"/>
		<path class="st1" d="M100,435.8v-49.7c48.9,0,124-15.4,124-15.4c7.4,5.2,32.3,49.7,28.2,74.2c-23,137-48.5,138.3-49,156.3
			c-0.5,17.9,0.7,46.2-2.2,57.8c-2.8,11.6-42.5,115.7-42.5,115.7c-0.7,12.2,23,26.8,23,26.8l-4.8,7H122l-6.4-17.5l3.2-19.2
			c0,0,4.8-11,5.3-26.2c0.7-20.6-8.8-49.1-10-68.2c-2.1-33.2,14.2-62.9,11-70.5c-3.2-7.6-4.4-10-6.3-15.4c-1.9-5.5-17-39.4-17-90
			c0-40.5,6-67,6-67S104,435.7,100,435.8z"/>
		<path class="st2" d="M-0.1,601.1C0.4,619-0.8,647.3,2.1,659c1.3,5.5,10.9,31.5,20.6,57.5h59.6c2.7-13.9,6.1-28,6.8-39.1
			c2.1-33.2-14.2-62.9-11-70.5c3.2-7.6,4.4-10,6.3-15.4c1.9-5.5,16.8-38.9,17.2-90.2c0.3-40.5-6.1-66.7-6.1-66.7s2,0.6,4.6,0.9v0.3
			c0.5,0,1.1,0,1.6-0.1c0.5,0,1,0.1,1.6,0.1v-0.3c2.6-0.4,4.6-0.9,4.6-0.9s-6,26.5-6,67c0,50.6,15.2,84.5,17,90
			c1.9,5.5,3.1,7.9,6.3,15.4c3.2,7.6-13.2,37.3-11,70.5c0.7,11,4.1,25.1,6.8,39.1h59.6c9.7-26,19.2-52,20.6-57.5
			c2.8-11.6,1.7-39.9,2.2-57.8c0.5-17.9,25.9-19.3,49-156.3c4.1-24.5-20.8-68.9-28.2-74.2c0,0-73.5,15.1-122.4,15.4
			c-49-0.3-122.4-15.4-122.4-15.4c-7.5,5.2-32.3,49.7-28.2,74.2C-26,581.8-0.6,583.2-0.1,601.1z"/>
		<g>
			<path class="st3" d="M305,415.3l-33.6,0.9c0,0-36.1-69.1-38.4-73.6c-2.2-4.5-13.9-62.2-16.7-81.2c-4.7-32.4-25-93.9-14.7-91
				c14.8,4.2,31.3,8.2,55.4,36.9c6,7.1,17.1,24,18.7,35c2.9,19.8,8.7,57.8,10.6,62.2c3,7.1,11.7,32.8,13.6,41.8
				C301.8,355.2,305,415.3,305,415.3z"/>
			<path class="st3" d="M269.8,483.3c0,0,4.5,4.2,7.2,6.8c2.7,2.6,33.6-30,33-35.4c-0.7-5.4-4.8-39.5-4.8-39.5l-33.7,0.9l-0.7,26.9
				l6.8,27.9L269.8,483.3z"/>
			<path class="st4" d="M290.2,449.2c0,0-4.9,23.9-5.8,25c-0.9,1.1-5.9,0.4-5.9,0.4l-7.7-31.5l0-10.4L290.2,449.2z"/>
		</g>
		<polygon class="st5" points="228.6,307.4 214.1,264.6 223.2,309.1 		"/>
		<g>
			<path class="st3" d="M-101.2,415.3l33.6,0.9c0,0,36.1-69.1,38.4-73.6c2.2-4.5,13.9-62.2,16.7-81.2c4.7-32.4,25-93.9,14.7-91
				c-14.8,4.2-31.3,8.2-55.4,36.9c-6,7.1-17.1,24-18.7,35c-2.9,19.8-8.7,57.8-10.6,62.2c-3,7.1-11.7,32.8-13.6,41.8
				C-98.1,355.2-101.2,415.3-101.2,415.3z"/>
			<path class="st3" d="M-66,483.3c0,0-4.5,4.2-7.2,6.8c-2.7,2.6-33.6-30-33-35.4c0.7-5.4,4.8-39.5,4.8-39.5l33.7,0.9l0.7,26.9
				l-6.8,27.9L-66,483.3z"/>
			<path class="st4" d="M-86.5,449.2c0,0,4.9,23.9,5.8,25c0.9,1.1,5.9,0.4,5.9,0.4l7.7-31.5l0-10.4L-86.5,449.2z"/>
		</g>
		<path class="st6" d="M59,113.2c0,0-5.2-6-5.6-7.2c-0.3-1.2-3.7-12.6-2.6-14.6c1.2-2,3.4-3.2,5.3-0.6c1.9,2.6,1.9,2.6,1.9,2.6
			s0.5,5.7,1.5,10.8C60.6,109.3,62.8,115.7,59,113.2z"/>
		<path class="st6" d="M144.2,113.6c0,0,5.2-6,5.5-7.2c0.4-1.2,3.7-12.6,2.6-14.6c-1.1-2-3.3-3.2-5.3-0.6c-1.9,2.6-1.9,2.6-1.9,2.6
			s-0.5,5.7-1.5,10.8C142.6,109.6,140.4,116,144.2,113.6z"/>
		<path class="st7" d="M29.7,304.7c-21.8-1.9-42.5-9.2-43-29.4c-0.6-20.2,7.4-25.8,8.8-33.8c0.9-5.3,2.4-15.6,2.4-15.6
			s39.5-6.7,60.5,2.3c20.9,8.9,33.4,15.6,34.8,30.6C97.2,280.1,66.6,306.2,29.7,304.7z"/>
		<path class="st8" d="M231.6,342.7c-5.2-22.3-9.3-27.9-9-47c0.5-33-12.8-42.5-7-71.4c4.2-21-7.1-51-12.4-53.2
			c-9.1-4-70-17.3-70.3-18.5c-0.7-3.6,0-23.3,0-23.3h-27.7h-2.4H102h-0.3H101h-2.4H70.9c0,0,0.7,19.7,0,23.3
			c-0.3,1.2-61.2,14.6-70.3,18.5c-5.3,2.3-16.5,32.2-12.4,53.2c5.7,28.9-7.5,38.4-7,71.4c0.3,19.1-3.9,24.7-9,47
			c-4.3,18.5,7.3,28.6,7.3,28.6s16.1,30.7,122.4,32.8v0h0.1h0.1v0c106.3-2.1,122.4-32.8,122.4-32.8S235.9,361.3,231.6,342.7z"/>
		<path class="st7" d="M174.1,304.7c21.8-1.9,42.5-9.2,43-29.4c0.6-20.2-7.4-25.8-8.8-33.8c-0.9-5.3-2.4-15.6-2.4-15.6
			s-39.5-6.7-60.5,2.3c-20.9,8.9-33.4,15.6-34.8,30.6C106.5,280.1,137.2,306.2,174.1,304.7z"/>
		<path class="st9" d="M127.7,51.1c-6.4-3.6-16.1-5.2-25.4-5.1c-9.2,0-18.9,1.6-25.3,5.1c-18.6,10-23.9,30.6-20,52.5
			c1.2,6.7,6.2,17.9,8.4,22.1c5.7,11,13.8,14.8,18.3,17c5.2,2.5,10.5,4.4,18.6,4.4c8.1-0.1,13.4-2,18.7-4.4
			c4.4-2.1,12.1-5.7,17.8-16c2.4-4.4,7-15,8.3-22.2C150.9,82.5,145,60.8,127.7,51.1z"/>
		<g>
			<path class="st10" d="M109.1,110.9c-2.5-1-5.1,0.2-7.5,0.4c-2.4-0.1-4.9-1.3-7.4-0.4c-2,0.8-2.6,1.5-2.5,2.5
				c0.1,0.8,7,0.6,9.9,0.5c3,0.1,9.9,0.3,9.9-0.5C111.7,112.4,111.2,111.7,109.1,110.9z"/>
			<path class="st11" d="M93.5,113c-0.1-0.4,0.6-0.8,1.2-1c0.9-0.3,1.2-0.3,2.8,0c1.6,0.3,2,0.7,1.7,1C99,113.2,93.6,113.3,93.5,113
				z"/>
			<path class="st11" d="M109.8,113c0.1-0.4-0.6-0.8-1.2-1c-0.9-0.3-1.2-0.3-2.8,0c-1.6,0.3-2,0.7-1.7,1
				C104.4,113.2,109.8,113.3,109.8,113z"/>
			<path class="st12" d="M105,91.8l1.4,12.3c0,0,1.1,2.4,2.5,3.2c1.1,0.6,1.4,0.9,1.4,0.9L105,91.8z"/>
			<g>
				<path class="st13" d="M92.7,93.3L92.5,94c0,0-1.3,1.9-7.4,2c-7.2,0.1-10.1-1.6-11.4-2.7c-1.4-1-1.4-1-1.4-1s3.6-3.3,7.6-3.2
					C83.9,89.3,89.5,89.5,92.7,93.3z"/>
				<g>
					<path class="st14" d="M88.2,92.2c0.1,2.1-2.2,3.8-5.1,3.9c-2.9,0-5.3-1.6-5.3-3.7c0-2.1,2.2-3.8,5.1-3.9
						C85.7,88.5,88.1,90.2,88.2,92.2z"/>
					<path class="st15" d="M86.3,92.3c0,1.5-1.5,2.7-3.3,2.7c-1.9,0-3.4-1.1-3.4-2.6c0-1.5,1.4-2.6,3.3-2.7
						C84.7,89.7,86.3,90.8,86.3,92.3z"/>
				</g>
				<path class="st16" d="M85,95.6c-3.3,0.1-5.3,0.1-7.8-0.7c-2.6-0.8-5-2.6-5-2.6s1.5,2,3,2.9c1.5,0.9,7.3,3.2,13.8,0.7l2.3-1
					C91.4,94.9,88.2,95.6,85,95.6z"/>
				<path class="st12" d="M92.7,92.9c0,0-1.5-4.5-6.1-6.2c-3.9-1.4-7.3-0.9-10,0.2c-2.8,1.1-4.4,4-4.4,4s3.7-2.2,8-2.4
					C84.7,88.2,89.6,90.5,92.7,92.9z"/>
				<path class="st17" d="M92.9,93.3c0,0-2.5-4.6-6.3-6.1c-3.8-1.5-7.2-0.9-10,0.2c-2.8,1.1-4.8,4-4.8,4s4.1-2.2,8.5-2.4
					C84.7,88.8,89.8,91,92.9,93.3z"/>
				<path class="st18" d="M70.3,91.4c0,0,5.3-3.3,11.8-2.9c5.6,0.3,10.9,4.8,10.9,4.8s-7.2-3.8-11.6-3.7c-3.6,0.1-9.1,2.9-9.1,2.9
					L70.3,91.4z"/>
			</g>
			<path class="st19" d="M109.8,83.4c-0.9,0.3-1.2,1.1-0.7,2.1c0.1,0.3,0.5,0.8,1.4,0.9c0.8,0,12.6-4.1,16.5-3.6
				c3.9,0.5,7.1,0.9,8.2,1.2c1.1,0.3,1.9,0.5,1-0.3c-0.9-0.8-5-3-8.9-3.4c-2.8-0.3-4.6-0.1-6.9,0.2C118,80.8,110.7,83.1,109.8,83.4z
				"/>
			<path class="st19" d="M93.1,83.3c0.9,0.3,1.2,1.1,0.7,2.1c-0.1,0.3-0.5,0.8-1.4,0.9c-0.8,0-12.6-4.1-16.5-3.6
				c-3.9,0.5-7.1,0.9-8.2,1.2c-1.1,0.3-1.9,0.5-1-0.3c0.9-0.8,5-3,8.9-3.4c2.8-0.3,4.6-0.1,6.9,0.2C84.8,80.7,92.2,83,93.1,83.3z"/>
			<g>
				<path class="st13" d="M110.6,93.3l0.3,0.8c0,0,1.3,1.9,7.4,2c7.2,0.1,10.1-1.6,11.4-2.7c1.4-1,1.4-1,1.4-1s-3.6-3.3-7.6-3.2
					C119.4,89.3,113.8,89.5,110.6,93.3z"/>
				<g>
					<path class="st14" d="M115.1,92.2c-0.1,2.1,2.2,3.8,5.1,3.9c2.9,0,5.3-1.6,5.3-3.7c0.1-2.1-2.2-3.8-5.1-3.9
						C117.6,88.5,115.2,90.2,115.1,92.2z"/>
					<path class="st15" d="M117,92.3c0,1.5,1.4,2.7,3.3,2.7c1.9,0,3.4-1.1,3.4-2.6c0-1.5-1.5-2.6-3.3-2.7
						C118.6,89.7,117,90.8,117,92.3z"/>
				</g>
				<path class="st16" d="M126.1,95c-2.6,0.8-4.6,0.8-7.8,0.7c-3.3-0.1-6.4-0.7-6.4-0.7l2.3,1c6.5,2.5,12.3,0.3,13.8-0.7
					c1.5-0.9,3.1-2.9,3.1-2.9S128.7,94.2,126.1,95z"/>
				<path class="st12" d="M110.6,92.9c0,0,1.5-4.5,6.1-6.2c3.9-1.4,7.2-0.9,10,0.2c2.8,1.1,4.4,4,4.4,4s-3.7-2.2-8-2.4
					C118.6,88.2,113.7,90.5,110.6,92.9z"/>
				<path class="st17" d="M110.4,93.3c0,0,2.5-4.6,6.3-6.1c3.8-1.5,7.2-0.9,10,0.2c2.8,1.1,4.8,4,4.8,4s-4.1-2.2-8.5-2.4
					C118.6,88.8,113.5,91,110.4,93.3z"/>
				<path class="st18" d="M133,91.4c0,0-5.3-3.3-11.8-2.9c-5.6,0.3-10.9,4.8-10.9,4.8s7.2-3.8,11.6-3.7c3.6,0.1,9.2,2.9,9.2,2.9
					L133,91.4z"/>
			</g>
		</g>
		<path class="st20" d="M106.1,141.4c-1.4,0.1-2.7,0.1-3.9,0.1c-1.2,0-2.5,0-3.9-0.1c-5.9-0.3-18.6-7.2-18.6-7.2
			c9.9,8.9,17,9.8,22.6,9.5c5.6,0.3,12.7-0.7,22.6-9.5C124.8,134.2,112,141.1,106.1,141.4z"/>
		<path class="st21" d="M223.1,308.9l5.4-1.2l64.1-20.1c0,0-14.2-68.8-37.9-90.3C226,171.2,163.1,160,163.1,160
			s-20.7,14.4-61.3,14.1C58.6,173.5,40.5,160,40.5,160s-62.9,11.2-91.6,37.3C-74.8,218.8-89,287.6-89,287.6l64.1,20.1l5.4,1.2
			c0,0-5.7,19.4-20,61.3c-21.9,64.1-7.6,101.1-7.6,101.1h297.8c0,0,14.3-37-7.6-101.1C228.8,328.3,223.1,308.9,223.1,308.9z"/>
		<polygon class="st5" points="-25.1,307.8 -10.9,263.5 -19.5,309.1 		"/>
		<g>
			<g>
				<path class="st22" d="M166.1,267.8c0,0.8-0.8,1.4-1.9,1.4H62.4c-1,0-1.9-0.7-1.9-1.4l0,0c0-0.8,0.8-1.5,1.9-1.5h101.9
					C165.3,266.3,166.1,267,166.1,267.8L166.1,267.8z"/>
				<path class="st23" d="M166.7,292.4c0,3.7-3.3,6.8-7.4,6.8H67.3c-4.1,0-7.4-3-7.4-6.8l0,0c0-3.7,3.3-6.8,7.4-6.8h92.1
					C163.4,285.6,166.7,288.6,166.7,292.4L166.7,292.4z"/>
				<path class="st24" d="M166.7,277.4c0,3-3.3,5.5-7.4,5.5H67.3c-4.1,0-7.4-2.4-7.4-5.5l0,0c0-3,3.3-5.5,7.4-5.5h92.1
					C163.4,272,166.7,274.4,166.7,277.4L166.7,277.4z"/>
				<path class="st23" d="M165.4,256.6c-2.7-21.6-25-32.1-52.1-32.1c-27.1,0-49.4,10.5-52.1,32.1H165.4z"/>
				<g>
					<path class="st25" d="M81.1,264.5c-0.2,0-0.3,0-0.5,0c-7.4-0.2-19-2.8-19.5-2.9c-0.8-0.2-1.3-0.8-1-1.5c0.2-0.6,1.1-1,1.9-0.8
						c0.1,0,11.7,2.6,18.7,2.8c3.7,0,10.3-0.8,16.7-1.7c6.1-0.8,11.9-1.6,15.8-1.7h0.4c3.9,0.1,9.7,0.8,15.8,1.7
						c6.4,0.9,12.9,1.7,16.7,1.7c7-0.1,18.6-2.8,18.7-2.8c0.8-0.2,1.7,0.2,1.9,0.8c0.2,0.6-0.2,1.3-1,1.5
						c-0.5,0.1-12.1,2.7-19.5,2.9c-4,0-10.8-0.8-17.3-1.7c-5.7-0.8-11.7-1.6-15.3-1.6c-3.9,0.1-9.9,0.9-15.6,1.6
						C91.6,263.6,85.1,264.5,81.1,264.5z"/>
				</g>
			</g>
			<g>
				<path class="st26" d="M24.8,338.3v-5.4c0.8,0,1.2-0.3,1.2-0.9V312c0-0.6-0.4-0.9-1.2-0.9v-5.4H40v5.4c-0.8,0-1.2,0.3-1.2,0.9
					v19.9c1,0,1.8-0.2,2.5-0.6c0.7-0.4,1-1,1-1.7v-4.1h11.6v12.8H24.8z"/>
				<path class="st26" d="M77.6,304.7c3.9,0,7.2,0.7,10,2.1c2.7,1.4,4.1,3.1,4.1,5.1v19.9c0,2-1.4,3.7-4.1,5.1
					c-2.7,1.4-6.1,2.1-10,2.1h-3.5c-3.9,0-7.2-0.7-9.9-2.1c-2.7-1.4-4.1-3.1-4.1-5.1V312c0-2,1.4-3.7,4.1-5.1c2.7-1.4,6-2.1,9.9-2.1
					H77.6z M74.2,312.9V331c0,0.3,0.2,0.5,0.5,0.6c0.3,0.2,0.7,0.3,1.2,0.3c0.5,0,0.9-0.1,1.2-0.3c0.4-0.2,0.5-0.4,0.5-0.6v-18.1
					c0-0.2-0.2-0.4-0.5-0.6c-0.3-0.2-0.7-0.3-1.2-0.3c-0.5,0-0.9,0.1-1.2,0.3C74.3,312.5,74.2,312.7,74.2,312.9z"/>
				<path class="st26" d="M114.4,323.8l2.3-11.8c0-0.6-0.4-0.9-1.2-0.9v-5.4h15.1v5.4c-0.8,0-1.2,0.3-1.2,0.9l-5.8,26.3h-18.6
					l-7-26.3c0-0.6-0.4-0.9-1.2-0.9v-5.4h16.3v5.4c-0.8,0-1.2,0.3-1.2,0.9L114.4,323.8z"/>
				<path class="st26" d="M135.6,332.8c0.8,0,1.2-0.3,1.2-0.9V312c0-0.3-0.1-0.5-0.4-0.7c-0.2-0.2-0.5-0.2-0.8-0.2v-5.4H167v10.9
					h-12.8v-2.5c0-1.4-1.2-2.1-3.5-2.1v5.4h7v7.2h-7v7.2c2.3,0,3.5-0.7,3.5-2v-4.2H167v12.6h-31.4V332.8z"/>
			</g>
			<g>
				<g>
					<path class="st26" d="M26.4,287.8V251c0-1.1-0.7-1.7-2.1-1.7v-10h30v10c-1.4,0-2.1,0.6-2.1,1.7v36.7c0,1.1,0.7,1.7,2.1,1.7v10
						h-30v-10C25.7,289.4,26.4,288.9,26.4,287.8z"/>
				</g>
			</g>
		</g>
		<g>
			<polygon class="st27" points="83.1,120.6 88.8,120.6 106.2,121 121,120.6 111.4,126 93.4,127.4 			"/>
			<polygon class="st28" points="116,124.3 102.1,128.4 87.7,124.3 87.7,120.6 116,120.6 			"/>
			<path class="st29" d="M102.1,119.9c0,0-1.5-0.7-5-0.8c-3.5-0.1-14,1.5-14,1.5s3.7,0.2,7.1,0.6c2.8,0.3,5.1,1.1,8,1.4
				c2.8,0.2,3.9,0.1,3.9,0.1V119.9z"/>
			<path class="st30" d="M111.5,124.2c-3.1,0.9-5.4,1.3-9.6,1.3c-3.4,0-5.2-0.7-8.3-1.6c-3.9-1.1-10.5-3.4-10.5-3.4s2.3,2.4,4.9,4.4
				c2.6,2,4.8,4.1,8.1,4.9c2.6,0.6,9,0.5,11.2,0.2c3.3-0.5,6.2-3.1,8.8-5.1c2.6-2,4.9-4.4,4.9-4.4S115.4,123.1,111.5,124.2z"/>
			<path class="st31" d="M102,119.9c0,0,1.5-0.7,5-0.8c3.5-0.1,14,1.5,14,1.5s-3.7,0.2-7.1,0.6c-2.8,0.3-5.1,1.1-8,1.4
				c-2.8,0.2-3.9,0.1-3.9,0.1V119.9z"/>
			<path class="st32" d="M89.7,109c0,0-5.9,5.6-9.1,7.3c-3.2,1.7-5.2,3.3-4.3,4.8c1,1.5,1.9,1.7,2.2,0.4
				C78.9,120.1,91.9,108.6,89.7,109z"/>
			<path class="st32" d="M78.7,133.2c0,0-4.4-4.6-7.5-9c-3-4.4-2.7-9.9-2.7-9.9s1.1,6.9,5.4,11.5C78.2,130.4,78.7,133.2,78.7,133.2z
				"/>
			<path class="st32" d="M114.2,109c0,0,5.9,5.6,9.1,7.3c3.2,1.7,5.2,3.3,4.3,4.8c-1,1.5-1.9,1.7-2.2,0.4
				C125,120.1,111.9,108.6,114.2,109z"/>
			<path class="st32" d="M125.9,133.2c0,0,4.4-4.6,7.5-9c3-4.4,2.7-9.9,2.7-9.9s-1.1,6.9-5.4,11.5
				C126.4,130.4,125.9,133.2,125.9,133.2z"/>
		</g>
		<path class="st19" d="M157.5,62.9c0.2-0.3,0.3-0.7,0.5-1.1c1.4-1.4,2.2-3.2,2.2-5.1c0-4.3-4.3-8-10-8.8c0-0.2,0.1-0.4,0.1-0.5
			c0-3.9-3.4-7.1-8.2-8.4c0.3-0.7,0.5-1.5,0.5-2.3c0-4.6-5.3-8.4-11.7-8.4c-0.3,0-0.5,0-0.8,0.1c-1-2.4-3.5-4.4-6.8-5.3
			c-1.5-4.2-11.1-5.6-13.8-4.2c-1.9-5.4-8-9.3-15.3-9.3c-6,0-11.2,2.7-13.9,6.6c-1.4-0.2-2.8-0.4-4.2-0.4c-10.5,0-19,2.3-19,10.7
			c0,1.3,0.3,2.5,0.6,3.7c-3.6,2.7-5.9,6.6-5.9,10.9c0,2.8,1,5.4,2.7,7.7c-2.9,1.6-4.7,4.2-4.7,7.2c0,1.5,0.5,2.8,1.3,4
			c-4.3,1-7.4,4.1-7.4,7.9c0,3.7,3.2,6.9,7.4,7.9c-2.6,1.2-4.3,3.4-4.3,6c0,2.4,1.6,4.6,3.9,5.8c-0.3,0.8-0.4,1.7-0.4,2.6
			c0,3.9,2.7,7,6,7c3.3,0,6-3.1,6-7c0-1.2-0.3-2.3-0.7-3.3c1.7-1.3,2.8-3.1,2.8-5.1c0-1.6-0.7-3-1.8-4.2c0.8,0.1,1.6,0.2,2.5,0.2
			c6.1,0,11.1-4,11.1-8.8c0-1.3-0.4-2.5-1-3.7c5-0.1,9.2-2.8,10.5-6.5c2.5,2.6,6.4,4.3,10.8,4.3c3.7,0,7.1-1.2,9.5-3.1
			c0.1,4.8,5.1,8.7,11.1,8.7c1,0,1.9-0.1,2.9-0.3c1.7,4.4,6.9,7.7,13,7.7c2,0,3.9-0.4,5.6-1c-0.8,1.2-1.3,2.6-1.3,4.1
			c0,3.5,2.7,6.5,6.5,7.9c0,0.2-0.1,0.4-0.1,0.6c0,3.6,3,6.6,6.8,6.6c3.7,0,6.8-3,6.8-6.6c0-1.1-0.3-2.1-0.8-3
			c1.6-1.5,2.5-3.4,2.5-5.5c0-2.3-1.1-4.3-2.9-5.8c1.8-1.5,2.9-3.6,2.9-5.8C159.1,65.7,158.5,64.2,157.5,62.9z"/>
		<path class="st33" d="M53.7,47.1c0,0,13.8-5.9,32.9-9.2c20.5-3.6,55.5,1.1,55.5,1.1l2.7,1c0,0-24.1-2-32-2.1
			c-7.9-0.1-13.3-0.1-25.2,1.3c-11.9,1.3-33,9.5-33,9.5L53.7,47.1z"/>
		<path class="st33" d="M118.8,37.3c0,0,13.7,8.7,17.3,6.8C139.7,42,138.4,39.7,118.8,37.3z M133.3,42.6c-1.8,1-8.8-3.4-8.8-3.4
			C134.5,40.4,135.1,41.6,133.3,42.6z"/>
		<path class="st33" d="M121.8,37.6c0,0-17.5,1.8-18.2,5.2C103,46.2,106.1,47,121.8,37.6z M106.8,42.2c0.3-1.7,9.3-2.6,9.3-2.6
			C108.1,44.3,106.5,43.9,106.8,42.2z"/>
		<polygon class="st33" points="120.7,45.6 124.4,45.4 120.7,37.7 		"/>
		<polygon class="st33" points="117.9,44.5 114.1,44.8 120.7,37.7 		"/>
	</g>
</g>
</svg>
