<?xml version="1.0" encoding="utf-8"?>
<!-- Generator: Adobe Illustrator 23.0.4, SVG Export Plug-In . SVG Version: 6.00 Build 0)  -->
<svg version="1.0" id="Layer_1" xmlns="http://www.w3.org/2000/svg" xmlns:xlink="http://www.w3.org/1999/xlink" x="0px" y="0px"
	 viewBox="0 0 200 200" style="enable-background:new 0 0 200 200;" xml:space="preserve">
<style type="text/css">
	.st0{clip-path:url(#SVGID_2_);fill:#866C59;}
	.st1{clip-path:url(#SVGID_2_);fill:#302A26;}
	.st2{clip-path:url(#SVGID_2_);fill:#D8A08A;}
	.st3{clip-path:url(#SVGID_2_);fill:#33333F;}
	.st4{clip-path:url(#SVGID_2_);}
	.st5{fill:#E1A98E;}
	.st6{fill:#E9B29C;}
	.st7{clip-path:url(#SVGID_2_);fill:#DF95BF;}
	.st8{clip-path:url(#SVGID_2_);fill:#DCA48D;}
	.st9{clip-path:url(#SVGID_2_);fill:#DFA998;}
	.st10{clip-path:url(#SVGID_2_);fill:#DCA795;}
	.st11{clip-path:url(#SVGID_2_);fill:#EAB8A3;}
	.st12{clip-path:url(#SVGID_2_);fill:#DCA58E;}
	.st13{clip-path:url(#SVGID_2_);fill:#FAB9DB;}
	.st14{fill:#FFCD00;}
	.st15{fill:#F6D97C;}
	.st16{fill:#72634C;}
	.st17{fill:#6DC831;}
	.st18{fill:#FFEDF8;}
	.st19{clip-path:url(#SVGID_2_);fill:#B1927B;}
	.st20{clip-path:url(#SVGID_2_);fill:#C0A08A;}
	.st21{fill:#D09985;}
	.st22{fill:#AE7568;}
	.st23{fill:#D29B8B;}
	.st24{fill:#DA8989;}
	.st25{fill:#CD7878;}
	.st26{fill:#E79D9D;}
	.st27{fill:#9F806A;}
	.st28{fill:#F3F0E9;}
	.st29{fill:#7193A4;stroke:#455760;stroke-width:9.516300e-02;}
	.st30{fill:#1B1C1C;}
	.st31{fill:#AE796D;}
	.st32{fill:#EEBFB5;}
	.st33{fill:#2A2432;}
</style>
<g>
	<defs>
		<rect id="SVGID_1_" width="200" height="200"/>
	</defs>
	<use xlink:href="#SVGID_1_"  style="overflow:visible;fill:#B4D8D4;"/>
	<clipPath id="SVGID_2_">
		<use xlink:href="#SVGID_1_"  style="overflow:visible;"/>
	</clipPath>
	<path class="st0" d="M38.8,161.6c0,0-10.8-63.8,0.4-80.2c11.3-16.4,22.6-26.3,22.6-26.3l14.4,97.4L38.8,161.6z"/>
	<path class="st1" d="M150.5,161.6c0,0,10.9-63.8-0.4-80.2c-11.3-16.4-22.6-26.3-22.6-26.3l-14.3,97.4L150.5,161.6z"/>
	<path class="st2" d="M100,422.2v-49.7c-48.9,0-124-15.4-124-15.4c-7.4,5.2-32.3,49.7-28.2,74.2c23,137,48.5,138.3,49,156.3
		c0.5,17.9-0.7,46.2,2.2,57.8c2.8,11.6,42.5,115.7,42.5,115.7c0.7,12.2-23,26.8-23,26.8l4.8,7H78l6.4-17.5l-3.2-19.2
		c0,0-4.8-11-5.3-26.2c-0.7-20.6,8.8-49.1,10-68.2c2.1-33.2-14.2-62.9-11-70.5c3.2-7.6,4.4-10,6.3-15.4c1.9-5.5,16.8-38.8,17.2-90.2
		c0.3-40.5-6.1-66.7-6.1-66.7S96,422.2,100,422.2z"/>
	<path class="st2" d="M96.8,422.2v-49.7c48.9,0,124-15.4,124-15.4c7.4,5.2,32.3,49.7,28.2,74.2c-23,137-48.5,138.3-49,156.3
		c-0.5,17.9,0.7,46.2-2.2,57.8c-2.8,11.6-42.5,115.7-42.5,115.7c-0.7,12.2,23,26.8,23,26.8l-4.8,7h-54.8l-6.4-17.5l3.2-19.2
		c0,0,4.8-11,5.3-26.2c0.7-20.6-8.8-49.1-10-68.2c-2.1-33.2,14.2-62.9,11-70.5c-3.2-7.6-4.4-10-6.3-15.4c-1.9-5.5-17-39.4-17-90
		c0-40.5,6-67,6-67S100.8,422.2,96.8,422.2z"/>
	<path class="st3" d="M-3.3,587.6c0.5,17.9-0.7,46.2,2.2,57.8c1.3,5.5,10.9,31.5,20.6,57.5h59.6c2.7-13.9,6.1-28,6.8-39.1
		c2.1-33.2-14.2-62.9-11-70.5c3.2-7.6,4.4-10,6.3-15.4c1.9-5.5,16.8-38.8,17.2-90.2c0.3-40.5-6.1-66.7-6.1-66.7s2,0.6,4.6,0.9v0.3
		c0.5,0,1.1,0,1.6-0.1c0.5,0,1,0.1,1.6,0.1V422c2.6-0.4,4.6-0.9,4.6-0.9s-6,26.5-6,67c0,50.6,15.2,84.5,17,90
		c1.9,5.5,3.1,7.9,6.3,15.4c3.2,7.6-13.2,37.3-11,70.5c0.7,11,4.1,25.1,6.8,39.1h59.6c9.7-26,19.2-52,20.6-57.5
		c2.8-11.6,1.7-39.9,2.2-57.8c0.5-17.9,25.9-19.3,49-156.3c4.1-24.5-20.8-68.9-28.2-74.2c0,0-73.5,15.1-122.4,15.4
		C49.5,372.2-24,357.2-24,357.2c-7.4,5.2-32.3,49.7-28.2,74.2C-29.2,568.3-3.8,569.7-3.3,587.6z"/>
	<g class="st4">
		<path class="st5" d="M301.8,401.7l-33.6,0.9c0,0-36.1-69.1-38.4-73.6c-2.2-4.5-13.9-62.2-16.7-81.2c-4.7-32.4-25-93.9-14.7-91
			c14.8,4.2,31.3,8.2,55.4,36.9c6,7.1,17.1,24,18.7,35c2.9,19.8,8.7,57.8,10.6,62.2c3,7.1,11.7,32.8,13.6,41.8
			C298.7,341.7,301.8,401.7,301.8,401.7z"/>
		<path class="st5" d="M266.7,469.8c0,0,4.5,4.2,7.2,6.8c2.7,2.6,33.6-30,33-35.4c-0.7-5.4-4.8-39.5-4.8-39.5l-33.7,0.9l-0.7,26.9
			l6.8,27.9L266.7,469.8z"/>
		<path class="st6" d="M287.1,435.7c0,0-4.9,23.9-5.8,25c-0.9,1.1-5.9,0.4-5.9,0.4l-7.7-31.5l0-10.4L287.1,435.7z"/>
	</g>
	<polygon class="st7" points="225.4,293.9 210.9,251.1 220.1,295.6 	"/>
	<g class="st4">
		<path class="st5" d="M-104.3,401.7l33.6,0.9c0,0,36.1-69.1,38.4-73.6c2.2-4.5,13.9-62.2,16.7-81.2c4.7-32.4,25-93.9,14.7-91
			c-14.8,4.2-31.3,8.2-55.4,36.9c-6,7.1-17.1,24-18.7,35c-2.9,19.8-8.7,57.8-10.6,62.2c-3,7.1-11.7,32.8-13.6,41.8
			C-101.2,341.7-104.3,401.7-104.3,401.7z"/>
		<path class="st5" d="M-69.2,469.8c0,0-4.5,4.2-7.2,6.8c-2.7,2.6-33.6-30-33-35.4c0.7-5.4,4.8-39.5,4.8-39.5l33.7,0.9l0.7,26.9
			l-6.8,27.9L-69.2,469.8z"/>
		<path class="st6" d="M-89.6,435.7c0,0,4.9,23.9,5.8,25c0.9,1.1,5.9,0.4,5.9,0.4l7.7-31.5l0-10.4L-89.6,435.7z"/>
	</g>
	<path class="st8" d="M55.9,99.7c0,0-5.2-6-5.6-7.2c-0.3-1.2-3.7-12.6-2.6-14.6c1.2-2,3.4-3.2,5.3-0.6c1.9,2.6,1.9,2.6,1.9,2.6
		s0.5,5.7,1.5,10.8C57.4,95.8,59.7,102.1,55.9,99.7z"/>
	<path class="st8" d="M141,100c0,0,5.2-6,5.5-7.2c0.4-1.2,3.7-12.6,2.6-14.6c-1.1-2-3.3-3.2-5.3-0.6c-1.9,2.6-1.9,2.6-1.9,2.6
		s-0.5,5.7-1.5,10.8C139.4,96.1,137.2,102.5,141,100z"/>
	<path class="st9" d="M26.5,291.1c-21.8-1.9-42.5-9.2-43-29.4C-17,241.6-9,236-7.7,228c0.9-5.3,2.4-15.6,2.4-15.6s39.5-6.7,60.5,2.3
		c20.9,8.9,33.4,15.6,34.8,30.6C94.1,266.5,63.4,292.6,26.5,291.1z"/>
	<path class="st10" d="M228.5,329.2c-5.2-22.3-9.3-27.9-9-47c0.5-33-12.8-42.5-7-71.4c4.2-21-7.1-51-12.4-53.2
		c-9.1-4-70-17.3-70.3-18.5c-0.7-3.6,0-23.3,0-23.3H102h-2.4h-0.7h-0.3h-0.7h-2.4H67.8c0,0,0.7,19.7,0,23.3
		c-0.3,1.2-61.2,14.6-70.3,18.5c-5.3,2.3-16.5,32.2-12.4,53.2c5.7,28.9-7.5,38.4-7,71.4c0.3,19.1-3.9,24.7-9,47
		c-4.3,18.5,7.3,28.6,7.3,28.6s16.1,30.7,122.4,32.8v0h0.1h0.1v0c106.3-2.1,122.4-32.8,122.4-32.8S232.8,347.7,228.5,329.2z"/>
	<path class="st9" d="M171,291.1c21.8-1.9,42.5-9.2,43-29.4c0.6-20.2-7.4-25.8-8.8-33.8c-0.9-5.3-2.4-15.6-2.4-15.6
		s-39.5-6.7-60.5,2.3c-20.9,8.9-33.4,15.6-34.8,30.6C103.4,266.5,134,292.6,171,291.1z"/>
	<path class="st11" d="M124.5,37.6c-6.4-3.6-16.1-5.2-25.4-5.1c-9.2,0-18.9,1.6-25.3,5.1c-18.6,10-23.9,30.6-20,52.5
		c1.2,6.7,6.2,17.9,8.4,22.1c5.7,11,13.8,14.8,18.3,17c5.2,2.5,10.5,4.4,18.6,4.4c8.1-0.1,13.4-2,18.7-4.4c4.4-2.1,12.1-5.7,17.8-16
		c2.4-4.4,7-15,8.3-22.2C147.8,69,141.9,47.3,124.5,37.6z"/>
	<path class="st12" d="M103,127.9c-1.4,0.1-2.7,0.1-3.9,0.1c-1.2,0-2.5,0-3.9-0.1c-5.9-0.3-18.6-7.2-18.6-7.2
		c9.9,8.9,17,9.8,22.6,9.5c5.6,0.3,12.7-0.7,22.6-9.5C121.6,120.6,108.9,127.6,103,127.9z"/>
	<path class="st13" d="M219.9,295.4l5.4-1.2l64.1-20.1c0,0-14.2-68.8-37.9-90.3c-28.7-26.1-91.6-37.3-91.6-37.3
		s-20.7,14.4-61.3,14.1c-43.2-0.5-61.3-14.1-61.3-14.1s-62.9,11.2-91.6,37.3c-23.7,21.5-37.9,90.3-37.9,90.3l64.1,20.1l5.4,1.2
		c0,0-5.7,19.4-20,61.3c-21.9,64.1-7.6,101.1-7.6,101.1h297.8c0,0,14.3-37-7.6-101.1C225.6,314.7,219.9,295.4,219.9,295.4z"/>
	<polygon class="st7" points="-28.2,294.3 -14.1,250 -22.7,295.5 	"/>
	<g class="st4">
		<path class="st14" d="M163,254.2c0,0.8-0.8,1.4-1.9,1.4H59.3c-1,0-1.9-0.7-1.9-1.4l0,0c0-0.8,0.8-1.5,1.9-1.5h101.9
			C162.1,252.8,163,253.4,163,254.2L163,254.2z"/>
		<path class="st15" d="M163.6,278.8c0,3.7-3.3,6.8-7.4,6.8H64.2c-4.1,0-7.4-3-7.4-6.8l0,0c0-3.7,3.3-6.8,7.4-6.8h92.1
			C160.3,272.1,163.6,275.1,163.6,278.8L163.6,278.8z"/>
		<path class="st16" d="M163.6,263.9c0,3-3.3,5.5-7.4,5.5H64.2c-4.1,0-7.4-2.4-7.4-5.5l0,0c0-3,3.3-5.5,7.4-5.5h92.1
			C160.3,258.4,163.6,260.9,163.6,263.9L163.6,263.9z"/>
		<path class="st15" d="M162.3,243.1c-2.7-21.6-25-32.1-52.1-32.1c-27.1,0-49.4,10.5-52.1,32.1H162.3z"/>
		<g>
			<path class="st17" d="M77.9,250.9c-0.2,0-0.3,0-0.5,0c-7.4-0.2-19-2.8-19.5-2.9c-0.8-0.2-1.3-0.8-1-1.5c0.2-0.6,1.1-1,1.9-0.8
				c0.1,0,11.7,2.6,18.7,2.8c3.7,0,10.3-0.8,16.7-1.7c6.1-0.8,11.9-1.6,15.8-1.7h0.4c3.9,0.1,9.7,0.8,15.8,1.7
				c6.4,0.9,12.9,1.7,16.7,1.7c7-0.1,18.6-2.8,18.7-2.8c0.8-0.2,1.7,0.2,1.9,0.8c0.2,0.6-0.2,1.3-1,1.5c-0.5,0.1-12.1,2.7-19.5,2.9
				c-4,0-10.8-0.8-17.3-1.7c-5.7-0.8-11.7-1.6-15.3-1.6c-3.9,0.1-9.9,0.9-15.6,1.6C88.4,250.1,82,250.9,77.9,250.9z"/>
		</g>
	</g>
	<g class="st4">
		<path class="st18" d="M21.7,324.7v-5.4c0.8,0,1.2-0.3,1.2-0.9v-19.9c0-0.6-0.4-0.9-1.2-0.9v-5.4h15.1v5.4c-0.8,0-1.2,0.3-1.2,0.9
			v19.9c1,0,1.8-0.2,2.5-0.6c0.7-0.4,1-1,1-1.7v-4.1h11.6v12.8H21.7z"/>
		<path class="st18" d="M74.5,291.2c3.9,0,7.2,0.7,10,2.1c2.7,1.4,4.1,3.1,4.1,5.1v19.9c0,2-1.4,3.7-4.1,5.1
			c-2.7,1.4-6.1,2.1-10,2.1H71c-3.9,0-7.2-0.7-9.9-2.1c-2.7-1.4-4.1-3.1-4.1-5.1v-19.9c0-2,1.4-3.7,4.1-5.1c2.7-1.4,6-2.1,9.9-2.1
			H74.5z M71,299.4v18.1c0,0.3,0.2,0.5,0.5,0.6c0.3,0.2,0.7,0.3,1.2,0.3c0.5,0,0.9-0.1,1.2-0.3c0.4-0.2,0.5-0.4,0.5-0.6v-18.1
			c0-0.2-0.2-0.4-0.5-0.6c-0.3-0.2-0.7-0.3-1.2-0.3c-0.5,0-0.9,0.1-1.2,0.3C71.2,298.9,71,299.1,71,299.4z"/>
		<path class="st18" d="M111.2,310.2l2.3-11.8c0-0.6-0.4-0.9-1.2-0.9v-5.4h15.1v5.4c-0.8,0-1.2,0.3-1.2,0.9l-5.8,26.3h-18.6l-7-26.3
			c0-0.6-0.4-0.9-1.2-0.9v-5.4h16.3v5.4c-0.8,0-1.2,0.3-1.2,0.9L111.2,310.2z"/>
		<path class="st18" d="M132.4,319.3c0.8,0,1.2-0.3,1.2-0.9v-19.9c0-0.3-0.1-0.5-0.4-0.7c-0.2-0.2-0.5-0.2-0.8-0.2v-5.4h31.4V303
			H151v-2.5c0-1.4-1.2-2.1-3.5-2.1v5.4h7v7.2h-7v7.2c2.3,0,3.5-0.7,3.5-2v-4.2h12.8v12.6h-31.4V319.3z"/>
	</g>
	<g class="st4">
		<g>
			<path class="st18" d="M23.3,274.2v-36.7c0-1.1-0.7-1.7-2.1-1.7v-10h30v10c-1.4,0-2.1,0.6-2.1,1.7v36.7c0,1.1,0.7,1.7,2.1,1.7v10
				h-30v-10C22.6,275.9,23.3,275.3,23.3,274.2z"/>
		</g>
	</g>
	<path class="st19" d="M111.6,26.5c0,0,23.3,5.1,37.9,26.4c14.3,21,20.1,42.9,18.7,62.9c-1.4,20-9.9,34.8-14.4,38.8
		c-4.5,4-12.4,11.5-17.2,13.8c-4.8,2.3-16.7-18.3-16.1-22c2.4-14.5,17.6-40.4,17.2-58.1c-0.9-44-24.4-46.6-24.7-47.5
		C108.9,28.6,111.6,26.5,111.6,26.5z"/>
	<path class="st20" d="M131.5,113.9c0,0,10-16.4,5.5-36.5c-7.1-31.9-23.9-36.5-23.9-36.5s21.4,5.9,28.9,29.4
		C146.1,83,147.2,102.1,131.5,113.9z"/>
	<path class="st19" d="M61.6,168.7c-2.4,2-28.2-6.4-31.3-32C25.2,94,28.9,76.4,43.8,49.8c14.9-26.6,49.2-17,49.2-17
		S62.2,66,60.7,75.7c-1.6,9.7-2.3,24.3-0.1,33.3c2.7,11.1,6.9,21,10.9,34.6C73,148.6,64.1,166.7,61.6,168.7z"/>
	<g class="st4">
		<path class="st21" d="M106.3,96c-2.5-1.1-5.1,0.3-7.5,0.5c-2.4-0.1-4.9-1.5-7.4-0.4c-2,0.9-2.6,1.7-2.5,2.9c0.1,0.9,7,0.7,9.9,0.6
			c3,0.1,9.9,0.3,9.9-0.6C108.8,97.7,108.4,96.9,106.3,96z"/>
		<path class="st22" d="M90.7,98.4c-0.1-0.4,0.6-0.9,1.2-1.1c0.9-0.3,1.2-0.3,2.8,0c1.6,0.3,2,0.8,1.7,1.1
			C96.1,98.7,90.8,98.8,90.7,98.4z"/>
		<path class="st22" d="M107,98.4c0.1-0.4-0.6-0.9-1.2-1.1c-0.9-0.3-1.2-0.3-2.8,0c-1.6,0.3-2,0.8-1.7,1.1
			C101.6,98.7,106.9,98.8,107,98.4z"/>
		<path class="st23" d="M102.2,77.4l1.4,12.3c0,0,1.1,2.4,2.5,3.2c1.1,0.6,1.4,0.9,1.4,0.9L102.2,77.4z"/>
		<g>
			<path class="st24" d="M98.9,106.6c-0.2,0-0.4,0-0.6-0.1c-0.6-0.1-2.9-0.7-5.2-0.4c-2.3,0.4-8.5,3.6-8.5,3.6s12.3,0.5,14.3,0.4
				V106.6z"/>
			<path class="st25" d="M98.9,106.6c0.2,0,0.4,0,0.6-0.1c0.6-0.1,2.9-0.7,5.2-0.4c2.2,0.4,8.5,3.6,8.5,3.6s-12.3,0.5-14.3,0.4
				V106.6z"/>
			<path class="st26" d="M98.9,110c-3.8-0.2-13.5-1-14.4-0.1c0,0,4.2,4.3,6.8,5.2c1.8,0.6,3.5,0.8,5.1,0.9l0,0c0,0,0,0,1.2,0
				c0.4,0,0.8,0,1.1,0c0.4,0,0.7,0,1.1,0c1.2,0,1.2,0,1.2,0v0c1.6-0.1,3.4-0.2,5.1-0.9c2.6-0.9,6.8-5.2,6.8-5.2
				C112.3,109,102.7,109.8,98.9,110z"/>
		</g>
		<path class="st27" d="M90.7,68.2c0.9,0.3,1.2,1.1,0.7,2.1c-0.1,0.3-0.5,0.8-1.4,0.9c-0.8,0-12.6-4.1-16.5-3.6
			c-3.9,0.5-7.1,0.9-8.2,1.2c-1.1,0.3-1.9,0.5-1-0.3c0.9-0.8,6.2-2.7,8.9-3.4c2.7-0.6,4.6-0.1,6.9,0.2
			C82.5,65.5,89.8,67.8,90.7,68.2z"/>
		<g>
			<path class="st28" d="M89.9,78.9l-0.3,0.8c0,0-1.3,1.9-7.4,2C75,81.8,72.1,80,70.8,79c-1.4-1-1.4-1-1.4-1s3.6-3.3,7.6-3.2
				C81.1,74.9,86.6,75.1,89.9,78.9z"/>
			<g>
				<path class="st29" d="M85.4,77.8c0.1,2.1-2.2,3.8-5.1,3.9c-2.9,0-5.3-1.6-5.3-3.7c0-2.1,2.2-3.8,5.1-3.9
					C82.9,74.1,85.3,75.8,85.4,77.8z"/>
				<path class="st30" d="M83.5,77.9c0,1.5-1.5,2.7-3.3,2.7c-1.9,0-3.4-1.1-3.4-2.6c0-1.5,1.4-2.6,3.3-2.7
					C81.9,75.3,83.5,76.4,83.5,77.9z"/>
			</g>
			<path class="st31" d="M82.2,81.2c-3.3,0.1-5.3,0.1-7.8-0.7c-2.6-0.8-5-2.6-5-2.6s1.5,2,3,2.9c1.5,0.9,7.3,3.2,13.8,0.7l2.3-1
				C88.6,80.5,85.4,81.2,82.2,81.2z"/>
			<path class="st23" d="M89.9,78.5c0,0-1.5-4.5-6.1-6.2c-3.9-1.4-7.3-0.9-10,0.2c-2.8,1.1-4.4,4-4.4,4s3.7-2.2,8-2.4
				C81.8,73.8,86.8,76.1,89.9,78.5z"/>
			<path class="st32" d="M90.1,78.9c0,0-2.5-4.6-6.3-6.1c-3.8-1.5-7.2-0.9-10,0.2C71,74.1,69,77,69,77s4.1-2.2,8.5-2.4
				C81.8,74.4,87,76.6,90.1,78.9z"/>
			<path class="st33" d="M67.5,77c0,0,5.3-3.3,11.8-2.9c5.6,0.3,10.9,4.8,10.9,4.8s-7.2-3.8-11.6-3.7c-3.6,0.1-9.1,2.9-9.1,2.9
				L67.5,77z"/>
		</g>
		<path class="st27" d="M106.9,68.2c-0.9,0.3-1.2,1.1-0.7,2.1c0.1,0.3,0.5,0.8,1.4,0.9c0.8,0,12.4-4.1,16.3-3.6
			c3.9,0.5,7.2,0.9,8.4,1.2c1.1,0.3,1.9,0.5,1-0.3c-0.9-0.8-6.2-2.7-8.9-3.4c-2.7-0.6-4.6-0.1-6.9,0.2
			C115.2,65.5,107.8,67.8,106.9,68.2z"/>
		<g>
			<path class="st28" d="M107.8,78.9l0.3,0.8c0,0,1.3,1.9,7.4,2c7.2,0.1,10.1-1.6,11.4-2.7c1.4-1,1.4-1,1.4-1s-3.6-3.3-7.6-3.2
				C116.6,74.9,111,75.1,107.8,78.9z"/>
			<g>
				<path class="st29" d="M112.3,77.8c-0.1,2.1,2.2,3.8,5.1,3.9c2.9,0,5.3-1.6,5.3-3.7c0.1-2.1-2.2-3.8-5.1-3.9
					C114.7,74.1,112.4,75.8,112.3,77.8z"/>
				<path class="st30" d="M114.2,77.9c0,1.5,1.4,2.7,3.3,2.7c1.9,0,3.4-1.1,3.4-2.6c0-1.5-1.5-2.6-3.3-2.7
					C115.7,75.3,114.2,76.4,114.2,77.9z"/>
			</g>
			<path class="st31" d="M123.3,80.6c-2.6,0.8-4.6,0.8-7.8,0.7c-3.3-0.1-6.4-0.7-6.4-0.7l2.3,1c6.5,2.5,12.3,0.3,13.8-0.7
				c1.5-0.9,3.1-2.9,3.1-2.9S125.9,79.8,123.3,80.6z"/>
			<path class="st23" d="M107.8,78.5c0,0,1.5-4.5,6.1-6.2c3.9-1.4,7.2-0.9,10,0.2c2.8,1.1,4.4,4,4.4,4s-3.7-2.2-8-2.4
				C115.8,73.8,110.9,76.1,107.8,78.5z"/>
			<path class="st32" d="M107.5,78.9c0,0,2.5-4.6,6.3-6.1c3.8-1.5,7.2-0.9,10,0.2c2.8,1.1,4.8,4,4.8,4s-4.1-2.2-8.5-2.4
				C115.8,74.4,110.7,76.6,107.5,78.9z"/>
			<path class="st33" d="M130.2,77c0,0-5.3-3.3-11.8-2.9c-5.6,0.3-10.9,4.8-10.9,4.8s7.2-3.8,11.6-3.7c3.6,0.1,9.2,2.9,9.2,2.9
				L130.2,77z"/>
		</g>
	</g>
	<path class="st20" d="M111.6,26.5c0,0-5.4-2.8-18.6-2.8c-13.2,0-33.2,6-43.9,18.8c-10.6,12.8-15,37.8-15,50.2s0.3,12.9,0.3,12.9
		S58.5,87,70.5,66.7c11.9-20.2,42.7-25.8,42.7-25.8S110.8,28.6,111.6,26.5z"/>
</g>
</svg>
