<?xml version="1.0" encoding="utf-8"?>
<!-- Generator: Adobe Illustrator 23.0.4, SVG Export Plug-In . SVG Version: 6.00 Build 0)  -->
<svg version="1.0" id="Layer_1" xmlns="http://www.w3.org/2000/svg" xmlns:xlink="http://www.w3.org/1999/xlink" x="0px" y="0px"
	 viewBox="0 0 200 200" style="enable-background:new 0 0 200 200;" xml:space="preserve">
<style type="text/css">
	.st0{clip-path:url(#SVGID_2_);}
	.st1{fill:#C6C6C8;}
	.st2{fill:#FFFFFF;}
	.st3{fill:#C0846B;}
	.st4{fill:#E7AC91;}
	.st5{fill:#DFA991;}
	.st6{fill:#E9B5A1;}
	.st7{fill:#DFA998;}
	.st8{fill:#EAB8A3;}
	.st9{fill:#BB9C87;}
	.st10{fill:#819898;}
	.st11{fill:#4EA73B;}
	.st12{fill:#DCA48D;}
	.st13{fill:#E4C4A0;}
	.st14{fill:#D09985;}
	.st15{fill:#AE7568;}
	.st16{fill:#D29B8B;}
	.st17{fill:#DA8989;}
	.st18{fill:#CD7878;}
	.st19{fill:#E79D9D;}
	.st20{fill:#9A7A6F;}
	.st21{fill:#F3F0E9;}
	.st22{fill:#6E9BAE;stroke:#455760;stroke-width:9.516300e-02;}
	.st23{fill:#1B1C1C;}
	.st24{fill:#AE796D;}
	.st25{fill:#EEBFB5;}
	.st26{fill:#2A2432;}
	.st27{fill:#ECCCAD;}
	.st28{fill:#F3F3F3;}
	.st29{fill:#F8F8F8;}
	.st30{fill:#F7F7F8;}
	.st31{fill:#C7C9D5;}
	.st32{fill:#C7D5DA;}
	.st33{fill:#A0B5B6;}
	.st34{fill:none;stroke:#859D9D;stroke-miterlimit:10;}
	.st35{fill:#859D9D;}
</style>
<g>
	<defs>
		<rect id="SVGID_1_" width="200" height="200"/>
	</defs>
	<use xlink:href="#SVGID_1_"  style="overflow:visible;fill:#D2FFED;"/>
	<clipPath id="SVGID_2_">
		<use xlink:href="#SVGID_1_"  style="overflow:visible;"/>
	</clipPath>
	<g class="st0">
		<path class="st1" d="M64.6,131.1c0,0,12-1.6,29.1-2.1c17-0.5,6.2-0.2,14.7-0.2c8.5,0,25.2,2.3,25.2,2.3s5.5,9,5.9,12.3
			c0.4,3.2-11.8,17.3-32,17.6c-20.1,0.3-25.3-1.3-25.3-1.3S58.5,148,60.6,142.4C62.7,136.7,64.6,131.1,64.6,131.1z"/>
		<path class="st2" d="M139.1,150.2c0,1.2-1.3,2.2-2.8,2.2c-1.6,0-2.8-1-2.8-2.2c0-1.2,1.2-2.2,2.8-2.2
			C137.8,148.1,139.1,149,139.1,150.2z"/>
		<path class="st2" d="M181.9,203.7"/>
		<path class="st3" d="M241.9,404h-25.1c0,0-26.2-73.3-27.7-77.9c-1.5-4.7-7.9-60.3-10.8-79.2c-3-18.9-5.5-91.5,3.6-90
			c13.7,2.2,34.6,11.4,36.1,34.1c0.6,8.5,1.4,25.9,1.7,37c0.5,19.9,0.9,59.8,2.1,64.3c1.9,7.3,12.4,32.6,13.1,41.6
			C235.5,343,241.9,404,241.9,404z"/>
		<path class="st3" d="M-43.6,404h25.1c0,0,26.2-73.3,27.7-77.9c1.5-4.7,7.9-60.3,10.8-79.2c3-18.9,5.5-91.5-3.6-90
			c-13.7,2.2-34.6,11.4-36.1,34.1c-0.6,8.5-1.4,25.9-1.7,37c-0.5,19.9-0.9,59.8-2.1,64.3c-1.9,7.3-12.3,32.6-13.1,41.6
			C-37.3,343-43.6,404-43.6,404z"/>
		<path class="st4" d="M163.5,290.4c3.6-23.6,11.3-56.5,21.1-76c9.7-19.5,16.5-50.8,11.9-53.1c-8.1-4-15.2-4.8-28.3-7.5
			c-13.1-2.6-42.1-14.5-42.3-15.7c-0.7-3.6,0-23.3,0-23.3h-24.6h-2.1H97H72.4c0,0,0.6,19.7,0,23.3c-0.2,1.2-29.2,13.1-42.3,15.7
			c-13.1,2.6-19.5,3.4-28.4,7.5c-4.7,2.2,2.2,33.5,11.9,53c9.7,19.5,17.4,52.4,21.1,76c2.9,18.9,4.4,23.4-7.6,43.5
			c-11.2,18.9-15.6,27.4-15.6,27.4s54.1,6.4,87.6,6.5c33.5-0.1,87.7-6.5,87.7-6.5s-4.4-8.5-15.6-27.4
			C159.2,313.8,160.6,309.4,163.5,290.4z"/>
		<path class="st5" d="M-5.3,469.2c0,0-3.5,4.5-5.6,7.3c-2.1,2.8-32.9-27.4-32.9-32.8c0-5.4,0-39.7,0-39.7h25.1l8.2,25.2l-3,28.3
			L-5.3,469.2z"/>
		<path class="st6" d="M-27,436.7c0,0,6.9,23.4,7.9,24.5c0.9,1,5.2,0,5.2,0l3.4-31.9l-3.3-10.1L-27,436.7z"/>
		<path class="st5" d="M203.5,469.2c0,0,3.6,4.5,5.6,7.3c2.1,2.8,32.9-27.4,32.9-32.8c0-5.4,0-39.7,0-39.7H217l-8.2,25.2l3,28.3
			L203.5,469.2z"/>
		<path class="st7" d="M50.1,262.9c-14.8-1.4-28.9-7.1-29.2-22.5c-0.4-15.4,5.1-19.7,6-25.8c0.6-4.1,1.6-11.9,1.6-11.9
			s26.9-5.1,41.1,1.7c14.2,6.8,22.7,11.9,23.6,23.4C96,244.1,75.1,264,50.1,262.9z"/>
		<path class="st6" d="M225.2,436.7c0,0-6.9,23.4-7.9,24.5c-0.9,1-5.2,0-5.2,0l-3.4-31.9l3.3-10.1L225.2,436.7z"/>
		<path class="st7" d="M148.6,262.9c14.8-1.4,28.8-7.1,29.2-22.5c0.4-15.4-5.1-19.7-6-25.8c-0.6-4.1-1.6-11.9-1.6-11.9
			s-26.9-5.1-41.1,1.7c-14.2,6.8-22.7,11.9-23.6,23.4C102.7,244.1,123.5,264,148.6,262.9z"/>
		<path class="st8" d="M122.9,32.9c-6.1-3.5-15.2-5.2-23.9-5.1c-8.7,0-17.8,1.6-23.9,5.1C55.1,44.4,55.7,67.2,59.3,89.1
			c4,24,16.3,30.2,22.1,33.2c4.9,2.5,9.9,4.4,17.6,4.4c7.6-0.1,12.6-2,17.6-4.4c5.9-2.9,18.1-9.1,22.1-33.2
			C142.4,67.2,143,44.4,122.9,32.9z"/>
		<path class="st5" d="M99,425.8v-58.6c-34.4,0-87.3-6.5-87.3-6.5C6.5,366-5,410.8,0,434.9c2.9,14,30.4,156.3,30.4,156.3
			s-4.5,46.2-2.5,57.8c2,11.6,30,115.7,30,115.7c-4.4,13.2-7.8,27.3-7.8,27.3l10.5,17.2l26.6-12.1L86,784.4l-0.2-22.6
			c0,0-3.4-11-3.8-26.2c-0.5-20.6,2.1-49.1,3-68.2c1.5-33.2-6-62.9-3.7-70.5c2.3-7.6,3.1-10,4.5-15.4c1.3-5.5-0.4-16.9,0.9-24.8
			c1.3-7.9,3.6-25,8.1-65.2c4.5-40.2-5.3-67-5.3-67S96.2,425.8,99,425.8z"/>
		<path class="st5" d="M99,425.8v-58.6c34.4,0,87.3-6.5,87.3-6.5c5.2,5.2,16.8,50.1,11.8,74.2c-2.9,14-30.4,156.3-30.4,156.3
			s4.5,46.2,2.5,57.8c-2,11.6-29.9,115.7-29.9,115.7c3.4,11.6,7.5,24.9,7.5,24.9l-3,19.5l-33.9-12.9l0.6-15.4l0.8-19.1
			c0,0,3.4-11,3.7-26.2c0.5-20.6-2.1-49.1-3-68.2c-1.5-33.2,6-62.9,3.7-70.5s-3.1-10-4.4-15.4c-1.3-5.5,0.4-16.9-0.9-24.8
			c-1.3-7.9-3.6-25-8.1-65.2c-4.5-40.2,5.2-67,5.2-67S101.8,425.8,99,425.8z"/>
		<path class="st9" d="M130.6,813.5c22-0.7,19.4-9.9,18.9-16.2c-0.4-6.3-9.1-31.6-9.1-31.6s5.7,18.9,5.8,23.1
			c0.1,4.2-0.2,8.6-11.3,9.1c-11.1,0.4-23.9,2.8-23.2-7.7c0.7-10.5,1-33.5,2.5-36.1c1.5-2.6,2.8-5.6,2.8-5.6s-5.3,2.7-5.8,6.3
			c-0.4,3.5-0.9,41.1-0.9,43.1C110.3,805.7,110.7,814.2,130.6,813.5z"/>
		<path class="st9" d="M67.3,813.5c-22-0.7-19.4-9.9-18.9-16.2c0.5-6.3,9.1-31.6,9.1-31.6s-5.7,18.9-5.8,23.1
			c-0.1,4.2,0.2,8.6,11.4,9.1c11.1,0.4,23.9,2.8,23.2-7.7c-0.7-10.5-1-33.5-2.5-36.1c-1.5-2.6-2.8-5.6-2.8-5.6s5.3,2.7,5.8,6.3
			c0.4,3.5,0.9,41.1,0.9,43.1C87.6,805.7,87.2,814.2,67.3,813.5z"/>
		<path class="st10" d="M172.5,334.1c-11.4-18.8-5.1-23.9-2.6-39.9H28.3c2.5,16,8.7,21.1-2.6,39.9c-9.8,16.1-14.4,24.6-15.6,26.8
			C4.7,366.3-7,411-1.9,435.1c1.8,8.5,12.9,64.5,21.3,107h159.4c8.4-42.5,19.5-98.5,21.3-107c5-23.7-6.3-67.4-11.8-73.8
			C187.4,359.6,182.8,351.1,172.5,334.1z"/>
		<polygon class="st11" points="34,294.3 164.2,294.3 166.9,284.2 30.9,284.2 		"/>
		<path class="st8" d="M122.9,35.5c-6.1-3.5-15.2-5.1-23.9-5.1c-8.7,0-17.8,1.6-23.9,5.1c-20.1,11.5-19.5,32-15.8,54
			c4,24,16.3,30.2,22.2,33.2c4.9,2.5,9.9,4.4,17.6,4.4c7.6-0.1,12.6-2,17.6-4.4c5.9-3,18.1-9.1,22.1-33.2
			C142.4,67.5,143,47,122.9,35.5z"/>
		<path class="st12" d="M58.7,98c0,0-5.2-6-5.5-7.2c-0.3-1.2-3.7-12.6-2.6-14.6c1.1-2,3.3-3.2,5.3-0.6c1.9,2.6,1.9,2.6,1.9,2.6
			s0.5,5.7,1.5,10.8C60.2,94,62.5,100.4,58.7,98z"/>
		<path class="st12" d="M139.4,98c0,0,5.2-6,5.5-7.2c0.4-1.2,3.7-12.6,2.6-14.6c-1.1-2-3.4-3.2-5.3-0.6c-1.9,2.6-1.9,2.6-1.9,2.6
			s-0.5,5.7-1.5,10.8C137.9,94,135.6,100.4,139.4,98z"/>
		<path class="st13" d="M139.5,85.3c0,0,6.8-13.5,8-22.7c1.4-11.1-0.2-26.1-15-34.7c-11.6-6.7-26.2-8.4-41.4-7.7
			c-22.5,1.1-34.8,13.5-38.6,24.4c-5.4,15.6,6.1,40.6,6.1,40.6s3-25.6,13.4-32.4c10.4-6.8,38.4-17.3,38.4-17.3s6.7,5.9,14.9,12.2
			C133.5,54.3,139.8,69.1,139.5,85.3z"/>
		<g>
			<path class="st14" d="M106.9,94.8c-2.5-1.1-5.1,0.3-7.5,0.5c-2.4-0.1-4.9-1.5-7.4-0.4c-2,0.9-2.6,1.7-2.5,2.9
				c0.1,0.9,7,0.7,9.9,0.6c3,0.1,9.9,0.3,9.9-0.6C109.4,96.5,108.9,95.7,106.9,94.8z"/>
			<path class="st15" d="M91.3,97.2c-0.1-0.4,0.6-0.9,1.2-1.1c0.9-0.3,1.2-0.3,2.8,0c1.6,0.3,2,0.8,1.7,1.1
				C96.7,97.4,91.4,97.6,91.3,97.2z"/>
			<path class="st15" d="M107.6,97.2c0.1-0.4-0.6-0.9-1.2-1.1c-0.9-0.3-1.2-0.3-2.8,0c-1.6,0.3-2,0.8-1.7,1.1
				C102.2,97.4,107.5,97.6,107.6,97.2z"/>
			<path class="st16" d="M102.8,76.2l1.4,12.3c0,0,1.1,2.4,2.5,3.2c1.1,0.6,1.4,0.9,1.4,0.9L102.8,76.2z"/>
			<g>
				<path class="st17" d="M99.5,105.4c-0.2,0-0.4,0-0.6-0.1c-0.6-0.1-2.9-0.7-5.2-0.4c-2.3,0.4-8.5,3.6-8.5,3.6s12.3,0.4,14.3,0.4
					V105.4z"/>
				<path class="st18" d="M99.5,105.4c0.2,0,0.4,0,0.6-0.1c0.6-0.1,2.9-0.7,5.2-0.4c2.2,0.4,8.5,3.6,8.5,3.6s-12.3,0.4-14.3,0.4
					V105.4z"/>
				<path class="st19" d="M99.5,108.8c-3.8-0.2-13.5-1-14.4-0.1c0,0,4.2,4.3,6.8,5.2c1.8,0.6,3.5,0.8,5.1,0.9v0c0,0,0,0,1.2,0
					c0.4,0,0.8,0,1.1,0c0.4,0,0.7,0,1.1,0c1.2,0,1.2,0,1.2,0v0c1.6-0.1,3.4-0.2,5.1-0.9c2.6-0.9,6.8-5.2,6.8-5.2
					C112.9,107.8,103.3,108.5,99.5,108.8z"/>
			</g>
			<path class="st20" d="M91.3,67.4c0.9,0.3,1.2,1.1,0.7,2.1c-0.1,0.3-0.5,0.8-1.4,0.8c-0.8,0-2.1-0.6-3.5-1.3c-3-1.5-9-3.5-12.9-3
				c-3.9,0.5-7.2,1.6-8.3,1.9c-1.1,0.3-1.9,0.5-1-0.3c0.9-0.8,6.2-2.7,8.9-3.4c2.7-0.6,4.6-0.1,6.9,0.2
				C83.1,64.8,90.4,67.1,91.3,67.4z"/>
			<g>
				<path class="st21" d="M90.5,77.7l-0.3,0.8c0,0-1.4,1.9-7.4,2c-7.2,0.1-10.1-1.6-11.5-2.7c-1.4-1-1.4-1-1.4-1s3.6-3.3,7.6-3.2
					C81.7,73.7,87.2,73.9,90.5,77.7z"/>
				<g>
					<path class="st22" d="M86,76.6c0.1,2.1-2.2,3.8-5.1,3.9c-2.9,0-5.3-1.6-5.3-3.7c-0.1-2.1,2.3-3.8,5.1-3.9
						C83.5,72.9,85.9,74.5,86,76.6z"/>
					<path class="st23" d="M84.1,76.6c0,1.5-1.4,2.6-3.3,2.7c-1.9,0-3.4-1.1-3.4-2.6c0-1.4,1.4-2.7,3.3-2.7
						C82.5,74,84.1,75.2,84.1,76.6z"/>
				</g>
				<path class="st24" d="M82.7,80c-3.3,0.1-5.2,0.1-7.8-0.7c-2.6-0.8-5-2.6-5-2.6s1.5,2,3.1,2.9c1.5,0.9,7.3,3.2,13.8,0.7l2.3-1
					C89.2,79.3,86,79.9,82.7,80z"/>
				<path class="st16" d="M90.5,77.3c0,0-1.5-4.6-6.1-6.2c-3.9-1.4-7.3-0.9-10,0.2c-2.8,1.1-4.4,4-4.4,4s3.7-2.2,8-2.4
					C82.4,72.6,87.3,74.9,90.5,77.3z"/>
				<path class="st25" d="M90.7,77.7c0,0-2.5-4.6-6.3-6.1c-3.9-1.5-7.2-0.9-10,0.2c-2.8,1.1-4.8,4-4.8,4s4.1-2.2,8.5-2.4
					C82.4,73.2,87.6,75.4,90.7,77.7z"/>
				<path class="st26" d="M68,75.8c0,0,5.3-3.3,11.8-2.9c5.6,0.3,10.9,4.8,10.9,4.8s-7.2-3.8-11.6-3.8C75.5,74,70,76.9,70,76.9
					L68,75.8z"/>
			</g>
			<path class="st20" d="M107.5,67.4c-0.9,0.3-1.2,1.1-0.7,2.1c0.1,0.3,0.5,0.8,1.4,0.8c0.8,0,2.1-0.6,3.5-1.3c3-1.5,9-3.5,12.9-3
				c3.9,0.5,7.2,1.6,8.3,1.9c1.1,0.3,1.9,0.5,1-0.3c-0.9-0.8-6.2-2.7-8.9-3.4c-2.7-0.6-4.6-0.1-6.9,0.2
				C115.8,64.8,108.4,67.1,107.5,67.4z"/>
			<g>
				<path class="st21" d="M108.3,77.7l0.3,0.8c0,0,1.3,1.9,7.4,2c7.2,0.1,10.1-1.6,11.4-2.7c1.4-1,1.4-1,1.4-1s-3.5-3.3-7.6-3.2
					C117.1,73.7,111.6,73.9,108.3,77.7z"/>
				<g>
					<path class="st22" d="M112.9,76.6c-0.1,2.1,2.2,3.8,5.1,3.9c2.9,0,5.3-1.6,5.3-3.7c0.1-2.1-2.2-3.8-5.1-3.9
						C115.3,72.9,112.9,74.5,112.9,76.6z"/>
					<path class="st23" d="M114.7,76.6c0,1.5,1.5,2.6,3.3,2.7c1.9,0,3.4-1.1,3.4-2.6c0-1.4-1.4-2.7-3.3-2.7
						C116.3,74,114.8,75.2,114.7,76.6z"/>
				</g>
				<path class="st24" d="M123.9,79.3c-2.6,0.8-4.6,0.8-7.8,0.7c-3.3-0.1-6.4-0.8-6.4-0.8l2.3,1c6.5,2.5,12.3,0.3,13.8-0.7
					c1.5-0.9,3.1-2.9,3.1-2.9S126.5,78.5,123.9,79.3z"/>
				<path class="st16" d="M108.4,77.3c0,0,1.5-4.6,6.1-6.2c3.9-1.4,7.3-0.9,10,0.2c2.8,1.1,4.3,4,4.3,4s-3.7-2.2-8-2.4
					C116.4,72.6,111.5,74.9,108.4,77.3z"/>
				<path class="st25" d="M108.1,77.7c0,0,2.5-4.6,6.3-6.1c3.9-1.5,7.3-0.9,10,0.2c2.8,1.1,4.8,4,4.8,4s-4.1-2.2-8.5-2.4
					C116.4,73.2,111.3,75.4,108.1,77.7z"/>
				<path class="st26" d="M130.8,75.8c0,0-5.3-3.3-11.8-2.9c-5.6,0.3-10.9,4.8-10.9,4.8s7.2-3.8,11.6-3.8c3.6,0.1,9.2,2.9,9.2,2.9
					L130.8,75.8z"/>
			</g>
		</g>
		<path class="st27" d="M60.5,95.3c0,0-10.7-18-5.7-28.2c7.9-15.8,14-19.8,25.3-25.2c11.3-5.4,30.4-7.9,30.4-7.9s2.4,3.3-14.4,15.7
			C79.3,62.1,66,69.6,63.1,78.4C60.5,86.1,60.5,95.3,60.5,95.3z"/>
		<path class="st7" d="M46.3,262.8c-14.2-1.4-27.6-6.7-27.9-21.5c-0.4-14.7,4.8-18.9,5.7-24.7c0.6-3.9,1.5-11.4,1.5-11.4
			s25.7-4.9,39.2,1.7c13.6,6.5,21.7,11.4,22.6,22.4C90.2,244.9,70.3,264,46.3,262.8z"/>
		<path class="st7" d="M151.4,262.8c14.1-1.4,27.5-6.7,27.9-21.5c0.4-14.7-4.8-18.9-5.7-24.7c-0.6-3.9-1.5-11.4-1.5-11.4
			s-25.6-4.9-39.2,1.7c-13.6,6.5-21.7,11.4-22.6,22.4C107.5,244.9,127.4,264,151.4,262.8z"/>
		<path class="st28" d="M19.8,248.5l-3.9,20.3l-42.3-26.5c0,0-2.2-68,18.5-76.8c6.4-2.7,58.1-18.7,58.1-18.7l13.1-10.7
			c0,0,10.3,12.4,17.4,14.9c7.1,2.5,23.4,10,27,23.9c3.5,13.9,1.9,178.6,1.9,178.6L14,354c0,0,6.4-62.6,6.4-70.1
			C20.4,276.5,19.8,248.5,19.8,248.5z"/>
		<path class="st28" d="M178.3,248.5l3.9,20.3l42.3-26.5c0,0,2.2-68-18.5-76.8c-6.4-2.7-58.1-18.7-58.1-18.7l-13.1-10.7
			c0,0-10.3,12.4-17.4,14.9c-7.1,2.5-23.4,10-27,23.9c-3.5,13.9-1.9,178.6-1.9,178.6l95.5,0.6c0,0-6.4-62.6-6.4-70.1
			C177.8,276.5,178.3,248.5,178.3,248.5z"/>
		<path class="st29" d="M149,168.8c0,0-2.9-17.6-2.4-22.8c0.5-5.2-12.9-15-12.9-15s0.7,5.4-1.9,8.7c-2.9,3.7-10.8,9.6-10.8,9.6
			L149,168.8z"/>
		<g>
			<path class="st30" d="M107.6,174.9c-3.5-13.9-19.9-21.4-27-23.9c-7.1-2.5-17.4-14.9-17.4-14.9l-7.4,7.5c3.3,3.1,6,8,9.3,9.1
				c7.1,2.5,24.5,8.3,28,22.2c3.5,13.6,2.2,171.1,2.1,178.3l14.4,0.3C109.8,353.4,111.2,188.8,107.6,174.9z"/>
		</g>
		<g>
			<path class="st2" d="M105.3,179.8c0,1.5-1.6,2.8-3.5,2.8s-3.5-1.2-3.5-2.8c0-1.5,1.6-2.8,3.5-2.8S105.3,178.3,105.3,179.8z"/>
			<path class="st2" d="M105.3,214.6c0,1.5-1.6,2.8-3.5,2.8s-3.5-1.2-3.5-2.8c0-1.5,1.6-2.8,3.5-2.8S105.3,213.1,105.3,214.6z"/>
			<path class="st2" d="M105.3,249.9c0,1.5-1.6,2.8-3.5,2.8s-3.5-1.2-3.5-2.8c0-1.5,1.6-2.8,3.5-2.8S105.3,248.4,105.3,249.9z"/>
			<path class="st2" d="M105.3,280.5c0,1.5-1.6,2.8-3.5,2.8s-3.5-1.2-3.5-2.8c0-1.5,1.6-2.8,3.5-2.8S105.3,278.9,105.3,280.5z"/>
			<path class="st2" d="M105.3,315.8c0,1.5-1.6,2.8-3.5,2.8s-3.5-1.2-3.5-2.8c0-1.5,1.6-2.8,3.5-2.8S105.3,314.3,105.3,315.8z"/>
		</g>
		<path class="st29" d="M49.2,168.8c0,0,2.9-17.6,2.5-22.8c-0.5-5.2,12.9-15,12.9-15s-0.7,5.4,1.9,8.7c3,3.7,10.8,9.6,10.8,9.6
			L49.2,168.8z"/>
		<polygon class="st31" points="49.2,168.8 77.3,149.3 75.8,156.8 		"/>
		<polygon class="st31" points="149,168.8 120.9,149.3 122.5,156.9 		"/>
		<path class="st32" d="M99.2,161.6c0,0,3.8-3.6,8.7-6.2c4.9-2.7,13-6.1,13-6.1l1.6,7.6c0,0-5.8,1.5-9.6,3.1
			c-3.7,1.6-9.4,6.5-9.4,6.5S101.9,164,99.2,161.6z"/>
		<g>
			<g>
				<path class="st33" d="M251.3,402.7c0,0-12.1-51.1-26.8-111c-6.8-27.7-2.4-51.7-2.4-77c0-25.2,0.6-40.6-23.5-52.8
					c-20.2-10.2-51.7-16.6-51.7-16.6s-5.2,97.1-11.3,112.7c-9.8,25.2,27.3,145.1,27.3,145.1H204c0,0-2.8-13.1-7.4-27.6
					c-8.6-27.6-22.5-66.5-21.6-73.6c1.4-10.9,5.5-35.4,5.5-35.4s0.3,31.5,0.6,44.8c0.3,13.4,30,91.3,30,91.3H251.3z"/>
			</g>
			<line class="st34" x1="141.3" y1="288.2" x2="153.2" y2="287"/>
			<line class="st34" x1="145.4" y1="319.2" x2="157.2" y2="317.6"/>
			<polygon class="st35" points="180.5,263.6 181.6,236.6 179.2,270.7 			"/>
		</g>
		<g>
			<g>
				<g>
					<g>
						<path class="st33" d="M-54,402.7c0,0,12.1-51.1,26.8-111c6.8-27.7,2.5-51.7,2.5-77c0-25.2-0.6-40.6,23.5-52.8
							c20.2-10.2,54.3-15.9,54.3-15.9s2.6,96.4,8.7,112c9.8,25.2-27.3,145.1-27.3,145.1H-6.6c0,0,2.8-13.1,7.4-27.6
							c8.6-27.6,22.5-66.5,21.6-73.6c-1.4-10.9-5.5-35.4-5.5-35.4s-0.3,31.5-0.6,44.8c-0.3,13.4-30,91.3-30,91.3H-54z"/>
					</g>
				</g>
				<polygon class="st35" points="16.9,263.6 15.7,236.6 18.1,270.7 				"/>
			</g>
			<path class="st35" d="M53.8,286.8c0,2.5-2.6,4.6-5.9,4.6c-3.3,0-5.9-2.1-5.9-4.6c0-2.5,2.6-4.6,5.9-4.6
				C51.2,282.2,53.8,284.2,53.8,286.8z"/>
			<path class="st35" d="M48.3,316.5c0,2.5-2.6,4.6-5.9,4.6c-3.3,0-5.9-2.1-5.9-4.6c0-2.5,2.6-4.6,5.9-4.6
				C45.7,311.9,48.3,314,48.3,316.5z"/>
		</g>
		<path class="st13" d="M66.1,109.1c0,0-29.6,11.5-26,40.7c4.6,37.5,50,33.6,50,33.6s-10.1-2.7-15-13.6c-6.2-13.7-2.7-21.2-2.7-25.9
			c0-3.9,0.4-6.3,0.4-6.3l-0.2-20.7C72.6,116.8,67.7,111.8,66.1,109.1z"/>
	</g>
</g>
</svg>
