<?xml version="1.0" encoding="utf-8"?>
<!-- Generator: Adobe Illustrator 23.0.4, SVG Export Plug-In . SVG Version: 6.00 Build 0)  -->
<svg version="1.0" id="Layer_1" xmlns="http://www.w3.org/2000/svg" xmlns:xlink="http://www.w3.org/1999/xlink" x="0px" y="0px"
	 viewBox="0 0 200 200" style="enable-background:new 0 0 200 200;" xml:space="preserve">
<style type="text/css">
	.st0{clip-path:url(#SVGID_2_);}
	.st1{fill:#DCA58E;}
	.st2{clip-path:url(#SVGID_2_);fill:#AEAEAE;}
	.st3{clip-path:url(#SVGID_2_);fill:#E3AB94;}
	.st4{fill:#E1A98E;}
	.st5{fill:#DCAB8B;}
	.st6{fill:#F6F6F6;}
	.st7{clip-path:url(#SVGID_2_);fill:#FAFCFA;}
	.st8{fill:#D0DCDF;}
	.st9{fill:#F8F8F8;}
	.st10{fill:#D8DEE1;}
	.st11{fill:#2B335C;}
	.st12{fill:#1F2752;}
	.st13{fill:#B7BCD0;}
	.st14{fill:#A1A7BB;}
	.st15{clip-path:url(#SVGID_2_);fill:#FFFFFF;}
	.st16{clip-path:url(#SVGID_2_);fill:#1F2752;}
	.st17{fill:#EAB8A3;}
	.st18{fill:#C2787C;}
	.st19{fill:#AC686F;}
	.st20{fill:#D58A8F;}
	.st21{fill:#FFFFFF;}
	.st22{fill:#D29B8B;}
	.st23{fill:#7F6434;}
	.st24{fill:#5B3600;}
	.st25{fill:#1C1C1C;}
	.st26{fill:#AE796D;}
	.st27{fill:#E1AF9E;}
	.st28{fill:#2A2432;}
	.st29{fill:#C09080;}
	.st30{fill:#7A4A46;}
	.st31{fill:#424140;}
	.st32{fill:#2B2B2B;}
	.st33{opacity:0.3;fill:#FFFFFF;}
	.st34{fill:none;stroke:#564E43;stroke-width:0.1011;stroke-miterlimit:10;}
	.st35{fill:#DCA48D;}
</style>
<g>
	<defs>
		<rect id="SVGID_1_" width="200" height="200"/>
	</defs>
	<use xlink:href="#SVGID_1_"  style="overflow:visible;fill:#DBF3D9;"/>
	<clipPath id="SVGID_2_">
		<use xlink:href="#SVGID_1_"  style="overflow:visible;"/>
	</clipPath>
	<g class="st0">
		<path class="st1" d="M97.7,458.7l9.6-72.2c0,0-11.7,0.4-48.7-1.3c-37-1.7-47.8-8.7-47.8-8.7s-3.4,22.5-5.7,53.1
			C-3.8,546,21.4,610.3,17.2,636.4c-1.3,8.2-10.4,49.9-11.7,62c-1.1,10.7,10.2,80.7,10.2,89.5s-16.2,27.7-16.2,27.7l3.9,9.6h51.2
			l2.4-9.6c0,0-10.1-22.9-10.1-27c0-6.6,22.9-76.6,22.9-99.7c0-23.1-7-38.6,2.3-59.1C79.8,612.6,97.7,458.7,97.7,458.7z"/>
		<path class="st1" d="M99,458.7l-9.6-72.2c0,0,11.7,0.4,48.7-1.3c37-1.7,47.8-8.7,47.8-8.7s3.4,22.5,5.7,53.1
			c8.9,116.5-16.3,180.8-12.1,206.8c1.3,8.2,10.4,49.9,11.7,62c1.1,10.7-10.2,80.7-10.2,89.5s16.2,27.7,16.2,27.7l-3.9,9.6h-51.2
			l-2.4-9.6c0,0,10.1-22.9,10.1-27c0-6.6-22.9-76.6-22.9-99.7c0-23.1,7-38.6-2.3-59.1C117,612.6,99,458.7,99,458.7z"/>
	</g>
	<path class="st2" d="M58.7,134.7c0,0,11.1,5.9,16.5,6.2c5.5,0.3,39.8,0.6,43-0.1c3.1-0.7,21.6-6.1,21.6-6.1s-6.5,22.8-11,25.7
		c-4.5,2.9-64.5,0.6-64.5,0.6S57.7,148.4,58.7,134.7z"/>
	<path class="st3" d="M214.3,177.3c-27.8-13.4-77.7-33.1-79.1-35.3c-1.4-2.2,0-23.9,0-23.9H61.6c0,0,1.4,21.7,0,23.9
		c-1.4,2.2-48.8,21.9-79.1,35.2c-20.6,9,16,82.4,16,82.4s12.9,68.2,13.3,72.2c1.2,12-1.3,49.1-1.3,49.1s0.4,3.3,16.8,6.1
		c16.4,2.8,53.1,4.5,71.1,4.4c18-0.1,54.7-1.6,71.1-4.4c16.4-2.8,16.7-6.1,16.7-6.1s-2.4-37.1-1.2-49.1c0.4-4.1,13.3-72.2,13.3-72.2
		S234.4,187,214.3,177.3z"/>
	<g class="st0">
		<path class="st4" d="M-55.3,246.9l-5,63.9c-4.4,24.1,10.5,114.6,10.5,114.6l30.3-2.4l22-163.8v-90.7c0,0-34.1,12.3-44.7,23.3
			C-58.5,208.9-55.3,246.9-55.3,246.9z"/>
		<path class="st5" d="M-31.4,501.1c-3.3-3.4-26.6-26.4-27.4-31.3c-1.2-6.9,9.1-44.3,9.1-44.3l30.3-2.4c0,0,6.9,18.9,7.7,21.5
			c0.8,2.7,0,32.4-0.1,33.9c-0.1,1.5-10.2,1.1-10.6-1.1c-0.4-2.2-5.2-18.8-5.2-18.8l0,0l-1.7,17.4c0,0,10.4,14.4,11.7,16.5
			C-16.8,494-28.2,504.4-31.4,501.1z"/>
	</g>
	<g class="st0">
		<path class="st4" d="M252.3,246.9l5,63.9c4.4,24.1-10.5,114.6-10.5,114.6l-30.2-2.4l-22-163.8v-90.7c0,0,34.1,12.3,44.7,23.3
			C255.5,208.9,252.3,246.9,252.3,246.9z"/>
		<path class="st5" d="M228.4,501.1c3.3-3.4,26.6-26.4,27.4-31.3c1.2-6.9-9.1-44.3-9.1-44.3l-30.2-2.4c0,0-6.9,18.9-7.7,21.5
			c-0.8,2.7,0,32.4,0.1,33.9c0.1,1.5,10.2,1.1,10.6-1.1c0.4-2.2,5.2-18.8,5.2-18.8l0,0l1.7,17.4c0,0-10.4,14.4-11.7,16.5
			C213.8,494,225.1,504.4,228.4,501.1z"/>
	</g>
	<g class="st0">
		<path class="st6" d="M116.4,171.1l-10,2.7H91.8L61,165.8L45.9,146c0,0-77.9,28.9-92.1,43.6c-10.7,11.1-13.4,42.4-16.1,97
			c-2.8,57.5,4.7,141,4.7,141h42.2L2.5,282.3L5.8,311l-0.7,78.1l91.4,24h19.9V171.1z"/>
		<path class="st6" d="M82.4,171.1l10,2.7H107l30.7-8.1l13.4-19.8c0,0,79.6,28.9,93.8,43.6c10.7,11.1,13.4,42.4,16.1,97
			c2.8,57.5-4.7,141-4.7,141h-42.2l-17.3-148.7L193,311l-2.7,77.8l-88,24.4H82.4V171.1z"/>
	</g>
	<polygon class="st7" points="90.2,413.1 106.3,413.4 106.4,173.8 91.6,173.8 	"/>
	<g class="st0">
		<path class="st8" d="M102.3,205.3c0,1.8-1.9,3.3-4.2,3.3c-2.3,0-4.2-1.5-4.2-3.3c0-1.8,1.9-3.3,4.2-3.3
			C100.4,202.1,102.3,203.5,102.3,205.3z"/>
		<path class="st8" d="M102.3,182.6c0,1.8-1.9,3.3-4.2,3.3c-2.3,0-4.2-1.5-4.2-3.3c0-1.8,1.9-3.3,4.2-3.3
			C100.4,179.3,102.3,180.8,102.3,182.6z"/>
		<path class="st8" d="M102.3,235.3c0,1.8-1.9,3.3-4.2,3.3c-2.3,0-4.2-1.5-4.2-3.3c0-1.8,1.9-3.3,4.2-3.3
			C100.4,232,102.3,233.5,102.3,235.3z"/>
		<path class="st8" d="M102.3,260.9c0,1.8-1.9,3.3-4.2,3.3c-2.3,0-4.2-1.5-4.2-3.3c0-1.8,1.9-3.3,4.2-3.3
			C100.4,257.7,102.3,259.1,102.3,260.9z"/>
		<path class="st8" d="M102.3,289c0,1.8-1.9,3.3-4.2,3.3c-2.3,0-4.2-1.5-4.2-3.3c0-1.8,1.9-3.3,4.2-3.3
			C100.4,285.7,102.3,287.2,102.3,289z"/>
		<path class="st8" d="M102.3,316.2c0,1.8-1.9,3.3-4.2,3.3c-2.3,0-4.2-1.5-4.2-3.3c0-1.8,1.9-3.3,4.2-3.3
			C100.4,312.9,102.3,314.4,102.3,316.2z"/>
		<path class="st8" d="M102.3,342.5c0,1.8-1.9,3.3-4.2,3.3c-2.3,0-4.2-1.5-4.2-3.3c0-1.8,1.9-3.3,4.2-3.3
			C100.4,339.2,102.3,340.7,102.3,342.5z"/>
		<path class="st8" d="M102.3,369.7c0,1.8-1.9,3.3-4.2,3.3c-2.3,0-4.2-1.5-4.2-3.3c0-1.8,1.9-3.3,4.2-3.3
			C100.4,366.5,102.3,367.9,102.3,369.7z"/>
	</g>
	<g class="st0">
		<path class="st9" d="M102.3,204.3c0,1.8-1.9,3.3-4.2,3.3c-2.3,0-4.2-1.5-4.2-3.3c0-1.8,1.9-3.3,4.2-3.3
			C100.4,201,102.3,202.5,102.3,204.3z"/>
		<path class="st9" d="M102.3,181.6c0,1.8-1.9,3.3-4.2,3.3c-2.3,0-4.2-1.5-4.2-3.3c0-1.8,1.9-3.3,4.2-3.3
			C100.4,178.3,102.3,179.8,102.3,181.6z"/>
		<path class="st9" d="M102.3,234.3c0,1.8-1.9,3.3-4.2,3.3c-2.3,0-4.2-1.5-4.2-3.3c0-1.8,1.9-3.3,4.2-3.3
			C100.4,231,102.3,232.4,102.3,234.3z"/>
		<path class="st9" d="M102.3,259.9c0,1.8-1.9,3.3-4.2,3.3c-2.3,0-4.2-1.5-4.2-3.3c0-1.8,1.9-3.3,4.2-3.3
			C100.4,256.6,102.3,258.1,102.3,259.9z"/>
		<path class="st9" d="M102.3,287.9c0,1.8-1.9,3.3-4.2,3.3c-2.3,0-4.2-1.5-4.2-3.3c0-1.8,1.9-3.3,4.2-3.3
			C100.4,284.7,102.3,286.1,102.3,287.9z"/>
		<path class="st9" d="M102.3,315.2c0,1.8-1.9,3.3-4.2,3.3c-2.3,0-4.2-1.5-4.2-3.3c0-1.8,1.9-3.3,4.2-3.3
			C100.4,311.9,102.3,313.4,102.3,315.2z"/>
		<path class="st9" d="M102.3,341.5c0,1.8-1.9,3.3-4.2,3.3c-2.3,0-4.2-1.5-4.2-3.3c0-1.8,1.9-3.3,4.2-3.3
			C100.4,338.2,102.3,339.7,102.3,341.5z"/>
		<path class="st9" d="M102.3,368.7c0,1.8-1.9,3.3-4.2,3.3c-2.3,0-4.2-1.5-4.2-3.3c0-1.8,1.9-3.3,4.2-3.3
			C100.4,365.4,102.3,366.9,102.3,368.7z"/>
	</g>
	<g class="st0">
		<polygon class="st10" points="73.3,188.3 91.6,173.8 87.6,182.5 		"/>
		<polygon class="st10" points="123.5,188.8 106.4,173.8 109.8,182.6 		"/>
	</g>
	<g class="st0">
		<g>
			<polygon class="st11" points="195.1,403.7 191.7,377 5.2,377 1.8,403.7 -1.6,802.2 62.7,802.1 97.8,477.8 134.9,802.4 
				197.7,802.2 			"/>
			<polygon class="st12" points="194.5,376.4 197.7,802.2 170.7,377 			"/>
		</g>
	</g>
	<g class="st0">
		<path class="st13" d="M118.6,228.8c-1-8-11.2-31.8-11.2-31.8h-7.9H91c0,0-9.6,23.8-10.6,31.8c-1,8-1.2,106-1.2,106l20,21.8
			l20.6-21.8C119.8,334.8,119.5,236.8,118.6,228.8z"/>
		<path class="st14" d="M90.5,196.9c0.6,0.3,17.6,0,17.6,0s14.5-21.9,13.4-22.7c-1.1-0.8-44.7,0-44.7,0S89.5,196.4,90.5,196.9z"/>
	</g>
	<path class="st15" d="M91.6,173.8l-18.3,14.4c0,0-18.8-11.6-26-25.4c-7.2-13.9-3.2-18.6-3.2-18.6l14.5-9.5c0,0-0.3,17,5.3,22.8
		C69.4,163.4,91.6,173.8,91.6,173.8z"/>
	<path class="st15" d="M106.4,173.8l17.2,14.9c0,0,16.6-11.9,23.8-25.8c7.3-13.9,6.9-18.2,6.9-18.2l-14.6-10.2c0,0-5.2,17-10.2,23.2
		C117.2,172.5,106.4,173.8,106.4,173.8z"/>
	<rect x="5.2" y="377" class="st16" width="189.6" height="14.5"/>
	<g class="st0">
		<path class="st17" d="M107,37.2c-7.1-0.4-10.2-0.4-17.3,0c-16.8,1-41.8,18.7-39.9,38.3c0.6,5.7,4.4,42.2,5.7,44.3
			c1.4,2.1,21.5,20.2,25.1,22.9c3.6,2.8,17.6,3.2,17.6,3.2s14-0.4,17.6-3.2c3.6-2.8,23.7-20.8,25.1-22.9c1.4-2.1,5.2-38.6,5.7-44.3
			C148.8,55.9,123.8,38.2,107,37.2z"/>
		<g>
			<path class="st18" d="M80.6,123.7c0,0,7.8-1.3,9.9-1.5c2.1-0.2,6.7,0.6,7.4,0.6c0.6,0,0.1,2.2,0.1,2.2S87.3,125.6,80.6,123.7z"/>
			<path class="st19" d="M115.3,123.7c0,0-7.6-1.3-9.7-1.5c-2.1-0.2-6.9,0.6-7.5,0.6c-0.6,0-0.1,2.2-0.1,2.2
				S108.6,125.6,115.3,123.7z"/>
			<path class="st20" d="M115.3,123.7c-0.4,0.2-13.7,1-17.3,1.2c-3.4-0.2-16.9-1.1-17.4-1.2c0,0,8,4.7,12.3,5.2
				c1.8,0.2,4.5,0.4,5,0.4c0.5,0,3.3-0.2,5.1-0.4C107.2,128.4,115.3,123.7,115.3,123.7z"/>
		</g>
		<g>
			<g>
				<path class="st21" d="M129,93.4c0,0-5-3.4-7.2-3.8c-2.2-0.3-6.9-0.5-9.8,0.7c-3.2,1.3-5.7,4.4-5.7,4.4s4.2,2,10.4,2.1
					C123.1,96.9,126.3,95.5,129,93.4z"/>
				<path class="st22" d="M106.2,95c0,0-4.7-4.5-2.6-8.1c2.1-3.7,9.9-3.5,16.3-4.3c7.2-1,14.1,1.9,14.1,2.2c0,0.4-0.9,4-1.8,5.9
					c-1.2,2.3-2.1,2.2-2.1,2.2s-4.8-1.8-6.1-2.3c-1.3-0.5-5.2-1.2-7.6-1.3C109.8,89,106.2,95,106.2,95z"/>
				<path class="st23" d="M133.9,84.6c0,0-3.4-4.9-7.2-5c-3.8-0.1-20.3,0.9-20.9,1.6c-0.6,0.7-2.5,5.4-2,5.1c1.4-1,14.9-4,18.2-4
					C125.3,82.4,128.8,82.5,133.9,84.6z"/>
				<g>
					<path class="st24" d="M112.3,93.1c0,2.1,2.4,3.8,5.3,3.8c2.9,0,5.3-1.7,5.3-3.8c0-2.1-2.4-3.8-5.3-3.8
						C114.7,89.2,112.3,90.9,112.3,93.1z"/>
					<path class="st25" d="M114.4,93.1c0,1.4,1.4,2.5,3.2,2.5s3.2-1.1,3.2-2.5c0-1.4-1.5-2.5-3.2-2.5S114.4,91.7,114.4,93.1z"/>
				</g>
				<path class="st26" d="M129.2,93.4c0,0-6.1,3-9.3,3.4c-5.4,0.7-13.3-1.8-13.3-1.8s8.5,3.3,11.8,3.3S126.4,97.2,129.2,93.4z"/>
				<path class="st27" d="M130.4,92.6c0,0-3-3.6-5.1-4.7c-3.9-2.2-12.4-1.6-15.2,1.2c-3.7,3.7-3.8,5.6-3.8,5.6s5.7-5.5,10-5.6
					C120.6,89,128.4,91.5,130.4,92.6z"/>
				<path class="st28" d="M131.1,92.3c0,0-8.7-3.8-11.6-3.9c-4.6-0.2-9.8,2-11.6,4.4c-1.8,2.4-1.8,2.4-1.8,2.4s4.1-4.9,9-5.3
					c6.4-0.6,14.1,3.7,14.1,3.7L131.1,92.3z"/>
			</g>
			<g>
				<path class="st21" d="M67.4,93.4c0,0,5-3.4,7.2-3.8c2.2-0.3,6.9-0.5,9.8,0.7c3.2,1.3,5.7,4.4,5.7,4.4s-4.2,2-10.5,2.1
					C73.3,96.9,70.1,95.5,67.4,93.4z"/>
				<path class="st22" d="M90.2,95c0,0,4.7-4.5,2.6-8.1c-2.1-3.7-9.9-3.5-16.3-4.3c-7.2-1-14.1,1.9-14.1,2.2c0,0.4,0.9,4,1.8,5.9
					c1.2,2.3,2.1,2.2,2.1,2.2s4.8-1.8,6.1-2.3c1.3-0.5,5.2-1.2,7.6-1.3C86.6,89,90.2,95,90.2,95z"/>
				<path class="st23" d="M62.4,84.6c0,0,3.4-4.9,7.2-5c3.8-0.1,20.3,0.9,20.9,1.6c0.6,0.7,2.5,5.4,2,5.1c-1.4-1-14.9-4-18.2-4
					C71.1,82.4,67.6,82.5,62.4,84.6z"/>
				<g>
					<path class="st24" d="M84.1,93.1c0,2.1-2.4,3.8-5.3,3.8c-2.9,0-5.3-1.7-5.3-3.8c0-2.1,2.4-3.8,5.3-3.8
						C81.7,89.2,84.1,90.9,84.1,93.1z"/>
					<path class="st25" d="M82,93.1c0,1.4-1.5,2.5-3.2,2.5c-1.8,0-3.2-1.1-3.2-2.5c0-1.4,1.5-2.5,3.2-2.5C80.5,90.5,82,91.7,82,93.1
						z"/>
				</g>
				<path class="st26" d="M67.2,93.4c0,0,6.1,3,9.3,3.4c5.4,0.7,13.3-1.8,13.3-1.8s-8.5,3.3-11.8,3.3C74.8,98.3,70,97.2,67.2,93.4z"
					/>
				<path class="st27" d="M66,92.6c0,0,3-3.6,5.1-4.7c3.9-2.2,12.4-1.6,15.2,1.2c3.7,3.7,3.8,5.6,3.8,5.6s-5.7-5.5-10-5.6
					C75.8,89,68,91.5,66,92.6z"/>
				<path class="st28" d="M65.3,92.3c0,0,8.7-3.8,11.6-3.9c4.5-0.2,9.8,2,11.6,4.4c1.8,2.4,1.8,2.4,1.8,2.4s-4.1-4.9-9-5.3
					c-6.4-0.6-14.1,3.7-14.1,3.7L65.3,92.3z"/>
			</g>
		</g>
		<g>
			<path class="st29" d="M108.7,110.6c-0.7-0.2-6.2,0.9-8.6,0.9c-0.9,0-1.5,0-2,0c-0.5,0-1.1,0-2,0c-2.4,0-7.9-1.1-8.6-0.9
				c-0.6,0.2,0.7,1.3,0.7,1.3c1.8,0.8,6.2,1.5,8.8,1.9h2.2c2.7-0.4,7-1.1,8.8-1.9C108,111.9,109.3,110.8,108.7,110.6z"/>
			<path class="st30" d="M93.7,112.7c-1.1-0.3-3.2-0.4-3.6-1.1c-0.5-0.6,3.5,0.1,5.1,0.7C96.8,112.8,94.8,112.9,93.7,112.7z"/>
			<path class="st30" d="M102.6,112.7c1.1-0.3,3.2-0.4,3.6-1.1c0.5-0.6-3.5,0.1-5.1,0.7S101.5,112.9,102.6,112.7z"/>
		</g>
		<path class="st22" d="M103,90.2l1.4,11.7c0,0,1.1,2.3,2.5,3c1.1,0.6,1.4,0.9,1.4,0.9L103,90.2z"/>
		<g>
			<g>
				<path class="st31" d="M53.5,89.9c0,0-0.8,0.1-2.4,0c-1.4-0.1-1-0.2-1-0.2l0.4,5.2c0,0-0.2,0.4,0.8,0.4c1,0,2.6,0,2.6,0
					L53.5,89.9z"/>
				<path class="st32" d="M50.1,89.7c0,0,3.1-1.8,3.7-1.8s0.4,0.2,0.4,0.2l-0.6,1.9C53.5,89.9,50.9,90.4,50.1,89.7z"/>
				<g>
					<path class="st33" d="M57.1,103c0,0-1.7-0.2-2.8-5.5c-1.1-5.4-1.6-9.7,1.6-10.3c4.6-0.9,21.1-0.8,28.3,0.2c7.2,1,9.9,2.1,7.1,9
						c-2,4.9-3.1,6.1-4.8,7.3C84.8,104.7,70.7,106.9,57.1,103z"/>
					<path class="st34" d="M57.1,103c0,0-1.7-0.2-2.8-5.5c-1.1-5.4-1.6-9.7,1.6-10.3c4.6-0.9,21.1-0.8,28.3,0.2c7.2,1,9.9,2.1,7.1,9
						c-2,4.9-3.1,6.1-4.8,7.3C84.8,104.7,70.7,106.9,57.1,103z"/>
				</g>
			</g>
			<g>
				<path class="st31" d="M143.1,89.9c0,0,0.8,0.1,2.4,0c1.4-0.1,1-0.2,1-0.2l-0.4,5.2c0,0,0.2,0.4-0.8,0.4c-1,0-2.6,0-2.6,0
					L143.1,89.9z"/>
				<path class="st32" d="M146.5,89.7c0,0-3.1-1.8-3.7-1.8c-0.5,0-0.4,0.2-0.4,0.2l0.6,1.9C143.1,89.9,145.7,90.4,146.5,89.7z"/>
				<g>
					<path class="st33" d="M139.5,103c0,0,1.7-0.2,2.8-5.5c1-5.4,1.6-9.7-1.6-10.3c-4.6-0.9-21.1-0.8-28.3,0.2c-7.2,1-9.9,2.1-7.1,9
						c2,4.9,3,6.1,4.8,7.3C111.9,104.7,126,106.9,139.5,103z"/>
					<path class="st34" d="M139.5,103c0,0,1.7-0.2,2.8-5.5c1-5.4,1.6-9.7-1.6-10.3c-4.6-0.9-21.1-0.8-28.3,0.2c-7.2,1-9.9,2.1-7.1,9
						c2,4.9,3,6.1,4.8,7.3C111.9,104.7,126,106.9,139.5,103z"/>
				</g>
			</g>
			<rect x="92.2" y="90.8" class="st31" width="12.2" height="1.1"/>
		</g>
		<path class="st35" d="M144.7,91.4c0,0,1.7-2.1,4.6-1.6c2.9,0.5,1.7,15,1.7,16.6c0,3.3-9.3,9.7-9.3,9.7L144.7,91.4z"/>
		<path class="st35" d="M51.9,91.4c0,0-1.7-2.1-4.6-1.6c-2.9,0.5-1.7,15-1.7,16.6c0,3.3,9.3,9.7,9.3,9.7L51.9,91.4z"/>
		<path class="st23" d="M149.3,52.9c-10.5-23.5-43.5-24.3-49.6-24.2c-6.1,0.1-43.2,0.7-53.8,24.2C40,66.2,45,87,45.5,89.8
			c0.1,0.6,4.2-0.7,4.8,2.1c0.4,1.7,1.8,1.4,1.8,1.4S56.6,56,62.3,54.6c3.4-0.8,3.7,2.4,31.9,7.1c4.8,0.8,43,6.7,38.1,3.6
			c-3.7-2.4-2.3-3.9-1.8-3.8c15.7,1.4,11.1,35.6,13.6,31.1c1.7-3.1,5.2-1.6,5.4-2C151.1,87.8,155.2,66.2,149.3,52.9z"/>
	</g>
</g>
</svg>
