<?xml version="1.0" encoding="utf-8"?>
<!-- Generator: Adobe Illustrator 23.0.4, SVG Export Plug-In . SVG Version: 6.00 Build 0)  -->
<svg version="1.0" id="Layer_1" xmlns="http://www.w3.org/2000/svg" xmlns:xlink="http://www.w3.org/1999/xlink" x="0px" y="0px"
	 viewBox="0 0 200 200" style="enable-background:new 0 0 200 200;" xml:space="preserve">
<style type="text/css">
	.st0{clip-path:url(#SVGID_2_);}
	.st1{fill:#DCA58E;}
	.st2{fill:#E1A98E;}
	.st3{fill:#174C77;}
	.st4{fill:#0B3B56;}
	.st5{fill:none;stroke:#9ACEE9;stroke-width:0.1303;stroke-miterlimit:10;stroke-dasharray:0.2656,0.2656;}
	.st6{fill:#154F83;}
	.st7{fill:#23629A;}
	.st8{fill:none;stroke:#9ACEE9;stroke-width:0.1289;stroke-miterlimit:10;stroke-dasharray:0.2627,0.2627;}
	.st9{fill:#988B58;}
	.st10{fill:none;stroke:#9ACEE9;stroke-width:0.1289;stroke-miterlimit:10;}
	.st11{fill:none;stroke:#9ACEE9;stroke-width:0.1289;stroke-miterlimit:10;stroke-dasharray:0.2597,0.2597;}
	.st12{fill:none;stroke:#9ACEE9;stroke-width:0.1289;stroke-miterlimit:10;stroke-dasharray:0.2741,0.2741;}
	.st13{fill:none;stroke:#9ACEE9;stroke-width:0.1289;stroke-miterlimit:10;stroke-dasharray:0.31,0.31;}
	.st14{fill:none;stroke:#9ACEE9;stroke-width:0.1289;stroke-miterlimit:10;stroke-dasharray:0.2867,0.2867;}
	.st15{fill:none;stroke:#9ACEE9;stroke-width:0.1289;stroke-miterlimit:10;stroke-dasharray:0.2784,0.2784;}
	.st16{fill:none;stroke:#9ACEE9;stroke-width:0.1289;stroke-miterlimit:10;stroke-dasharray:0.267,0.267;}
	.st17{fill:none;stroke:#9ACEE9;stroke-width:0.1239;stroke-miterlimit:10;stroke-dasharray:0.2526,0.2526;}
	.st18{fill:#16394F;}
	.st19{fill:#1B5794;}
	.st20{fill:#668CA2;}
	.st21{fill:#B3724F;}
	.st22{fill:#DC7F31;}
	.st23{fill:#E49951;}
	.st24{fill:#AE5A1B;}
	.st25{fill:#E98942;}
	.st26{fill:#40303B;stroke:#A9A9A9;stroke-width:0.1213;}
	.st27{fill:#40303B;stroke:#A9A9A9;stroke-width:0.1045;}
	.st28{fill:#40303B;stroke:#A9A9A9;stroke-width:0.118;}
	.st29{fill:none;stroke:#F3B34D;stroke-width:0.3125;stroke-linecap:round;stroke-linejoin:round;}
	.st30{fill:#A07751;}
	.st31{fill:none;stroke:#BB9267;stroke-width:7.812800e-02;stroke-miterlimit:10;}
	.st32{fill:none;stroke:#BB9267;stroke-width:7.812800e-02;stroke-miterlimit:10;stroke-dasharray:0.1572,0.1572;}
	.st33{fill:#C36A27;}
	.st34{fill:none;stroke:#BB9267;stroke-width:7.812800e-02;stroke-miterlimit:10;stroke-dasharray:0.1563,0.1563;}
	.st35{fill:none;stroke:#F3B34D;stroke-width:0.2172;stroke-linecap:round;stroke-linejoin:round;}
	.st36{fill:none;stroke:#DC961B;stroke-width:0.2172;stroke-linecap:round;stroke-linejoin:round;}
	.st37{clip-path:url(#SVGID_4_);}
	.st38{fill:#F1CDB2;}
	.st39{fill:#DCB8A1;}
	.st40{clip-path:url(#SVGID_6_);fill:#E7C4A5;}
	.st41{fill:#DCA48D;}
	.st42{fill:#DCAB8B;}
	.st43{fill:#BB8181;}
	.st44{fill:#A97171;}
	.st45{fill:#CD9696;}
	.st46{fill:#C09080;}
	.st47{fill:#7A4A46;}
	.st48{fill:#CD9B80;}
	.st49{fill:#473F3C;}
	.st50{fill:#FFFFFF;}
	.st51{fill:#352F2D;}
	.st52{fill:#604326;}
	.st53{fill:#1C1C1C;}
	.st54{fill:#DFAD91;}
	.st55{fill:#2A2432;}
	.st56{fill:#66605B;}
	.st57{fill:#443D39;}
	.st58{fill:#A99E95;}
	.st59{fill:#AE8262;}
</style>
<g>
	<defs>
		<rect id="SVGID_1_" width="200" height="200"/>
	</defs>
	<use xlink:href="#SVGID_1_"  style="overflow:visible;fill:#CEC3E2;"/>
	<clipPath id="SVGID_2_">
		<use xlink:href="#SVGID_1_"  style="overflow:visible;"/>
	</clipPath>
	<g class="st0">
		<g>
			<path class="st1" d="M104.6,453.3l2.1-70.3c0,0-11.9,0-48.7-0.6c-37-0.6-49.2-9.9-49.2-9.9S8.3,399.3,9.1,430
				C12.3,546.8,44,609.4,42.5,635.6c-0.5,8.3-5.3,50.4-5.3,62.6c0,10.7,18.5,79.9,19.4,88.7c0.9,8.8-8.5,24.6-8.5,24.6l3.2,10.3
				l47.9-0.1l3.7-10.2c0,0-14.8-21.7-15.2-25.8c-0.7-6.6,15-77.9,12.6-100.9c-2.4-23-11-38.1-3.8-59.1
				C102.5,608,104.6,453.3,104.6,453.3z"/>
			<g>
				<path class="st1" d="M105.8,459.3L87,382.9c0,0,14.3,0,50.7-0.9c37.1-0.9,46-10.3,46-10.3s5.8,22.3,11.4,52.7
					c21.2,115.6,2.9,181.4,9.9,207.1c2.2,8.1,11.1,48.4,13.7,60.4c2.3,10.6,2.9,81.9,3.8,90.7c0.9,8.8,44.9,36.7,44.9,36.7l-3.3,9.3
					l-39.5,0l-1.1-9.3c0,0-33.9-33.8-34.2-35.7c-1-6.6-28.7-73.3-31.2-96.4c-2.5-23,2.9-39-8.5-58.8
					C140.1,611.8,105.8,459.3,105.8,459.3z"/>
				<path class="st1" d="M185.8,812.5c-1.3-3.6,3.6-28.9,3.6-28.9l34.2,35.7l1.1,9.3c0,0-17-8.9-24.4-11.9
					C197.2,815.5,186.3,814,185.8,812.5z"/>
			</g>
		</g>
		<g>
			<path class="st1" d="M212.2,174c-27.8-13.4-77.6-33.1-79.1-35.3c-1.4-2.2,0-23.9,0-23.9H59.4c0,0,1.4,21.7,0,23.9
				c-1.4,2.2-48.8,21.9-79.1,35.2c-20.5,9,16,82.4,16,82.4s12.9,68.2,13.3,72.2c1.2,12-1.3,49.1-1.3,49.1s0.4,3.3,16.8,6.1
				c16.4,2.8,53.1,4.5,71.1,4.4c18-0.1,54.7-1.6,71.1-4.4c16.4-2.8,16.7-6.1,16.7-6.1s-2.4-37.1-1.2-49.1
				c0.4-4.1,13.3-72.2,13.3-72.2S232.2,183.7,212.2,174z"/>
		</g>
		<g>
			<path class="st2" d="M-57.4,243.6l-5,63.9c-4.4,24.1,10.5,114.6,10.5,114.6l30.3-2.4l22-163.8v-90.7c0,0-34.1,12.3-44.7,23.3
				C-60.7,205.6-57.4,243.6-57.4,243.6z"/>
			<path class="st2" d="M-33.6,497.7c-3.3-3.4-26.6-26.4-27.4-31.3c-1.2-6.9,9.1-44.3,9.1-44.3l30.3-2.4c0,0,6.9,18.9,7.7,21.5
				c0.8,2.7,0,32.4-0.1,33.9c-0.1,1.5-10.2,1.1-10.6-1.1c-0.4-2.2-5.2-18.8-5.2-18.8l0,0l-1.7,17.4c0,0,10.4,14.4,11.7,16.5
				C-18.9,490.7-30.3,501.1-33.6,497.7z"/>
		</g>
		<g>
			<path class="st2" d="M250.1,243.6l5,63.9c4.4,24.1-10.5,114.6-10.5,114.6l-30.2-2.4l-22-163.8v-90.7c0,0,34.1,12.3,44.7,23.3
				C253.4,205.6,250.1,243.6,250.1,243.6z"/>
			<path class="st2" d="M226.3,497.7c3.3-3.4,26.6-26.4,27.4-31.3c1.2-6.9-9.1-44.3-9.1-44.3l-30.2-2.4c0,0-6.9,18.9-7.7,21.5
				c-0.8,2.7,0,32.4,0.1,33.9c0.1,1.5,10.2,1.1,10.6-1.1c0.4-2.2,5.2-18.8,5.2-18.8l0,0l1.7,17.4c0,0-10.4,14.4-11.7,16.5
				C211.7,490.7,223,501.1,226.3,497.7z"/>
		</g>
		<g>
			<g>
				<path class="st3" d="M191.7,379.8c0,0,9.4,78.5,12.1,109.6c2.7,31.1,23.1,267.9,23.1,267.9l-52.7,0.2l-69.7-288.3l-5.1,283.1
					l-57.2-0.4L5.4,400l0.4-13.2c0,0,58.1,3.7,90.3,2.2C124.4,387.6,191.7,379.8,191.7,379.8z"/>
				<polygon class="st4" points="104.4,469.5 114.2,461.8 188.8,757.5 174.2,757.5 				"/>
				<polygon class="st4" points="5.5,400.3 42.2,751.8 29.2,401.2 				"/>
			</g>
			<path class="st5" d="M200,411.7"/>
			<path class="st5" d="M196,411.4"/>
			<g>
				<path class="st6" d="M5.9,386.5c0,0,52.2,4.2,94.1,2c36.7-2,91.5-8,91.5-8L193,394c0,0-53.8,6.8-92.4,8.2
					C66.4,403.5,5.5,400,5.5,400S5.5,390.5,5.9,386.5z"/>
				<path class="st7" d="M98.4,389.2l3.5,64c0,0,14.9,5,19-23c2-13.8-0.9-42.2-0.9-42.2L98.4,389.2z"/>
				<path class="st8" d="M55.4,401.9c0,0-6.8,11.5-16,14.4C25.8,420.8,7,421.3,7,421.3l-0.2-3.2c0,0,25.6-1.3,32.5-5.3
					c4.2-2.5,10.7-11,10.7-11L55.4,401.9z"/>
				<path class="st9" d="M52.9,404.2c0,0.9-0.8,1.6-1.9,1.6c-1.1,0-2.1-0.6-2.1-1.5c-0.1-0.9,0.8-1.6,1.9-1.6
					C51.8,402.7,52.8,403.4,52.9,404.2z"/>
				<path class="st9" d="M37.4,407c0.1,0.9-0.8,1.6-1.9,1.6c-1.1,0-2.1-0.6-2.1-1.5c-0.1-0.9,0.8-1.6,1.9-1.6
					C36.4,405.5,37.4,406.1,37.4,407z"/>
				<path class="st8" d="M6.8,417.9"/>
				<g>
					<g>
						<g>
							<line class="st10" x1="8.1" y1="417.9" x2="8.1" y2="417.3"/>
							<line class="st11" x1="8" y1="416.2" x2="7.1" y2="405.2"/>
							<polyline class="st10" points="7,404.7 7,404.1 7.7,404.1 							"/>
							<line class="st12" x1="9.3" y1="404.2" x2="36.7" y2="405.2"/>
							<polyline class="st10" points="37.5,405.3 38.2,405.3 38.2,405.9 							"/>
							<line class="st13" x1="38.2" y1="407.2" x2="38.2" y2="412.1"/>
							<line class="st10" x1="38.2" y1="412.8" x2="38.2" y2="413.3"/>
						</g>
					</g>
				</g>
				<path class="st8" d="M10.8,417.5"/>
				<g>
					<g>
						<g>
							<line class="st10" x1="11.9" y1="417.5" x2="11.9" y2="416.9"/>
							<line class="st14" x1="11.8" y1="415.6" x2="11.4" y2="408.6"/>
							<polyline class="st10" points="11.4,408 11.3,407.4 12.1,407.4 							"/>
							<line class="st15" x1="13.7" y1="407.4" x2="32" y2="407.7"/>
							<polyline class="st10" points="32.7,407.7 33.5,407.7 33.5,408.3 							"/>
							<line class="st16" x1="33.5" y1="409.5" x2="33.5" y2="413.6"/>
							<line class="st10" x1="33.5" y1="414.2" x2="33.5" y2="414.8"/>
						</g>
					</g>
				</g>
				<path class="st17" d="M117.3,400c1,9.8,1.5,22.9,0.3,30.3c-3.1,18.3-11.4,20.3-15.8,20.7l0.1,2.3c0,0,16.9,2.8,19-23
					c0.6-7.8,1.2-21.1,0.1-30.5L117.3,400z"/>
				<polygon class="st8" points="106.7,467.1 103.4,469.5 101.9,453.2 105.3,453.1 				"/>
				<path class="st18" d="M116.8,394.7c0,0.5-2.7,1-6,1.1c-3.3,0.1-6.1-0.2-6.1-0.6c0-0.5,2.6-1,6-1.1
					C114,393.9,116.8,394.2,116.8,394.7z"/>
				<path class="st9" d="M112,395c0.1,2.3-2.1,4.2-5,4.3c-2.9,0.1-5.4-1.6-5.5-3.9c-0.2-2.2,2.1-4.2,5-4.3
					C109.4,391,111.9,392.7,112,395z"/>
				<path class="st8" d="M5.9,399c0,0,74.9,3.3,102.8,1.6c41.6-2.6,85.4-8.7,85.4-8.7"/>
				<polygon class="st19" points="66.3,412.7 59.3,411.5 63.4,391.1 70.4,392 				"/>
				<polygon class="st8" points="65.5,411.3 60.3,410.6 64.1,392.1 69.4,392.9 				"/>
				<path class="st8" d="M145.1,398.5c0,0,8.2,10.9,17.7,13.1c14.1,3.4,32.1,2.5,32.1,2.5l-0.3-3.1c0,0-24.9,0.5-32.2-2.9
					c-4.5-2.1-12-10.1-12-10.1L145.1,398.5z"/>
				<path class="st9" d="M147.8,400.6c0.1,0.9,1,1.5,2.1,1.5c1.1-0.1,2-0.8,1.9-1.6c0-0.9-1-1.5-2.1-1.5
					C148.6,399,147.8,399.7,147.8,400.6z"/>
				<polygon class="st19" points="135.5,410 142.4,408.3 135.7,388.3 128.8,389.7 				"/>
				<polygon class="st8" points="136.2,408.6 141.2,407.5 135.1,389.4 129.9,390.5 				"/>
			</g>
		</g>
		<g>
			<path class="st20" d="M102,751.7c0,0.3-0.2,0.5-0.5,0.5H39.8c-0.3,0-0.5-0.2-0.5-0.5l-1.8-22.5c0-0.3,0.2-0.5,0.5-0.5h64
				c0.3,0,0.5,0.2,0.5,0.5L102,751.7z"/>
		</g>
		<g>
			<path class="st20" d="M229.8,758.6c0,0.3-0.2,0.5-0.5,0.5l-57.2,1.6c-0.3,0-0.6-0.2-0.6-0.5l-5.5-23.5c-0.1-0.3,0.1-0.5,0.4-0.5
				l60.8-0.2c0.3,0,0.5,0.2,0.5,0.5L229.8,758.6z"/>
		</g>
		<g>
			<path class="st21" d="M72.8,830.8l-23.9-3.2l-7.3-3.9c0,0,0.8,3.4,0.8,3.9c0,0.5,1.1,1.8,1.4,2.3l0.2-0.4
				c0.1-0.3,0.5-0.5,0.8-0.4l0,0l0,0l0,0c0.2,0.1,0.3,0.4,0.2,0.7l-0.4,0.8l1.4,1l0.3-0.6c0.2-0.4,0.7-0.7,1-0.6
				c0.4,0.1,0.5,0.5,0.3,1l-0.2,0.4c-0.1,0.2-0.1,0.4-0.1,0.4l1.8,1l0.2-0.6c0.2-0.5,0.6-0.8,1.1-0.7c0,0,0.1,0,0.2,0
				c0,0,0.1,0,0.1,0.1c0.3,0.2,0.4,0.6,0.2,1l-0.3,0.8l2.9,0.8c0,0,0.5-0.9,1.1-1.1c0.2,0,0.3-0.1,0.4,0c0.3,0.1,0.5,0.3,0.6,0.5
				c0.2,0.5-0.1,1.2-0.1,1.2l4,0.9l0.1-0.4c0.1-0.6,0.7-1.1,1.4-1c0.7,0.1,1.1,0.6,1,1.2l-0.1,0.3c0,0.1,0,0.2,0,0.2l7.3,0.9
				l0.2-1.2c0.1-0.6,0.9-1,1.7-1c0.8,0.1,1.4,0.6,1.3,1.2l-0.1,0.8c0,0.2,0,0.3,0.1,0.3c0.2,0,8.8,0,9.6,0l-0.1-1.2
				c-0.1-0.6,0.7-1.1,1.6-1.2c0.9,0,1.7,0.4,1.7,1l0.1,1.2l10.7-0.4l0.1-0.9c0-0.6,0.5-1.1,1.3-1.1c0.8,0,1.4,0.4,1.5,1l0.1,0.9
				c0.5-0.1,6.7-1,8-1.3c1.4-0.3,1-6.3,1-6.3L72.8,830.8z"/>
			<path class="st22" d="M42.2,818.2c0,0,6.9-14.5,7.2-16.8c0.6-4.6,0-18.2,0-18.2l9.1,15.6L64,793c0,0,0.8-17.1,0.6-20.9
				c-0.2-3.8-2.2-24,0.9-25.4c3-1.4,14.3-2.1,18.9-2.1c5.8,0,8,3.2,7.1,9.4c-0.9,6.2-4.1,29.2-1.7,32c2.4,2.8,11.3,22.7,14.5,29.9
				c3.1,7.2,2.3,10.8,2.3,10.8s-36.3,7.9-61.1-1.7C42.8,823.9,42.4,821.7,42.2,818.2z"/>
			<path class="st23" d="M56.7,799.9c0,0,6.1-2.1,8.8-4.1c2.7-2,5.7-3.5,5.1-8.2c-0.6-4.6-2.2-8.3-2.4-12.2
				c-0.3-3.9-1.3-12-1.3-18.5c0-6.4-1-8.8-3.3-9.2c-2.3-0.3-9.9,0.5-11.7,3.2c-1.7,2.7,1.2,11-1.1,12.5c-2.3,1.5-4.5,1.5-4.5,1.5
				l3.2,22.2C49.7,787.1,52.9,802,56.7,799.9z"/>
			<path class="st23" d="M96.7,799c0,0-2.2-9.5-2.7-18.8c-0.6-9.2,3.2-33.5,2.7-34.1c-0.5-0.7-7.8-0.9-7.1-0.5c0.6,0.4-5,33-3.9,39
				C86.8,790.6,89.9,794.5,96.7,799z"/>
			<path class="st24" d="M44.9,751.8l1.6,13.2c0,0,5.1,0.2,6.3-2.1c1.2-2.3,0.6-12.9,0.6-12.9S44.9,751.2,44.9,751.8z"/>
			<path class="st25" d="M62.6,816c-0.1-3.4,3.6-4.6,13.2-5.9c9.6-1.3,17.8-0.5,20.9,0.7c3,1.3,4.9,4.1-3,5.4
				C84.3,817.8,62.6,819.3,62.6,816z"/>
			<path class="st26" d="M65.1,791.4c-0.2,1-1.3,1.7-2.3,1.6c-1.1-0.1-1.8-1.1-1.6-2.1c0.2-1,1.2-1.7,2.3-1.5
				C64.6,789.5,65.3,790.4,65.1,791.4z"/>
			<path class="st27" d="M89.2,782.8c0.7,0.8,1.7,1.1,2.3,0.6c0.6-0.5,0.5-1.5-0.1-2.4c-0.7-0.8-1.7-1.1-2.3-0.6
				C88.4,781,88.5,782,89.2,782.8z"/>
			<path class="st27" d="M90.5,789.1c0.7,0.8,1.7,1.1,2.3,0.6c0.6-0.5,0.5-1.5-0.1-2.4c-0.7-0.8-1.7-1.1-2.3-0.6
				C89.8,787.3,89.9,788.3,90.5,789.1z"/>
			<path class="st27" d="M89.8,777.3c0.7,0.8,1.7,1.1,2.3,0.6c0.6-0.5,0.5-1.5-0.1-2.4c-0.7-0.8-1.7-1.1-2.3-0.6
				C89,775.4,89.1,776.5,89.8,777.3z"/>
			<path class="st27" d="M90.1,771.7c0.7,0.8,1.7,1.1,2.3,0.6c0.6-0.5,0.5-1.5-0.1-2.3c-0.7-0.8-1.7-1.1-2.3-0.6
				C89.3,769.8,89.4,770.9,90.1,771.7z"/>
			<path class="st27" d="M91.3,765c0.7,0.8,1.7,1.1,2.3,0.6c0.6-0.5,0.5-1.5-0.1-2.4c-0.7-0.8-1.7-1.1-2.3-0.6
				C90.5,763.2,90.6,764.2,91.3,765z"/>
			<path class="st27" d="M90.9,759.1c0.7,0.8,1.7,1.1,2.3,0.6c0.6-0.5,0.5-1.5-0.1-2.3c-0.7-0.8-1.7-1.1-2.3-0.6
				C90.1,757.3,90.2,758.3,90.9,759.1z"/>
			<path class="st27" d="M92.1,753.1c0.7,0.8,1.7,1.1,2.3,0.6c0.6-0.5,0.5-1.5-0.1-2.3c-0.7-0.8-1.7-1.1-2.3-0.6
				C91.4,751.3,91.4,752.3,92.1,753.1z"/>
			<path class="st26" d="M64.8,785.2c-0.3,1-1.4,1.6-2.5,1.4c-1.1-0.2-1.7-1.2-1.4-2.2c0.3-1,1.4-1.6,2.5-1.4
				C64.6,783.3,65.2,784.2,64.8,785.2z"/>
			<path class="st26" d="M64.5,779c-0.3,1-1.4,1.6-2.5,1.4c-1.1-0.2-1.7-1.1-1.4-2.1c0.3-1,1.4-1.6,2.4-1.4
				C64.1,777.1,64.7,778.1,64.5,779z"/>
			<path class="st26" d="M63.9,773.2c-0.5,0.9-1.8,1.4-2.8,1c-1-0.4-1.4-1.4-0.8-2.3c0.6-0.9,1.8-1.4,2.8-1
				C64.1,771.3,64.5,772.3,63.9,773.2z"/>
			<path class="st26" d="M63.6,766.1c-0.3,1-1.4,1.6-2.4,1.5c-1.1-0.2-1.7-1.1-1.5-2.1c0.3-1,1.4-1.6,2.4-1.5
				C63.3,764.2,63.9,765.1,63.6,766.1z"/>
			<path class="st28" d="M61.9,760.1c-0.2,1-1.1,1.7-2.2,1.6c-1-0.1-1.7-1-1.6-2c0.2-1,1.1-1.7,2.2-1.6
				C61.4,758.2,62.1,759.1,61.9,760.1z"/>
			<path class="st28" d="M60.5,753.2c-0.2,1-1.1,1.7-2.2,1.6c-1-0.1-1.7-1-1.6-2c0.2-1,1.1-1.7,2.2-1.6
				C60,751.3,60.7,752.2,60.5,753.2z"/>
			<g>
				<polyline class="st29" points="92.6,751.8 58.6,753 91.9,757.8 62.2,765.5 91.2,770.8 63.1,778.7 90.3,781.9 63.3,790.6 
					91.6,788.3 62.9,784.8 90.9,776.4 62.1,772.6 92.3,764.1 60.1,759.9 93.2,751.8 				"/>
				<path class="st29" d="M80.4,751c0,0,21.1-5,23-2.9c1.9,2.1-16,4.1-19.9,4.1c-3.9,0-22.1-5.3-25.1-5.5c-1.5-0.1-8.7,2.8,2.1,4.3
					C71.3,752.4,80.4,751,80.4,751z"/>
				<line class="st29" x1="78" y1="749.8" x2="78.3" y2="753.4"/>
				<line class="st29" x1="80.2" y1="750" x2="77.6" y2="753"/>
				<polyline class="st29" points="92.1,759.9 78.1,751.3 63.2,756.9 				"/>
			</g>
			<path class="st30" d="M41.5,822c0,0,0.2,4.2,2.8,5.5c2.7,1.3,13,4.6,21.7,5.3c10.9,0.9,12.9,0.2,21.5,0.3
				c8.6,0.1,16.8-0.8,18.7-1.3c1.9-0.6,2.1-1.9,1.8-3.2c-0.3-1.3-1.1-3.1-1.1-3.1s-18.9,2.5-35.5,2c-12.8-0.4-22.5-2.3-25.5-4.8
				c-3.1-2.5-3.7-4.5-3.7-4.5L41.5,822z"/>
			<g>
				<g>
					<g>
						<path class="st31" d="M41.8,820.4c0,0,0,0.1,0.1,0.3"/>
						<path class="st32" d="M42.2,821.4c0.7,1.3,2.6,3.5,7.1,5c7.7,2.6,16.9,3,29.9,3.2c12.8,0.2,24.3-1.8,27.5-2.4"/>
						<path class="st31" d="M107.2,827.1c0.3-0.1,0.4-0.1,0.4-0.1"/>
					</g>
				</g>
			</g>
		</g>
		<g>
			<path class="st33" d="M248.1,799.9c0,0-1.6-2.1-3.5-4.3c-2-2.2-6.2-5.8-8.5-8c-2.3-2.2-8.9-15.6-8.4-20.7c0.5-5,0.3-9.1-0.9-9.6
				c-3.9-1.3-2.7,0.1-2.8,0.2c0,0.1,0,14.3,2,18.9c2,4.6,4.9,10,9.8,14.3C240.7,795,247.8,801.9,248.1,799.9z"/>
			<path class="st22" d="M298.7,823c0,0-0.8-3.9-2.7-5.4c-1.8-1.5-4.4-3-10.9-3.7c-6.5-0.7-15.3-0.8-23.1-5.1
				c-15.3-8.3-26.4-18.4-30.6-25.2c-4.2-6.8-6.4-22.3-5.9-25.5c0.4-3.2-1-4.7-8.2-4.4c-7.3,0.3-13.6,1.6-15,2.7
				c-1.4,1.1-24.8,17.4-24.8,17.4s-0.4,7.4-1.2,12.2c-0.8,4.8-2.2,9.9-2.6,15.1c-0.4,5.2,0,8.9,0,8.9l33.9,10.8l28.4,9.4l26.9,4.3
				l23.3-4.1l12-3.4L298.7,823z"/>
			<path class="st30" d="M301.3,827.3c0,0,0.6-1.9-0.5-2.2c-1.1-0.3-2.1-1-2.1-1s-2.1,3.7-9.4,4.7c-16.3,2.3-28.5,3.2-38,2.6
				c-9.5-0.5-20.9-3.4-31.3-7.1c-10.3-3.6-21.6-7.1-31.7-9.9c-10.5-2.9-15.1-5.8-15.1-5.8s-0.7,0.4-1.1,1.2
				c-0.4,0.8-0.7,4.4-0.7,4.4l38.8,11l15,6.1l11.5,3.8l21,1.7l19.2-1l17.8-3.2C294.6,832.6,302.3,831.6,301.3,827.3z"/>
			<path class="st34" d="M301.1,825.3c0,0-1.8,3.2-8.3,4.7c-6.5,1.4-26.4,4.1-39,3.2c-12.6-0.9-17.5-1.1-27.1-4.5
				c-9.6-3.4-27.8-9.6-35.4-12c-7.6-2.4-19.2-6.9-19.2-6.9"/>
			<path class="st23" d="M238.7,808.9c0,0,4.6-3.4,4.4-7.2c-0.2-3.8-4.8-7.1-10.1-12.2c-5.3-5.1-11.4-12.8-11.8-22.2
				c-0.5-9.4,1.1-11.9-3.8-12.3c-4.9-0.4-7.4-0.3-8.3,0.2c-0.8,0.5-0.1,1.8-0.6,8c-0.5,5.5-0.3,8.7-5,9c-4.7,0.3-25.9,1.5-25.9,1.5
				l-1.8,15.3C175.8,789,232.4,808.4,238.7,808.9z"/>
			<path class="st24" d="M208.7,757.1c0,0-18.3,0.5-23.5,1c-5.2,0.5-8.2,1.6-8.5,4c-0.3,2.3,0.8,11.7,0.8,11.7s25.9,0.1,28.6-2.2
				C208.9,769.1,210.2,759.3,208.7,757.1z"/>
			<path class="st26" d="M234,796.8c-0.6,0.9-0.1,2.1,1.2,2.6c1.3,0.6,2.9,0.3,3.5-0.6c0.6-0.9,0.1-2.1-1.2-2.6
				S234.6,795.9,234,796.8z"/>
			<path class="st26" d="M227.6,790.6c-0.9,0.8-0.7,2,0.5,2.8c1.1,0.8,2.7,0.8,3.6,0c0.9-0.8,0.7-2-0.5-2.8
				C230,789.9,228.4,789.9,227.6,790.6z"/>
			<path class="st26" d="M222.8,784.9c-1.1,0.6-1.3,1.8-0.4,2.8c0.8,1,2.4,1.3,3.5,0.7c1.1-0.6,1.3-1.8,0.4-2.8
				C225.4,784.6,223.9,784.3,222.8,784.9z"/>
			<path class="st26" d="M216.7,778.9c-1,0.6-1.1,1.9-0.2,2.8c0.9,0.9,2.5,1.2,3.5,0.5c1-0.6,1.1-1.9,0.2-2.8
				C219.4,778.6,217.8,778.3,216.7,778.9z"/>
			<path class="st26" d="M214.8,771.6c-1.1,0.6-1.3,1.8-0.5,2.8c0.8,1,2.4,1.3,3.5,0.8c1.1-0.6,1.3-1.8,0.5-2.8
				C217.5,771.4,215.9,771.1,214.8,771.6z"/>
			<path class="st26" d="M214.6,764.9c-1.3,0.1-2.3,1.1-2.2,2.2s1.3,2,2.6,2c1.3-0.1,2.3-1.1,2.2-2.2
				C217.1,765.7,215.9,764.9,214.6,764.9z"/>
			<path class="st26" d="M216.2,758c-1.1-0.5-2.7-0.1-3.4,0.9c-0.7,1-0.4,2.2,0.7,2.7c1.1,0.5,2.7,0.1,3.4-0.9
				C217.7,759.7,217.4,758.5,216.2,758z"/>
			<g>
				<polyline class="st35" points="214.4,759.8 227.9,759.7 214.3,767 228.8,772.8 219.6,780.7 234.7,785.8 229.6,792 243.4,795 
					236.3,798 238.9,790.2 224.5,787.3 231.4,779.4 215.7,773.3 227.8,766.4 214.4,759.8 				"/>
				<path class="st35" d="M220.4,760.5c0,0-11.4-2-11.5,0.3c-0.1,2.3,8.7,1.8,10.5,1.3c1.8-0.5,8.1-8,9.4-8.7c0.6-0.3,5,1.5,0.6,4.4
					C225.1,760.6,220.4,760.5,220.4,760.5z"/>
				<line class="st35" x1="221.1" y1="759" x2="222.3" y2="762.4"/>
				<line class="st35" x1="220.2" y1="759.5" x2="222.4" y2="762"/>
				<polyline class="st35" points="218.4,770.6 221.6,760.5 230.4,763.8 				"/>
			</g>
			<path class="st21" d="M178.1,815.2c3.6,1,18.2,4.9,28.6,8c10.3,3.1,19.8,7.7,28.5,10.3c8.6,2.5,19.3,2.3,25.6,2.5
				c6.4,0.1,23.9-1.9,31.6-3.4c7.7-1.5,8.9-5.3,8.9-5.3s0.2,2.5,0,4.2c-0.2-0.3-0.6-0.5-0.9-0.4c-0.5,0.1-0.9,0.6-0.7,1.3l0.1,0.8
				c-1,0.6-2.4,1.1-3.8,1.5c-0.2-0.6-0.8-0.9-1.4-0.9c-0.7,0.1-1.1,0.7-1,1.3l0.1,0.3c0,0-0.1,0-0.1,0c-1.5,0.5-4.2,1-7,1.5l0-0.2
				c-0.1-0.6-0.8-1.1-1.4-1c-0.7,0.1-1.1,0.7-1,1.3l0.1,0.3c-1.8,0.3-3.5,0.6-4.9,0.7c-0.1,0-0.3,0-0.4,0.1l-0.1-0.5
				c-0.1-0.6-0.8-1.1-1.4-1c-0.7,0.1-1.1,0.7-1,1.3l0.1,0.5c-1.7,0.2-3.6,0.4-5.6,0.6l-0.2-0.9c-0.1-0.6-0.8-1.1-1.4-1
				c-0.7,0.1-1.1,0.7-1,1.3l0.2,0.8c-2,0.2-4,0.3-5.6,0.3c-0.2,0-0.3,0-0.5,0v-0.7c0-0.7-0.6-1.2-1.2-1.2c-0.7,0-1.2,0.5-1.2,1.2
				l0,0.7c-1.7,0-3.4-0.1-5.2-0.2l0-0.7c0.1-0.6-0.4-1.2-1.1-1.2c-0.7,0-1.3,0.5-1.3,1.1l-0.1,0.7c-1.8-0.1-3.5-0.2-5.2-0.4l0.1-0.6
				c0.1-0.6-0.4-1.2-1-1.3c-0.7-0.1-1.3,0.4-1.4,1l-0.1,0.6c-0.3,0-0.7-0.1-1-0.1c-1.4-0.2-2.9-0.4-4.5-0.7l0-0.4
				c0.1-0.6-0.4-1.2-1-1.3c-0.7-0.1-1.3,0.4-1.4,1.1l0,0.1c-1.7-0.3-3.2-0.7-4.4-1l0.1-0.4c0.2-0.6-0.3-1.2-0.9-1.3
				c-0.6-0.1-1.3,0.3-1.5,1l-0.1,0.2l0,0c0,0-1.7-0.5-3.6-1.1l0.1-0.5c0.2-0.6-0.3-1.2-0.9-1.3c-0.7-0.1-1.3,0.3-1.5,1l0,0.2
				c-1.2-0.4-2.2-0.7-2.5-0.8c-1.1-0.4-0.9-2.4-1.1-2.5c-0.2-0.2-20-7.3-21.4-7.6c-1.5-0.3-1.4,0.3-1.7,1.4c-0.3,1-1.6,2.2-1.6,2.2
				l-3.9-0.8l0.3-1.5c0,0-2.8-0.7-3.5-0.8l-0.4,1.4l-4.1-1c0,0,0.4-1.5,0.3-1.6c-0.1-0.1-2.9-0.9-3.3-0.9c-0.4,0-0.8,1.6-0.8,1.6
				l-2.8-0.7c0,0,0.1-0.9,0.4-1.5c0.2-0.4-3.1-1.1-3.1-1.1l-0.6,1.9c0,0-2.8-1-3.1-1.3c-0.3-0.3,0.4-7.5,0.4-7.5
				S174.5,814.2,178.1,815.2z"/>
			<path class="st25" d="M291.6,816.8c0,0-4.5-1.8-7-1.3c-4.7,0.8-10.5,1.9-12.4,2.9c-2.4,1.2-4.6,2.5,4.7,2.3
				C286.1,820.6,295.2,819.9,291.6,816.8z"/>
			<path class="st36" d="M236.6,797.8"/>
		</g>
		<g>
			<defs>
				<path id="SVGID_3_" d="M257.6,307.9l-5-63.8c0.1-1.6,3.1-38.7-13.3-55.8c-8.4-8.8-31.2-18.2-40.6-21.9
					c-10.8-4.8-22.8-9.9-33.4-14.5c-14.1-6-28.7-12.2-29.9-13.4c-0.8-1.4-0.5-13,0.1-23.3l0.1-1.2H59l0.1,1.2
					c0.7,10.4,0.9,22,0.2,23.3c-1.8,1.7-27,12.6-49.2,22.1L0,164.9c-5.7,2.1-34.6,13.1-44.4,23.3c-16.4,17.1-13.5,54.2-13.3,55.7
					l-4.9,63.8c-4.3,23.9,5.8,124.8,5.8,124.8l42.1-2.4L-0.1,278c5.8,31.1,6,49.1,6.2,51.1c1.2,11.8-0.8,66.2-0.8,66.7
					c0.1,0.5,48.8,2.8,94.6,2.6c47-0.2,92.8-7.6,92.9-8.2c0-0.4-5.9-50.1-4.8-61.9c0.3-2.6,3.1-31.8,6.7-51.1l12.9,152.7l41.9,3.2
					C249.6,433.2,261.9,331.7,257.6,307.9z"/>
			</defs>
			<use xlink:href="#SVGID_3_"  style="overflow:visible;fill:#E7C4A5;"/>
			<clipPath id="SVGID_4_">
				<use xlink:href="#SVGID_3_"  style="overflow:visible;"/>
			</clipPath>
			<g class="st37">
				<rect x="-68.8" y="102.8" class="st38" width="5.1" height="354.3"/>
			</g>
			<g class="st37">
				<rect x="-60.2" y="102.8" class="st38" width="5.1" height="354.3"/>
			</g>
			<g class="st37">
				<rect x="-51.6" y="102.8" class="st38" width="5.1" height="354.3"/>
			</g>
			<g class="st37">
				<rect x="-43.1" y="102.8" class="st38" width="5.1" height="354.3"/>
			</g>
			<g class="st37">
				<rect x="-34.5" y="102.8" class="st38" width="5.1" height="354.3"/>
			</g>
			<g class="st37">
				<rect x="-25.9" y="102.8" class="st38" width="5.1" height="354.3"/>
			</g>
			<g class="st37">
				<rect x="-17.3" y="102.8" class="st38" width="5.1" height="354.3"/>
			</g>
			<g class="st37">
				<rect x="-8.8" y="102.8" class="st38" width="5.1" height="354.3"/>
			</g>
			<g class="st37">
				<rect x="-0.2" y="102.8" class="st38" width="5.1" height="354.3"/>
			</g>
			<g class="st37">
				<rect x="8.4" y="102.8" class="st38" width="5.1" height="354.3"/>
			</g>
			<g class="st37">
				<rect x="16.9" y="102.8" class="st38" width="5.1" height="354.3"/>
			</g>
			<g class="st37">
				<rect x="25.5" y="102.8" class="st38" width="5.1" height="354.3"/>
			</g>
			<g class="st37">
				<rect x="34.1" y="102.8" class="st38" width="5.1" height="354.3"/>
			</g>
			<g class="st37">
				<rect x="42.7" y="102.8" class="st38" width="5.1" height="354.3"/>
			</g>
			<g class="st37">
				<rect x="51.2" y="102.8" class="st38" width="5.1" height="354.3"/>
			</g>
			<g class="st37">
				<rect x="59.8" y="102.8" class="st38" width="5.1" height="354.3"/>
			</g>
			<g class="st37">
				<rect x="68.4" y="102.8" class="st38" width="5.1" height="354.3"/>
			</g>
			<g class="st37">
				<rect x="76.9" y="102.8" class="st38" width="5.1" height="354.3"/>
			</g>
			<g class="st37">
				<rect x="85.5" y="102.8" class="st38" width="5.1" height="354.3"/>
			</g>
			<g class="st37">
				<rect x="94.1" y="102.8" class="st38" width="5.1" height="354.3"/>
			</g>
			<g class="st37">
				<rect x="102.7" y="102.8" class="st38" width="5.1" height="354.3"/>
			</g>
			<g class="st37">
				<rect x="111.2" y="102.8" class="st38" width="5.1" height="354.3"/>
			</g>
			<g class="st37">
				<rect x="119.8" y="102.8" class="st38" width="5.1" height="354.3"/>
			</g>
			<g class="st37">
				<rect x="128.4" y="102.8" class="st38" width="5.1" height="354.3"/>
			</g>
			<g class="st37">
				<rect x="136.9" y="102.8" class="st38" width="5.1" height="354.3"/>
			</g>
			<g class="st37">
				<rect x="145.5" y="102.8" class="st38" width="5.1" height="354.3"/>
			</g>
			<g class="st37">
				<rect x="154.1" y="102.8" class="st38" width="5.1" height="354.3"/>
			</g>
			<g class="st37">
				<rect x="162.7" y="102.8" class="st38" width="5.1" height="354.3"/>
			</g>
			<g class="st37">
				<rect x="171.2" y="102.8" class="st38" width="5.1" height="354.3"/>
			</g>
			<g class="st37">
				<rect x="179.8" y="102.8" class="st38" width="5.1" height="354.3"/>
			</g>
			<g class="st37">
				<rect x="188.4" y="102.8" class="st38" width="5.1" height="354.3"/>
			</g>
			<g class="st37">
				<rect x="196.9" y="102.8" class="st38" width="5.1" height="354.3"/>
			</g>
			<g class="st37">
				<rect x="205.5" y="102.8" class="st38" width="5.1" height="354.3"/>
			</g>
			<g class="st37">
				<rect x="214.1" y="102.8" class="st38" width="5.1" height="354.3"/>
			</g>
			<g class="st37">
				<rect x="222.7" y="102.8" class="st38" width="5.1" height="354.3"/>
			</g>
			<g class="st37">
				<rect x="231.2" y="102.8" class="st38" width="5.1" height="354.3"/>
			</g>
			<g class="st37">
				<rect x="239.8" y="102.8" class="st38" width="5.1" height="354.3"/>
			</g>
			<g class="st37">
				<rect x="248.4" y="102.8" class="st38" width="5.1" height="354.3"/>
			</g>
			<g class="st37">
				<rect x="256.9" y="102.8" class="st38" width="5.1" height="354.3"/>
			</g>
		</g>
		<g>
			<path class="st39" d="M136.7,137.6c-1.9-4.4-1.4-9.4-0.8-11.3c1.5-4.6,0.8-6.1-0.4-6.6c-1.1-0.6-3.2-0.7-4.5,0.6
				c-0.6,0.6-17.8,10.3-34.2,10.3c-16.5,0-32.1-9.7-32.8-10.3c-1.3-1.3-3.3-1.2-4.5-0.6c-1.1,0.6-1.9,2-0.4,6.6
				c0.6,1.9,1.1,6.9-0.8,11.3c-1.9,4.4-13.6,7.7-13.6,7.7s6.5,19.9,53.6,20.4c40.8,0.4,52.2-20,52.2-20S138.7,141.9,136.7,137.6z"/>
			<g>
				<defs>
					<path id="SVGID_5_" d="M136.7,137.7c-1.9-4.4-1.4-9.4-0.8-11.3c1.5-4.6,0.8-6.1-0.4-6.6c-1.1-0.6-3.2-0.7-4.5,0.6
						c-0.6,0.6-17.8,10.3-34.2,10.3c-16.5,0-32.1-9.7-32.8-10.3c-1.3-1.3-3.3-1.2-4.5-0.6c-1.1,0.6-1.9,2-0.4,6.6
						c0.6,1.9,1.1,6.9-0.8,11.3c-1.9,4.4-13.6,8.3-13.6,8.3s6.2,19.2,53.3,19.7c40.8,0.4,51.7-19.8,51.7-19.8S138.7,142,136.7,137.7
						z"/>
				</defs>
				<clipPath id="SVGID_6_">
					<use xlink:href="#SVGID_5_"  style="overflow:visible;"/>
				</clipPath>
				<rect x="59.7" y="104" class="st40" width="2.6" height="72.1"/>
				<rect x="54.6" y="104" class="st40" width="2.6" height="72.1"/>
				<rect x="49.6" y="104" class="st40" width="2.6" height="72.1"/>
				<rect x="44.9" y="104" class="st40" width="2.6" height="72.1"/>
				<rect x="64.9" y="104" class="st40" width="2.6" height="72.1"/>
				<rect x="70.4" y="104" class="st40" width="2.6" height="72.1"/>
				<rect x="75.6" y="104" class="st40" width="2.6" height="72.1"/>
				<rect x="81.1" y="104" class="st40" width="2.6" height="72.1"/>
				<rect x="86.3" y="104" class="st40" width="2.6" height="72.1"/>
				<rect x="91.8" y="104" class="st40" width="2.6" height="72.1"/>
				<rect x="97" y="104" class="st40" width="2.6" height="72.1"/>
				<rect x="102.5" y="104" class="st40" width="2.6" height="72.1"/>
				<rect x="107.7" y="104" class="st40" width="2.6" height="72.1"/>
				<rect x="113.2" y="104" class="st40" width="2.6" height="72.1"/>
				<rect x="118.4" y="104" class="st40" width="2.6" height="72.1"/>
				<rect x="123.6" y="104" class="st40" width="2.6" height="72.1"/>
				<rect x="128.8" y="104" class="st40" width="2.6" height="72.1"/>
				<rect x="134.3" y="104" class="st40" width="2.6" height="72.1"/>
				<rect x="139.4" y="104" class="st40" width="2.6" height="72.1"/>
				<rect x="144.4" y="104" class="st40" width="2.6" height="72.1"/>
				<rect x="149.4" y="104" class="st40" width="2.6" height="72.1"/>
			</g>
		</g>
		<path class="st41" d="M51,83.8c0,0-1.7-2.1-4.6-1.6c-2.9,0.5-1.7,15-1.7,16.6c0,3.3,9.3,9.7,9.3,9.7L51,83.8z"/>
		<path class="st41" d="M143.8,83.8c0,0,1.7-2.1,4.6-1.6c2.9,0.5,1.7,15,1.7,16.6c0,3.3-9.3,9.7-9.3,9.7L143.8,83.8z"/>
		<path class="st42" d="M88.7,29.6c7.1-0.4,10.2-0.4,17.3,0c16.8,1,41.8,18.7,39.9,38.3c-0.6,5.7-4.4,42.2-5.7,44.3
			c-1.4,2.1-21.5,20.2-25.1,22.9c-3.6,2.8-17.6,3.2-17.6,3.2s-14-0.4-17.6-3.2c-3.6-2.8-23.8-20.8-25.1-22.9
			c-1.4-2.1-5.2-38.6-5.7-44.3C46.9,48.3,71.9,30.6,88.7,29.6z"/>
		<g>
			<path class="st43" d="M114.7,115.7c0,0-7.8-1.8-9.9-2.1c-2.1-0.3-6.7,0.8-7.4,0.8c-0.6,0-0.1,3-0.1,3S108,118.3,114.7,115.7z"/>
			<path class="st44" d="M80,115.7c0,0,7.6-1.8,9.7-2.1c2.2-0.3,6.9,0.8,7.5,0.8c0.6,0,0.1,3,0.1,3S86.7,118.3,80,115.7z"/>
			<path class="st45" d="M80,115.7c0.4,0.3,13.7,1.3,17.3,1.6c3.4-0.3,16.9-1.4,17.4-1.6c0,0-8,6.3-12.3,7.1c-1.8,0.3-4.5,0.5-5,0.5
				c-0.5,0-3.3-0.2-5-0.5C88.1,122.1,80,115.7,80,115.7z"/>
		</g>
		<g>
			<path class="st46" d="M86.1,103.6c0.7-0.3,8.9,1.6,11.4,1.6s10.5-1.9,11.2-1.6c0.7,0.3-0.7,1.6-0.7,1.6c-1.9,1-6.6,1.8-9.4,2.3
				h-2.3c-2.8-0.5-7.5-1.4-9.4-2.3C86.8,105.2,85.4,103.9,86.1,103.6z"/>
			<path class="st47" d="M102,106.1c1.2-0.3,3.4-0.4,3.9-1.1c0.5-0.6-3.7,0.1-5.4,0.7C98.7,106.2,100.9,106.4,102,106.1z"/>
			<path class="st47" d="M92.5,106.1c-1.1-0.3-3.4-0.4-3.9-1.1c-0.5-0.6,3.7,0.1,5.4,0.7C95.8,106.2,93.7,106.4,92.5,106.1z"/>
		</g>
		<path class="st48" d="M102.1,83.1l1.4,12.3c0,0,1.1,2.4,2.5,3.2c1.1,0.6,1.4,0.9,1.4,0.9L102.1,83.1z"/>
		<path class="st49" d="M123.7,122.9c0.4-0.1,2.2-8.5-1.4-10.4c-3.6-1.9-14.8-5.3-17.2-5.7c-2.2-0.4-5.6,0.8-6.9,0.9
			c-0.2,0-0.4,0-0.8,0c-0.4,0-0.6,0-0.8,0c-1.3-0.1-4.7-1.3-6.9-0.9c-2.4,0.5-13.6,3.8-17.2,5.7c-3.6,1.9-1.8,10.4-1.4,10.4
			l-2.7,3.4l17.8,6.9c0,0,0.2-5.3-0.7-6.1c-0.9-0.9-8.1-3.5-8.3-5.2c-0.2-1.7,0.3-5,2.8-6c2.5-0.9,12.4-1.2,14.3-1.5
			c1.9-0.3,1.3-1.9,1.6-2.4c0.1-0.3,0.8-0.4,1.5-0.5c0.6,0.1,1.3,0.2,1.5,0.5c0.3,0.5-0.3,2.1,1.6,2.4c1.9,0.3,11.7,0.5,14.3,1.5
			c2.6,0.9,3,4.3,2.8,6c-0.2,1.7-7.5,4.3-8.3,5.2c-0.8,0.9-0.7,6.1-0.7,6.1l17.8-6.9L123.7,122.9z"/>
		<g>
			<g>
				<path class="st50" d="M65.9,86c0,0,5-3.4,7.2-3.8c2.2-0.3,6.9-0.5,9.8,0.7c3.2,1.3,5.7,4.4,5.7,4.4s-4.2,2-10.5,2.1
					C71.7,89.4,68.6,88,65.9,86z"/>
				<path class="st48" d="M88.7,87.5c0,0,4.7-4.5,2.6-8.1c-2.1-3.7-9.9-3.5-16.3-4.3c-7.2-1-14.1,1.8-14.1,2.2c0,0.4,0.9,4,1.8,5.9
					c1.2,2.3,2.1,2.2,2.1,2.2s4.8-1.8,6.1-2.3c1.3-0.5,5.2-1.2,7.6-1.3C85.1,81.5,88.7,87.5,88.7,87.5z"/>
				<path class="st51" d="M60.9,77.2c0,0,3.4-5.5,7.2-5.6c3.8-0.1,20.3,1.5,20.9,2.2c0.6,0.7,2.5,5.4,2,5.1c-1.4-1-14.9-4-18.2-4
					C69.5,74.9,66,75,60.9,77.2z"/>
				<g>
					<path class="st52" d="M82.6,85.6c0,2.1-2.4,3.8-5.3,3.8c-2.9,0-5.3-1.7-5.3-3.8c0-2.1,2.4-3.8,5.3-3.8
						C80.2,81.7,82.6,83.5,82.6,85.6z"/>
					<path class="st53" d="M80.5,85.6c0,1.4-1.5,2.5-3.2,2.5S74,87,74,85.6c0-1.4,1.5-2.5,3.2-2.5S80.5,84.2,80.5,85.6z"/>
				</g>
				<path class="st54" d="M64.5,85.2c0,0,3.4-4.1,5.4-5.2c3.9-2.2,11.8-1.9,14.8,1.7c3.3,3.9,3.8,5.6,3.8,5.6s-5.7-5.5-10-5.6
					C74.2,81.5,66.5,84,64.5,85.2z"/>
				<path class="st55" d="M63.8,84.8c0,0,8.7-3.8,11.6-3.9c4.5-0.2,9.8,2,11.6,4.4c1.8,2.4,1.8,2.4,1.8,2.4s-4.1-4.9-9-5.3
					c-6.4-0.6-14.1,3.7-14.1,3.7L63.8,84.8z"/>
				<path class="st42" d="M71.1,88.2c2.6,0.8,4.6,0.8,7.8,0.7c3.3-0.1,9.5-1.5,9.5-1.5l-4.8,1.8c-6.5,2.5-12.9,0.1-14.4-0.8
					c-1.5-0.9-3.7-2.6-3.7-2.6S68.6,87.4,71.1,88.2z"/>
				<path class="st46" d="M65.7,85.9c0,0,3.1,3.2,9.8,3.8c6,0.5,12.8-2.2,12.8-2.2s-7.2,3.2-11.8,3.3C73.2,90.9,68.4,89.8,65.7,85.9
					z"/>
			</g>
			<g>
				<path class="st50" d="M128.9,86c0,0-5-3.4-7.2-3.8c-2.2-0.3-6.9-0.5-9.8,0.7c-3.2,1.3-5.7,4.4-5.7,4.4s4.2,2,10.5,2.1
					C123.1,89.4,126.2,88,128.9,86z"/>
				<path class="st48" d="M106.1,87.5c0,0-4.7-4.5-2.6-8.1c2.1-3.7,9.9-3.5,16.3-4.3c7.2-1,14.1,1.8,14.1,2.2c0,0.4-0.9,4-1.8,5.9
					c-1.2,2.3-2.1,2.2-2.1,2.2s-4.8-1.8-6.1-2.3c-1.3-0.5-5.2-1.2-7.6-1.3C109.7,81.5,106.1,87.5,106.1,87.5z"/>
				<path class="st51" d="M133.9,77.2c0,0-3.4-5.5-7.2-5.6c-3.8-0.1-20.3,1.5-20.9,2.2c-0.6,0.7-2.5,5.4-2,5.1c1.4-1,14.9-4,18.2-4
					C125.3,74.9,128.8,75,133.9,77.2z"/>
				<g>
					<path class="st52" d="M112.3,85.6c0,2.1,2.4,3.8,5.3,3.8c2.9,0,5.3-1.7,5.3-3.8c0-2.1-2.4-3.8-5.3-3.8
						C114.6,81.7,112.3,83.5,112.3,85.6z"/>
					<path class="st53" d="M114.3,85.6c0,1.4,1.5,2.5,3.2,2.5s3.2-1.1,3.2-2.5c0-1.4-1.5-2.5-3.2-2.5S114.3,84.2,114.3,85.6z"/>
				</g>
				<path class="st54" d="M130.3,85.2c0,0-3.4-4.1-5.4-5.2c-3.9-2.2-11.8-1.9-14.8,1.7c-3.3,3.9-3.8,5.6-3.8,5.6s5.7-5.5,10-5.6
					C120.6,81.5,128.3,84,130.3,85.2z"/>
				<path class="st55" d="M131,84.8c0,0-8.7-3.8-11.6-3.9c-4.5-0.2-9.8,2-11.6,4.4c-1.8,2.4-1.8,2.4-1.8,2.4s4.1-4.9,9-5.3
					c6.4-0.6,14.1,3.7,14.1,3.7L131,84.8z"/>
				<path class="st42" d="M123.7,88.2c-2.6,0.8-4.6,0.8-7.8,0.7c-3.3-0.1-9.5-1.5-9.5-1.5l4.8,1.8c6.5,2.5,12.9,0.1,14.4-0.8
					c1.5-0.9,3.7-2.6,3.7-2.6S126.2,87.4,123.7,88.2z"/>
				<path class="st46" d="M129.1,85.9c0,0-3.1,3.2-9.8,3.8c-6,0.5-12.9-2.2-12.9-2.2s7.2,3.2,11.8,3.3
					C121.6,90.9,126.4,89.8,129.1,85.9z"/>
			</g>
		</g>
		<g>
			<path class="st56" d="M-70,420.2c0,0-11.7-146.3,2.4-192c8.9-29,17.5-44.2,42.2-56.7C-4.7,161,46,143.9,46,143.9
				s34.9,101.8,36.8,109c7.1,26.5-8.4,156.2-8.4,156.2H-9.2l5.6-158.7l-9.9,169.4L-70,420.2z"/>
			<g>
				<path class="st56" d="M261.1,419.4c0,0,11.6-138.7,1.9-188.4c-5-25.6-18.6-47-43.3-59.5c-20.7-10.5-67.9-27.1-67.9-27.1
					s-30.4,92.5-36.6,108.4c-10.1,25.9,2.1,156.3,2.1,156.3l83.9,0.1l-5.3-164.7l9.5,175.5L261.1,419.4z"/>
			</g>
			<polygon class="st57" points="83,254 20.4,189.2 30.7,178.8 18.4,175.5 34.2,150.5 45.2,146 			"/>
			<polygon class="st57" points="114.8,254 177.3,189.2 167.1,178.8 179.4,175.5 163.6,150.5 152.6,146 			"/>
			<polygon class="st58" points="115.1,252.9 176.5,187.2 166.3,176.8 178.6,173.4 162.7,148.4 151.7,144.5 			"/>
			<polygon class="st58" points="82.7,252.9 21.3,187.2 31.5,176.8 19.2,173.4 35.1,148.4 46,143.9 			"/>
			<polygon class="st59" points="-13.5,419.8 -8.7,239.6 -3.8,261.8 			"/>
			<polygon class="st59" points="187.4,394.1 117,409.4 201,409.4 196,240.4 			"/>
		</g>
		<path class="st49" d="M49.1,47.5c2-6.2,10-13.5,12.1-15c2.1-1.5,13-6.9,13-6.9l18-6.1L86,22.7l23.4-3.3l-2,3.3l19.2-1.7l-8.8,5.2
			l8.4-1.9l-3.6,4.4l6.8-0.8l-0.8,2.1l8,4.6c4.7,4.9,12,10.6,12.1,22.1c0.1,4.3-1.8,10.5-2.5,16.9c-0.6,5.9-3.8,18.3-3.8,18.3
			s-2.4-6.6-1.5-15.7c0.9-9.1-0.8-19.9-4.1-23.5c-3.3-3.6-9-2.7-19.5-2.3c-10.5,0.4-17.3,2.3-23.5,1.7c-6.2-0.5-16.2-3-19.9-3.7
			c-3.7-0.7-9,0.1-12.8,1.5c-3.8,1.4-5.3,12.2-6.9,21.4c-1.6,9.1-2.9,18.3-2.9,18.3s-2.8-19.1-3.3-23.3
			C47.7,62.3,47.1,53.6,49.1,47.5z"/>
		<path class="st49" d="M51.5,88.1c0,0,5.8,16.7,14.4,21.8c8.6,5.1,20,12.8,24.8,14.3c4.7,1.5,12.8,0.8,15.6-0.8
			c2.8-1.6,3.5-2.3,10.8-6.6c17.3-10.2,26.5-29.2,26.5-29.2s-3.1,23.8-3.4,29.1c-0.3,5.3-2.7,14.3-5.4,17.9
			c-2.7,3.6-3.5,4.1-3.5,4.1l0.7-4l-8.3,7l-4.2,1.4l-12.1,10.4l-0.8-2.6l-4.4,6.1l-10-4.5l-8.3-6l-9.6-5.7l1,2.6
			c0,0-18.6-17.2-19.4-20.2C54.8,120,51.5,88.1,51.5,88.1z"/>
	</g>
</g>
</svg>
