<?xml version="1.0" encoding="utf-8"?>
<!-- Generator: Adobe Illustrator 23.0.4, SVG Export Plug-In . SVG Version: 6.00 Build 0)  -->
<svg version="1.0" id="Layer_1" xmlns="http://www.w3.org/2000/svg" xmlns:xlink="http://www.w3.org/1999/xlink" x="0px" y="0px"
	 viewBox="0 0 200 200" style="enable-background:new 0 0 200 200;" xml:space="preserve">
<style type="text/css">
	.st0{clip-path:url(#SVGID_2_);}
	.st1{fill:#DCA58E;}
	.st2{fill:#381C12;}
	.st3{fill:#593220;}
	.st4{fill:none;stroke:#421B0B;stroke-width:0.2551;stroke-linecap:round;stroke-linejoin:round;}
	.st5{fill:#683B2A;}
	.st6{fill:#AEAEAE;}
	.st7{fill:#E3AB94;}
	.st8{fill:#E1A98E;}
	.st9{fill:#DCAB8B;}
	.st10{fill:#DCA48D;}
	.st11{fill:#ECB9A1;}
	.st12{fill:#BB8181;}
	.st13{fill:#A97171;}
	.st14{fill:#CD9696;}
	.st15{fill:#A98174;}
	.st16{fill:#7A4A46;}
	.st17{fill:#FFFFFF;}
	.st18{fill:#CDA18D;}
	.st19{fill:#352A20;}
	.st20{fill:#332B22;}
	.st21{fill:#1C1C1C;}
	.st22{fill:#BB8A79;}
	.st23{fill:#DCAE9A;}
	.st24{fill:#2A2432;}
	.st25{fill:#D5A38D;}
	.st26{fill:#EEEEEE;}
	.st27{fill:#FAFCFA;}
	.st28{fill:#D0DCDF;}
	.st29{fill:#F8F8F8;}
	.st30{fill:#D8DEE1;}
	.st31{fill:#2B335C;}
	.st32{fill:#1F2752;}
	.st33{fill:#B7BCD0;}
	.st34{fill:#A1A7BB;}
	.st35{fill:#BBA281;}
	.st36{fill:#262F58;}
	.st37{fill:#222B54;}
	.st38{fill:#212A54;}
	.st39{fill:#020202;}
	.st40{fill:#333B62;}
	.st41{fill:#1A224E;}
	.st42{fill:#0F1846;}
	.st43{fill:#384066;}
</style>
<g>
	<defs>
		<rect id="SVGID_1_" width="200" height="200"/>
	</defs>
	<use xlink:href="#SVGID_1_"  style="overflow:visible;fill:#C1C1C1;"/>
	<clipPath id="SVGID_2_">
		<use xlink:href="#SVGID_1_"  style="overflow:visible;"/>
	</clipPath>
	<g class="st0">
		<g>
			<path class="st1" d="M97.7,458.7l9.6-72.2c0,0-11.7,0.4-48.7-1.3c-37-1.7-47.8-8.7-47.8-8.7s-3.4,22.5-5.7,53.1
				C-3.8,546,21.4,610.3,17.2,636.4c-1.3,8.2-10.4,49.9-11.7,62c-1.1,10.7,10.2,80.7,10.2,89.5s-16.2,27.7-16.2,27.7l3.9,9.6h51.2
				l2.4-9.6c0,0-10.1-22.9-10.1-27c0-6.6,22.9-76.6,22.9-99.7c0-23.1-7-38.6,2.3-59.1C79.8,612.6,97.7,458.7,97.7,458.7z"/>
			<path class="st1" d="M99,458.7l-9.6-72.2c0,0,11.7,0.4,48.7-1.3c37-1.7,47.8-8.7,47.8-8.7s3.4,22.5,5.7,53.1
				c8.9,116.5-16.3,180.8-12.1,206.8c1.3,8.2,10.4,49.9,11.7,62c1.1,10.7-10.2,80.7-10.2,89.5s16.2,27.7,16.2,27.7l-3.9,9.6h-51.2
				l-2.4-9.6c0,0,10.1-22.9,10.1-27c0-6.6-22.9-76.6-22.9-99.7c0-23.1,7-38.6-2.3-59.1C117,612.6,99,458.7,99,458.7z"/>
		</g>
		<g>
			<g>
				<path class="st2" d="M-2.6,814.8c0,0,0.1,6.4,0.4,7.5c0.3,1.2,7.8,10.7,17.8,13.7c12.6,3.8,18.4,2.5,26.5-0.3
					c9.7-3.4,16.2-12,16.5-13.2c0.4-1.2,0.1-7.8,0.1-7.8H-2.6z"/>
				<g>
					<g>
						<g>
							<path class="st3" d="M55,806.6c-5.2-7-4.3-12.9-4.3-12.9s-10-2.2-22.3-1.8c-12.3-0.4-16.4,1.8-16.4,1.8s-3.2,5.8-8.5,12.8
								c-5.2,6.7-6,8.2-6,8.2c2.8,9.6,19.8,16.1,29.5,16.1c11.4,0.7,28.9-5.5,31.7-15.1C58.5,815.8,60,813.4,55,806.6z"/>
						</g>
					</g>
				</g>
				<polyline class="st4" points="12.4,796 47.7,799.4 11.6,803.1 49.4,807.2 11,807.5 48.8,803.3 12.5,798.6 47.1,795.2 				"/>
			</g>
			<g>
				<path class="st2" d="M199.4,814.8c0,0-0.1,6.4-0.4,7.5c-0.3,1.2-7.8,10.7-17.8,13.7c-12.6,3.8-18.4,2.5-26.5-0.3
					c-9.7-3.4-16.2-12-16.5-13.2c-0.4-1.2-0.1-7.8-0.1-7.8H199.4z"/>
				<g>
					<g>
						<g>
							<path class="st3" d="M141.8,806.6c5.2-7,4.4-12.9,4.4-12.9s10-2.2,22.3-1.8c12.3-0.4,16.4,1.8,16.4,1.8s3.2,5.8,8.5,12.8
								c5.2,6.7,6,8.2,6,8.2c-2.8,9.6-20,16.1-29.6,16.1c-11.4,0.7-28.7-5.5-31.5-15.1C138.3,815.8,136.8,813.4,141.8,806.6z"/>
						</g>
					</g>
				</g>
				<polyline class="st4" points="184.4,796 149.1,799.4 185.2,803.1 147.4,807.2 185.8,807.5 148.1,803.3 184.3,798.6 149.7,795.2 
									"/>
			</g>
			<path class="st5" d="M45.3,816.6c0,3-7.7,5.5-17.2,5.5c-9.5,0-17.2-2.4-17.2-5.5c0-3,7.7-5.5,17.2-5.5
				C37.6,811.1,45.3,813.6,45.3,816.6z"/>
			<path class="st5" d="M186,816.6c0,3-7.7,5.5-17.2,5.5c-9.5,0-17.2-2.4-17.2-5.5c0-3,7.7-5.5,17.2-5.5
				C178.2,811.1,186,813.6,186,816.6z"/>
		</g>
		<path class="st6" d="M58.7,134.7c0,0,11.1,5.9,16.5,6.2c5.5,0.3,39.8,0.6,43-0.1c3.1-0.7,21.6-6.1,21.6-6.1s-6.5,22.8-11,25.7
			c-4.5,2.9-64.5,0.6-64.5,0.6S57.7,148.4,58.7,134.7z"/>
		<path class="st7" d="M214.3,177.3c-27.8-13.4-77.7-33.1-79.1-35.3c-1.4-2.2,0-23.9,0-23.9H61.6c0,0,1.4,21.7,0,23.9
			c-1.4,2.2-48.8,21.9-79.1,35.2c-20.6,9,16,82.4,16,82.4s12.9,68.2,13.3,72.2c1.2,12-1.3,49.1-1.3,49.1s0.4,3.3,16.8,6.1
			c16.4,2.8,53.1,4.5,71.1,4.4c18-0.1,54.7-1.6,71.1-4.4c16.4-2.8,16.7-6.1,16.7-6.1s-2.4-37.1-1.2-49.1
			c0.4-4.1,13.3-72.2,13.3-72.2S234.4,187,214.3,177.3z"/>
		<g>
			<path class="st8" d="M-55.3,246.9l-5,63.9c-4.4,24.1,10.5,114.6,10.5,114.6l30.3-2.4l22-163.8v-90.7c0,0-34.1,12.3-44.7,23.3
				C-58.5,208.9-55.3,246.9-55.3,246.9z"/>
			<path class="st9" d="M-31.4,501.1c-3.3-3.4-26.6-26.4-27.4-31.3c-1.2-6.9,9.1-44.3,9.1-44.3l30.3-2.4c0,0,6.9,18.9,7.7,21.5
				c0.8,2.7,0,32.4-0.1,33.9c-0.1,1.5-10.2,1.1-10.6-1.1c-0.4-2.2-5.2-18.8-5.2-18.8l0,0l-1.7,17.4c0,0,10.4,14.4,11.7,16.5
				C-16.8,494-28.2,504.4-31.4,501.1z"/>
		</g>
		<g>
			<path class="st8" d="M252.3,246.9l5,63.9c4.4,24.1-10.5,114.6-10.5,114.6l-30.2-2.4l-22-163.8v-90.7c0,0,34.1,12.3,44.7,23.3
				C255.5,208.9,252.3,246.9,252.3,246.9z"/>
			<path class="st9" d="M228.4,501.1c3.3-3.4,26.6-26.4,27.4-31.3c1.2-6.9-9.1-44.3-9.1-44.3l-30.2-2.4c0,0-6.9,18.9-7.7,21.5
				c-0.8,2.7,0,32.4,0.1,33.9c0.1,1.5,10.2,1.1,10.6-1.1c0.4-2.2,5.2-18.8,5.2-18.8l0,0l1.7,17.4c0,0-10.4,14.4-11.7,16.5
				C213.8,494,225.1,504.4,228.4,501.1z"/>
		</g>
		<path class="st10" d="M53.5,87.6c0,0-2-2.1-5.6-1.6c-3.6,0.5-2.1,15-2.1,16.6c0,3.3,11.4,9.7,11.4,9.7L53.5,87.6z"/>
		<path class="st10" d="M143.4,87.6c0,0,2.1-2.1,5.6-1.6c3.6,0.5,2.1,15,2.1,16.6c0,3.3-11.4,9.7-11.4,9.7L143.4,87.6z"/>
		<path class="st11" d="M90.1,33.4c6.8-0.4,9.9-0.4,16.7,0c16.3,1,40.4,18.7,38.5,38.3c-0.6,5.7-4.7,42-5.6,44.3
			c-4.1,11.7-20.8,24.6-24.3,27.4c-3.5,2.8-17,3.2-17,3.2s-13.5-0.4-17.1-3.2c-3.5-2.8-21.8-17.9-24.3-27.4
			c-0.6-2.3-5-38.6-5.5-44.3C49.7,52.1,73.9,34.4,90.1,33.4z"/>
		<g>
			<path class="st12" d="M117.1,123c0,0-8.3-2.1-10.6-2.5c-2.3-0.4-7.2,0.9-7.9,0.9c-0.7,0-0.1,3.5-0.1,3.5S109.9,126.1,117.1,123z"
				/>
			<path class="st13" d="M79.8,123c0,0,8.2-2.1,10.5-2.5c2.3-0.4,7.4,0.9,8.1,0.9c0.7,0,0.1,3.5,0.1,3.5S87,126.1,79.8,123z"/>
			<path class="st14" d="M79.8,123c0.4,0.3,14.8,1.4,18.6,1.7c3.7-0.3,18.1-1.5,18.7-1.7c0,0-5.3,6.4-13.2,7.4
				c-1.9,0.2-4.8,0.5-5.4,0.5c-0.6,0-3.5-0.3-5.4-0.5C84.4,129.1,79.8,123,79.8,123z"/>
		</g>
		<g>
			<path class="st15" d="M85.7,108.8c0.8-0.3,9.8,3.6,12.7,3.6c2.8,0,12-3.9,12.8-3.6c0.8,0.3-0.8,1.8-0.8,1.8
				c-2.1,1.1-7.4,2-10.6,2.6h-2.6c-3.2-0.5-8.5-1.5-10.7-2.6C86.5,110.6,84.9,109.1,85.7,108.8z"/>
			<path class="st16" d="M104.9,111.9c1.2-0.4,3.7-0.9,4.1-1.5c0.4-0.7-4.1,0.6-5.9,1.3C101.3,112.5,103.7,112.3,104.9,111.9z"/>
			<path class="st16" d="M92.2,111.9c-1.3-0.4-3.7-0.8-4.1-1.5c-0.5-0.7,4.1,0.6,6,1.3C95.9,112.4,93.5,112.3,92.2,111.9z"/>
		</g>
		<g>
			<path class="st17" d="M67.7,89.4c0,0,5-3.7,7.2-4.1c2.2-0.4,6.9-0.6,9.8,0.8c3.2,1.4,5.7,4.7,5.7,4.7S86.1,93,79.8,93
				C73.6,93.1,70.4,91.6,67.7,89.4z"/>
			<path class="st18" d="M90.5,91c0,0,4.7-4.5,2.6-8.2c-2.1-3.8-9.9-3.5-16.3-4.4c-7.2-1-14.1,1.9-14.1,2.2c0,0.4,0.9,4.1,1.8,5.9
				c1.2,2.3,2.1,2.2,2.1,2.2s4.8-1.8,6.1-2.3c1.3-0.5,5.2-1.2,7.6-1.3C86.9,85,90.5,91,90.5,91z"/>
			<path class="st19" d="M62.7,80.6c0,0,3.4-5.5,7.2-5.6c3.8-0.1,20.3,1.5,20.9,2.2c0.6,0.8,2.5,5.5,2,5.1c-1.4-1-14.9-4.1-18.2-4
				C71.3,78.4,67.8,78.4,62.7,80.6z"/>
			<g>
				<path class="st20" d="M84.4,89c0,2.3-2.4,4.1-5.3,4.1c-2.9,0-5.3-1.9-5.3-4.1c0-2.3,2.4-4.1,5.3-4.1C82,84.8,84.4,86.7,84.4,89z
					"/>
				<path class="st21" d="M82.3,89c0,1.4-1.5,2.5-3.2,2.5s-3.2-1.1-3.2-2.5c0-1.4,1.5-2.5,3.2-2.5S82.3,87.6,82.3,89z"/>
			</g>
			<path class="st22" d="M67.5,89.3c0,0,6.1,3.3,9.3,3.7c5.4,0.7,13.3-2,13.3-2s-4.4,4.6-11.8,4.7C72.7,95.8,70.2,93.5,67.5,89.3z"
				/>
			<path class="st23" d="M66.3,88.5c0,0,3.4-4.4,5.4-5.6c3.9-2.3,11.8-2,14.8,1.8c3.3,4.2,3.8,6,3.8,6s-5.7-5.9-10-6
				C76,84.6,68.3,87.3,66.3,88.5z"/>
			<path class="st24" d="M65.6,88.1c0,0,8.7-4.1,11.6-4.2c4.5-0.2,9.8,2.2,11.6,4.7c1.8,2.5,1.8,2.5,1.8,2.5s-4.1-5.2-9-5.7
				c-6.4-0.7-14.1,3.9-14.1,3.9L65.6,88.1z"/>
		</g>
		<g>
			<path class="st17" d="M130.6,89.4c0,0-5-3.7-7.2-4.1c-2.2-0.4-6.9-0.6-9.8,0.8c-3.2,1.4-5.7,4.7-5.7,4.7s4.2,2.2,10.5,2.2
				C124.8,93.1,127.9,91.6,130.6,89.4z"/>
			<path class="st18" d="M107.8,91c0,0-4.7-4.5-2.6-8.2c2.1-3.8,9.9-3.5,16.3-4.4c7.2-1,14.1,1.9,14.1,2.2c0,0.4-0.9,4.1-1.8,5.9
				c-1.2,2.3-2.1,2.2-2.1,2.2s-4.8-1.8-6.1-2.3c-1.3-0.5-5.2-1.2-7.6-1.3C111.4,85,107.8,91,107.8,91z"/>
			<path class="st19" d="M135.6,80.6c0,0-3.4-5.5-7.2-5.6c-3.8-0.1-20.3,1.5-20.9,2.2c-0.6,0.8-2.5,5.5-2,5.1c1.4-1,14.9-4.1,18.2-4
				C127,78.4,130.5,78.4,135.6,80.6z"/>
			<g>
				<path class="st20" d="M114,89c0,2.3,2.4,4.1,5.3,4.1c2.9,0,5.3-1.9,5.3-4.1c0-2.3-2.4-4.1-5.3-4.1C116.4,84.8,114,86.7,114,89z"
					/>
				<path class="st21" d="M116.1,89c0,1.4,1.5,2.5,3.2,2.5s3.2-1.1,3.2-2.5c0-1.4-1.5-2.5-3.2-2.5S116.1,87.6,116.1,89z"/>
			</g>
			<path class="st22" d="M130.8,89.3c0,0-6.1,3.3-9.3,3.7c-5.4,0.7-13.3-2-13.3-2s4.4,4.7,11.8,4.8
				C125.6,95.9,128.1,93.5,130.8,89.3z"/>
			<path class="st23" d="M132,88.5c0,0-3.4-4.4-5.4-5.6c-3.9-2.3-11.8-2-14.8,1.8c-3.3,4.2-3.8,6-3.8,6s5.7-5.9,10-6
				C122.3,84.6,130,87.3,132,88.5z"/>
			<path class="st24" d="M132.7,88.1c0,0-8.7-4.1-11.6-4.2c-4.5-0.2-9.8,2.2-11.6,4.7c-1.8,2.5-1.8,2.5-1.8,2.5s4.1-5.2,9-5.7
				c6.4-0.7,14.1,3.9,14.1,3.9L132.7,88.1z"/>
		</g>
		<path class="st25" d="M104.9,90l1.4,12.3c0,0,1.1,2.4,2.5,3.2c1.1,0.6,1.4,0.9,1.4,0.9L104.9,90z"/>
		<g>
			<path class="st26" d="M116.4,171.1l-10,2.7H91.8L61,165.8L45.9,146c0,0-77.9,28.9-92.1,43.6c-10.7,11.1-13.4,42.4-16.1,97
				c-2.8,57.5,4.7,141,4.7,141h42.2L2.5,282.3L5.8,311l-0.7,78.1l91.4,24h19.9V171.1z"/>
			<path class="st26" d="M82.4,171.1l10,2.7H107l30.7-8.1l13.4-19.8c0,0,79.6,28.9,93.8,43.6c10.7,11.1,13.4,42.4,16.1,97
				c2.8,57.5-4.7,141-4.7,141h-42.2l-17.3-148.7L193,311l-2.7,77.8l-88,24.4H82.4V171.1z"/>
		</g>
		<polygon class="st27" points="90.2,413.1 106.3,413.4 106.4,173.8 91.6,173.8 		"/>
		<g>
			<path class="st28" d="M102.3,205.3c0,1.8-1.9,3.3-4.2,3.3c-2.3,0-4.2-1.5-4.2-3.3c0-1.8,1.9-3.3,4.2-3.3
				C100.4,202.1,102.3,203.5,102.3,205.3z"/>
			<path class="st28" d="M102.3,182.6c0,1.8-1.9,3.3-4.2,3.3c-2.3,0-4.2-1.5-4.2-3.3c0-1.8,1.9-3.3,4.2-3.3
				C100.4,179.3,102.3,180.8,102.3,182.6z"/>
			<path class="st28" d="M102.3,235.3c0,1.8-1.9,3.3-4.2,3.3c-2.3,0-4.2-1.5-4.2-3.3c0-1.8,1.9-3.3,4.2-3.3
				C100.4,232,102.3,233.5,102.3,235.3z"/>
			<path class="st28" d="M102.3,260.9c0,1.8-1.9,3.3-4.2,3.3c-2.3,0-4.2-1.5-4.2-3.3c0-1.8,1.9-3.3,4.2-3.3
				C100.4,257.7,102.3,259.1,102.3,260.9z"/>
			<path class="st28" d="M102.3,289c0,1.8-1.9,3.3-4.2,3.3c-2.3,0-4.2-1.5-4.2-3.3c0-1.8,1.9-3.3,4.2-3.3
				C100.4,285.7,102.3,287.2,102.3,289z"/>
			<path class="st28" d="M102.3,316.2c0,1.8-1.9,3.3-4.2,3.3c-2.3,0-4.2-1.5-4.2-3.3c0-1.8,1.9-3.3,4.2-3.3
				C100.4,312.9,102.3,314.4,102.3,316.2z"/>
			<path class="st28" d="M102.3,342.5c0,1.8-1.9,3.3-4.2,3.3c-2.3,0-4.2-1.5-4.2-3.3c0-1.8,1.9-3.3,4.2-3.3
				C100.4,339.2,102.3,340.7,102.3,342.5z"/>
			<path class="st28" d="M102.3,369.7c0,1.8-1.9,3.3-4.2,3.3c-2.3,0-4.2-1.5-4.2-3.3c0-1.8,1.9-3.3,4.2-3.3
				C100.4,366.5,102.3,367.9,102.3,369.7z"/>
		</g>
		<g>
			<path class="st29" d="M102.3,204.3c0,1.8-1.9,3.3-4.2,3.3c-2.3,0-4.2-1.5-4.2-3.3c0-1.8,1.9-3.3,4.2-3.3
				C100.4,201,102.3,202.5,102.3,204.3z"/>
			<path class="st29" d="M102.3,181.6c0,1.8-1.9,3.3-4.2,3.3c-2.3,0-4.2-1.5-4.2-3.3c0-1.8,1.9-3.3,4.2-3.3
				C100.4,178.3,102.3,179.8,102.3,181.6z"/>
			<path class="st29" d="M102.3,234.3c0,1.8-1.9,3.3-4.2,3.3c-2.3,0-4.2-1.5-4.2-3.3c0-1.8,1.9-3.3,4.2-3.3
				C100.4,231,102.3,232.4,102.3,234.3z"/>
			<path class="st29" d="M102.3,259.9c0,1.8-1.9,3.3-4.2,3.3c-2.3,0-4.2-1.5-4.2-3.3c0-1.8,1.9-3.3,4.2-3.3
				C100.4,256.6,102.3,258.1,102.3,259.9z"/>
			<path class="st29" d="M102.3,287.9c0,1.8-1.9,3.3-4.2,3.3c-2.3,0-4.2-1.5-4.2-3.3c0-1.8,1.9-3.3,4.2-3.3
				C100.4,284.7,102.3,286.1,102.3,287.9z"/>
			<path class="st29" d="M102.3,315.2c0,1.8-1.9,3.3-4.2,3.3c-2.3,0-4.2-1.5-4.2-3.3c0-1.8,1.9-3.3,4.2-3.3
				C100.4,311.9,102.3,313.4,102.3,315.2z"/>
			<path class="st29" d="M102.3,341.5c0,1.8-1.9,3.3-4.2,3.3c-2.3,0-4.2-1.5-4.2-3.3c0-1.8,1.9-3.3,4.2-3.3
				C100.4,338.2,102.3,339.7,102.3,341.5z"/>
			<path class="st29" d="M102.3,368.7c0,1.8-1.9,3.3-4.2,3.3c-2.3,0-4.2-1.5-4.2-3.3c0-1.8,1.9-3.3,4.2-3.3
				C100.4,365.4,102.3,366.9,102.3,368.7z"/>
		</g>
		<g>
			<polygon class="st30" points="73.3,188.3 91.6,173.8 87.6,182.5 			"/>
			<polygon class="st30" points="123.5,188.8 106.4,173.8 109.8,182.6 			"/>
		</g>
		<g>
			<g>
				<polygon class="st31" points="195.1,403.7 191.7,377 5.2,377 1.8,403.7 -1.6,802.2 62.7,802.1 97.8,477.8 134.9,802.4 
					197.7,802.2 				"/>
				<polygon class="st32" points="194.5,376.4 197.7,802.2 170.7,377 				"/>
			</g>
		</g>
		<g>
			<path class="st33" d="M118.6,228.8c-1-8-11.2-31.8-11.2-31.8h-7.9H91c0,0-9.6,23.8-10.6,31.8c-1,8-1.2,106-1.2,106l20,21.8
				l20.6-21.8C119.8,334.8,119.5,236.8,118.6,228.8z"/>
			<path class="st34" d="M90.5,196.9c0.6,0.3,17.6,0,17.6,0s14.5-21.9,13.4-22.7c-1.1-0.8-44.7,0-44.7,0S89.5,196.4,90.5,196.9z"/>
		</g>
		<path class="st17" d="M91.6,173.8l-18.3,14.4c0,0-18.8-11.6-26-25.4c-7.2-13.9-3.2-18.6-3.2-18.6l14.5-9.5c0,0-0.3,17,5.3,22.8
			C69.4,163.4,91.6,173.8,91.6,173.8z"/>
		<path class="st17" d="M106.4,173.8l17.2,14.9c0,0,16.6-11.9,23.8-25.8c7.3-13.9,6.9-18.2,6.9-18.2l-14.6-10.2
			c0,0-5.2,17-10.2,23.2C117.2,172.5,106.4,173.8,106.4,173.8z"/>
		<path class="st35" d="M151.4,49.7c-10.5-23.5-44.6-30-50.7-29.9c-6.1,0.1-45,6.4-55.5,29.9c-5.9,13.2,0.6,34.5,1.1,37.3
			c0.1,0.6,4.2-0.7,4.9,2.1c0.4,1.7,3.1,1.5,3.1,1.5s4.3-32,8.1-35.6c3.8-3.6,14.6-0.5,24.6,1.2c4.2,0.7,39.8,25.1,43.4,26.9
			c9,4.6,13.4,15.1,14,10.1c0.5-3.5,5.7-5.1,5.9-5.5C151.9,84.9,157.4,62.9,151.4,49.7z"/>
		<rect x="5.2" y="377" class="st32" width="189.6" height="14.5"/>
		<g>
			<g>
				<path class="st36" d="M107.1,296.5v66.9c0,0,3,66.3,45.1,87.4c18.9,9.5,55.8,10,55.8,10s-5-68.3-10-115
					c-4.1-37.9-4.2-42.7-2.8-61.1C202,195,246,185.9,246,185.9l-97.1-46.4c0,0-3.8,40.8-19.2,91.5
					C114.2,282.1,107.1,296.5,107.1,296.5z"/>
				<path class="st37" d="M194.8,280.8l15,153.9h47.3c0,0,10-97.5,3.6-174.8c-5.4-64.5-14.6-74-14.6-74S196.7,190.8,194.8,280.8z"/>
				<polygon class="st38" points="149.5,348.4 194,348.4 198,368.8 156.1,371.1 				"/>
				<rect x="146.5" y="218.4" class="st38" width="48.3" height="11.3"/>
				<path class="st39" d="M176.7,162.3l-13.9-16.1l-11.9-5.7c0,0,0.2,4.2-1.5,12.3c-2,9.7-2.9,21.6-2.9,21.6L176.7,162.3z"/>
				<path class="st39" d="M107.1,296.5c0,0,22-35.7,31.5-49.2c14.6-21,39.7-72.7,39.7-72.7l-32-10.7c0,0-2.4,15.1-8,39.5
					c-4.9,21.3-13,44.3-17.4,55C111.7,280.7,107.1,296.5,107.1,296.5z"/>
				<path class="st40" d="M174.7,161.3l-13.9-16.1l-11.9-5.7c0,0,0.2,4.2-1.5,12.3c-2,9.7-2.9,21.6-2.9,21.6L174.7,161.3z"/>
				<path class="st40" d="M107.1,296.5c0,0,21.3-36.9,30.8-50.4c14.6-21,39.7-72.7,39.7-72.7l-32-10.7c0,0-2.4,15.1-8,39.5
					c-4.9,21.3-13,44.3-17.4,55C111,279.5,107.1,296.5,107.1,296.5z"/>
			</g>
		</g>
		<g>
			<g>
				<path class="st41" d="M91.4,296.5v66.9c0,0-3,66.3-45.1,87.4c-18.9,9.5-55.8,10-55.8,10s5-68.3,10-115
					c4.1-37.9,4.2-42.7,2.8-61.1c-6.8-89.7-50.8-98.8-50.8-98.8l97.1-46.4c0,0,3.8,40.8,19.2,91.5C84.3,282.1,91.4,296.5,91.4,296.5
					z"/>
				<path class="st32" d="M3.7,280.8l-15,153.9h-47.3c0,0-10-97.5-3.6-174.8c5.4-64.5,14.6-74,14.6-74S1.7,190.8,3.7,280.8z"/>
				<polygon class="st38" points="48.9,348.4 4.5,348.4 0.4,368.8 42.4,371.1 				"/>
				<path class="st39" d="M21.7,162.3l13.9-16.1l11.9-5.7c0,0-0.2,4.2,1.5,12.3c2,9.7,2.9,21.6,2.9,21.6L21.7,162.3z"/>
				<path class="st39" d="M91.4,296.5c0,0-22-35.7-31.5-49.2c-14.6-21-39.7-72.7-39.7-72.7l32-10.7c0,0,2.4,15.1,8,39.5
					c4.9,21.3,13,44.3,17.4,55C86.7,280.7,91.4,296.5,91.4,296.5z"/>
				<path class="st40" d="M23.7,161.3l13.9-16.1l11.9-5.7c0,0-0.2,4.2,1.5,12.3c2,9.7,2.9,21.6,2.9,21.6L23.7,161.3z"/>
				<path class="st40" d="M91.4,296.5c0,0-21.3-36.9-30.8-50.4c-14.6-21-39.7-72.7-39.7-72.7l32-10.7c0,0,2.4,15.1,8,39.5
					c4.9,21.3,13,44.3,17.4,55C87.5,279.5,91.4,296.5,91.4,296.5z"/>
			</g>
		</g>
		<g>
			<path class="st42" d="M123.2,308.3c0,2.7-2.6,4.8-5.8,4.8c-3.2,0-5.8-2.2-5.8-4.8c0-2.7,2.6-4.8,5.8-4.8
				C120.5,303.5,123.2,305.6,123.2,308.3z"/>
			<path class="st43" d="M122.6,307.4c0,2.5-2.5,4.5-5.5,4.5c-3,0-5.5-2-5.5-4.5c0-2.5,2.5-4.5,5.5-4.5
				C120.2,302.9,122.6,304.9,122.6,307.4z"/>
		</g>
		<g>
			<path class="st42" d="M123.4,347.2c0,2.7-2.6,4.8-5.8,4.8c-3.2,0-5.8-2.2-5.8-4.8c0-2.7,2.6-4.8,5.8-4.8
				C120.7,342.4,123.4,344.6,123.4,347.2z"/>
			<path class="st43" d="M122.8,346.4c0,2.5-2.5,4.5-5.5,4.5c-3,0-5.5-2-5.5-4.5c0-2.5,2.5-4.5,5.5-4.5
				C120.4,341.8,122.8,343.9,122.8,346.4z"/>
		</g>
	</g>
</g>
</svg>
