<?xml version="1.0" encoding="utf-8"?>
<!-- Generator: Adobe Illustrator 23.0.4, SVG Export Plug-In . SVG Version: 6.00 Build 0)  -->
<svg version="1.0" id="Layer_1" xmlns="http://www.w3.org/2000/svg" xmlns:xlink="http://www.w3.org/1999/xlink" x="0px" y="0px"
	 viewBox="0 0 200 200" style="enable-background:new 0 0 200 200;" xml:space="preserve">
<style type="text/css">
	.st0{clip-path:url(#SVGID_2_);}
	.st1{fill:#717FD0;}
	.st2{fill:#DCA58E;}
	.st3{fill:#E1A98E;}
	.st4{fill:#626272;}
	.st5{fill:#F3F3F3;}
	.st6{fill:none;stroke:#383544;stroke-width:0.3751;stroke-linecap:round;stroke-linejoin:round;}
	.st7{fill:#7C6949;}
	.st8{fill:#665439;}
	.st9{fill:#E18F85;}
	.st10{fill:#C4CAFF;}
	.st11{fill:#EAF6FF;}
	.st12{fill:#D1E8F6;}
	.st13{fill:#A5CCDF;}
	.st14{fill:#C6E7F8;}
	.st15{fill:#2C538E;}
	.st16{fill:#C9DBFF;}
	.st17{fill:#141F8B;}
	.st18{fill:#DCA48D;}
	.st19{fill:#EEBB9F;}
	.st20{fill:#BB8181;}
	.st21{fill:#A97171;}
	.st22{fill:#CD9696;}
	.st23{fill:#C09080;}
	.st24{fill:#7A4A46;}
	.st25{fill:#D29B8B;}
	.st26{fill:#352A20;}
	.st27{fill:#FFFFFF;}
	.st28{fill:#5B3600;}
	.st29{fill:#1C1C1C;}
	.st30{fill:#AE796D;}
	.st31{fill:#F1C1A9;}
	.st32{fill:#E1AF9E;}
	.st33{fill:#2A2432;}
	.st34{fill:#C5402E;}
</style>
<g>
	<defs>
		<rect id="SVGID_1_" width="200" height="200"/>
	</defs>
	<use xlink:href="#SVGID_1_"  style="overflow:visible;fill:#FFD7C5;"/>
	<clipPath id="SVGID_2_">
		<use xlink:href="#SVGID_1_"  style="overflow:visible;"/>
	</clipPath>
	<g class="st0">
		<g>
			<path class="st1" d="M56.8,134.4c0,0,16.8,5.9,22.2,6.2c5.5,0.3,39.8,0.6,43-0.1c3.1-0.7,21.2-6.1,21.2-6.1s-6,22.8-10.5,25.7
				c-4.5,2.9-64.5,0.6-64.5,0.6S55.9,148.2,56.8,134.4z"/>
			<g>
				<path class="st2" d="M100.3,457l9.6-72.2c0,0-11.7,0.4-48.7-1.3c-37-1.7-47.8-8.7-47.8-8.7s-3.4,22.5-5.7,53.1
					c-8.9,116.5,16.3,180.8,12.1,206.8c-1.3,8.2-10.4,49.9-11.7,62c-1.1,10.7,10.2,80.7,10.2,89.5C18.2,795,2,813.9,2,813.9l3.9,9.6
					h51.2l2.4-9.6c0,0-10.1-22.9-10.1-27c0-6.6,22.9-76.6,22.9-99.7c0-23.1-7-38.6,2.3-59.1C82.3,610.9,100.3,457,100.3,457z"/>
				<path class="st2" d="M101.5,457l-9.6-72.2c0,0,11.7,0.4,48.7-1.3c37-1.7,47.8-8.7,47.8-8.7s3.4,22.5,5.7,53.1
					c8.9,116.5-16.3,180.8-12.1,206.8c1.3,8.2,10.4,49.9,11.7,62c1.1,10.7-10.2,80.7-10.2,89.5c0,8.8,16.2,27.7,16.2,27.7l-3.9,9.6
					h-51.2l-2.4-9.6c0,0,10.1-22.9,10.1-27c0-6.6-22.9-76.6-22.9-99.7c0-23.1,7-38.6-2.3-59.1C119.5,610.9,101.5,457,101.5,457z"/>
			</g>
			<g>
				<path class="st2" d="M216.8,175.7c-27.8-13.4-77.7-33.1-79.1-35.3c-1.4-2.2,0-23.9,0-23.9H64.1c0,0,1.4,21.7,0,23.9
					c-1.4,2.2-48.8,21.9-79.1,35.2c-20.6,9,16,82.4,16,82.4s12.9,68.2,13.3,72.2c1.2,12-1.3,49.1-1.3,49.1s0.4,3.3,16.8,6.1
					c16.4,2.8,53.1,4.5,71.1,4.4c18-0.1,54.7-1.6,71.1-4.4c16.4-2.8,16.7-6.1,16.7-6.1s-2.4-37.1-1.2-49.1
					c0.4-4.1,13.3-72.2,13.3-72.2S236.9,185.3,216.8,175.7z"/>
			</g>
			<g>
				<path class="st3" d="M-52.7,245.3l-5,63.9c-4.4,24.1,10.5,114.6,10.5,114.6l30.3-2.4L5,257.6v-90.7c0,0-34.1,12.3-44.7,23.3
					C-56,207.2-52.7,245.3-52.7,245.3z"/>
				<path class="st3" d="M-28.9,499.4c-3.3-3.4-26.6-26.4-27.4-31.3c-1.2-6.9,9.1-44.3,9.1-44.3l30.3-2.4c0,0,6.9,18.9,7.7,21.5
					c0.8,2.7,0,32.4-0.1,33.9c-0.1,1.5-10.2,1.1-10.6-1.1c-0.4-2.2-5.2-18.8-5.2-18.8l0,0l-1.7,17.4c0,0,10.4,14.4,11.7,16.5
					C-14.3,492.3-25.6,502.8-28.9,499.4z"/>
			</g>
			<g>
				<path class="st3" d="M254.8,245.3l5,63.9c4.4,24.1-10.5,114.6-10.5,114.6l-30.2-2.4l-22-163.8v-90.7c0,0,34.1,12.3,44.7,23.3
					C258.1,207.2,254.8,245.3,254.8,245.3z"/>
				<path class="st3" d="M230.9,499.4c3.3-3.4,26.6-26.4,27.4-31.3c1.2-6.9-9.1-44.3-9.1-44.3l-30.2-2.4c0,0-6.9,18.9-7.7,21.5
					c-0.8,2.7,0,32.4,0.1,33.9c0.1,1.5,10.2,1.1,10.6-1.1c0.4-2.2,5.2-18.8,5.2-18.8l0,0l1.7,17.4c0,0-10.4,14.4-11.7,16.5
					C216.3,492.3,227.7,502.8,230.9,499.4z"/>
			</g>
			<g>
				<g>
					<path class="st4" d="M145.5,801.2c5-7,4.2-12.9,4.2-12.9s9.6-2.2,21.5-1.8c11.8-0.4,15.8,1.8,15.8,1.8s3.1,5.8,8.2,12.8
						c4.9,6.7,8,13.7,8,13.7c-2.7,9.6-28.5,7.5-31.9,7.2c-3.5,0.3-29.2,2.4-31.9-7.2C139.2,814.9,140.6,808,145.5,801.2z"/>
					<path class="st5" d="M139.2,814.9c0,0,3.3,3.8,11.4,5c4.3,0.6,10,0.9,15,1c0,0,2.2,0,5.5,0c3.3,0,5.5,0,5.5,0
						c5-0.1,10.7-0.3,15-1c8.1-1.2,11.4-5,11.4-5s1.3,10.7-3.9,13c-8.3,3.6-21,3.9-28.1,3.8c-7.1,0.2-19.8-0.2-28.1-3.8
						C137.9,825.6,139.2,814.9,139.2,814.9z"/>
				</g>
				<polyline class="st6" points="186.4,794.9 152.4,798.3 187.2,802 150.8,806.2 187.7,806.4 151.4,802.2 186.3,797.5 153.1,794.1 
									"/>
			</g>
			<g>
				<g>
					<path class="st4" d="M56.7,801.2c-5-7-4.2-12.9-4.2-12.9s-9.6-2.2-21.5-1.8c-11.8-0.4-15.7,1.8-15.7,1.8s-3.1,5.8-8.2,12.8
						c-4.9,6.7-7.9,13.7-7.9,13.7c2.7,9.6,28.4,7.5,31.9,7.2c3.5,0.3,29.2,2.4,31.9-7.2C63,814.9,61.5,808,56.7,801.2z"/>
					<path class="st5" d="M63,814.9c0,0-3.3,3.8-11.4,5c-4.3,0.6-10,0.9-15,1c0,0-2.2,0-5.5,0c-3.3,0-5.5,0-5.5,0
						c-5-0.1-10.7-0.3-15-1c-8.1-1.2-11.4-5-11.4-5s-1.3,10.7,3.8,13c8.3,3.6,21,3.9,28.1,3.8c7.1,0.2,19.8-0.2,28.1-3.8
						C64.3,825.6,63,814.9,63,814.9z"/>
				</g>
				<polyline class="st6" points="15.8,794.9 49.7,798.3 15,802 51.4,806.2 14.5,806.4 50.7,802.2 15.9,797.5 49.1,794.1 				"/>
			</g>
			<g>
				<polygon class="st7" points="197.7,393.1 188.5,393.1 13.5,393.1 4.3,393.1 -10.5,800.5 69.9,800.5 100.4,471.7 101,471.1 
					101.6,471.7 132.1,800.5 205.9,800.5 				"/>
				<polygon class="st8" points="4.5,393.3 197.4,393.3 205.9,800.5 172.6,410.6 				"/>
			</g>
			<path class="st9" d="M263.1,274.5c-4.7-47.7-15.6-81.3-20.5-86.7c-13.7-15-87.7-39.6-87.7-39.6l-54,41.1L50,149.7
				c0,0-77,23.2-90.7,38.1c-4.9,5.3-13.1,37.6-17.8,85.3c-6.4,65.6,5.7,154.2,5.7,154.2l39.9-6.2l16-136.8l0.2,126.4l97.6,0.2
				l97.6-0.2l0.2-120.2l16,130.7l38.6,2.7C253.4,423.8,269.5,340.1,263.1,274.5z"/>
			<path class="st10" d="M81.3,171.7c0,0,8.9,33.5,10.3,38.6c1.8,6.3,2.3,20.6,2.3,20.6l15.2-5.5l-2.7-29.2l-9.1-23.9L81.3,171.7z"
				/>
			<path class="st11" d="M94.1,410.7l16,0.2c0,0-0.7-205.4,0.4-212.6c1.1-7.1,12.3-19.7,12.3-19.7l-9.2-7c0,0-15.3,19.7-18.3,26.2
				C92.3,204.4,94.1,410.7,94.1,410.7z"/>
			<path class="st12" d="M106.2,205.1c0,1.8-1.9,3.3-4.2,3.3c-2.3,0-4.2-1.5-4.2-3.3c0-1.8,1.9-3.3,4.2-3.3
				C104.3,201.8,106.2,203.3,106.2,205.1z"/>
			<path class="st12" d="M106.2,235c0,1.8-1.9,3.3-4.2,3.3c-2.3,0-4.2-1.5-4.2-3.3c0-1.8,1.9-3.3,4.2-3.3
				C104.3,231.8,106.2,233.2,106.2,235z"/>
			<path class="st12" d="M106.2,260.7c0,1.8-1.9,3.3-4.2,3.3c-2.3,0-4.2-1.5-4.2-3.3c0-1.8,1.9-3.3,4.2-3.3
				C104.3,257.4,106.2,258.9,106.2,260.7z"/>
			<path class="st12" d="M106.2,288.7c0,1.8-1.9,3.3-4.2,3.3c-2.3,0-4.2-1.5-4.2-3.3c0-1.8,1.9-3.3,4.2-3.3
				C104.3,285.4,106.2,286.9,106.2,288.7z"/>
			<path class="st12" d="M106.2,316c0,1.8-1.9,3.3-4.2,3.3c-2.3,0-4.2-1.5-4.2-3.3c0-1.8,1.9-3.3,4.2-3.3
				C104.3,312.7,106.2,314.2,106.2,316z"/>
			<path class="st12" d="M106.2,342.3c0,1.8-1.9,3.3-4.2,3.3c-2.3,0-4.2-1.5-4.2-3.3c0-1.8,1.9-3.3,4.2-3.3
				C104.3,339,106.2,340.5,106.2,342.3z"/>
			<path class="st12" d="M106.2,369.5c0,1.8-1.9,3.3-4.2,3.3c-2.3,0-4.2-1.5-4.2-3.3c0-1.8,1.9-3.3,4.2-3.3
				C104.3,366.2,106.2,367.7,106.2,369.5z"/>
			<path class="st13" d="M96.8,183.1c0,1.8-1.9,3.3-4.2,3.3c-2.3,0-4.2-1.5-4.2-3.3c0-1.8,1.9-3.3,4.2-3.3
				C94.9,179.8,96.8,181.3,96.8,183.1z"/>
			<polygon class="st14" points="182.6,394.9 110.1,410.9 198.3,410.2 198.3,243.7 			"/>
			<polygon class="st14" points="3.1,296.6 10.9,239.2 11.5,273.6 			"/>
			<path class="st15" d="M265.5,295.7c-5.2-54.6-9.1-94-19.9-105.8C231.8,174.9,158,148,158,148s-15.3,25-55.8,25.1
				c-40.1,0.2-60.5-22-60.5-22s-71.6,23.8-85.4,38.8c-10.8,11.7-14.8,51.2-19.9,105.8C-69.2,354.7-55,430-55,430l46.3-4.5L3.4,281.6
				l-3,130.9h98.9h1.2h1.1h1.2h98.9l-3-130.9l12.1,143.9l46.3,4.5C256.9,430,271.1,354.7,265.5,295.7z"/>
			<path class="st16" d="M113.5,171.7l21.7,16.8c0,0,10.3-10.7,17.5-24.6c7.2-13.9,4.9-17.4,4.9-17.4L143,134.4
				c0,0-4.2,17.3-9.7,23.2C127.7,163.5,113.5,171.7,113.5,171.7z"/>
			<path class="st16" d="M86.3,171.7l-21.7,16.8c0,0-10.2-10.7-17.5-24.6c-7.3-13.9-4.9-17.4-4.9-17.4l14.6-12.1
				c0,0,4.2,17.3,9.7,23.2C72.1,163.5,86.3,171.7,86.3,171.7z"/>
			<g>
				<polygon class="st17" points="64.5,188.5 86.2,171.7 81.6,178.1 				"/>
				<polygon class="st17" points="135.2,188.5 113.5,171.7 118.5,178.8 				"/>
			</g>
			<g>
				<path class="st18" d="M148.2,83.8c0,0,1.7-2.1,4.6-1.6c2.9,0.5,1.7,15,1.7,16.6c0,3.3-9.3,9.7-9.3,9.7L148.2,83.8z"/>
				<path class="st18" d="M55.4,83.8c0,0-1.7-2.1-4.6-1.6c-2.9,0.5-1.7,15-1.7,16.6c0,3.3,9.3,9.7,9.3,9.7L55.4,83.8z"/>
				<path class="st19" d="M110.5,29.5c-7.1-0.4-10.2-0.4-17.3,0c-16.8,1-41.8,18.7-39.8,38.4c0.6,5.6,4.3,45.1,5.4,47.3
					c1.8,3.7,21.9,17.1,25.5,19.9c3.6,2.8,17.7,3.2,17.7,3.2s14-0.4,17.6-3.2c3.6-2.8,23.4-16.7,25.6-20.3
					c1.3-2.1,4.7-41.2,5.3-46.9C152.3,48.3,127.3,30.6,110.5,29.5z"/>
				<g>
					<path class="st20" d="M85.6,115.4c0,0,7.3-1.6,9.3-1.8c2-0.3,6.4,0.7,7,0.7c0.6,0,0.1,2.6,0.1,2.6S91.8,117.6,85.6,115.4z"/>
					<path class="st21" d="M118.1,115.4c0,0-7.1-1.6-9.2-1.8c-2-0.3-6.5,0.7-7.1,0.7c-0.6,0-0.1,2.6-0.1,2.6
						S111.9,117.6,118.1,115.4z"/>
					<path class="st22" d="M118.1,115.4c-0.3,0.2-12.9,1.2-16.2,1.4c-3.2-0.3-15.8-1.3-16.3-1.4c0,0,7.6,5.6,11.6,6.2
						c1.7,0.3,4.2,0.5,4.7,0.4c0.5,0,3.1-0.2,4.7-0.4C110.6,121,118.1,115.4,118.1,115.4z"/>
				</g>
				<g>
					<path class="st23" d="M114.6,102.8c-0.8-0.2-7.5,0.9-10.4,0.9c-1.1,0-1.8,0-2.4,0c-0.6,0-1.4,0-2.4,0c-2.9,0-9.6-1.2-10.4-0.9
						c-0.8,0.2,0.8,1.3,0.8,1.3c2.2,0.8,7.5,1.5,10.7,1.9h2.6c3.2-0.4,8.5-1.1,10.7-1.9C113.8,104.2,115.4,103.1,114.6,102.8z"/>
					<path class="st24" d="M96.6,104.9c-1.3-0.3-3.8-0.4-4.4-1.1c-0.6-0.6,4.2,0.1,6.2,0.7C100.3,105,97.9,105.1,96.6,104.9z"/>
					<path class="st24" d="M107.3,104.9c1.3-0.3,3.8-0.4,4.4-1.1c0.6-0.6-4.2,0.1-6.1,0.7C103.6,105,106,105.1,107.3,104.9z"/>
				</g>
				<path class="st25" d="M107.9,83l1.4,12.3c0,0,1.1,2.4,2.5,3.2c1.1,0.6,1.4,0.9,1.4,0.9L107.9,83z"/>
				<path class="st26" d="M152.4,42.5c-4.1-7.7-9-11.9-13.9-13.5c-2.9-0.9-9.2-1.6-10-1.3c-0.2-0.4-21.6-9.4-38.9-7.6
					c-18.7,2-41.5,14.4-44.1,30.5C41.6,75.6,56,91.2,56,91.2S53.7,75,54.9,72c1.2-3,9.6-12,35.8-13.4c15.9-0.9,39.9-5.5,39.9-5.5
					s-0.5,0.6,3.2,5.9c3.8,5.4,14,14.9,14.5,14.9c0.5,0-0.3,17.1-0.3,17.1S163.9,64.1,152.4,42.5z"/>
				<g>
					<path class="st27" d="M68.2,83c0,0,5-2,7.2-2.1c2.2-0.2,6.9-0.3,9.8,0.4c3.2,0.8,5.7,2.5,5.7,2.5s-5.7,1.9-12,1.9
						C72.6,85.7,70.9,84.1,68.2,83z"/>
					<g>
						<ellipse class="st28" cx="79.5" cy="82.2" rx="5.1" ry="4"/>
						<path class="st29" d="M83,82.2c0,1.5-1.5,2.7-3.4,2.7c-1.9,0-3.4-1.2-3.4-2.7c0-1.5,1.5-2.7,3.4-2.7
							C81.4,79.5,83,80.7,83,82.2z"/>
					</g>
					<path class="st30" d="M68,83.3c0,0,7.1,1.7,10.3,1.9c5.4,0.4,12.3-1,12.3-1s-6,2.2-11.1,2.2C74.9,86.4,73,86,68,83.3z"/>
					<path class="st31" d="M91,83.8c0,0,4.3-3.9,2.3-6c-2.1-2.1-9.3-3-15.6-3.5c-7.2-0.6-14.4,1.8-14.4,2c0,0.2,0.9,4,1.8,5
						c1.2,1.3,2.1,1.2,2.1,1.2s4.8-1,6.1-1.3c1.3-0.3,5.2-0.7,7.6-0.7C87.4,80.5,91,83.8,91,83.8z"/>
					<path class="st26" d="M63.2,76.4c0,0,3.4-4.8,7.2-4.9c3.8-0.1,20.3,1.3,20.9,1.9c0.6,0.7,2.5,4.7,2,4.4
						c-1.4-0.9-14.9-3.5-18.2-3.5C71.9,74.4,68.4,74.5,63.2,76.4z"/>
					<path class="st32" d="M66.8,82.5c0,0,3-2,5.1-2.7c3.9-1.2,12.4-0.9,15.2,0.7c3.8,2.1,3.8,3.2,3.8,3.2s-5.7-3.1-10-3.2
						C76.6,80.4,68.8,81.9,66.8,82.5z"/>
					<path class="st33" d="M65.7,82c0,0,9.1-1.8,12-1.9c4.5-0.1,9.8,1.2,11.6,2.5c1.8,1.3,1.8,1.3,1.8,1.3s-4.1-2.7-9-3
						c-7-0.5-14.1,2.1-14.1,2.1L65.7,82z"/>
				</g>
				<g>
					<path class="st27" d="M135.6,83c0,0-5-2-7.2-2.1c-2.2-0.2-6.9-0.3-9.8,0.4c-3.2,0.8-5.7,2.5-5.7,2.5s5.7,1.9,12,1.9
						C131.2,85.7,132.9,84.1,135.6,83z"/>
					<g>
						<ellipse class="st28" cx="124.2" cy="82.2" rx="5.1" ry="4"/>
						<path class="st29" d="M120.8,82.2c0,1.5,1.5,2.7,3.4,2.7c1.9,0,3.4-1.2,3.4-2.7c0-1.5-1.5-2.7-3.4-2.7
							C122.3,79.5,120.8,80.7,120.8,82.2z"/>
					</g>
					<path class="st30" d="M135.8,83.2c0,0-7.1,1.7-10.3,1.9c-5.4,0.4-12.3-1-12.3-1s6,2.2,11.1,2.2
						C128.9,86.2,130.8,85.9,135.8,83.2z"/>
					<path class="st31" d="M112.8,83.8c0,0-4.3-3.9-2.3-6c2.1-2.1,9.3-3,15.6-3.5c7.2-0.6,14.4,1.8,14.4,2c0,0.2-0.9,4-1.8,5
						c-1.2,1.3-2.1,1.2-2.1,1.2s-4.8-1-6.1-1.3c-1.3-0.3-5.2-0.7-7.6-0.7C116.4,80.5,112.8,83.8,112.8,83.8z"/>
					<path class="st26" d="M140.5,76.4c0,0-3.4-4.8-7.2-4.9c-3.8-0.1-20.3,1.3-20.9,1.9c-0.6,0.7-2.5,4.7-2,4.4
						c1.4-0.9,14.9-3.5,18.2-3.5C131.9,74.4,135.4,74.5,140.5,76.4z"/>
					<path class="st32" d="M136.9,82.5c0,0-3-2-5.1-2.7c-3.9-1.2-12.4-0.9-15.2,0.7c-3.7,2.1-3.8,3.2-3.8,3.2s5.7-3.1,10-3.2
						C127.2,80.4,135,81.9,136.9,82.5z"/>
					<path class="st33" d="M138.1,82c0,0-9.1-1.8-12-1.9c-4.5-0.1-9.8,1.2-11.6,2.5c-1.8,1.3-1.8,1.3-1.8,1.3s4.1-2.7,9-3
						c7-0.5,14.1,2.1,14.1,2.1L138.1,82z"/>
				</g>
			</g>
		</g>
		<polygon class="st34" points="185.8,396.7 1.4,412 201.5,412 198.7,274.5 		"/>
		<path class="st34" d="M-5,336.2c0.7-8.6,9.5-68.6,9.5-68.6l-10.5,121C-6.1,388.6-5.4,341.4-5,336.2z"/>
	</g>
</g>
</svg>
