<?xml version="1.0" encoding="utf-8"?>
<!-- Generator: Adobe Illustrator 23.0.4, SVG Export Plug-In . SVG Version: 6.00 Build 0)  -->
<svg version="1.0" id="Layer_1" xmlns="http://www.w3.org/2000/svg" xmlns:xlink="http://www.w3.org/1999/xlink" x="0px" y="0px"
	 viewBox="0 0 200 200" style="enable-background:new 0 0 200 200;" xml:space="preserve">
<style type="text/css">
	.st0{clip-path:url(#SVGID_2_);}
	.st1{fill:#9A7A6F;}
	.st2{fill:#FFFFFF;}
	.st3{fill:#C0846B;}
	.st4{fill:#E7AC91;}
	.st5{fill:#DFA991;}
	.st6{fill:#E9B5A1;}
	.st7{fill:#DFA998;}
	.st8{fill:#EAB8A3;}
	.st9{fill:#BB9C87;}
	.st10{fill:#E1A9A9;}
	.st11{fill:#4EA73B;}
	.st12{fill:#DCA48D;}
	.st13{fill:#D09985;}
	.st14{fill:#AE7568;}
	.st15{fill:#D29B8B;}
	.st16{fill:#DA8989;}
	.st17{fill:#CD7878;}
	.st18{fill:#E79D9D;}
	.st19{fill:#F3F0E9;}
	.st20{fill:#6E9BAE;stroke:#455760;stroke-width:0.1053;}
	.st21{fill:#1B1C1C;}
	.st22{fill:#BB8179;}
	.st23{fill:#EEBFB5;}
	.st24{fill:#2A2432;}
	.st25{fill:#A7857D;}
	.st26{fill:#FFFFDD;}
	.st27{fill:#F1BABA;}
	.st28{fill:none;stroke:#DFA5A5;stroke-miterlimit:10;}
	.st29{fill:#DFA5A5;}
</style>
<g>
	<defs>
		<rect id="SVGID_1_" width="200" height="200"/>
	</defs>
	<use xlink:href="#SVGID_1_"  style="overflow:visible;fill:#D7F0E2;"/>
	<clipPath id="SVGID_2_">
		<use xlink:href="#SVGID_1_"  style="overflow:visible;"/>
	</clipPath>
	<g class="st0">
		<path class="st1" d="M146.8,65.1c0,28.9-18.9,52.4-42.3,52.4H94.4c-23.4,0-42.3-23.4-42.3-52.4l0,0c0-28.9,18.9-52.4,42.3-52.4
			h10.1C127.9,12.7,146.8,36.2,146.8,65.1L146.8,65.1z"/>
		<path class="st2" d="M139.1,154.7c0,1.2-1.3,2.2-2.8,2.2c-1.6,0-2.8-1-2.8-2.2c0-1.2,1.2-2.2,2.8-2.2
			C137.8,152.5,139.1,153.5,139.1,154.7z"/>
		<path class="st2" d="M181.9,208.1"/>
		<path class="st3" d="M241.9,408.5h-25.1c0,0-26.2-73.3-27.7-77.9c-1.5-4.7-7.9-60.3-10.8-79.2c-3-18.9-5.5-91.5,3.6-90
			c13.7,2.2,34.6,11.4,36.1,34.1c0.6,8.5,1.4,25.9,1.7,37c0.5,19.9,0.9,59.8,2.1,64.3c1.9,7.3,12.4,32.6,13.1,41.6
			C235.5,347.4,241.9,408.5,241.9,408.5z"/>
		<path class="st3" d="M-43.6,408.5h25.1c0,0,26.2-73.3,27.7-77.9c1.5-4.7,7.9-60.3,10.8-79.2c3-18.9,5.5-91.5-3.6-90
			c-13.7,2.2-34.6,11.4-36.1,34.1c-0.6,8.5-1.4,25.9-1.7,37c-0.5,19.9-0.9,59.8-2.1,64.3c-1.9,7.3-12.3,32.6-13.1,41.6
			C-37.3,347.4-43.6,408.5-43.6,408.5z"/>
		<path class="st4" d="M163.5,294.9c3.6-23.6,11.3-56.5,21.1-76c9.7-19.5,16.5-50.8,11.9-53.1c-8.1-4-15.2-4.8-28.3-7.5
			c-13.1-2.6-42.1-14.5-42.3-15.7c-0.7-3.6,0-23.3,0-23.3h-24.6h-2.1H97H72.4c0,0,0.6,19.7,0,23.3c-0.2,1.2-29.2,13.1-42.3,15.7
			c-13.1,2.6-19.5,3.4-28.4,7.5c-4.7,2.2,2.2,33.5,11.9,53c9.7,19.5,17.4,52.4,21.1,76c2.9,18.9,4.4,23.4-7.6,43.5
			c-11.2,18.9-15.6,27.4-15.6,27.4s54.1,6.4,87.6,6.5c33.5-0.1,87.7-6.5,87.7-6.5s-4.4-8.5-15.6-27.4
			C159.2,318.3,160.6,313.8,163.5,294.9z"/>
		<path class="st5" d="M-5.3,473.6c0,0-3.5,4.5-5.6,7.3c-2.1,2.8-32.9-27.4-32.9-32.8c0-5.4,0-39.7,0-39.7h25.1l8.2,25.2l-3,28.3
			L-5.3,473.6z"/>
		<path class="st6" d="M-27,441.2c0,0,6.9,23.4,7.9,24.5c0.9,1,5.2,0,5.2,0l3.4-31.9l-3.3-10.1L-27,441.2z"/>
		<path class="st5" d="M203.5,473.6c0,0,3.6,4.5,5.6,7.3c2.1,2.8,32.9-27.4,32.9-32.8c0-5.4,0-39.7,0-39.7H217l-8.2,25.2l3,28.3
			L203.5,473.6z"/>
		<path class="st7" d="M50.1,267.3c-14.8-1.4-28.9-7.1-29.2-22.5c-0.4-15.4,5.1-19.7,6-25.8c0.6-4.1,1.6-11.9,1.6-11.9
			s26.9-5.1,41.1,1.7c14.2,6.8,22.7,11.9,23.6,23.4C96,248.5,75.1,268.5,50.1,267.3z"/>
		<path class="st6" d="M225.2,441.2c0,0-6.9,23.4-7.9,24.5c-0.9,1-5.2,0-5.2,0l-3.4-31.9l3.3-10.1L225.2,441.2z"/>
		<path class="st7" d="M148.6,267.3c14.8-1.4,28.8-7.1,29.2-22.5c0.4-15.4-5.1-19.7-6-25.8c-0.6-4.1-1.6-11.9-1.6-11.9
			s-26.9-5.1-41.1,1.7c-14.2,6.8-22.7,11.9-23.6,23.4C102.7,248.5,123.5,268.5,148.6,267.3z"/>
		<path class="st8" d="M122.9,37.3c-6.1-3.5-15.2-5.2-23.9-5.1c-8.7,0-17.8,1.6-23.9,5.1C55.1,48.8,55.7,71.6,59.3,93.5
			c4,24,16.3,30.2,22.1,33.2c4.9,2.5,9.9,4.4,17.6,4.4c7.6-0.1,12.6-2,17.6-4.4c5.9-2.9,18.1-9.1,22.1-33.2
			C142.4,71.6,143,48.8,122.9,37.3z"/>
		<path class="st5" d="M99,430.3v-58.6c-34.4,0-87.3-6.5-87.3-6.5C6.5,370.4-5,415.3,0,439.3c2.9,14,30.4,156.3,30.4,156.3
			s-4.5,46.2-2.5,57.8c2,11.6,30,115.7,30,115.7c-4.4,13.2-7.8,27.3-7.8,27.3l10.5,17.2l26.6-12.1L86,788.8l-0.2-22.6
			c0,0-3.4-11-3.7-26.2c-0.5-20.6,2.1-49.1,3-68.2c1.5-33.2-6-62.9-3.8-70.5c2.3-7.6,3.1-10,4.5-15.4c1.3-5.5-0.4-16.9,0.9-24.8
			c1.3-7.9,3.6-25,8.1-65.2c4.5-40.2-5.3-67-5.3-67S96.2,430.2,99,430.3z"/>
		<path class="st5" d="M99,430.3v-58.6c34.4,0,87.3-6.5,87.3-6.5c5.2,5.2,16.8,50.1,11.8,74.2c-2.9,14-30.4,156.3-30.4,156.3
			s4.5,46.2,2.5,57.8c-2,11.6-29.9,115.7-29.9,115.7c3.4,11.6,7.5,24.9,7.5,24.9l-3,19.5l-33.9-12.9l0.6-15.4l0.8-19.1
			c0,0,3.4-11,3.8-26.2c0.5-20.6-2.1-49.1-3-68.2c-1.5-33.2,6-62.9,3.7-70.5c-2.2-7.6-3.1-10-4.4-15.4c-1.3-5.5,0.4-16.9-0.9-24.8
			c-1.3-7.9-3.6-25-8.1-65.2c-4.5-40.2,5.2-67,5.2-67S101.8,430.2,99,430.3z"/>
		<path class="st9" d="M130.6,818c22-0.7,19.4-9.9,18.9-16.2c-0.4-6.3-9.1-31.6-9.1-31.6s5.7,18.9,5.8,23.1
			c0.1,4.2-0.2,8.6-11.3,9.1c-11.1,0.4-23.9,2.8-23.2-7.7c0.7-10.5,1-33.5,2.5-36.1c1.5-2.6,2.8-5.6,2.8-5.6s-5.3,2.7-5.8,6.3
			c-0.4,3.5-0.9,41.1-0.9,43.1C110.4,810.1,110.7,818.6,130.6,818z"/>
		<path class="st9" d="M67.3,818c-22-0.7-19.4-9.9-18.9-16.2c0.5-6.3,9.1-31.6,9.1-31.6s-5.7,18.9-5.8,23.1
			c-0.1,4.2,0.2,8.6,11.4,9.1c11.1,0.4,23.9,2.8,23.2-7.7c-0.7-10.5-1-33.5-2.5-36.1c-1.5-2.6-2.8-5.6-2.8-5.6s5.3,2.7,5.8,6.3
			c0.4,3.5,0.9,41.1,0.9,43.1C87.6,810.1,87.2,818.6,67.3,818z"/>
		<path class="st10" d="M172.5,338.6c-11.4-18.8-5.1-23.9-2.6-39.9H28.3c2.5,16,8.7,21.1-2.6,39.9c-9.8,16.1-14.4,24.6-15.6,26.8
			c-5.3,5.4-17.1,50.1-12,74.1c1.8,8.5,12.9,64.5,21.3,107h159.4c8.4-42.5,19.5-98.5,21.3-107c5-23.7-6.3-67.4-11.8-73.8
			C187.4,364.1,182.8,355.5,172.5,338.6z"/>
		<polygon class="st11" points="34,298.7 164.2,298.7 166.9,288.6 30.9,288.6 		"/>
		<path class="st8" d="M122.9,40c-6.1-3.6-15.2-5.3-23.9-5.2c-8.7,0-17.8,1.7-23.9,5.2C55.1,51.8,55.7,72.7,59.3,95.1
			c4,24.5,16.3,30.8,22.2,33.8c4.9,2.5,9.9,4.5,17.6,4.5c7.6-0.1,12.6-2,17.6-4.5c5.9-3,18.1-9.3,22.1-33.8
			C142.4,72.7,143,51.8,122.9,40z"/>
		<path class="st12" d="M58.7,102.4c0,0-5.2-6-5.6-7.2c-0.3-1.2-3.7-12.6-2.6-14.6c1.1-2,3.3-3.2,5.3-0.6c1.9,2.6,1.9,2.6,1.9,2.6
			s0.5,5.7,1.5,10.8C60.2,98.5,62.5,104.9,58.7,102.4z"/>
		<path class="st12" d="M139.4,102.4c0,0,5.2-6,5.5-7.2c0.4-1.2,3.7-12.6,2.6-14.6c-1.2-2-3.4-3.2-5.3-0.6c-1.9,2.6-1.9,2.6-1.9,2.6
			s-0.5,5.7-1.5,10.8C137.9,98.5,135.6,104.9,139.4,102.4z"/>
		<path class="st1" d="M139.5,89.8c0,0,6.8-13.5,8-22.7c1.4-11.1-0.2-26.1-15-34.7c-11.6-6.7-26.2-8.4-41.4-7.7
			c-22.5,1.1-34.8,13.5-38.6,24.4c-5.4,15.6,6.1,40.6,6.1,40.6s3-25.6,13.4-32.4c10.4-6.8,38.4-17.3,38.4-17.3s6.7,5.9,14.9,12.2
			C133.5,58.7,139.8,73.5,139.5,89.8z"/>
		<g>
			<path class="st13" d="M106.9,99.2c-2.5-1-5.1,0.2-7.5,0.4c-2.4-0.1-4.9-1.4-7.4-0.4c-2,0.8-2.6,1.5-2.5,2.6
				c0.1,0.9,7,0.7,9.9,0.5c3,0.1,9.9,0.3,9.9-0.5C109.4,100.7,108.9,100,106.9,99.2z"/>
			<path class="st14" d="M91.3,101.6c-0.1-0.4,0.6-0.9,1.2-1.1c0.9-0.3,1.2-0.3,2.8,0c1.6,0.3,2,0.8,1.7,1.1
				C96.7,101.9,91.4,102,91.3,101.6z"/>
			<path class="st14" d="M107.6,101.6c0.1-0.4-0.6-0.9-1.2-1.1c-0.9-0.3-1.2-0.3-2.8,0c-1.6,0.3-2,0.8-1.7,1.1
				C102.2,101.9,107.5,102,107.6,101.6z"/>
			<path class="st15" d="M103.9,80.6l1.4,12.3c0,0,1.1,2.4,2.5,3.2c1.1,0.6,1.4,0.9,1.4,0.9L103.9,80.6z"/>
			<g>
				<path class="st16" d="M99.5,109.9c-0.3,0-0.5,0-0.7-0.1c-0.7-0.1-3.5-0.7-6.2-0.4c-2.7,0.4-10.2,3.6-10.2,3.6s14.7,0.4,17.1,0.4
					V109.9z"/>
				<path class="st17" d="M99.5,109.9c0.2,0,0.5,0,0.7-0.1c0.8-0.1,3.5-0.7,6.2-0.4c2.7,0.4,10.2,3.6,10.2,3.6s-14.8,0.4-17.1,0.4
					V109.9z"/>
				<path class="st18" d="M99.5,113.2c-4.5-0.2-16.2-1-17.2-0.1c0,0,5.1,4.3,8.2,5.2c2.1,0.6,4.2,0.8,6.1,0.9v0c0,0,0,0,1.5,0
					c0.5,0,0.9,0,1.3,0c0.4,0,0.9,0,1.3,0c1.5,0,1.5,0,1.5,0v0c2-0.1,4-0.2,6.1-0.9c3.1-0.9,8.2-5.2,8.2-5.2
					C115.6,112.2,104.1,113,99.5,113.2z"/>
			</g>
			<path class="st1" d="M91.3,71.9c0.9,0.3,1.2,1.1,0.7,2.1c-0.1,0.3-0.5,0.8-1.4,0.8c-0.8,0-12.5-4.7-16.4-4.3
				c-3.9,0.5-7.2,1.6-8.3,1.9c-1.1,0.3-1.9,0.5-1-0.3c0.9-0.8,6.2-2.7,8.9-3.4c2.7-0.6,4.6-0.1,6.9,0.2
				C83.1,69.2,90.4,71.5,91.3,71.9z"/>
			<path class="st1" d="M107.5,71.9c-0.9,0.3-1.2,1.1-0.7,2.1c0.1,0.3,0.5,0.8,1.4,0.8c0.8,0,12.5-4.7,16.4-4.3
				c3.9,0.5,7.2,1.6,8.3,1.9c1.1,0.3,1.9,0.5,1-0.3c-0.9-0.8-6.2-2.7-8.9-3.4c-2.7-0.6-4.6-0.1-6.9,0.2
				C115.8,69.2,108.4,71.5,107.5,71.9z"/>
			<g>
				<g>
					<path class="st19" d="M88.3,83.2L88,84.1c0,0-1.4,2.2-7.4,2.3c-7.2,0.1-10.1-1.9-11.5-3.1c-1.4-1.2-1.4-1.2-1.4-1.2
						s3.6-3.8,7.6-3.6C79.5,78.6,85,78.9,88.3,83.2z"/>
					<g>
						<path class="st20" d="M84.1,82c0.1,2.4-2.4,4.4-5.5,4.4c-3.1,0-5.6-1.9-5.7-4.2c-0.1-2.4,2.4-4.4,5.5-4.4
							C81.5,77.7,84,79.6,84.1,82z"/>
						<path class="st21" d="M82.4,82c0.1,1.7-1.7,3-3.8,3.1c-2.1,0-3.9-1.3-4-3c-0.1-1.7,1.7-3.1,3.8-3.1
							C80.6,79.1,82.3,80.4,82.4,82z"/>
					</g>
					<path class="st22" d="M80.5,85.9c-3.3,0.1-5.2,0.1-7.8-0.8c-2.6-0.9-5-3-5-3s1.5,2.2,3.1,3.3c1.5,1.1,7.3,3.6,13.8,0.8l2.3-1.1
						C87,85.1,83.8,85.8,80.5,85.9z"/>
					<path class="st15" d="M88.3,82.8c0,0-1.5-5.2-6.1-7.1c-3.9-1.6-7.2-1-10,0.2c-2.8,1.3-4.4,4.6-4.4,4.6s3.7-2.5,8-2.7
						C80.2,77.4,85.1,80.1,88.3,82.8z"/>
					<path class="st23" d="M88.5,83.3c0,0-2.5-5.3-6.3-7c-3.8-1.7-7.2-1-10,0.2c-2.8,1.3-4.8,4.6-4.8,4.6s4.1-2.5,8.5-2.7
						C80.2,78,85.4,80.6,88.5,83.3z"/>
					<path class="st24" d="M65.8,81.1c0,0,5.3-3.7,11.8-3.4c5.6,0.3,10.9,5.5,10.9,5.5s-7.2-4.4-11.6-4.3c-3.6,0.1-9.1,3.4-9.1,3.4
						L65.8,81.1z"/>
				</g>
				<g>
					<path class="st19" d="M110.5,83.2l0.3,0.9c0,0,1.3,2.2,7.4,2.3c7.2,0.1,10.1-1.9,11.4-3.1c1.4-1.2,1.4-1.2,1.4-1.2
						s-3.5-3.8-7.6-3.6C119.3,78.6,113.8,78.9,110.5,83.2z"/>
					<g>
						<path class="st20" d="M114.7,82c-0.1,2.4,2.4,4.4,5.5,4.4c3.1,0,5.6-1.9,5.7-4.2c0.1-2.4-2.4-4.4-5.5-4.4
							C117.3,77.7,114.8,79.6,114.7,82z"/>
						<path class="st21" d="M116.4,82c-0.1,1.7,1.7,3,3.8,3.1c2.1,0,3.9-1.3,4-3c0-1.7-1.7-3.1-3.8-3.1
							C118.2,79.1,116.4,80.4,116.4,82z"/>
					</g>
					<path class="st22" d="M126.1,85.1c-2.6,0.9-4.6,0.9-7.8,0.8c-3.3-0.1-6.4-0.9-6.4-0.9l2.3,1.1c6.5,2.9,12.3,0.3,13.8-0.8
						c1.5-1.1,3.1-3.3,3.1-3.3S128.6,84.2,126.1,85.1z"/>
					<path class="st15" d="M110.5,82.8c0,0,1.5-5.2,6.1-7.1c3.9-1.6,7.3-1,10,0.2c2.8,1.3,4.3,4.6,4.3,4.6s-3.7-2.5-8-2.7
						C118.6,77.4,113.7,80.1,110.5,82.8z"/>
					<path class="st23" d="M110.3,83.3c0,0,2.5-5.3,6.3-7c3.9-1.7,7.3-1,10,0.2c2.8,1.3,4.8,4.6,4.8,4.6s-4.1-2.5-8.5-2.7
						C118.6,78,113.4,80.6,110.3,83.3z"/>
					<path class="st24" d="M133,81.1c0,0-5.3-3.7-11.8-3.4c-5.6,0.3-10.9,5.5-10.9,5.5s7.2-4.4,11.6-4.3c3.6,0.1,9.2,3.4,9.2,3.4
						L133,81.1z"/>
				</g>
			</g>
		</g>
		<path class="st25" d="M61.5,79.9c0,0-10.5-11.9-5.6-18.6c7.7-10.5,13.7-13.1,24.7-16.7c11-3.6,29.8-5.2,29.8-5.2
			s2.3,2.2-14.1,10.4c-16.4,8.2-29.5,13.2-32.3,19C61.5,73.8,61.5,79.9,61.5,79.9z"/>
		<path class="st7" d="M46.3,267.3c-14.2-1.4-27.6-6.7-27.9-21.5c-0.4-14.7,4.8-18.9,5.7-24.7c0.6-3.9,1.5-11.4,1.5-11.4
			s25.7-4.9,39.2,1.7c13.6,6.5,21.7,11.4,22.6,22.4C90.2,249.3,70.3,268.4,46.3,267.3z"/>
		<path class="st7" d="M151.4,267.3c14.1-1.4,27.5-6.7,27.9-21.5c0.4-14.7-4.8-18.9-5.7-24.7c-0.6-3.9-1.5-11.4-1.5-11.4
			s-25.7-4.9-39.2,1.7c-13.6,6.5-21.7,11.4-22.6,22.4C107.5,249.3,127.4,268.4,151.4,267.3z"/>
		<path class="st26" d="M182.2,273.3l35.8-25.6c0,0,5.4-68.4-15.4-77.2c-6.4-2.7-54.7-19.3-54.7-19.3l-15.8-6.1
			c0,0-7.6,7.8-14.7,10.3c-4.8,1.7-13.9,27.6-20.3,37c-5.8-9.5-12.6-35.6-16.5-37c-7.1-2.5-14.2-9.9-14.2-9.9l-16.3,5.7
			c0,0-48.6,17.4-55,20.1c-20.8,8.9-15.4,74.5-15.4,74.5l36.1,27.5l3.9-20.3c0,0,0.5,28,0.5,35.4c0,7.4-6.4,70.1-6.4,70.1l85.1-0.5
			l85.1,0.5c0,0-6.4-62.6-6.4-70.1c0-7.4,0.5-35.4,0.5-35.4L182.2,273.3z"/>
		<g>
			<g>
				<path class="st27" d="M251.3,407.1c0,0-12.1-51.1-26.8-111c-6.8-27.7-2.4-51.7-2.4-77c0-25.2,0.6-40.6-23.5-52.8
					c-20.2-10.2-54.3-15.9-54.3-15.9s-2.6,96.4-8.7,112c-9.8,25.2,27.3,145.1,27.3,145.1H204c0,0-2.8-13.1-7.4-27.6
					c-8.6-27.6-22.5-66.5-21.6-73.6c1.4-10.9,5.5-35.4,5.5-35.4s0.3,31.5,0.6,44.8c0.3,13.4,30,91.3,30,91.3H251.3z"/>
			</g>
			<line class="st28" x1="141.3" y1="292.7" x2="153.2" y2="291.4"/>
			<line class="st28" x1="145.4" y1="323.6" x2="157.2" y2="322.1"/>
			<polygon class="st29" points="180.5,268 181.6,241 179.2,275.2 			"/>
		</g>
		<g>
			<g>
				<g>
					<g>
						<path class="st27" d="M-54,407.1c0,0,12.1-51.1,26.8-111c6.8-27.7,2.5-51.7,2.5-77c0-25.2-0.6-40.6,23.5-52.8
							c20.2-10.2,54.3-15.9,54.3-15.9s2.6,96.4,8.7,112c9.8,25.2-27.3,145.1-27.3,145.1H-6.6c0,0,2.8-13.1,7.4-27.6
							c8.6-27.6,22.5-66.5,21.6-73.6C21,295.5,16.9,271,16.9,271s-0.3,31.5-0.6,44.8c-0.3,13.4-30,91.3-30,91.3H-54z"/>
					</g>
				</g>
				<polygon class="st29" points="16.9,268 15.7,241 18.1,275.2 				"/>
			</g>
			<path class="st29" d="M53.8,291.2c0,2.5-2.6,4.6-5.9,4.6c-3.3,0-5.9-2.1-5.9-4.6c0-2.5,2.6-4.6,5.9-4.6
				C51.2,286.6,53.8,288.7,53.8,291.2z"/>
			<path class="st29" d="M48.3,320.9c0,2.5-2.6,4.6-5.9,4.6c-3.3,0-5.9-2.1-5.9-4.6c0-2.5,2.6-4.6,5.9-4.6
				C45.7,316.3,48.3,318.4,48.3,320.9z"/>
		</g>
	</g>
</g>
</svg>
