<?xml version="1.0" encoding="utf-8"?>
<!-- Generator: Adobe Illustrator 23.0.4, SVG Export Plug-In . SVG Version: 6.00 Build 0)  -->
<svg version="1.0" id="Layer_1" xmlns="http://www.w3.org/2000/svg" xmlns:xlink="http://www.w3.org/1999/xlink" x="0px" y="0px"
	 viewBox="0 0 200 200" style="enable-background:new 0 0 200 200;" xml:space="preserve">
<style type="text/css">
	.st0{clip-path:url(#SVGID_2_);}
	.st1{fill:#DCA58E;}
	.st2{fill:#151616;}
	.st3{fill:#323C3D;}
	.st4{fill:none;stroke:#1E1E1E;stroke-width:0.2551;stroke-linecap:round;stroke-linejoin:round;}
	.st5{fill:#3E4849;}
	.st6{fill:#676A7A;}
	.st7{fill:#E1A98E;}
	.st8{fill:#DCAB8B;}
	.st9{fill:#999BA8;}
	.st10{fill:#FAFCFA;}
	.st11{fill:#D0DCDF;}
	.st12{fill:#F8F8F8;}
	.st13{fill:#747788;}
	.st14{fill:#313638;}
	.st15{fill:#232728;}
	.st16{fill:#2C3039;}
	.st17{fill:#1F2328;}
	.st18{fill:#444647;}
	.st19{fill:#222526;}
	.st20{fill:#A9ABB4;}
	.st21{fill:#DCA48D;}
	.st22{fill:#EAB8A3;}
	.st23{fill:#D29B8B;}
	.st24{fill:#A95B26;}
	.st25{fill:#BB8181;}
	.st26{fill:#A97171;}
	.st27{fill:#CD9696;}
	.st28{fill:#FFFFFF;}
	.st29{fill:#2A2432;}
	.st30{fill:#15776B;}
	.st31{fill:#1C1C1C;}
	.st32{fill:#AE796D;}
	.st33{fill:#E1AF9E;}
	.st34{fill:#C09080;}
	.st35{fill:#7A4A46;}
	.st36{fill:#163C51;}
	.st37{opacity:0.25;}
	.st38{fill:#33302D;}
</style>
<g>
	<defs>
		<rect id="SVGID_1_" width="200" height="200"/>
	</defs>
	<use xlink:href="#SVGID_1_"  style="overflow:visible;fill:#F1E8E8;"/>
	<clipPath id="SVGID_2_">
		<use xlink:href="#SVGID_1_"  style="overflow:visible;"/>
	</clipPath>
	<g class="st0">
		<g>
			<path class="st1" d="M97,457.7l9.6-72.2c0,0-11.7,0.4-48.7-1.3c-37-1.7-47.8-8.7-47.8-8.7S6.7,398,4.3,428.6
				C-4.5,545,20.6,609.3,16.4,635.4c-1.3,8.2-10.4,49.9-11.7,62C3.6,708.1,15,778.1,15,786.9s-16.2,27.7-16.2,27.7l3.9,9.6h51.2
				l2.4-9.6c0,0-10.1-22.9-10.1-27C46.1,781,69,711,69,687.9c0-23.1-7-38.6,2.3-59.1C79,611.6,97,457.7,97,457.7z"/>
			<path class="st1" d="M98.3,457.7l-9.6-72.2c0,0,11.7,0.4,48.7-1.3c37-1.7,47.8-8.7,47.8-8.7s3.4,22.5,5.7,53.1
				c8.9,116.5-16.3,180.8-12.1,206.8c1.3,8.2,10.4,49.9,11.7,62c1.1,10.7-10.2,80.7-10.2,89.5s16.2,27.7,16.2,27.7l-3.9,9.6h-51.2
				l-2.4-9.6c0,0,10.1-22.9,10.1-27c0-6.6-22.9-76.6-22.9-99.7c0-23.1,7-38.6-2.3-59.1C116.2,611.6,98.3,457.7,98.3,457.7z"/>
		</g>
		<g>
			<g>
				<path class="st2" d="M-3.3,813.8c0,0,0.1,6.4,0.4,7.5c0.3,1.2,7.8,10.7,17.8,13.7c12.5,3.8,18.4,2.5,26.5-0.3
					c9.7-3.4,16.2-12,16.5-13.2c0.4-1.2,0.1-7.8,0.1-7.8H-3.3z"/>
				<g>
					<path class="st3" d="M54.2,805.7c-5.2-7-4.3-12.9-4.3-12.9s-10-2.2-22.3-1.8c-12.3-0.4-16.4,1.8-16.4,1.8s-3.2,5.8-8.5,12.8
						c-5.2,6.7-6,8.2-6,8.2c2.8,9.6,19.8,16.1,29.5,16.1c11.4,0.7,28.9-5.5,31.7-15.1C57.8,814.8,59.3,812.4,54.2,805.7z"/>
				</g>
				<polyline class="st4" points="11.7,795 47,798.4 10.9,802.1 48.7,806.3 10.3,806.6 48,802.3 11.8,797.6 46.3,794.2 				"/>
			</g>
			<g>
				<path class="st2" d="M198.7,813.8c0,0-0.1,6.4-0.4,7.5c-0.3,1.2-7.8,10.7-17.8,13.7c-12.6,3.8-18.4,2.5-26.5-0.3
					c-9.7-3.4-16.2-12-16.5-13.2c-0.4-1.2-0.1-7.8-0.1-7.8H198.7z"/>
				<g>
					<g>
						<g>
							<path class="st3" d="M141.1,805.7c5.2-7,4.4-12.9,4.4-12.9s10-2.2,22.3-1.8c12.3-0.4,16.4,1.8,16.4,1.8s3.2,5.8,8.5,12.8
								c5.2,6.7,6,8.2,6,8.2c-2.8,9.6-20,16.1-29.6,16.1c-11.4,0.7-28.7-5.5-31.5-15.1C137.6,814.8,136.1,812.4,141.1,805.7z"/>
						</g>
					</g>
				</g>
				<polyline class="st4" points="183.7,795 148.4,798.4 184.5,802.1 146.7,806.3 185,806.6 147.3,802.3 183.6,797.6 149,794.2 				
					"/>
			</g>
			<path class="st5" d="M44.6,815.6c0,3-7.7,5.5-17.2,5.5c-9.5,0-17.2-2.4-17.2-5.5c0-3,7.7-5.5,17.2-5.5
				C36.8,810.2,44.6,812.6,44.6,815.6z"/>
			<path class="st5" d="M185.2,815.6c0,3-7.7,5.5-17.2,5.5c-9.5,0-17.2-2.4-17.2-5.5c0-3,7.7-5.5,17.2-5.5
				C177.5,810.2,185.2,812.6,185.2,815.6z"/>
		</g>
		<path class="st6" d="M57.9,133.7c0,0,11.1,5.9,16.5,6.2c5.5,0.3,39.8,0.6,43-0.1c3.1-0.7,21.6-6.1,21.6-6.1s-6.5,22.8-11,25.7
			c-4.5,2.9-64.5,0.6-64.5,0.6S57,147.4,57.9,133.7z"/>
		<path class="st1" d="M213.6,176.4c-27.8-13.4-77.7-33.1-79.1-35.3c-1.4-2.2,0-23.9,0-23.9H60.8c0,0,1.4,21.7,0,23.9
			c-1.4,2.2-48.8,21.9-79.1,35.2c-20.6,9,16,82.4,16,82.4s12.9,68.2,13.3,72.2c1.2,12-1.3,49.1-1.3,49.1s0.4,3.3,16.8,6.1
			c16.4,2.8,53.1,4.5,71.1,4.4c18-0.1,54.7-1.6,71.1-4.4c16.4-2.8,16.7-6.1,16.7-6.1s-2.4-37.1-1.2-49.1
			c0.4-4.1,13.3-72.2,13.3-72.2S233.6,186,213.6,176.4z"/>
		<g>
			<path class="st7" d="M-56,246l-5,63.9c-4.4,24.1,10.5,114.6,10.5,114.6l30.3-2.4l22-163.8v-90.7c0,0-34.1,12.3-44.7,23.3
				C-59.3,207.9-56,246-56,246z"/>
			<path class="st8" d="M-32.2,500.1c-3.3-3.4-26.6-26.4-27.4-31.3c-1.2-6.9,9.1-44.3,9.1-44.3l30.3-2.4c0,0,6.9,18.9,7.7,21.5
				c0.8,2.7,0,32.4-0.1,33.9c-0.1,1.5-10.2,1.1-10.6-1.1c-0.4-2.2-5.2-18.8-5.2-18.8l0,0l-1.7,17.4c0,0,10.4,14.4,11.7,16.5
				C-17.5,493.1-28.9,503.5-32.2,500.1z"/>
		</g>
		<g>
			<path class="st7" d="M251.5,246l5,63.9C260.8,334,246,424.5,246,424.5l-30.2-2.4l-22-163.8v-90.7c0,0,34.1,12.3,44.7,23.3
				C254.8,207.9,251.5,246,251.5,246z"/>
			<path class="st8" d="M227.7,500.1c3.3-3.4,26.6-26.4,27.4-31.3c1.2-6.9-9.1-44.3-9.1-44.3l-30.2-2.4c0,0-6.9,18.9-7.7,21.5
				c-0.8,2.7,0,32.4,0.1,33.9c0.1,1.5,10.2,1.1,10.6-1.1c0.4-2.2,5.2-18.8,5.2-18.8l0,0l1.7,17.4c0,0-10.4,14.4-11.7,16.5
				C213.1,493.1,224.4,503.5,227.7,500.1z"/>
		</g>
		<g>
			<g>
				<g>
					<path class="st9" d="M115,170.1l-10,2.7H90.3l-30.7-8.1L44.5,145c0,0-77.9,28.9-92.1,43.6c-10.7,11.1-13.4,42.4-16.1,97
						c-2.8,57.5,4.7,141,4.7,141h42.2L1,281.3L4.3,310l-0.7,78.1l91.4,24H115V170.1z"/>
				</g>
				<g>
					<path class="st9" d="M80.9,170.1l10,2.7h14.6l30.7-8.1l13.4-19.8c0,0,79.6,28.9,93.8,43.6c10.7,11.1,13.4,42.4,16.1,97
						c2.8,57.5-4.7,141-4.7,141h-42.2l-17.3-148.7l-3.9,32.2l-2.7,77.8l-88,24.4H80.9V170.1z"/>
				</g>
			</g>
		</g>
		<polygon class="st10" points="89.5,412.2 105.5,412.4 105.7,172.9 90.9,172.9 		"/>
		<g>
			<path class="st11" d="M101.6,204.4c0,1.8-1.9,3.3-4.2,3.3c-2.3,0-4.2-1.5-4.2-3.3c0-1.8,1.9-3.3,4.2-3.3
				C99.7,201.1,101.6,202.6,101.6,204.4z"/>
			<path class="st11" d="M101.6,181.6c0,1.8-1.9,3.3-4.2,3.3c-2.3,0-4.2-1.5-4.2-3.3c0-1.8,1.9-3.3,4.2-3.3
				C99.7,178.4,101.6,179.8,101.6,181.6z"/>
			<path class="st11" d="M101.6,234.3c0,1.8-1.9,3.3-4.2,3.3c-2.3,0-4.2-1.5-4.2-3.3c0-1.8,1.9-3.3,4.2-3.3
				C99.7,231,101.6,232.5,101.6,234.3z"/>
			<path class="st11" d="M101.6,260c0,1.8-1.9,3.3-4.2,3.3c-2.3,0-4.2-1.5-4.2-3.3c0-1.8,1.9-3.3,4.2-3.3
				C99.7,256.7,101.6,258.2,101.6,260z"/>
			<path class="st11" d="M101.6,288c0,1.8-1.9,3.3-4.2,3.3c-2.3,0-4.2-1.5-4.2-3.3c0-1.8,1.9-3.3,4.2-3.3
				C99.7,284.7,101.6,286.2,101.6,288z"/>
			<path class="st11" d="M101.6,315.2c0,1.8-1.9,3.3-4.2,3.3c-2.3,0-4.2-1.5-4.2-3.3c0-1.8,1.9-3.3,4.2-3.3
				C99.7,312,101.6,313.4,101.6,315.2z"/>
			<path class="st11" d="M101.6,341.5c0,1.8-1.9,3.3-4.2,3.3c-2.3,0-4.2-1.5-4.2-3.3c0-1.8,1.9-3.3,4.2-3.3
				C99.7,338.2,101.6,339.7,101.6,341.5z"/>
			<path class="st11" d="M101.6,368.8c0,1.8-1.9,3.3-4.2,3.3c-2.3,0-4.2-1.5-4.2-3.3c0-1.8,1.9-3.3,4.2-3.3
				C99.7,365.5,101.6,367,101.6,368.8z"/>
		</g>
		<g>
			<path class="st12" d="M101.6,203.4c0,1.8-1.9,3.3-4.2,3.3c-2.3,0-4.2-1.5-4.2-3.3c0-1.8,1.9-3.3,4.2-3.3
				C99.7,200.1,101.6,201.5,101.6,203.4z"/>
			<path class="st12" d="M101.6,180.6c0,1.8-1.9,3.3-4.2,3.3c-2.3,0-4.2-1.5-4.2-3.3c0-1.8,1.9-3.3,4.2-3.3
				C99.7,177.3,101.6,178.8,101.6,180.6z"/>
			<path class="st12" d="M101.6,233.3c0,1.8-1.9,3.3-4.2,3.3c-2.3,0-4.2-1.5-4.2-3.3c0-1.8,1.9-3.3,4.2-3.3
				C99.7,230,101.6,231.5,101.6,233.3z"/>
			<path class="st12" d="M101.6,258.9c0,1.8-1.9,3.3-4.2,3.3c-2.3,0-4.2-1.5-4.2-3.3c0-1.8,1.9-3.3,4.2-3.3
				C99.7,255.7,101.6,257.1,101.6,258.9z"/>
			<path class="st12" d="M101.6,287c0,1.8-1.9,3.3-4.2,3.3c-2.3,0-4.2-1.5-4.2-3.3c0-1.8,1.9-3.3,4.2-3.3
				C99.7,283.7,101.6,285.2,101.6,287z"/>
			<path class="st12" d="M101.6,314.2c0,1.8-1.9,3.3-4.2,3.3c-2.3,0-4.2-1.5-4.2-3.3c0-1.8,1.9-3.3,4.2-3.3
				C99.7,310.9,101.6,312.4,101.6,314.2z"/>
			<path class="st12" d="M101.6,340.5c0,1.8-1.9,3.3-4.2,3.3c-2.3,0-4.2-1.5-4.2-3.3c0-1.8,1.9-3.3,4.2-3.3
				C99.7,337.2,101.6,338.7,101.6,340.5z"/>
			<path class="st12" d="M101.6,367.7c0,1.8-1.9,3.3-4.2,3.3c-2.3,0-4.2-1.5-4.2-3.3c0-1.8,1.9-3.3,4.2-3.3
				C99.7,364.5,101.6,365.9,101.6,367.7z"/>
		</g>
		<g>
			<polygon class="st13" points="72.6,187.3 90.9,172.9 86.9,181.5 			"/>
			<polygon class="st13" points="122.8,187.8 105.7,172.9 109,181.7 			"/>
		</g>
		<g>
			<g>
				<g>
					<polygon class="st14" points="194.4,402.7 191,376.1 4.5,376.1 1,402.7 -2.3,801.2 60.9,801.3 97.1,476.8 134.5,801.3 
						196.9,801.2 					"/>
				</g>
				<g>
					<polygon class="st15" points="190.9,375.4 193.9,398.3 196.9,801.2 169.9,376.1 					"/>
				</g>
			</g>
		</g>
		<g>
			<path class="st16" d="M117.8,227.8c-1-8-11.2-31.8-11.2-31.8h-7.9h-8.5c0,0-9.6,23.8-10.6,31.8c-1,8-1.2,106-1.2,106l20,21.8
				l20.6-21.8C119.1,333.8,118.8,235.8,117.8,227.8z"/>
			<path class="st17" d="M89.7,195.9c0.6,0.3,17.6,0,17.6,0s14.5-21.9,13.4-22.7c-1.1-0.8-44.7,0-44.7,0S88.7,195.4,89.7,195.9z"/>
		</g>
		<g>
			<g>
				<g>
					<g>
						<path class="st18" d="M94.5,236.6L93.1,380l30,17.3l70.6-18c0,0-1.6-76.3,4.8-131.7s16.2-77.6,16.2-77.6l-65.5-26.5
							C149.3,143.5,151,198.4,94.5,236.6z"/>
					</g>
					<g>
						<path class="st19" d="M97.7,236.3v145.1l-25.8,15.9L1.7,377.8c0,0,2.8-76.4-3.6-131.9s-12.2-77.7-12.2-77.7l59.3-24.7
							C45.2,143.5,41.2,198.1,97.7,236.3z"/>
					</g>
				</g>
			</g>
			<polygon points="91.3,250.9 99.1,248.9 101.6,255 93.8,257 			"/>
			<polygon points="91.3,284 99.1,282.1 101.6,288.2 93.8,290.1 			"/>
			<polygon points="91.3,313.9 99.1,312 101.6,318.1 93.8,320 			"/>
			<polygon points="91.3,349.5 99.1,347.5 101.6,353.6 93.8,355.6 			"/>
		</g>
		<path class="st20" d="M90.9,172.9l-18.3,14.4c0,0-18.8-11.6-26-25.4c-7.2-13.9-3.2-18.6-3.2-18.6l14.5-9.5c0,0-0.3,17,5.3,22.8
			C68.7,162.4,90.9,172.9,90.9,172.9z"/>
		<path class="st20" d="M105.7,172.9l17.2,14.9c0,0,16.6-11.9,23.8-25.8c7.3-13.9,6.9-18.2,6.9-18.2l-14.6-10.2
			c0,0-5.2,17-10.2,23.2C116.5,171.6,105.7,172.9,105.7,172.9z"/>
		<path class="st21" d="M52.1,87.1c0,0-1.7-2.1-4.6-1.6c-2.9,0.5-1.7,15-1.7,16.6c0,3.3,9.3,9.7,9.3,9.7L52.1,87.1z"/>
		<path class="st21" d="M144.9,87.1c0,0,1.7-2.1,4.6-1.6c2.9,0.5,1.7,15,1.7,16.6c0,3.3-9.3,9.7-9.3,9.7L144.9,87.1z"/>
		<path class="st22" d="M89.8,32.9c7.1-0.4,10.2-0.4,17.3,0c16.8,1,41.8,18.7,39.8,38.3c-0.6,5.7-4.3,42.2-5.7,44.3
			c-1.4,2.1-21.5,20.2-25.1,22.9c-3.6,2.8-17.6,3.2-17.6,3.2s-14-0.4-17.6-3.2c-3.6-2.8-23.7-20.8-25.1-22.9
			c-1.4-2.1-5.2-38.6-5.7-44.3C48,51.6,73,33.9,89.8,32.9z"/>
		<path class="st23" d="M102.6,85.2l1.4,12.3c0,0,1.1,2.4,2.5,3.2c1.1,0.6,1.4,0.9,1.4,0.9L102.6,85.2z"/>
		<g>
			<path class="st24" d="M133.2,120.3c-1.4,2.8-28.2,10.1-28.2,10.1l-1.6-5.8l-4.6,0.2l-5-0.2l-1.7,5.9c0,0-28.9-8.8-30.1-11.3
				c-1.2-2.4-9.8-25.8-9.8-25.8s3.3,24.7,3.5,26.2c0.2,1.4,18.1,22.8,35.9,26.2c3.6,0.7,11,1.2,14.6,0.5
				c16.9-3.2,34.6-24.9,35.5-26.7c0.9-1.8,3-26.6,3-26.6S134.4,117.9,133.2,120.3z"/>
		</g>
		<g>
			<g>
				<path class="st25" d="M80.8,117.8c0,0,7.7-1.6,9.9-1.8c2.2-0.3,6.7,0.7,7.4,0.7c0.6,0,0.1,2.6,0.1,2.6S87.5,120,80.8,117.8z"/>
				<path class="st26" d="M115.5,117.8c0,0-7.6-1.6-9.8-1.8c-2.1-0.3-6.9,0.7-7.5,0.7s-0.1,2.6-0.1,2.6S108.8,120,115.5,117.8z"/>
				<path class="st27" d="M115.5,117.8c-0.4,0.2-13.7,1.2-17.3,1.4c-3.4-0.3-16.9-1.3-17.3-1.4c0,0,8,5.6,12.3,6.2
					c1.8,0.3,4.5,0.5,5,0.5c0.5,0,3.3-0.2,5-0.5C107.4,123.4,115.5,117.8,115.5,117.8z"/>
			</g>
			<g>
				<path class="st28" d="M67,87.7c0,0,4.9-3.5,7.2-3.8c2.2-0.3,6.9-0.5,9.8,0.7c3.2,1.3,5.7,4.4,5.7,4.4s-4.2,2-10.4,2.1
					C72.8,91.1,69.6,89.7,67,87.7z"/>
				<path class="st23" d="M89.8,89.2c0,0,4.7-4.5,2.6-8.1c-2.1-3.7-9.9-3.5-16.3-4.3C68.8,75.7,62,78.6,62,79c0,0.4,0.9,4,1.8,5.9
					C65,87.1,66,87,66,87s4.8-1.8,6.1-2.3c1.3-0.5,5.2-1.2,7.6-1.3C86.2,83.2,89.8,89.2,89.8,89.2z"/>
				<path class="st29" d="M62,78.9c0,0,3.4-5.5,7.2-5.6c3.8-0.1,20.3,1.5,20.9,2.2c0.6,0.7,2.5,5.4,2,5.1c-1.4-1-14.9-4.1-18.2-4
					C70.6,76.6,67.1,76.7,62,78.9z"/>
				<g>
					<path class="st30" d="M83.6,87.3c0,2.1-2.4,3.8-5.3,3.8c-2.9,0-5.3-1.7-5.3-3.8c0-2.1,2.4-3.8,5.3-3.8
						C81.2,83.5,83.6,85.2,83.6,87.3z"/>
					<path class="st31" d="M81.5,87.3c0,1.4-1.5,2.5-3.2,2.5c-1.8,0-3.2-1.1-3.2-2.5c0-1.4,1.4-2.5,3.2-2.5
						C80.1,84.8,81.5,85.9,81.5,87.3z"/>
				</g>
				<path class="st32" d="M66.8,87.6c0,0,6.1,3,9.3,3.4c5.4,0.7,13.3-1.8,13.3-1.8s-8.5,3.3-11.8,3.3C74.3,92.5,69.5,91.5,66.8,87.6
					z"/>
				<path class="st33" d="M65.6,86.9c0,0,3-3.6,5.1-4.7c3.9-2.2,12.3-1.6,15.2,1.2c3.7,3.7,3.8,5.6,3.8,5.6s-5.7-5.5-10-5.6
					C75.3,83.2,67.6,85.7,65.6,86.9z"/>
				<path class="st29" d="M64.9,86.5c0,0,8.7-3.8,11.6-4c4.6-0.2,9.8,2,11.6,4.4c1.8,2.3,1.8,2.3,1.8,2.3s-4.1-4.9-9-5.3
					c-6.4-0.6-14.1,3.7-14.1,3.7L64.9,86.5z"/>
			</g>
			<g>
				<path class="st34" d="M108.1,105.1c-0.7-0.2-6.2,0.9-8.6,0.9c-0.9,0-1.5,0-2,0c-0.5,0-1.1,0-2,0c-2.4,0-7.9-1.1-8.6-0.9
					c-0.7,0.2,0.7,1.3,0.7,1.3c1.8,0.8,6.2,1.6,8.8,2h2.2c2.7-0.4,7-1.1,8.8-2C107.4,106.4,108.7,105.3,108.1,105.1z"/>
				<path class="st35" d="M93.2,107.2c-1.1-0.3-3.2-0.4-3.6-1.1c-0.5-0.6,3.5,0.1,5.1,0.7C96.3,107.3,94.3,107.4,93.2,107.2z"/>
				<path class="st35" d="M102.1,107.2c1.1-0.3,3.2-0.4,3.6-1.1c0.5-0.6-3.5,0.1-5.1,0.7C99,107.3,101,107.4,102.1,107.2z"/>
			</g>
			<g>
				<g>
					<path class="st28" d="M128.5,87.7c0,0-4.9-3.5-7.2-3.8c-2.2-0.3-6.9-0.5-9.8,0.7c-3.1,1.3-5.7,4.4-5.7,4.4s4.2,2,10.5,2.1
						C122.7,91.1,125.8,89.7,128.5,87.7z"/>
					<path class="st23" d="M105.7,89.2c0,0-4.7-4.5-2.6-8.1c2.1-3.7,9.9-3.5,16.3-4.3c7.2-1,14.1,1.9,14.1,2.2c0,0.4-0.9,4-1.8,5.9
						c-1.2,2.3-2.1,2.2-2.1,2.2s-4.8-1.8-6.1-2.3c-1.3-0.5-5.2-1.2-7.6-1.3C109.3,83.2,105.7,89.2,105.7,89.2z"/>
					<path class="st29" d="M133.5,78.9c0,0-3.4-5.5-7.2-5.6c-3.7-0.1-20.3,1.5-20.9,2.2c-0.6,0.7-2.5,5.4-2,5.1
						c1.4-1,14.9-4.1,18.2-4C124.9,76.6,128.4,76.7,133.5,78.9z"/>
					<g>
						<path class="st30" d="M111.9,87.3c0,2.1,2.4,3.8,5.3,3.8c2.9,0,5.3-1.7,5.3-3.8c0-2.1-2.4-3.8-5.3-3.8
							C114.3,83.5,111.9,85.2,111.9,87.3z"/>
						<path class="st31" d="M113.9,87.3c0,1.4,1.5,2.5,3.2,2.5c1.8,0,3.2-1.1,3.2-2.5c0-1.4-1.5-2.5-3.2-2.5
							C115.4,84.8,113.9,85.9,113.9,87.3z"/>
					</g>
					<path class="st32" d="M128.7,87.6c0,0-6.1,3-9.3,3.4c-5.4,0.7-13.3-1.8-13.3-1.8s8.5,3.3,11.8,3.3
						C121.2,92.5,126,91.5,128.7,87.6z"/>
					<path class="st33" d="M129.9,86.9c0,0-3-3.6-5.1-4.7c-3.9-2.2-12.3-1.6-15.2,1.2c-3.7,3.7-3.8,5.6-3.8,5.6s5.7-5.5,10-5.6
						C120.2,83.2,127.9,85.7,129.9,86.9z"/>
					<path class="st29" d="M130.6,86.5c0,0-8.7-3.8-11.6-4c-4.6-0.2-9.8,2-11.6,4.4c-1.8,2.3-1.8,2.3-1.8,2.3s4.1-4.9,9-5.3
						c6.4-0.6,14.1,3.7,14.1,3.7L130.6,86.5z"/>
				</g>
			</g>
		</g>
		<polygon class="st36" points="141.3,76.9 149,79.3 148.7,83.8 141.7,84.1 		"/>
		<polygon class="st36" points="55.9,76.8 48.3,79.2 48.6,83.7 55.5,84.1 		"/>
		<g class="st37">
			<path class="st28" d="M135.4,80.5c-1.4-1.8-9.6-3-19.9-3c-4.7,0-7.6,0.7-9.3,2.1c-1.9,1.6-1.8,3.9-1.4,6.4
				c0.6,4.5,6,10.9,9.8,11.3c1.5,0.2,5,0.4,8.3,0.4c2.1,0,4-0.1,5.4-0.3c5.1-0.7,6.3-4.1,7.1-6.5C136.4,88.2,136.8,82.2,135.4,80.5z
				"/>
			<path class="st28" d="M81.3,77.5c-10.3,0-18.5,1.2-19.9,3c-1.3,1.7-1,7.7,0,10.4c0.9,2.6,2.1,5.8,7.1,6.5
				c1.4,0.2,3.2,0.3,5.4,0.3c3.4,0,6.8-0.3,8.3-0.4c3.7-0.4,9.2-6.7,9.8-11.3c0.3-2.6,0.4-4.8-1.5-6.4C89,78.2,86,77.5,81.3,77.5z"
				/>
		</g>
		<path class="st38" d="M141.3,78.5c0,0-10.4-2.2-16.4-2.1c-6,0.1-14.7,0.4-18,1c-2.2,0.4-5.5,0.4-7.4,0.4v0c0,0-0.3,0-0.8,0
			c-0.5,0-0.8,0-0.8,0v0c-1.9,0-5.2,0-7.4-0.4c-3.4-0.6-12-0.9-18-1c-6-0.1-16.4,2.1-16.4,2.1s-0.5,6.6-0.4,7.2
			c0.1,0.6,1.7,1.7,3.4,7.3c1.7,5.5,6.4,7.1,6.4,7.1c15.6,2.6,20.2-0.2,24.4-3.3c4.2-3.1,7.1-14.1,7.1-14.1l1.8-0.1l1.8,0.1
			c0,0,2.8,11,7.1,14.1c4.2,3.1,8.8,5.9,24.4,3.3c0,0,4.7-1.6,6.4-7.1c1.7-5.5,3.3-6.7,3.4-7.3C141.8,85.1,141.3,78.5,141.3,78.5z
			 M91.6,87.3c-0.5,4.3-5.9,10.4-9.2,10.8c-1.9,0.2-9,0.8-13.5,0.1c-4.4-0.7-5.6-3.4-6.6-6.1c-1-2.7-1.2-8.5-0.1-10
			c1.2-1.4,8.7-2.7,19.3-2.7C92.1,79.4,92.1,83,91.6,87.3z M134.9,92.1c-1,2.7-2.1,5.5-6.6,6.1c-4.4,0.7-11.6,0.1-13.5-0.1
			c-3.3-0.4-8.6-6.4-9.2-10.8c-0.5-4.3-0.5-7.9,10-7.9c10.6,0,18.2,1.3,19.3,2.7C136.2,83.5,136,89.3,134.9,92.1z"/>
		<path class="st24" d="M151.4,47.8C140.9,24.3,108,22.6,98.8,22.6c-0.2,0-0.8,0-0.9,0c-9.2,0-42.1,1.7-52.6,25.2
			c-5.9,13.2,0.6,34.5,1.1,37.3c0.1,0.6,4.4-0.7,4.9,2.1c0.8,4.9,1.4,9.9,1.4,9.9l2.5-6.5c0,0,3.5-33.9,7.3-37.5
			c3.8-3.6,23-3.8,31,1.2c7.7,4.9,39.2,5.1,43,8.7c3.8,3.6,5.1,27.6,5.1,27.6l2.7,6.3c0,0,0.5-4.6,1.2-9.6c0.5-3.5,4.8-1,5-1.4
			C151.9,83.1,157.3,61,151.4,47.8z"/>
	</g>
</g>
</svg>
